<svg id="Layer_1" data-name="Layer 1" xmlns="http://www.w3.org/2000/svg" viewBox="0 0 512 512"><defs><style>.cls-1{fill:#707070;}</style></defs><title>document-add-handdrawn</title><path class="cls-1" d="M68.2,507.62c3.15.9,2.16,1.21-4-.72a65.58,65.58,0,0,1-14-6.52,73.69,73.69,0,0,1-33.57-46.46,77.3,77.3,0,0,1-1.83-14.84l-.13-12.61q-.08-12.45-.17-25.16c.17-9,.34-18.39.6-32.39,0-6.48,0-21.93,0-33.32-.15.05-.34-3.84-.46.91-.39,15.86-.58,11.55-.59-21.53,0-43-.32-88.87.16-128.37.1-7.91.29-17.06.41-15.5.72,9.44,1.44,21,2.15,33.6.31,5.41.38,18.77.34,43.64-.06,59.28-.13,119.46-.19,179.19,0,3.39,0,6.77,0,10.12a80.91,80.91,0,0,0,1,11.69,70.19,70.19,0,0,0,6.91,21.38,73.36,73.36,0,0,0,24.68,27.75A79.42,79.42,0,0,0,68.2,507.62ZM14.47,82.92l.15-9.06a75.22,75.22,0,0,1,1.07-10.81,69.54,69.54,0,0,1,6.72-20.58A73,73,0,0,1,51.66,11.55a70.63,70.63,0,0,1,20-7.78,72.36,72.36,0,0,1,10.6-1.61l5.34-.21c1.81-.06,3.06,0,4.62,0l8.76-.1-8.74.44,77.9.23,27.22-.17C238.28,1.78,220.16.76,169,.31L127.55.07,106.45,0H95.84c-3.67,0-6.67-.12-11.41.18A73.93,73.93,0,0,0,37.1,20.63a75.26,75.26,0,0,0-22.81,46c-.21,2.28-.29,4.58-.4,6.88s0,3.87-.05,5.85V90.73c0,7.6,0,15.23,0,22.8l.18,5ZM318.4,182.6a73.76,73.76,0,0,1-17.22-2.24A69.84,69.84,0,0,1,271,164.16c-7.12-6.49-9.89-10.94-11.44-12.41a99.85,99.85,0,0,1-8.36-10.49c-.36-.53,1,2.91,2.4,5.76,7.16,14.31,21.82,27.31,38.13,33.4A60.41,60.41,0,0,0,303,183.66c1.28.22.17-.2-2.86-1.18-1.81-.59-.25-.38-.24-.54a76.56,76.56,0,0,0,13,2.23c5.86.55,8.64.68,11.6.87l32.23-.65c1.66,0,3.52-.1,4.2-.17,7-.71-10.06-1.62-27.83-1.62ZM244.8,121.17a54.39,54.39,0,0,1-.4-7.16c-.08-2.56,0-4.5.09-6.4l.46-11.69.91-23.38-.09-2.87.44,2.87c.08-9.06.16-17.22.23-25.55,0-2.81-.07-6.77-.17-8.92-.6-13.42-1.61-7.48-2.05,9.29-.48,17.85-.25,37-.35,55.41,0,2.44,0,4.92,0,7.41.06,2.68.21,6,.47,9Zm212.95,362.6c-1.49,1.12-3,2.19-4.48,3.21C454.78,485.93,456.31,484.9,457.75,483.76Zm39.12-84a46.49,46.49,0,0,1,.38,10.14c-.15,1.37-.43.33-1-4.25-.24-2.09-.34.31-.54-.13a45.33,45.33,0,0,1-1.36-5.36,104.35,104.35,0,0,0-5-18.19,61.19,61.19,0,0,0-6.37-12.5c-2.2-3-3.57-4.48-2.89-2.88,1.73,4.84-5-8.22-19.32-20.52a87.89,87.89,0,0,0-26.91-15.65,31.75,31.75,0,0,0-5.85-1.65l-6.17-1.27c-2.72-.48-6-.78-9.49-1.27a111.3,111.3,0,0,0-20.22.5l-6,.79c-7.29,1.34-7.36,1-17.33,5.28l8.21-2.33c2.71-.55,5.33-.94,7.68-1.33,1.79-.3,1.44.07,2.07.14a87.79,87.79,0,0,0-19.52,6.38c-2.1,1.07-4.33,1.76-6.17,3-24.84,14-41.93,40.83-43.36,69.27l-.11,3.45a.93.93,0,0,0,.12-.34,85.4,85.4,0,0,1,27.37-60,86.93,86.93,0,0,1,16.73-12.3c3-1.63,5.62-2.75,7.67-3.74s3.77-1.34,4.95-1.72c2.37-.72,2.94-.68,2.23,0,3.55-1.28,6.84-2,9.9-2.86,3.13-.49,6-1.14,9.05-1.44a79.85,79.85,0,0,1,12.57-.29,87.48,87.48,0,0,1,50.39,19.17c4.48,3.8,10.28,9.36,14.26,15.17a86.42,86.42,0,0,1,14,29.45,67.49,67.49,0,0,1,2.47,17.76c0,3.41-.16,4.24-.59,2.62-.63-2.37-1.21-3.61-1.89-5.54-.73-8-2.32-13.08-2.34-11a83.52,83.52,0,0,0-29.93-47.64l1,.66c-2.27-1.71-4.37-3.62-6.79-5.17-16.17-10.85-36.29-15.18-55.54-13-2.53.43-5.2.73-7.58,1.25-9.78,2.2-12.26,3.82-11.16,3.59,2.11-.16-8.37,3.59-14.63,8.13-17,10.94-30.81,29.54-35.42,50.59a80.26,80.26,0,0,0,4.64,50.52c1.5,2.77,3,6.61,5.06,9.66a78.66,78.66,0,0,0,32.22,30.48c1.84.82,6.1,3.19,7.2,3.54a26.54,26.54,0,0,1,3.53,2.1A89.26,89.26,0,0,0,387.55,494a29.27,29.27,0,0,1-3.4-.55,88.62,88.62,0,0,0,45.74-2l1.17-.82a51.55,51.55,0,0,0,7.28-3l4.11-2,4.53-2.73-3.3,2.15c.36.16,2.2-.63.42.69a31.47,31.47,0,0,1-4.81,2.7l-3.54,1.78-3.63,1.37c-4.83,1.94-7.06,2.21-8.43,2.91-1,.66-7.73,2-12,2.7-10.67.95-7.18,1.32-7.84,1.86-.24.19.35.35.65.58.68-.08,3.7.05,9.12-.37a84.58,84.58,0,0,1-15.12.75l.9-.28a67,67,0,0,1-6.76-.53,92.54,92.54,0,0,1-20.49-4c-7.2-2.28,7.62,5.1,20.46,6.42a88.15,88.15,0,0,0,47.64-7.33,72.74,72.74,0,0,0,8.93-4.72c1.42-.79,2.79-1.67,4.15-2.59a89,89,0,0,1-24.37,12l.06.13a107.75,107.75,0,0,0,10.27-3.72,151.21,151.21,0,0,0,15-8c1.71-1.14,4-2.66,6.65-4.74,2.46-2.3,5.67-4.78,8.66-8.36a58.88,58.88,0,0,0,5.69-7,67.61,67.61,0,0,0,5.24-7.92,77.32,77.32,0,0,0,4.22-7.83c1.33-2.42,2.24-4.71,3-6.55,1.24-2.76.69-.27,1-.17a89.11,89.11,0,0,0,5.59-31.16,101.86,101.86,0,0,1,.68,15.57l1.08-6.43-1.24,9.91c-.4,2-.54,3.16-.65,4.17-.27,2-.08,3.71-2.83,11.31a102.15,102.15,0,0,0,4.85-14.91c-1,5.07-2.39,11.08-1.16,8.3,1.15-2.14-1.64,7.39-2.59,10.6-.42,1.28.94-1.1.8-.36a20,20,0,0,1-1.87,5.37c-3.89,7.67-5.25,11.85-14.5,22-.84.83-3,3.35-4.41,4.7A96,96,0,0,1,414,511.49a101.39,101.39,0,0,1-44.48-5.63c-.81-.29-1.59-.64-2.38-.94-1.53.27-3.08.48-4.63.63-1.73.17-4.89.31-8.33.41H343.28l-18.58.12c-16.28.27-30.35.59-39.38.93-8.64.32-21.17.47-43.1.37-25.82-.12-63.69.1-70.35-.6-3.24-.34-29.09-.63-43.07-1-4.52-.11-7-.27-4.88-.39l16.41-.63,135.75-.51,41.16-.23,21.64-.06c7.46-.18,14.91.41,24.4-.6-1.61-.71-3.19-1.49-4.76-2.29-2.57.2-5.14.31-7.63.28l-48.68.22L202.8,502l-81.1.2-20.27,0c-6.74,0-13.29.27-20.5-.43a64.22,64.22,0,0,1-55.08-48.39,68.57,68.57,0,0,1-1.64-9.21c-.14-3.08-.38-6.31-.31-9.12q0-8.71,0-17.36c0-11.54.07-23,.1-34.6,0-23.11,0-46.42,0-70.71,0-6.28.13-21.4.25-25,.22-6.83.48-8.29.76-12.48,0-9.26.07-20.25.12-33.3.07,2.94.12,5.35.24,10.58-.06-27.11-.11-50.17-.16-72.81s.16-44.57.25-69.34l-.37-4.22c0-7.71,0-15.46,0-24.22,0-2.19,0-4.44,0-6.77s.16-5,.46-7.55a65.39,65.39,0,0,1,4.21-16.43C26,61.36,26.12,66.17,26.42,63c.33-.72,2.18-6.71.81.07-1.52,5.58-.67,26.18-.81,40.78,0,15.73,0,22.44.29,27,.2,3.31.34,24.06.51,37.13.41,32.1,1,21.54,1.47,23.56.18.71.36-1,.61-1.9,0-2,.1-10.81.23-26.68.13,17.2.22,29.13.34,44.15l-.32-2.57c0,6.79,0,17.06,0,19.8.4,21.27.83,44.51,1.13,60.55.55,21.39,1.23-25.2,1.29-61.32,0-45.64,0-92.3.05-138.51-.05-9.73-.24-18.55,2.55-27.2a58,58,0,0,1,4.18-9.56A55.59,55.59,0,0,0,32.3,73.39l0,46.26.14-.06c0-10.27,0-20.57.07-30.8,0-5.05,0-9.78,0-14.22l.35-6c.32-1.9.56-3.76.91-5.54a51.38,51.38,0,0,1,7.51-17.78A58.61,58.61,0,0,1,55.7,30.11,55.27,55.27,0,0,1,84.23,19.47c3.46-.26,7.62-.26,11.87-.25l13,0,26.65,0c17.54,0,34,.08,45.15.37,8.41.22,1.36.56,1.36.83h82V15.66h-.52q-2.61-.06-4-.16c-1.87-.14-2.15-.35-.89-.63,2.29-.51,3.53-1,5.47-1.61l6.26-.09c3.37,3.2,5.33,4.82,4.45,3.42l40.54,40.34-.55-.47,60.13,60c.34-.35,7.32,6.54,12.43,11.45L411.26,151c2.49,2.33,3.91,4.64,5.93,7,.51.61.8,1.11,1.21,1.67.12.72.09,1.55.14,2.32l.19,4.72.19,4.74c0,.77.11,1.63,0,2.34l-1.61.18v2.27l1.72-.32,1.52-.28c.39-.2,1.32.11,1-.7l-.14-3.47-.27-6.85c-.21-2.15.19-4.86-.92-6.1l-4.62-6.69-6.72-6.6-5.61-5.54L397.7,134l-17.63-17.62-3.7-5.24L372,105.31c7.94,8,18,17.56,27.46,27.71,1.42,1.53,7,7,8.63,8.5l8.29,7.68,1.9,1.73c.47.55.76,1.08,1.12,1.58l1.88,2.75,1.75,2.67a4.55,4.55,0,0,1,.73,1.49,4.39,4.39,0,0,1,.33,1.89c.16,3.21.29,7.22.39,12.25l0,2.28,0,1.18c.11.49-.55.27-.8.44l-4.19,1-2.24.53v2.11l-.05-2.09h-.05c-.06,8.08-.11,16.1-.17,24.27q0,56.56,0,113.16c.48.07,1,.13,1.45.21l-1.45.15q0,.24,0,.47c14.47,2.33,18.5,5,19,5.31.46.5-3-.34-3.74-.22a91.85,91.85,0,0,1,30.09,15.74c13.5,10.34,24.36,25.55,29.36,39.45l2.61,7.25c.89,3,1.7,6.33,2.33,8.9a87.77,87.77,0,0,1,1.49,14.39A53.52,53.52,0,0,0,496.87,399.76ZM428.31,505a32,32,0,0,0,6.7-1.71c7.38-2.33,14.42-6.32,21-10.5A101.38,101.38,0,0,0,467,484.08a66.38,66.38,0,0,0,6-5.83l.57-.93a95,95,0,0,1-42.87,26.89ZM351.62,170.6l-9.66.15,12.48.14,15.42-.42c-5.93-.31-18.81-.27-31.49.11l12.95,0Zm30.24-12.88,9.93-.07c1.49,0,1.14-.05,1.18-.07l0-.06,0-.08s0,0,.07,0,.31-.09.3-.48c0,0,0,0,0-.1l-.82-.88L390.69,154l-4.24-4.37-9.08-9.29.44.71a84.22,84.22,0,0,1-6.48-5.53c-6.16-5.95-12.57-12.4-18.61-18.92-4.29-4.63-11.53-11.93-18.26-18.88L336.9,99c-19.21-19.45-10.81-12.23-9.51-11.94L306.51,66.45c-10.3-10.37-21.32-21.3-30-30.66l-9.93-10-.09-.11c.27,12.59,1.07,6.31,1.36,19.32.13-5.48.21-9.15.32-13.65.28,4.49.49,9.8.94,7.2.36-2,.81,6.46,1.24,9.27.17,1.13.38-1.17.56-.55a15,15,0,0,1,.63,4.77c.1,7.28.81,10.69.3,22.16,0,1,0,3.77,0,5.4,0,9.37.09,18.5.14,27.63v3.42l.12,2.72a31.06,31.06,0,0,0,.5,5.26,49.14,49.14,0,0,0,2.71,10.29A46.12,46.12,0,0,0,310.09,157a58,58,0,0,0,8.63.74l11.19,0ZM268.35,83.07c0-2.41.06-4.87.1-7.3l-.2-.93-.15,22.3L268,108.29v2.77l.11,2.33a29.19,29.19,0,0,0,.38,4.65l.44,1.81c0-1.67-.26-3.07-.26-5l-.19-4.25v-5.12c0-3.42,0-6.86,0-10.27C268.4,91.15,268.37,87.13,268.35,83.07Zm-2.61-58.94.3-.06h0l-.32,0Zm.11.73.47,3.17.06-2.52Zm146.7,145.45h-1.13c0,.1,0,.19,0,.29A5.22,5.22,0,0,0,412.54,170.31Zm-24.58.13c.13,0,.19.11.33.11l15.53,0,.41,0v-.24l-13,0Zm23.46,6.87a14.51,14.51,0,0,0,1.51-.27l1.29-.23c0-.83,0-1.66,0-2.48l-2.78.32C411.42,175.53,411.42,176.42,411.42,177.31Zm-146.25-157h5.12l-5.08.25.19,1.3a10,10,0,0,1,1.67-.32,31.41,31.41,0,0,1,2.57,2.21l7.54,7.34c6.36,6.29,14.49,12.95,12.63,10.36-2.71-3.75,7.1,5.1,19.4,17.49l20.56,20.59c1.49,1.48,3.18,2.93,4.21,3.8,3.73,3.14,17.14,16,24.48,23.48,1.43,1.46,3.25,3.35,3.92,4.11,4.59,5.27,4.51,5.19,12,12.11l-9.93-11.83c-1.1-1.34-.68-1.21-.95-1.76l14,14L382,128.2l28.15,28.06c1,1.16,2.52,2.06,3,3.43l.16,4.66.16,4.67,0,.71a2.24,2.24,0,0,0,.7-1.34c0-.45,0-.86,0-1.32a7.55,7.55,0,0,0-.31-1.57l-.1-3.81a8,8,0,0,0-.23-2.35l-32.31-32.25L313.33,59.4Q297,43.17,286.86,32.93L275,21.15l-5.48-5.44-5-.05ZM37.91,119c.05,2.25.11,4.52.16,6.78.13-6,.36-11.26.37-18.31,0-10.19,0-20.57,0-31a51.57,51.57,0,0,1,5.81-25.28A50.5,50.5,0,0,1,65.81,29.94,49.53,49.53,0,0,1,83.4,24.8l2.34-.31C66.84,25.22,49,37.82,41.89,55.42a54.93,54.93,0,0,0-3.53,13.67c-.15,2.49-.35,4.43-.35,7.4L38,85ZM95.17,497.35c-4.54-.17-10.36.16-16.93-1.12a60.37,60.37,0,0,1-21-8.08c-10.69-6.3-20-17.55-24.83-30.83a57.3,57.3,0,0,0,12.42,20.92l.57.7A62.75,62.75,0,0,1,38.94,471,62,62,0,0,1,31.07,454,57.44,57.44,0,0,0,41.61,475a58.18,58.18,0,0,0,9.88,9.9,59.33,59.33,0,0,0,21.06,10.47C79.94,497.41,87.37,497.56,95.17,497.35Zm256.79.16-.77-.46-3.79,0-62.31.06-124.6.13-10.12.06a6.94,6.94,0,0,0,1,.11l198.91.14C350.84,497.57,351.4,497.51,352,497.51Zm-32.82-67.44c.82,6.07,4.63,19.27,12.3,30.1l-3.63-6L325,448.38l-.09-.3a92.89,92.89,0,0,0,4.73,8.82,60.36,60.36,0,0,1-3.66-7.23,42.25,42.25,0,0,1-1.91-4.41A97.11,97.11,0,0,1,319.15,430.07Zm82.75-114.75c0-1.78,0-3.57,0-5.35l.53,5.36h.27c.15-79.82,1-46.93,1.69-43.54-.07-31.92-.13-61-.2-89.57,0-.61,0-1.25,0-1.86a67,67,0,0,1-8-.43c-.44-.09-1.6-.17-3.2-.25l-3.77-.24-8.38-.48c-1.48-.11-2.29-.27-1.6-.39,1.48-.25,4.14-.49,5.38-.63l13.17-.12c2.07-.07,4.25,0,6.39,0v-2.72l-51.71.56-11.17,0-22.77-.15a68.92,68.92,0,0,1-24.12-4.7,45.91,45.91,0,0,1-7.72-4,28.3,28.3,0,0,1-3.29-2.89,71,71,0,0,1-8.82-7.27l2.85,2.26a62.44,62.44,0,0,1-15.39-19.41,61.11,61.11,0,0,1-6.28-22.74l-.44-1.42c-.38-5.41-.11-10.3-.16-18.05l.12,4c.32-.24.61-2.22.81,0,.24,1.78.1,8.39.48,13.37a35.25,35.25,0,0,0,1.38,8.95c.24.52.82,2.45,1.5,4.76s1.86,4.89,2.7,6.89c2.43,4.76,3.56,6.15,4.1,6.46s.36-.4.75-.25.14-.47.21-.83a53.76,53.76,0,0,1-3.51-7.78,57,57,0,0,0,7,12.17l-.76-.47a54.54,54.54,0,0,0,3.89,5,52.74,52.74,0,0,0,15.36,11.37c6.1,2.83-6.79-4.3-13.68-13.13A57.94,57.94,0,0,1,262,108.31c0-6.23.07-12.46.1-19.06l.11,15.2c0,5.19,0,10,.75,14.55l.14,0a67.58,67.58,0,0,1-.57-9.43c0-6.63,0-11.55.32-15.68.26-3.8.3-10,.25-18.57-.06-10.3-.33-24.49.25-31.83.22-2.76.56-.45.84-.45V24.57l-1.39-.05c.38,0,1.11-.06,1.39-.09v-.63c-1.1-.09-2.43-.19-2.92-.29s-.66-.22-.07-.34c.29-.06.75-.12,1.39-.19.37,0,1.14-.09,1.6-.14v-2.2l-36.3,1.78,17.6.14c-52.44.2-26.42,1.1-69.33,1.42l41.64.32c-13.69.28-29.89.49-22,.94,6.2.36-19.71.81-28.27,1.24-3.45.17,3.57.38,1.67.56a134,134,0,0,1-14.53.63c-22,.13-32.9.74-67.26.37A49,49,0,0,0,75,30a47.66,47.66,0,0,0-25.5,19.38,44.18,44.18,0,0,0-6.25,14.75C42,69.47,41.91,74,42,81.7c-.08,27.82-.16,55.6-.24,84,0,36-.09,77.21-.13,115.74.08,45.61.16,90.69.25,136.3v19.75a51.15,51.15,0,0,0,2.41,15.09,47.51,47.51,0,0,0,18.09,24,48.42,48.42,0,0,0,13.82,6.33,53.56,53.56,0,0,0,7.49,1.47c2.58.1,4.85.33,8.48.26h39.64l30.27-.07c51.16-.42,117.29-.26,158,.29l15.4.1a102.25,102.25,0,0,1-8.91-9.53c-12.85-16-20.87-36.41-21.54-57.1a98.85,98.85,0,0,1,.06-11.83,90.52,90.52,0,0,1,23.18-56.23c4.39-5,13.34-13.46,21.59-18.6l-.93.35c2.66-1.86,3.88-3.21,8.37-5.75a85.88,85.88,0,0,1,30.07-9.83A88.23,88.23,0,0,1,401.89,315.33Zm13,.82c-.22-48.45-.43-92.8-.63-136.4l-2.81.66c0,26.73,0,53.61,0,80.21,0,6.39.18,13.19.3,17.27.18,6.48.37,21,.51,38C413.12,315.95,414,316,414.85,316.15Zm-70.63,141.3c10.4,14,25.93,24.51,43,28.21,3.55.83,6.37,1,8.42,1.39a28,28,0,0,0,4.27-.08,48.72,48.72,0,0,0,9.64-2.28c.43-.14-2.18-.22-4.41-.19a77.14,77.14,0,0,1-34.78-8.24c-8-4.65-9.05-5.4-5.53-2.58,1.09.8,0,.38,0,.52a66.57,66.57,0,0,1-7.66-5.62,55.47,55.47,0,0,1-6.19-6.85,71.49,71.49,0,0,1-15-23.36c-.52-1.35-1.16-2.84-1.42-3.38-1-2.86-1.16-.56.38,4.17A58.12,58.12,0,0,0,344.23,457.45Zm-14.79-60.61c.56-2,1-4.13,1.69-6.22l2.21-5.9,3.39-7.23c1-1.81,1.77-3.24,2.31-4.44a24.62,24.62,0,0,1,2.5-4.52,44.92,44.92,0,0,1,3.93-5.61c.67-.77,2.14-2.6,3.78-4.26l4.18-3.77c10.12-8.08,22-13.78,32.28-16.14-2.43.31-4.84.39-6.79.82l-6,1.05A92.31,92.31,0,0,0,352.57,353a69.75,69.75,0,0,0-17.34,21,78.65,78.65,0,0,0-10.17,40.6c.2,1.17.57,3.68.88,5.06.15.64.27-.13.31-1.53-.17-4.32.8-12.2,1.23-13.12S328.47,400.79,329.44,396.84ZM470.75,442c.81-2.35,2.07-5.63,2.47-7.5,1.19-5.83,1.18-7.47.41-5.94s-2.15,6.27-5.06,12.86c-6.44,13.88-17.69,26.78-31.66,34.28l-5.71,2.73c-2,.81-4,1.47-6,2.24a9.8,9.8,0,0,1-1.29.62,75.89,75.89,0,0,0,18.57-7.73A74.33,74.33,0,0,0,458.4,460.8a14.57,14.57,0,0,0,1.54-2,14.87,14.87,0,0,1-1.27,2.22A77.38,77.38,0,0,0,470.75,442ZM417.37,414.6c.28.31-1.27.34-2.35.42-1.5.11-3.14.16-4.73.23,0,.43.05.85.06,1.3a25.45,25.45,0,0,1,3.06-.07c1.12.05,2.44,0,3.49,0,.3.18.57.36.89.54s.64.33,1,.51a42.21,42.21,0,0,1-5.47-.06,10.41,10.41,0,0,0-1.7.05,13.13,13.13,0,0,0-1.28.3,31.34,31.34,0,0,1-.25,4c-.11.78-.12,2.23-.18,3.37L410,425a3.73,3.73,0,0,1,.34,1.19,19,19,0,0,1-.09,3.72c-.12.88-.13,2.32-.2,3.68l-.4-.37c-.07,3.83-.49,2.28-.85,2.13,0,1.47.11,2.81.1,4.12a50.67,50.67,0,0,1-.22,6c-.05.4,0,1.41,0,2s-.12,1.18-.18,1.76l-.22-1c-.16,1.22-.37,1.86-.65.71-.06-.26-.18,0-.27,0s-.49-.66-.55-3.06c0-1.25-.56-2.72-.81-2.28-.37.64-.71-1.21-.69-3.66,0-1.36,0-2.73,0-4.08a3,3,0,0,0-.15-.79,23.46,23.46,0,0,1-.37-4.75,5.74,5.74,0,0,1,.06-.8,4.24,4.24,0,0,0,0-2.39c-.23.76-.44,1.52-.66,2.16-.08.24-.19.19-.28.27,0-.92,0-1.85,0-2.77,0-.32.08-.63.08-.92q0-4.12-.09-8.24l-.15,0q0,2.77,0,5.55c0,.93,0,1.87,0,2.81,0,1.86-.08,2.39-.46,2.15.07,1,.13,1.83.17,2.65,0,.55.07,1.13.07,1.71,0,2.68.18,5.06.37,7.41.06.79,0,1.86.06,2.81,0,1.47,0,3,.09,4.41.07,2.31-.06,3.2-.41,2.76a6.75,6.75,0,0,0-.81-.77c0-1.11-.16-1.84-.41-1.55,0-2.72-.07-5.36-.1-8l0,.17c0-.4.09-.79.09-1.19,0-2.7,0-5.4,0-8.1,0-.36,0-.73,0-1.07,0-1.39,0-1.79-.13-1.63s-.34-1.27-.42-2.35c-.21-2.85-.31-5.93-.44-9,0-.26,0-.52,0-.78l-1.3.05c.05,1.39.1,2.8.17,4.1a35.92,35.92,0,0,1,.13,4c-.05,1.12,0,2.44,0,3.49-.19.3-.36.57-.54.89s-.33.64-.51,1a42.27,42.27,0,0,1,.06-5.47,8.15,8.15,0,0,0-.52-3.51s0,0,0-.05l-4.25.31c-.41-.09-.84-.21-1.49-.3-.3,0-1,0-1.53,0,0,.08-.18.17,0,.23.73.2.53.29-1,.3a46.66,46.66,0,0,1-5.9-.08c-.36,0-.78-.14-.71-.2a13.82,13.82,0,0,1,1.54-1.08,4.85,4.85,0,0,1,2-.17c2.73.06,5.49.1,8.24.1a18.15,18.15,0,0,1,2.89.22,7.88,7.88,0,0,1,0-1.24c0-.79,0-1.79.09-2.49h-.24c-.45,0-1,0-1.57,0-2.15,0-4.21-.18-6.44-.07a5.15,5.15,0,0,1-1.15-.12,1.76,1.76,0,0,1-.57-.38l-1.53-.06.49-.12c-1.25,0-2.31.09-3.35.08s-2-.08-3.19-.13l-.19.18-2.5,0,.55-.06c0-.16-.31-.3,0-.4a11.13,11.13,0,0,1,1.86-.15c.72,0,1,0,1.24-.14a11.49,11.49,0,0,1,1.71-.26c1.48-.21,1-.48,1.08-.74,0-.09,0-.18-.09-.31l-1.23-.12,2-.17-.12.16c.31,0,.78,0,.91,0,1-.18,2-.36,2.78-.57,1-.27-1.16-.61-2.82-.64-2.1,0-4.24,0-6.37,0-.87,0-1.75,0-2.67-.05l4.26-.11s0,0,0-.07c-.47,0-.95,0-1.42,0a9.43,9.43,0,0,1-2.2-.16,11.66,11.66,0,0,0-2.6-.13,19.91,19.91,0,0,1-4.46-.13c-.39-.11-.06-.28-.06-.42h-4l1.95-1-.81-.07c2.41-.1,1.21-.55,3.19-.71l-1.91-.16c.63-.14,1.37-.24,1-.47s.91-.41,1.3-.62c.16-.09-.16-.19-.08-.28a.86.86,0,0,1,.67-.32,9.68,9.68,0,0,1,3.11-.15,5.73,5.73,0,0,0,.76,0c2.63-.13,5.13-.08,7.73.05,1.65.08,3.55.08,5.32.07,2.1,0,4.17-.11,6.26-.12h1.18l-.12-1.68c.09-.41.21-.84.3-1.49,0-.3,0-1,0-1.53-.08,0-.17-.18-.23,0-.2.73-.29.53-.3-1a46.59,46.59,0,0,1,.08-5.9c0-.36.14-.78.2-.71A13.66,13.66,0,0,1,397.7,396a4.84,4.84,0,0,1,.17,2c-.06,2.73-.1,5.49-.1,8.24,0,.16,0,.31,0,.47h3.51c0-1.91.15-3.77.06-5.77a5.19,5.19,0,0,1,.12-1.15,1.79,1.79,0,0,1,.38-.57l.06-1.53.12.49c0-1.25-.09-2.31-.08-3.35s.08-2,.13-3.19l-.18-.19,0-2.5.06.55c.16,0,.3-.31.4,0a11.1,11.1,0,0,1,.15,1.86c0,.72,0,1,.15,1.24a11.49,11.49,0,0,1,.26,1.71c.21,1.47.48,1,.73,1.08.09,0,.18,0,.31-.09l.12-1.23.17,2-.16-.12c0,.31,0,.78,0,.91.18,1,.36,2,.57,2.78.27,1,.61-1.16.64-2.82,0-2.1,0-4.24,0-6.37,0-.87,0-1.75.05-2.67q.06,2.13.11,4.26h.07c0-.47,0-.95,0-1.42a9.41,9.41,0,0,1,.16-2.2,11.77,11.77,0,0,0,.13-2.6,19.87,19.87,0,0,1,.13-4.46c.11-.39.28-.06.42-.06v-4l1,1.95.07-.81c.1,2.41.55,1.21.71,3.19l.16-1.91c.14.63.24,1.37.47,1s.41.91.62,1.3c.09.16.19-.16.28-.08a.86.86,0,0,1,.32.67,9.67,9.67,0,0,1,.15,3.11,5.48,5.48,0,0,0,0,.76c.13,2.63.08,5.13-.05,7.73-.08,1.66-.08,3.55-.06,5.32,0,2.1.11,4.17.12,6.27,0,.3,0,.61,0,.91.42,0,.85.07,1.2.13.78.11,2.23.12,3.37.18l-.11-.09a3.75,3.75,0,0,1,1.19-.34,19,19,0,0,1,3.72.09c.88.12,2.33.13,3.68.2l-.37.4c3.83.07,2.28.49,2.13.85,1.47,0,2.81-.11,4.12-.1a50.89,50.89,0,0,1,6,.22c.4.05,1.41,0,2,0s1.18.12,1.76.18l-1,.22c1.22.16,1.86.37.71.64-.26.06,0,.18,0,.26s-.66.49-3.06.55c-1.25,0-2.72.56-2.28.81.64.37-1.21.71-3.66.69-1.36,0-2.73,0-4.08,0a3,3,0,0,0-.79.15,23.43,23.43,0,0,1-4.75.37,5.69,5.69,0,0,1-.8-.06,4.25,4.25,0,0,0-2.39,0c.76.23,1.52.44,2.16.67.24.08.19.19.27.28h-2.77c-.32,0-.63-.08-.92-.08l-5.33.06v.09s0,.07,0,.11l2.6,0c.93,0,1.87,0,2.81,0,1.86,0,2.39.08,2.15.46l2.65-.18c.55,0,1.13-.07,1.71-.07,2.68,0,5.06-.18,7.41-.37.79-.06,1.86,0,2.81-.06,1.47,0,3,0,4.41-.09,2.31-.07,3.2.06,2.76.41a6.71,6.71,0,0,0-.77.81c-1.11,0-1.84.16-1.56.41l-8,.1.17,0c-.4,0-.79-.09-1.19-.09h-8.1c-.36,0-.73,0-1.07,0C417.62,414.42,417.22,414.43,417.37,414.6Zm-35.3-6a3.68,3.68,0,0,0-.84-.19c-.94,0-1.91,0-2.86,0-.57,0-1.13,0-1.7,0-.34,0-.68,0-1,0l-.13.1,6.25.15Zm26.19-16.53.08.31a3.7,3.7,0,0,0,.19-.84c0-.94,0-1.91,0-2.87,0-.57,0-1.13,0-1.7,0-.34,0-.68,0-1l-.1-.13Zm-9.33,21.25.6-.06c0-.08,0-.17.05-.25a25.92,25.92,0,0,0-2.91.15l1.82,0,0,0-1.35.08C398.09,413.3,398.61,413.36,398.93,413.34Zm2.16-.21a8.16,8.16,0,0,0-1.18-.09l.08.2Zm2.82,3.71q0-.66,0-1.32h-.11c0,.44,0,.88,0,1.32Zm-32.31,2.61a8.4,8.4,0,0,0-1.25.08c-1.88.3-1,.8,1.3,1s5.18.12,7.77.18c.68,0,1.39,0,2.09,0l.23-.09-6.56-.91-.4,0,.4-.22C373.91,419.52,372.77,419.47,371.6,419.45Zm25.91-37.52a8.55,8.55,0,0,0-.09-1.25c-.3-1.88-.8-1-1,1.3s-.12,5.18-.18,7.77c0,.68,0,1.39,0,2.09l.09.23.91-6.56,0-.4.22.4C397.44,384.24,397.49,383.1,397.52,381.93ZM137,251.62l1.95-1.56-.81-.1c2.41-.15,1.21-.82,3.19-1.06l-1.91-.24c.63-.21,1.37-.37,1-.71s.91-.61,1.3-.93c.16-.13-.16-.29-.08-.42a.82.82,0,0,1,.67-.47c1-.07,1.5-.6,3.11-.23a3.75,3.75,0,0,0,.76,0,51.74,51.74,0,0,1,7.73.08c1.65.12,3.55.12,5.32.1,2.1,0,4.17-.16,6.27-.18,2.42,0,4.85,0,7.28,0a11.73,11.73,0,0,0,1.39-.05,23.79,23.79,0,0,1,7.26.22,32.92,32.92,0,0,0,3.37.27l-.11-.14a2.87,2.87,0,0,1,1.19-.51,12.78,12.78,0,0,1,3.72.14c.88.18,2.33.2,3.68.3l-.37.6c3.83.1,2.28.74,2.13,1.27,1.47-.06,2.8-.16,4.12-.15a33.84,33.84,0,0,1,6,.32c.4.08,1.41,0,2,0s1.18.17,1.76.27l-1,.33c1.22.24,1.86.55.71,1-.26.09,0,.26,0,.4-.15.35-.66.73-3.06.82-1.25,0-2.72.84-2.28,1.22.64.55-1.21,1.07-3.66,1-1.36,0-2.73,0-4.08,0a2.14,2.14,0,0,0-.79.22,15.94,15.94,0,0,1-4.75.56,3.89,3.89,0,0,1-.8-.1c-1-.35-1-.36-2.39,0,.76.35,1.52.67,2.16,1,.24.13.19.28.27.43-.92,0-1.85,0-2.77,0-.32,0-.63-.12-.92-.11l-11.46.18c-.16,0-.31,0-.46,0,0,0,0,.08,0,.08l9.14.11c.93,0,1.87,0,2.81-.05,1.86,0,2.39.12,2.15.68l2.65-.26c.55,0,1.13-.1,1.71-.11a70,70,0,0,0,7.41-.56c.79-.09,1.86-.07,2.81-.09,1.47,0,3-.07,4.41-.14,2.31-.11,3.2.09,2.76.61a9.51,9.51,0,0,0-.77,1.21c-1.11,0-1.84.23-1.56.62l-8,.16.17-.07a10.39,10.39,0,0,0-1.19-.14c-2.7,0-5.4,0-8.1,0-.36,0-.73,0-1.07,0-1.39-.07-1.79-.05-1.63.2.28.47-1.27.51-2.35.63-2.85.32-5.93.47-9,.65-2.44.15-5,.13-7.38.37-.45,0-1,0-1.57,0-2.15,0-4.21-.27-6.44-.11a3.55,3.55,0,0,1-1.15-.19c-.31-.17-.38-.36-.57-.57l-1.53-.09.49-.18c-1.25.05-2.31.13-3.35.12s-2-.12-3.19-.19l-.19.28-2.5,0,.55-.09c0-.24-.31-.46,0-.61a7.5,7.5,0,0,1,1.86-.22c.72,0,1,0,1.24-.22a8,8,0,0,1,1.71-.38c1.48-.31,1-.72,1.08-1.1,0-.13,0-.27-.09-.46l-1.23-.18,2-.25-.12.24a7.42,7.42,0,0,0,.91,0,27.32,27.32,0,0,0,2.78-.85c1-.41-1.16-.92-2.82-1-2.1-.06-4.24,0-6.37,0-.87,0-1.75,0-2.67-.08l4.26-.17s0-.07,0-.11c-.47,0-.95-.05-1.42-.05a6.4,6.4,0,0,1-2.2-.24,7.91,7.91,0,0,0-2.6-.19c-1.44,0-3.43.25-4.46-.19-.39-.16-.06-.42-.06-.63Zm29.68,4,1.82,0,0,0-1.35.12c.91.06,1.43.14,1.75.11.77-.08,1.45-.21,2.16-.31A12.56,12.56,0,0,0,166.66,255.57Zm-21.17-7,6.25.23.31-.12a2.68,2.68,0,0,0-.84-.28c-.94,0-1.91,0-2.86,0-.57,0-1.13.06-1.7.06-.34,0-.68,0-1-.07ZM163.23,266a12.38,12.38,0,0,1,1.49.45l4.52-.49a2.19,2.19,0,0,0,.59-.13c1-.53-1.41-1.22-3.9-1.21-2.75,0-5.51-.06-8.24-.14-1.14,0-1.76,0-2,.25a15.35,15.35,0,0,0-1.54,1.61c-.07.09.35.23.71.3a31.21,31.21,0,0,0,5.9.12c1.52,0,1.72-.15,1-.44-.22-.09,0-.23,0-.35A12.64,12.64,0,0,1,163.23,266Zm23.66-5.48c-1,0-2.38.11-3.49,0a23.81,23.81,0,0,0-4,.19c-2,.15-4,.25-6.24.38a4.92,4.92,0,0,0-.75.47c-.1.09,0,.21.22.29.64.25,1.83.47,2,.72.31.53,2,.36,3.23.45a3.29,3.29,0,0,0,2-.28,7.65,7.65,0,0,1,1.81-.7,6.93,6.93,0,0,1,1.7-.08,28.28,28.28,0,0,0,5.47.1c-.37-.28-.71-.52-1-.76S187.19,260.76,186.89,260.49ZM141.58,265a5.66,5.66,0,0,0-1.25.13c-1.88.45-1,1.21,1.3,1.54a72.19,72.19,0,0,0,7.77.26c.68,0,1.39,0,2.09,0l.23-.13-6.56-1.37-.4.07.4-.33C143.9,265.08,142.75,265,141.58,265ZM145.07,300H137l3.89-1.56-1.62-.1c4.82-.15,2.43-.82,6.37-1.06l-3.83-.24c1.26-.21,2.75-.37,2-.71-.57-.27,1.81-.61,2.6-.93.32-.13-.33-.29-.15-.42a1.94,1.94,0,0,1,1.34-.47c2-.07,3-.6,6.21-.23a15,15,0,0,0,1.51,0c5.25-.19,10.25-.12,15.47.08,3.31.12,7.1.12,10.64.1,4.19,0,8.34-.16,12.53-.18,4.84,0,9.71,0,14.56,0,.94,0,2,0,2.78-.05a94.63,94.63,0,0,1,14.53.22c1.57.17,4.46.18,6.74.27l-.23-.14a9.35,9.35,0,0,1,2.38-.51,50.85,50.85,0,0,1,7.44.14c1.77.18,4.65.2,7.36.3l-.74.6c7.66.1,4.57.74,4.25,1.27,2.93-.06,5.61-.16,8.23-.15,4.1,0,8.45,0,12,.32.8.08,2.81,0,4.09,0s2.35.17,3.52.27l-2.06.33c2.45.24,3.71.55,1.43,1-.52.09.07.26,0,.4-.3.35-1.32.73-6.13.82-2.51,0-5.44.84-4.56,1.22,1.28.55-2.42,1.07-7.31,1-2.71,0-5.45,0-8.16,0a7.77,7.77,0,0,0-1.59.22,62.42,62.42,0,0,1-9.51.56,15.23,15.23,0,0,1-1.59-.1c-2-.35-1.92-.36-4.78,0,1.51.35,3,.67,4.31,1,.48.13.37.28.54.43-1.85,0-3.7,0-5.54,0-.64,0-1.25-.12-1.84-.11l-22.91.18c-.32,0-.63,0-.93,0,0,0,.05.08.09.08l18.29.11c1.87,0,3.75,0,5.63-.05,3.71,0,4.78.12,4.3.68l5.31-.26c1.1,0,2.26-.1,3.42-.11,5.35,0,10.12-.27,14.83-.56,1.58-.09,3.73-.07,5.61-.09,2.94,0,5.92-.07,8.81-.14,4.61-.11,6.4.09,5.52.61a12.15,12.15,0,0,0-1.53,1.21c-2.22,0-3.67.23-3.11.62l-16,.16.34-.07c-.79,0-1.58-.13-2.38-.14q-8.1,0-16.21,0c-.71,0-1.46,0-2.14,0-2.78-.07-3.58-.05-3.27.2.57.47-2.54.51-4.7.63-5.71.32-11.85.47-18,.65-4.88.15-10.08.13-14.76.37-.9,0-2.08,0-3.13,0-4.31,0-8.42-.27-12.89-.11a13.72,13.72,0,0,1-2.3-.19,3.79,3.79,0,0,1-1.15-.57l-3.06-.09,1-.18c-2.49.05-4.61.13-6.69.12s-4.1-.12-6.37-.19l-.39.28-5,0,1.11-.09c-.07-.24-.62-.46,0-.61a29.4,29.4,0,0,1,3.72-.22,6.87,6.87,0,0,0,2.48-.22,30.25,30.25,0,0,1,3.41-.38c3-.31,2-.72,2.17-1.1.07-.13-.1-.27-.17-.46l-2.45-.18,4.06-.25-.24.24c.62,0,1.57,0,1.82,0,2-.27,4.09-.54,5.57-.85,2-.41-2.32-.92-5.64-1-4.2-.06-8.48,0-12.73,0-1.75,0-3.5,0-5.34-.08l8.52-.17s0-.07,0-.11c-.94,0-1.89-.05-2.83-.05a25.05,25.05,0,0,1-4.4-.24,31.24,31.24,0,0,0-5.21-.19c-2.89,0-6.87.25-8.92-.19C144.42,300.51,145.07,300.25,145.07,300Zm51.26,4,3.63,0,.08,0-2.71.12c1.82.06,2.87.14,3.5.11,1.54-.08,2.89-.21,4.32-.31A49.92,49.92,0,0,0,196.33,304ZM154,297l12.5.23.62-.12a9.47,9.47,0,0,0-1.68-.28c-1.87,0-3.82,0-5.73,0-1.14,0-2.27.06-3.41.06-.68,0-1.36,0-2-.07Zm35.48,17.35c1.29.13,2.15.32,3,.45l9-.49a8.27,8.27,0,0,0,1.18-.13c2-.53-2.82-1.22-7.8-1.21-5.49,0-11-.06-16.47-.14a12.8,12.8,0,0,0-4,.25,29,29,0,0,0-3.09,1.61c-.14.09.7.23,1.42.3,3.63.36,7.85.13,11.8.12,3,0,3.44-.15,2-.44-.44-.09-.08-.23-.08-.35C187.46,314.37,188.88,314.33,189.48,314.39Zm29.2-2.94a12.55,12.55,0,0,0,4-.28,26.06,26.06,0,0,1,3.62-.7,27.56,27.56,0,0,1,3.4-.08c3.88.38,7.78.08,10.94.1-.73-.28-1.43-.52-2-.76s-1.17-.53-1.77-.81c-2.1,0-4.76.11-7,0-3.24-.11-5.39.09-8,.19-3.94.15-8,.25-12.48.38a13.82,13.82,0,0,0-1.51.47c-.19.09,0,.21.45.29a28.24,28.24,0,0,1,4,.72C212.83,311.52,216.31,311.36,218.68,311.45Zm-72.49,1.94a22.34,22.34,0,0,0-2.5.13c-3.76.45-2.1,1.21,2.6,1.54,5,.36,10.36.18,15.53.26,1.37,0,2.78,0,4.17,0l.46-.13-13.11-1.37-.8.07.8-.33C150.81,313.5,148.52,313.43,146.19,313.39Zm136.07,44.37-3.89,1.56,1.62.1c-4.82.15-2.43.82-6.37,1.06l3.83.24c-1.26.21-2.75.37-2,.71.57.27-1.81.61-2.6.93-.32.13.33.29.15.42a1.94,1.94,0,0,1-1.34.47c-2,.07-3,.6-6.21.23-.28,0-1.06,0-1.51,0-5.25.19-10.25.12-15.47-.08-3.31-.12-7.1-.12-10.64-.1-4.19,0-8.34.16-12.53.18-4.84,0-9.71,0-14.56,0-.94,0-2,0-2.78.05a94.82,94.82,0,0,1-14.53-.22c-1.57-.17-4.46-.18-6.74-.27l.23.14a9.38,9.38,0,0,1-2.38.51,50.86,50.86,0,0,1-7.44-.14c-1.77-.18-4.65-.2-7.36-.3l.74-.6c-7.66-.1-4.57-.74-4.25-1.27-2.93.06-5.61.16-8.23.15-4.1,0-8.45,0-12-.32-.8-.08-2.81,0-4.09,0s-2.35-.17-3.52-.27l2.06-.33c-2.45-.24-3.71-.55-1.43-1,.52-.09-.07-.26,0-.4.3-.35,1.32-.73,6.13-.82,2.51,0,5.44-.84,4.56-1.22-1.28-.55,2.42-1.07,7.31-1,2.71,0,5.45,0,8.16,0a7.78,7.78,0,0,0,1.59-.22,62.42,62.42,0,0,1,9.51-.56,15,15,0,0,1,1.59.1c2,.35,1.92.36,4.78,0-1.51-.35-3-.66-4.31-1-.48-.13-.37-.28-.54-.43,1.85,0,3.7,0,5.54,0,.64,0,1.25.12,1.84.11l22.91-.18c.32,0,.63,0,.93,0,0,0-.05-.08-.09-.08q-9.14-.06-18.29-.11c-1.87,0-3.75,0-5.63.05-3.71,0-4.78-.12-4.3-.68l-5.31.26c-1.1,0-2.26.1-3.42.11-5.35,0-10.12.27-14.83.56-1.58.09-3.73.07-5.61.09-2.94,0-5.92.07-8.81.14-4.61.11-6.4-.09-5.52-.61a12.19,12.19,0,0,0,1.53-1.21c2.22,0,3.67-.23,3.11-.62l16-.16-.34.07c.79,0,1.58.13,2.38.14H176.1c.71,0,1.46,0,2.14,0,2.78.07,3.58.05,3.27-.2-.57-.47,2.54-.51,4.7-.63,5.71-.32,11.85-.47,18-.65,4.88-.15,10.08-.13,14.76-.37.9,0,2.08,0,3.13,0,4.31,0,8.42.27,12.89.11a13.64,13.64,0,0,1,2.3.19,3.79,3.79,0,0,1,1.15.57l3.06.09-1,.18c2.49-.05,4.61-.13,6.69-.12s4.1.12,6.37.19l.39-.28,5,0-1.11.09c.07.24.62.46,0,.61a29.39,29.39,0,0,1-3.72.22,6.85,6.85,0,0,0-2.48.22,30.23,30.23,0,0,1-3.41.38c-3,.31-2,.72-2.17,1.1-.07.14.1.27.17.46l2.45.18-4.06.25.24-.24c-.62,0-1.57,0-1.82,0-2,.27-4.09.54-5.57.85-2,.41,2.32.92,5.64,1,4.2.06,8.48,0,12.73,0,1.75,0,3.5,0,5.34.08l-8.52.17s0,.07,0,.11c.94,0,1.89.05,2.83.05a25.06,25.06,0,0,1,4.4.24,31.07,31.07,0,0,0,5.21.19c2.89,0,6.87-.25,8.92.19.77.16.13.42.13.63Zm-59.35-4-3.63,0-.08,0,2.71-.12c-1.82-.06-2.87-.14-3.5-.11-1.54.08-2.89.21-4.32.31A49.94,49.94,0,0,0,222.9,353.81Zm42.34,7-12.5-.23-.62.12a9.47,9.47,0,0,0,1.68.28c1.87,0,3.82,0,5.73,0,1.14,0,2.27-.06,3.41-.06.68,0,1.36,0,2,.07Zm-40.87-16c5.49,0,11,.06,16.47.15a12.8,12.8,0,0,0,4-.25,29.14,29.14,0,0,0,3.09-1.61c.14-.09-.7-.23-1.42-.3-3.63-.36-7.85-.13-11.8-.12-3,0-3.44.15-2,.44.44.09.08.23.08.35-1,0-2.47,0-3.06,0-1.29-.13-2.15-.32-3-.45l-9,.49a8.16,8.16,0,0,0-1.18.13C214.61,344.11,219.39,344.8,224.37,344.79Zm-41.94,4.1c2.1,0,4.76-.11,7,0,3.24.11,5.39-.09,8-.19,3.94-.15,8-.25,12.48-.38a13.82,13.82,0,0,0,1.51-.47c.19-.09,0-.21-.45-.29a28.18,28.18,0,0,1-4-.72c-.61-.53-4.09-.36-6.47-.45a12.55,12.55,0,0,0-4,.28,26.06,26.06,0,0,1-3.62.7,27.71,27.71,0,0,1-3.4.08c-3.88-.38-7.78-.08-10.94-.1.73.28,1.43.52,2,.76S181.83,348.62,182.43,348.89ZM273,344.41a22.53,22.53,0,0,0,2.5-.13c3.76-.45,2.1-1.21-2.6-1.54-5-.36-10.36-.18-15.53-.26-1.37,0-2.78,0-4.17,0l-.46.13L265.88,344l.8-.07-.8.33C268.43,344.31,270.71,344.38,273,344.41Z"/></svg>