<svg id="Layer_1" data-name="Layer 1" xmlns="http://www.w3.org/2000/svg" viewBox="0 0 512 512"><defs><style>.cls-1{fill:#141f38;}</style></defs><title>document-bar-chart-glyph</title><path class="cls-1" d="M217.6,307.4h25.6v63.8H217.6Zm-51.2,63.8H192V243.4H166.2ZM319.8,243.4l.2,127.8h25.8l-.2-127.8Zm-51,127.8h25.6V281.8H268.6Zm192-217.6V448a64,64,0,0,1-64,64H115.2a64,64,0,0,1-64-64V64a64,64,0,0,1,64-64H307.34Zm-64,217.6H371.2v-128a25.4,25.4,0,0,0-25.4-25.4h-26a25.4,25.4,0,0,0-25.4,25.4v13H268.6a25.4,25.4,0,0,0-25.4,25.4v.2H217.6V243.2a25.4,25.4,0,0,0-25.4-25.4h-26a25.4,25.4,0,0,0-25.4,25.4v128H115.2v25.6H396.8Zm38.4-204.8L294.4,25.6v76.8a64,64,0,0,0,64,64Z"/></svg>