<svg id="Layer_1" data-name="Layer 1" xmlns="http://www.w3.org/2000/svg" viewBox="0 0 512 512"><defs><style>.cls-1{fill:#141f38;}</style></defs><title>document-bar-chart-outline</title><path class="cls-1" d="M307.34,0H115.2a64,64,0,0,0-64,64V448a64,64,0,0,0,64,64H396.8a64,64,0,0,0,64-64V153.6ZM411.49,140.8H358.4A38.44,38.44,0,0,1,320,102.4V49.08ZM435.2,448a38.44,38.44,0,0,1-38.4,38.4H115.2A38.44,38.44,0,0,1,76.8,448V64a38.44,38.44,0,0,1,38.4-38.4H294.4v76.8a64,64,0,0,0,64,64h76.8ZM319.8,217.8a25.4,25.4,0,0,0-25.4,25.4v13H268.6a25.4,25.4,0,0,0-25.4,25.4v.2H217.6V243.2a25.4,25.4,0,0,0-25.4-25.4h-26a25.4,25.4,0,0,0-25.4,25.4v128H115.2v25.6H396.8V371.2H371.2v-128a25.4,25.4,0,0,0-25.4-25.4Zm-25.4,64v89.4H268.8v-64c0-.5-.12-1-.15-1.45l-.05-23.95Zm-51.2,25.6v63.8H217.6V307.4Zm-77-64H192l.1,62.82c0,.33-.1.65-.1,1v64H166.4ZM320,371.2V281.6c0-.48-.12-.93-.14-1.41l-.06-36.79h25.8l.2,127.8Z"/></svg>