<svg id="Layer_1" data-name="Layer 1" xmlns="http://www.w3.org/2000/svg" viewBox="0 0 512 512"><defs><style>.cls-1{fill:#707070;}</style></defs><title>document-bar-chart-handdrawn</title><path class="cls-1" d="M78.83,41.38c.42-.57.83-1.15,1.28-1.71C79.66,40.23,79.26,40.8,78.83,41.38Zm-4.6,7.28c.22-.41.42-.82.65-1.22C74.66,47.84,74.45,48.25,74.24,48.66Zm2.46-4.2c-.63,1-1.24,2-1.81,3Q75.75,45.92,76.69,44.46Zm3.42-4.79a58.05,58.05,0,0,1,4.24-4.78A54.85,54.85,0,0,0,80.11,39.67Zm-3.42,4.79c.68-1,1.39-2.08,2.14-3.08C78.09,42.38,77.37,43.4,76.69,44.46ZM85,502.08a73.89,73.89,0,0,1-24.86-27.95,70.69,70.69,0,0,1-7-21.54,81.5,81.5,0,0,1-1-11.77c0-3.38,0-6.78,0-10.19.06-60.16.13-120.78.19-180.48,0-25,0-38.51-.34-44-.72-12.65-1.44-24.34-2.17-33.84-.12-1.58-.31,7.64-.41,15.61-.49,39.79-.17,86-.16,129.3,0,33.32.2,37.66.6,21.69.12-4.78.31-.87.46-.92,0,11.47,0,27,0,33.56-.26,14.11-.44,23.6-.61,32.63q.08,12.81.17,25.34l.13,12.71a77.86,77.86,0,0,0,1.84,14.94A74.22,74.22,0,0,0,85.76,504a66.05,66.05,0,0,0,14.15,6.56c6.18,1.94,7.18,1.63,4,.73A80,80,0,0,1,85,502.08Zm376.39-91.95-1,22.13c-.2,3.53-.3,6.59-.6,10a65.68,65.68,0,0,1-1.56,10.37,67,67,0,0,1-18.82,36C429.12,498.72,415.25,505.4,402,507c-10,1.16-17.67.49-25.42.68l-21.8.06-41.46.23-136.74.51-16.53.63c-2.12.12.36.28,4.91.39,14.08.33,40.13.63,43.38,1,6.71.7,44.86.49,70.86.61,22.09.1,34.71-.05,43.41-.37,9.09-.34,23.26-.66,39.66-.93l18.72-.12h10.92c3.47-.1,6.65-.24,8.39-.41,24-2.23,45.82-18.51,55-39.63a80.8,80.8,0,0,0,3.1-8c.68-2.75,1.54-5.44,2-8.2a60.83,60.83,0,0,0,.94-8.23l.19-4.08v-3.6C461.45,427.95,461.44,418.79,461.42,410.14ZM49.78,83.52l.15-9.12A75.75,75.75,0,0,1,51,63.51a70,70,0,0,1,6.77-20.73A73.57,73.57,0,0,1,87.24,11.63,71.14,71.14,0,0,1,107.37,3.8,72.89,72.89,0,0,1,118,2.17L123.43,2c1.82-.06,3.08,0,4.65,0l8.82-.1-8.81.45,78.47.23L234,2.39c41.24-.6,23-1.62-28.54-2.07L163.68.07,142.43,0H131.74C128,0,125-.11,120.25.19A74.47,74.47,0,0,0,72.57,20.78a75.8,75.8,0,0,0-23,46.34c-.21,2.29-.29,4.61-.41,6.93s0,3.9-.05,5.9V91.38c0,7.65,0,15.34,0,23l.18,5.08ZM329,181.72A60.85,60.85,0,0,0,340.39,185c1.29.22.18-.2-2.88-1.18-1.83-.59-.26-.38-.24-.54a77.12,77.12,0,0,0,13.14,2.25c5.9.55,8.71.69,11.68.88l32.47-.66c1.67,0,3.54-.1,4.23-.17,7-.72-10.13-1.64-28-1.63l-14.84,0a74.29,74.29,0,0,1-17.34-2.26,70.35,70.35,0,0,1-30.44-16.32c-7.17-6.54-10-11-11.52-12.5a100.52,100.52,0,0,1-8.42-10.57c-.36-.54,1,2.93,2.42,5.8C297.83,162.49,312.59,175.59,329,181.72Zm133.83-3.39c.11.49-.56.28-.8.45l-4.22,1-2.26.53v2.12l-.05-2.11h-.05c-.06,8.14-.11,16.21-.17,24.44q0,88.74,0,177.56c0,7.82,0,16,0,23.43-.06,30.49-.12,39.21.23,35.84.22-1.59.32-.63.27,2.17a53.57,53.57,0,0,1-1.63,12.8C451.89,467.51,444,481,434.49,489a63.53,63.53,0,0,1-21.23,12.41c-7.79,2.83-16.56,3.68-24.62,3.59l-49,.22-100.14.37-81.68.2-20.42,0c-6.79,0-13.38.28-20.65-.43a64.68,64.68,0,0,1-55.48-48.74,69,69,0,0,1-1.65-9.28c-.14-3.1-.39-6.35-.31-9.19q0-8.77,0-17.48c0-11.63.07-23.21.1-34.85,0-23.28,0-46.76,0-71.22,0-6.32.13-21.56.25-25.16.23-6.88.49-8.35.76-12.57,0-9.32.07-20.39.12-33.54.07,3,.12,5.39.24,10.66-.06-27.31-.11-50.54-.16-73.33s.16-44.9.26-69.84l-.37-4.25c0-7.76,0-15.58,0-24.4,0-2.21,0-4.47,0-6.82s.16-5,.47-7.6a65.87,65.87,0,0,1,4.24-16.54c-3.89,10.53-3.73,15.37-3.44,12.22.34-.73,2.19-6.76.81.07-1.53,5.62-.68,26.37-.82,41.07,0,15.84,0,22.6.29,27.17.2,3.34.35,24.23.52,37.4.41,32.33,1,21.7,1.48,23.73.18.71.37-1,.62-1.91,0-2,.09-10.89.23-26.87.13,17.33.22,29.34.34,44.47L65,206c0,6.84,0,17.18,0,19.94.4,21.42.84,44.83,1.14,61,.55,21.54,1.24-25.38,1.3-61.76,0-46,0-93,.05-139.52,0-9.8-.24-18.68,2.57-27.39a58.39,58.39,0,0,1,4.21-9.63,56,56,0,0,0-6.5,25.26l0,46.6.15-.06c0-10.35,0-20.72.07-31,0-5.09,0-9.85,0-14.33l.36-6c.32-1.92.56-3.79.92-5.58A51.75,51.75,0,0,1,76.85,45.6,59,59,0,0,1,91.31,30.33,55.67,55.67,0,0,1,120,19.61c3.48-.26,7.68-.26,12-.25l13.09,0,26.84,0c17.67,0,34.2.08,45.47.37,8.47.22,1.37.56,1.37.84h82.57V15.77h-.53q-2.63-.06-4-.16c-1.89-.14-2.17-.35-.89-.64,2.31-.51,3.55-1,5.51-1.62l6.31-.09c3.39,3.22,5.36,4.86,4.48,3.45L353,57.34l-.55-.47L413,117.34c.34-.36,7.37,6.59,12.52,11.53l23.88,23.23c2.51,2.35,3.94,4.67,6,7,.52.61.81,1.12,1.22,1.68.12.73.09,1.56.14,2.34l.19,4.75.19,4.78c0,.78.11,1.64,0,2.35l-1.62.18v2.29l1.73-.32,1.53-.28c.39-.2,1.33.11,1.06-.71l-.14-3.49-.27-6.9c-.21-2.16.19-4.9-.93-6.14l-4.65-6.74-6.77-6.65-5.65-5.58L435.79,135,418,117.21l-3.72-5.28-4.4-5.86c8,8,18.18,17.69,27.66,27.91,1.43,1.54,7.06,7.09,8.69,8.56l8.34,7.74,1.91,1.75c.47.56.76,1.08,1.13,1.59l1.9,2.77,1.76,2.69a4.58,4.58,0,0,1,.74,1.5,4.43,4.43,0,0,1,.34,1.91c.16,3.24.3,7.27.4,12.34q0,1.12,0,2.3Zm-73.48-6.49-9.73.15,12.57.14,15.53-.42c-6-.32-18.95-.28-31.71.11l13,0Zm30.46-13,10-.07c1.5,0,1.15-.05,1.19-.07l0-.06,0-.08s0,0,.07,0,.31-.09.3-.49c0,0,0,0,0-.1l-.83-.88-1.85-1.94-4.27-4.41-9.14-9.36.45.71a84.83,84.83,0,0,1-6.53-5.57c-6.2-6-12.66-12.49-18.74-19.05-4.32-4.66-11.61-12-18.39-19l2.45,1.32c-19.35-19.59-10.88-12.32-9.58-12l-21-20.8C333.56,56.49,322.45,45.48,313.74,36L303.74,26l-.09-.11c.28,12.69,1.07,6.35,1.37,19.46l.32-13.75c.28,4.52.49,9.87.95,7.25.36-2,.82,6.51,1.25,9.34.17,1.14.38-1.18.57-.55a15.07,15.07,0,0,1,.63,4.8c.1,7.33.81,10.77.3,22.32,0,1,0,3.8,0,5.44,0,9.44.1,18.64.14,27.83v3.45l.12,2.74a31.28,31.28,0,0,0,.5,5.3,49.49,49.49,0,0,0,2.73,10.36,46.45,46.45,0,0,0,35,28.32,58.42,58.42,0,0,0,8.69.74l11.27,0ZM305.49,83.67c0-2.43.06-4.9.1-7.35l-.2-.94-.16,22.46-.08,11.23,0,2.79.11,2.35a29.4,29.4,0,0,0,.39,4.68l.44,1.82c0-1.68-.26-3.09-.26-5l-.19-4.28v-5.15c0-3.45,0-6.91,0-10.34C305.55,91.81,305.52,87.76,305.49,83.67ZM302.86,24.3l.3-.06h0l-.32,0ZM303,25l.48,3.19.06-2.54Zm147.76,146.5H449.6c0,.1,0,.19,0,.29A5.26,5.26,0,0,0,450.73,171.54Zm-24.76.13c.13,0,.19.11.33.11l15.65,0,.41,0c0-.08,0-.16,0-.24l-13,0Zm23.63,6.92a14.62,14.62,0,0,0,1.52-.27l1.3-.24c0-.83,0-1.67,0-2.5l-2.8.32C449.6,176.8,449.6,177.7,449.6,178.6ZM302.29,20.48h5.16l-5.12.25.2,1.31a10.07,10.07,0,0,1,1.68-.32,31.64,31.64,0,0,1,2.59,2.22l7.59,7.39c6.4,6.33,14.6,13,12.72,10.44-2.72-3.78,7.15,5.14,19.54,17.62l20.71,20.74c1.5,1.49,3.21,3,4.24,3.82,3.76,3.17,17.27,16.11,24.65,23.65,1.44,1.47,3.27,3.37,3.94,4.14,4.62,5.31,4.54,5.23,12.08,12.2l-10-11.92c-1.11-1.35-.68-1.22-1-1.77l14.05,14.09,4.56,4.79,28.36,28.26c1,1.17,2.53,2.08,3,3.45l.16,4.7.17,4.71,0,.72a2.26,2.26,0,0,0,.7-1.35c0-.46,0-.86,0-1.33a7.62,7.62,0,0,0-.32-1.58l-.1-3.84a8,8,0,0,0-.23-2.36L419.18,128,350.81,59.83q-16.43-16.35-26.66-26.66l-12-11.87-5.52-5.48-5.07-.05ZM73.39,119.86l.16,6.83c.13-6.09.36-11.34.37-18.44,0-10.26,0-20.72,0-31.23a52,52,0,0,1,5.86-25.46,50.86,50.86,0,0,1,21.71-21.4A49.89,49.89,0,0,1,119.21,25l2.36-.31c-19,.74-37,13.42-44.17,31.15a55.26,55.26,0,0,0-3.56,13.77c-.15,2.51-.36,4.47-.35,7.45l0,8.56ZM64.65,446.63c.24,2.14.59,4.2,1,6.22A55.34,55.34,0,0,1,64.65,446.63ZM131.07,501c-4.57-.17-10.43.16-17-1.13a60.81,60.81,0,0,1-21.12-8.13c-12.32-7.26-22.87-21-26.81-37a58.43,58.43,0,0,0,14.3,27l.57.7a63.18,63.18,0,0,1-6.54-8,62.41,62.41,0,0,1-7.93-17.07,57.86,57.86,0,0,0,10.62,21.07,58.6,58.6,0,0,0,10,10,59.75,59.75,0,0,0,21.21,10.55C115.73,501,123.2,501.17,131.07,501Zm36.87-12.85,30.49-.07c51.53-.43,118.14-.26,159.14.29l34,.22a52.92,52.92,0,0,0,15.77-2.26,47,47,0,0,0,13.61-7l-1.66,1,3.47-2.84,3-3a55.43,55.43,0,0,0,6.82-9.15,45.19,45.19,0,0,0,5.65-14.13c1.09-5.18,1.19-9.66,1.15-17.18.09-13.68.19-27.47.28-41.12.1-19.37.26-51,.41-80.68l.81,8.12c.14-84,1-50,1.71-46.58-.07-32.15-.14-61.48-.2-90.22,0-.62,0-1.26,0-1.88a67.49,67.49,0,0,1-8-.44c-.44-.09-1.61-.17-3.22-.25l-3.79-.24-8.44-.48c-1.49-.11-2.31-.27-1.61-.39,1.49-.25,4.17-.49,5.42-.63l13.27-.13c2.08-.07,4.29,0,6.44,0,0-.91,0-1.83,0-2.74l-52.08.56-11.25,0-22.94-.15a69.42,69.42,0,0,1-24.29-4.74A46.24,46.24,0,0,1,324,168a28.51,28.51,0,0,1-3.32-2.91,71.56,71.56,0,0,1-8.89-7.32l2.87,2.28a62.9,62.9,0,0,1-15.5-19.55,61.55,61.55,0,0,1-6.33-22.91l-.44-1.43c-.38-5.45-.11-10.37-.16-18.18l.12,4c.32-.24.61-2.24.81,0,.24,1.79.1,8.45.48,13.46a35.51,35.51,0,0,0,1.39,9c.24.52.83,2.47,1.51,4.8s1.88,4.93,2.72,6.94c2.44,4.8,3.59,6.19,4.13,6.5s.36-.41.75-.25.14-.48.21-.84a54.15,54.15,0,0,1-3.54-7.84A57.37,57.37,0,0,0,307.91,146l-.76-.47a55.05,55.05,0,0,0,3.91,5A53.12,53.12,0,0,0,326.53,162c6.15,2.85-6.84-4.33-13.78-13.22a58.36,58.36,0,0,1-13.61-39.66c0-6.27.07-12.55.11-19.2l.11,15.31c0,5.23,0,10,.76,14.66l.14,0a68.07,68.07,0,0,1-.57-9.5c0-6.68,0-11.64.33-15.8.26-3.82.3-10.11.25-18.7-.06-10.38-.33-24.67.25-32.06.22-2.78.56-.45.84-.45V24.74l-1.4-.05c.39,0,1.12-.06,1.4-.09V24c-1.11-.09-2.45-.19-2.94-.29s-.67-.22-.07-.34c.3-.06.76-.12,1.4-.19.37,0,1.15-.1,1.61-.14V20.78L264.8,22.57l17.73.14c-52.82.2-26.61,1.11-69.83,1.43l41.94.32c-13.79.28-30.1.49-22.11.95,6.25.36-19.85.82-28.47,1.25-3.48.17,3.59.38,1.68.57a135,135,0,0,1-14.64.63c-22.21.13-33.14.75-67.75.37a49.31,49.31,0,0,0-12.62,1.95A48,48,0,0,0,85,49.69a44.5,44.5,0,0,0-6.29,14.86c-1.23,5.42-1.33,10-1.28,17.73-.08,28-.16,56-.25,84.58,0,36.25-.09,77.77-.13,116.58.08,45.94.17,91.35.25,137.29v19.9a51.47,51.47,0,0,0,2.42,15.2A47.85,47.85,0,0,0,98,480a48.77,48.77,0,0,0,13.92,6.37,53.94,53.94,0,0,0,7.54,1.48c2.6.11,4.89.33,8.54.27ZM452.43,181l-2.83.66c0,26.93,0,54,0,80.79,0,6.44.18,13.28.3,17.39.42,14.92.85,72,.75,104.16,0,6.28-.11,14.32-.13,17.43-.24,10.71-.36,16-.37,22.48,0,3.25,0,6.8.07,11.51s.32,10.3-1,17.61c.43-1.92.72-3.87,1.1-5.81l.5-5.89c.12-4.11.24-8.19.35-12.19.23-8,.46-15.66.66-22.63a25.58,25.58,0,0,1,.57-5.87v30.38c0,5.05.1,10.17-.26,15.06a58.36,58.36,0,0,1-3.1,14.45,57.1,57.1,0,0,1-9.53,17.15,58.86,58.86,0,0,1-38.91,22.31,111.54,111.54,0,0,1-15.48.61l-62.76.06-125.5.13-10.19.06a7,7,0,0,0,1,.11l200.34.15c10.17.19,20.42-1,29.6-5.5a59.63,59.63,0,0,0,23.32-19,58.78,58.78,0,0,0,10.32-22.43A75,75,0,0,0,452.9,439c.14-7.34.37-8.94.75-6.31-.14-22.62-.24-40.11-.35-58.13,0-12.1-.1-24.76-.15-37.46C452.89,280.87,452.66,230.54,452.43,181ZM281.77,122a54.78,54.78,0,0,1-.4-7.22c-.08-2.58,0-4.53.09-6.44l.46-11.78.92-23.55-.1-2.89.44,2.89c.08-9.13.16-17.35.23-25.73,0-2.83-.08-6.82-.17-9-.6-13.52-1.62-7.54-2.07,9.36-.48,18-.25,37.23-.35,55.81,0,2.46,0,5,0,7.46.06,2.7.21,6.09.48,9.07ZM148.85,260.48c-.07.19-.08.43-.15.63.09-.28.17-.53.25-.78Zm-.51,2.18a15.05,15.05,0,0,1,.36-1.55A13,13,0,0,0,148.34,262.66Zm13.94,56.69c.12.3.31-1.43.41-2.91.49-7.43.17-16.05.16-24.14,0-6.22-.2-7-.6-4-.12.89-.31.16-.46.17,0-2.14-.06-5,0-6.27.18-2.64.43-4.41.61-6.09l-.33-9.37a9.14,9.14,0,0,1,0-1.17,2.1,2.1,0,0,1,.18-.83c0-.19.16-.37.13-.5.05-.52-.49-.68-1.24-.08-.79,1-1.23.39-1.14,7-.06,11.23-.13,22.55-.19,33.7,0,4.68,0,7.19.34,8.21C160.83,315.39,161.55,317.58,162.28,319.35Zm1.15-61.56c.56.09,6.45.52,6.8.82.63.35,2.72.47,5.26.52l4,0,2,0c.29.06.59,0,.84.1,1.76.33,2.64.85,3.46,1a5.74,5.74,0,0,1,3.05,2.12,6.46,6.46,0,0,1,1,3.43c-.07,1.88-.13,3.72-.2,5.54s0,3.91,0,5.81c0,3.79.08,7.41.12,10.64l1-4.13,1.09-3.63c0-4.24,0-9.6-.07-14.11a9.47,9.47,0,0,0-5.35-8.47c-2.51-1.27-4.09-1.24-9-1.09l-12.9.27a5.39,5.39,0,0,0-1.68.85C162.68,257.7,163,257.73,163.43,257.79Zm4.93,92.54-2.67-.24-.77-.05-.12-.07a.61.61,0,0,1-.24-.11,2.89,2.89,0,0,1-1.34-1.37,1.75,1.75,0,0,1-.14-.42c0-.08-.05-.15,0-.24l0-.13v-1c0-2.67,0-5.34,0-8,0-2.8,0-5.69,0-8.54l-.18-.95L162,342.64l-.23,3.35-.11,1.68a1.16,1.16,0,0,1-.1.39,3.39,3.39,0,0,0,0,1.54c.12.08.16.21.29.28a3.26,3.26,0,0,1-.6-.1,4.16,4.16,0,0,0,3,2.31c.33.08.23,0,1,0l2.42-.13c3.85-.3,4.92-.7,3.83-1.09A16.88,16.88,0,0,0,168.36,350.34Zm54.89-9.21c.12.19.31-.9.41-1.83.49-4.68.17-10.11.16-15.2,0-3.92-.2-4.43-.6-2.55-.12.56-.31.1-.46.11,0-1.35-.06-3.18,0-3.95l.07-.6a.67.67,0,0,1,.1-.12l.16-.18.34-.23a2.73,2.73,0,0,1,.56-2,1.45,1.45,0,0,0,.16-.31c.29-.94-2-1.1-2.84.93a5.31,5.31,0,0,0-.36,1.57s0,1.06,0,2l0,2.66c0,3.54-.1,7.08-.14,10.59,0,2.95,0,4.53.34,5.17A37,37,0,0,0,223.25,341.12Zm1.69-32.61c.37.25,4.07.58,4.29.91.79.71,5.27.49,8.33.61a14.47,14.47,0,0,0,5-.36,4.5,4.5,0,0,1,2.4-.56A5,5,0,0,1,247,310c1.9,1.81,3.44,3.95,3.66,6.09a10.22,10.22,0,0,0,.72-1.59,12.19,12.19,0,0,0,.54-1.68,12.08,12.08,0,0,0-3.74-4.37A7.46,7.46,0,0,0,245,307a12.48,12.48,0,0,0-3.41-.11l-15.92.53a3.81,3.81,0,0,0-1.07.73C224.46,308.32,224.65,308.46,224.94,308.51Zm-1,35.45a2.71,2.71,0,0,0,.86,3.21l.25,0-.35.37a4.57,4.57,0,0,0,1.32.31l4.51.1a28,28,0,0,0,3.22-.17c4.85-.6,2.7-1.62-3.36-2.07l-4.57-.26a2.84,2.84,0,0,1-.57-.18,1.62,1.62,0,0,1-.9-.73,5.42,5.42,0,0,1-.25-.54Zm43.78,10.13a18.26,18.26,0,0,0,1.1,2.79A20.13,20.13,0,0,1,267.73,354.09Zm16.49-20.36c.12.23.31-1.13.41-2.32.49-5.9.17-12.76.16-19.18,0-4.94-.2-5.59-.6-3.22-.12.71-.31.13-.46.14,0-1.7-.06-4,0-5,.18-2.1.43-3.5.61-4.84-.12-3.44-.2-2.79-.2-3.41a3.13,3.13,0,0,1,.41-1.29c.05-.16.18-.27.16-.4.05-.47-.38-.72-1.12-.42a3,3,0,0,0-1.68,2.53c-.08,8.61-.15,17.29-.22,25.85,0,3.72,0,5.71.34,6.52A51.56,51.56,0,0,0,284.22,333.73Zm1.45-45.5c.45.17,5.13.55,5.41.87,1,.71,6.66.49,10.51.61l2.75.05a5.29,5.29,0,0,0,1.16-.11,5,5,0,0,1,3,.49,5.8,5.8,0,0,1,2,2,12.18,12.18,0,0,1,1.12,4.66c0,3,.08,5.89.12,8.45l1-3.28,1.09-2.88,0-2.58a13,13,0,0,0-.23-1.86,12.44,12.44,0,0,0-1.36-3.43,9,9,0,0,0-6.77-4.44c-1.48-.24-5.36,0-8.62.06l-10.25.27a4.52,4.52,0,0,0-1.35.77C285.06,288,285.3,288.18,285.67,288.23Zm-1.29,58.69c-.08,1.24-.12.74-.2,1.09a2.84,2.84,0,0,0-.13.49,3.12,3.12,0,0,0,.57,2.3,1,1,0,0,0,.31.09,2.41,2.41,0,0,1-.52.19,4.27,4.27,0,0,0,1.34.78,3.43,3.43,0,0,0,.75.19l.49.05,1.42,0c1.28,0,3.09-.08,4.07-.17,6.12-.6,3.41-1.62-4.23-2.07l-1.4-.09a.45.45,0,0,0-.21-.07l-.35-.17a3.28,3.28,0,0,1-.61-.42,1.71,1.71,0,0,1-.64-1.28c0-1.81,0-3.67,0-5.51l-.18-.75Zm47.38-86.44c-.07.19-.08.43-.15.63.09-.28.17-.53.25-.78Zm-.51,2.18a15.05,15.05,0,0,1,.36-1.55A13,13,0,0,0,331.25,262.66Zm13.94,56.69c.12.3.31-1.43.41-2.91.49-7.43.17-16.05.16-24.14,0-6.22-.2-7-.6-4-.12.89-.31.16-.46.17,0-2.14-.06-5,0-6.27.18-2.64.43-4.41.61-6.09l-.33-9.37a9.14,9.14,0,0,1,0-1.17,2.1,2.1,0,0,1,.18-.83c0-.19.16-.37.13-.5.05-.52-.49-.68-1.24-.08-.79,1-1.23.39-1.14,7-.06,11.23-.13,22.55-.19,33.7,0,4.68,0,7.19.34,8.21C343.74,315.39,344.46,317.58,345.19,319.35Zm1.15-61.56c.56.09,6.45.52,6.8.82.63.35,2.72.47,5.26.52l4,0,2,0c.29.06.59,0,.84.1,1.76.33,2.64.85,3.46,1a5.74,5.74,0,0,1,3.05,2.12,6.46,6.46,0,0,1,1,3.43c-.07,1.88-.13,3.72-.2,5.54s0,3.91,0,5.81c0,3.79.08,7.41.12,10.64l1-4.13,1.09-3.63c0-4.24,0-9.6-.07-14.11a9.47,9.47,0,0,0-5.35-8.47c-2.51-1.27-4.09-1.24-9-1.09l-12.9.27a5.39,5.39,0,0,0-1.68.85C345.59,257.7,345.87,257.73,346.34,257.79Zm4.93,92.54-2.67-.24-.77-.05-.12-.07a.61.61,0,0,1-.24-.11,2.89,2.89,0,0,1-1.34-1.37,1.75,1.75,0,0,1-.14-.42c0-.08-.05-.15,0-.24l0-.13v-1c0-2.67,0-5.34,0-8,0-2.8,0-5.69,0-8.54l-.18-.95-.92,13.41-.23,3.35-.12,1.68a1.16,1.16,0,0,1-.1.39,3.39,3.39,0,0,0,0,1.54c.12.08.16.21.29.28a3.26,3.26,0,0,1-.6-.1,4.16,4.16,0,0,0,3,2.31c.33.08.23,0,1,0l2.42-.13c3.85-.3,4.92-.7,3.83-1.09A16.88,16.88,0,0,0,351.27,350.34Zm-174.7,31.83c-4.52,0-8.94-.12-13.91-.19l-.85.28-10.93,0,2.42-.09c-.14-.24-1.36-.46,0-.61,1.06-.12,5.18-.21,8.12-.22a31.86,31.86,0,0,0,5.41-.22c.66-.15,4.83-.26,7.45-.39,6.44-.31,4.32-.73,4.73-1.11.14-.14-.21-.27-.38-.46l-5.35-.18,8.86-.25-.52.24c1.36,0,3.42,0,4,0,4.27-.28,8.94-.54,12.15-.85,4.29-.41-5.06-.93-12.3-1-9.16-.06-18.52,0-27.79,0-3.81,0-7.63,0-11.66-.08l18.6-.17s0-.07,0-.11c-2.06,0-4.13-.05-6.18-.05-4.06,0-7.07,0-9.59-.24-2.32-.2-6.14-.22-11.36-.19-6.3,0-15,.25-19.48-.19-1.69-.17-.27-.42-.27-.63H100l8.49-1.57L105,373.7c10.52-.15,5.3-.83,13.91-1.07l-8.35-.24c2.75-.21,6-.37,4.4-.71-1.24-.27,4-.61,5.67-.93.69-.13-.72-.29-.33-.43a7.53,7.53,0,0,1,2.92-.48c4.45-.07,6.54-.61,13.56-.23.61,0,2.31,0,3.31,0,1.4,0,2.74,0,4.12,0A25,25,0,0,1,138,361a36.55,36.55,0,0,1-2-5.4,29.23,29.23,0,0,1-1.14-7.35l-.07-4.23c0-2.64,0-5.25,0-7.87l.25-15.79c.16-6.77.16-14.52.13-21.77C135,290,135,281.55,134.87,273V267.4c0-.59,0-1.13.05-2.49a30,30,0,0,1,25.89-28.35,22.72,22.72,0,0,1,2.73-.25l2.14-.06,2.71-.06L176,236c3,.09,4.21-.35,10.17.38A29.17,29.17,0,0,1,207,251a31.73,31.73,0,0,1,3.68,11,26.7,26.7,0,0,1,.26,3.41c0,1.37,0,1.47,0,2.27,0,1.26,0,2.51-.07,3.68l.19-.47a28.13,28.13,0,0,1,.69,4.87c.16,4.82.14,9.93-.18,14.93a29,29,0,0,1,11.71-3.56l4.78-.19c3-.21,6.5-.28,9.82-.22l5,.19a26.91,26.91,0,0,1,7.48,1.42,31.33,31.33,0,0,1,6.88,3.18,30,30,0,0,1,26.31-24.64l2.17-.14,1.7,0,2.15-.06c3.82-.21,8.21-.28,12.39-.22l1.72,0c1,0,1.92.1,2.85.2a30.37,30.37,0,0,1,5.39,1.19,27.58,27.58,0,0,1,5.8,2.73V267.4c0-.59,0-1.13.05-2.49a30,30,0,0,1,25.89-28.35,22.72,22.72,0,0,1,2.73-.25l2.14-.06,2.71-.06,7.63-.21c3,.09,4.21-.35,10.17.38A29.17,29.17,0,0,1,389.93,251a31.73,31.73,0,0,1,3.68,11,26.7,26.7,0,0,1,.26,3.41c0,1.37,0,1.47,0,2.27,0,1.26,0,2.51-.07,3.68l.19-.47a28.13,28.13,0,0,1,.69,4.87c.16,4.91.14,10.13-.19,15.22-.23,3.61-.27,9.51-.41,15.06l-.81-1.52c-.14,15.68-1,9.34-1.71,8.7l.2,16.85c0,4.19,0,8.51,0,12.7,0,1,0,2.09,0,3.11l0,1.53-.14,2.37a25.68,25.68,0,0,1-2.7,9.24,31.33,31.33,0,0,1-3.37,5.39,25.79,25.79,0,0,1-5.5,5.2,24.53,24.53,0,0,1-3.44,1.95c7.33,0,14.73,0,21,.32,1.74.08,6.14,0,8.93,0s5.13.18,7.67.27l-4.5.34c5.34.24,8.1.56,3.11,1-1.14.09.15.27-.09.4-.65.36-2.89.74-13.38.82-5.47,0-11.87.84-9.95,1.23,2.79.56-5.28,1.08-16,1-5.92,0-11.9,0-17.8,0-1.28,0-2.65.14-3.46.23-3,.32-14.34.64-20.75.56-1.25,0-2.85,0-3.47-.1-4.27-.36-4.2-.36-10.43,0,3.31.35,6.64.67,9.41,1,1.06.13.82.29,1.17.43-4,0-8.08,0-12.09,0-1.39,0-2.73-.12-4-.11l-50,.18c-.7,0-1.37,0-2,0,.08,0,.11.08.2.08l39.91.11c4.08,0,8.18,0,12.28-.05,8.1,0,10.42.12,9.38.69l11.58-.26c2.41,0,4.93-.1,7.46-.11,11.69,0,22.09-.27,32.36-.56,3.46-.09,8.13-.07,12.25-.09,6.42,0,12.91-.07,19.23-.14,10.07-.11,14,.09,12.06.61a33.32,33.32,0,0,0-3.35,1.22c-4.84,0-8,.24-6.79.62l-34.95.16.74-.07c-1.73,0-3.44-.14-5.19-.14q-17.68,0-35.37,0c-1.56,0-3.18,0-4.67,0-6.08-.07-7.8-.06-7.14.2,1.24.47-5.54.52-10.26.64-12.45.32-25.86.47-39.22.66-10.66.15-22,.13-32.2.37-2,0-4.54,0-6.83,0-9.41,0-18.38-.27-28.12-.11-1.26,0-4.29-.1-5-.19a13.75,13.75,0,0,1-2.5-.57l-6.68-.09,2.12-.18C185.73,382.1,181.11,382.18,176.57,382.17ZM141,358.85a26.26,26.26,0,0,1-2.37-10.12c0-1,0-1.49,0-2l0-1.6,0-3.2.16-12.79-.16-1.27a28.79,28.79,0,0,0-.37,3.44c0,3.83,0,7.81,0,11.72a72.21,72.21,0,0,0,.37,8.43,28.56,28.56,0,0,0,1.75,6.66Zm61.74-2.3c.07-.19.11-.38.18-.57a25.17,25.17,0,0,1-2.39-6.39c-.15-.41-.33-.82-.44-1.24a14.61,14.61,0,0,0,.53,3.54A24.87,24.87,0,0,0,202.75,356.55Zm2.51,3.67c.55.67,1.11,1.33,1.72,1.94a27.64,27.64,0,0,0,5.75,4.32,29.25,29.25,0,0,0,3.89,1.93h.59a26.07,26.07,0,0,1-11.74-8.57Zm43.56,19.06c-3.63-.24-11.51-.21-19.26.09l7.92,0,.18,0-5.91.12c4,.06,6.26.14,7.63.11C242.74,379.51,245.69,379.38,248.81,379.27Zm13.42-9.69,4-.1c-.54-.5-1.08-1-1.46-1.46a29.22,29.22,0,0,1-3.8-5c-.31.26-.61.57-.92.81a29.83,29.83,0,0,1-7.48,4.57,22.53,22.53,0,0,1-5.2,1.23h8.75C258.19,369.64,260.57,369.64,262.23,369.58Zm1.59-9.4-.18.2a28.77,28.77,0,0,0,2.08,3.25,28.36,28.36,0,0,0,3.65,4.06l.65.31A27,27,0,0,1,263.82,360.19Zm-3-7.44c.09-.25.17-.52.27-.81-.09-.63-.24-1.25-.31-1.88l-.09-2.05v-1.4l.08-5.08-.16-1a18.4,18.4,0,0,0-.37,2.74c0,1.57,0,3.17,0,4.77A26.29,26.29,0,0,0,260.81,352.75ZM327,369.49a24.13,24.13,0,0,1-3.44-4,34.36,34.36,0,0,1-4.22,3.83C321.84,369.36,324.39,369.4,327,369.49Zm-3.44-11.14c0-.1.09-.2.13-.29a26.23,26.23,0,0,1-2.1-9.31c0-1,0-1.49,0-2l0-1.6,0-3.2.16-12.79-.16-1.27a28.79,28.79,0,0,0-.37,3.44c0,3.83,0,7.81,0,11.72a72.21,72.21,0,0,0,.37,8.43,28.56,28.56,0,0,0,1.75,6.66Zm51.36,13.26c.14-.07.27-.11.42-.19-.19.08-.36.12-.55.19ZM336.73,261.74a13.32,13.32,0,0,0-.86,4.68c0,8.82-.36,17.23-.15,26.36a42.55,42.55,0,0,1-.25,4.7,9.87,9.87,0,0,1-.76,2.35l-.12,6.26-.24-2c.06,5.1.11,9.44.16,13.69s-.16,8.38-.26,13l.37.79c0,2.9,0,5.83-.06,10.25l-.12-2.27c-.32.14-.61,1.27-.81,0-.16-1-.28-4.86-.3-7.62,0-3,0-4.22-.29-5.07-.2-.62-.35-4.53-.52-7,0-.46-.06-.78-.1-1.15l-.12-.18c-.14,12.46-1,7.42-1.71,6.91.07,4.77.14,9.13.2,13.39,0,1.66,0,3.36,0,5v3.84l-.11,2.11a25.46,25.46,0,0,1-1.78,7.28,21.52,21.52,0,0,0,8,8.59,25.83,25.83,0,0,0,10.57,3.44c1.77.25.33.57.34.85h16.57l-6.17,1.62c4.36-.05,8.57-.1,12.64-.09.71-.32-.57-.18-.3-.42a32.12,32.12,0,0,1,3.7-2,25.69,25.69,0,0,0,10.06-9.59,18.48,18.48,0,0,0,2.53-9.92c-.17-2.89-.67-3.33-.89-2.61-.74,2.62-1.43-4.95-1.4-15,0-5.55,0-11.15,0-16.69a23.7,23.7,0,0,0-.3-3.25,193.42,193.42,0,0,1-.75-19.45c0-1.17.06-2.67.13-3.25.48-4,.48-3.94.06-9.77l-1.34,8.83c-.17,1-.38.77-.57,1.1V278.24l.15-3.77c-.16-4,.32-7.66-.48-12a17.34,17.34,0,0,0-6.86-10.32,18.29,18.29,0,0,0-11.81-3.25L351,249l-1.9.06c.07,0,.11.11.19.11l9.35,0c3.1.12,6.22-.26,9.52.48A17.06,17.06,0,0,1,381,263.16c.57,4.08.23,7.75.37,11.64,0,7.6-.16,9.77-.92,8.79.14,4.22.24,7.49.35,10.85l.15,7c.06,11,.37,20.71.75,30.33.13,3.24.09,7.62.13,11.48l0,4.53a18.64,18.64,0,0,1-.68,4.86,17.81,17.81,0,0,1-5.1,8.23,15.86,15.86,0,0,1-9.71,4.28c-2.05,0-2.52-.24-1.58-.62a9.46,9.46,0,0,0,2.89-2c4.24-1.06,6.09-3.45,5-3.11a14.56,14.56,0,0,0,6-12.85c0-5.45-.07-10.86-.11-16.27l.09.7c.06-1.62.18-3.23.18-4.87V293c0-1.46,0-3,0-4.37.09-5.7.07-7.32-.26-6.69-.63,1.16-.69-5.19-.85-9.62-.17-2.82,0-6.19-.5-8.36a13,13,0,0,0-3.43-6.4,12.6,12.6,0,0,0-6.33-3.56,13.62,13.62,0,0,0-3.8-.31l-4.69.09-7.59.12-3.76.06a12,12,0,0,0-10.87,7.77Zm-6,6.39a22.84,22.84,0,0,1,.48-5.46,22.3,22.3,0,0,0-.31,3.39,17.5,17.5,0,0,1,1.87-7.16,17.3,17.3,0,0,1,5.83-7.1,14.71,14.71,0,0,0-5.74,5.63A17.36,17.36,0,0,0,330.77,268.12Zm-42.9,11.42c.06,0,.08.11.15.11l14.86.08a17.17,17.17,0,0,1,13.69,6.37,17.91,17.91,0,0,1,1.36,1.95v-.92a17.37,17.37,0,0,0-9.62-7.06,18.65,18.65,0,0,0-5-.69l-4.65,0-9.31.06ZM277.19,289.7a13.67,13.67,0,0,0-1.69,3.36,14.53,14.53,0,0,0-.64,3.83l-.1,5.17c-.07,3.45-.11,6.94,0,10.57a27,27,0,0,1-.25,3.73,6.77,6.77,0,0,1-.76,1.86l-.12,5-.24-1.58c.06,4.05.11,7.5.16,10.88s-.16,6.66-.26,10.36l.37.63c0,1.15,0,2.31,0,3.62a14.34,14.34,0,0,0,.38,3.78,11.9,11.9,0,0,1-.4-1.44c-.31.12-.47,1-.8.12-.33-.56-.43-3.54-.44-5.79s0-3.35-.29-4c-.2-.5-.35-3.6-.52-5.55a12.7,12.7,0,0,0-.5-3.09c-.34,2.38-.92.36-1.43.07.08,3.78.22,7.23.2,10.61l0,2.2a26.12,26.12,0,0,1-.28,3.38,26.43,26.43,0,0,1-1.81,6.54v0c0,.05,0,.1,0,.15l-.05-.13c-.15.36-.35.68-.52,1a17.68,17.68,0,0,0,5.94,8.89,21.74,21.74,0,0,0,9.1,4.42,27.27,27.27,0,0,0,4.81.6,25,25,0,0,1,3,.3c.71.13.67.29.52.46l3.4.14c3.42.17,9.72.18,14.72.27l-.5-.14c1.38-.15,2.28-.36,4-.46a26,26,0,0,0,8.18-6,13,13,0,0,0,1.12-1.38c-.18-.37-.38-.64-.56-1a36.61,36.61,0,0,1-2-5.38,17.68,17.68,0,0,1-5.85,6.81,15,15,0,0,1-8,2.71c-1.63,0-2-.28-1.26-.66a8.14,8.14,0,0,0,2.31-1.85c3.38-.7,5.08-2.3,4.1-2.28a14.38,14.38,0,0,0,7-8.92c.9-3.53.29-8.16.42-12.39l.09.54v-3.44l.2-12.65V309.41c0-1.16,0-2.37,0-3.48.09-4.53.07-5.81-.26-5.31-.73,1-.41-4.45-1.23-7a13.39,13.39,0,0,0-7.45-8.48,12.83,12.83,0,0,0-5.75-1.08l-7.46.18-6,.12-3,.05a14.89,14.89,0,0,0-2.31.28A11.64,11.64,0,0,0,277.19,289.7Zm-6.92,3.15a17.22,17.22,0,0,1,2.46-5.71l.13-.09a16.54,16.54,0,0,0-1.95,4.19,19.63,19.63,0,0,1,3-5.09,17.94,17.94,0,0,1,5.51-4.85C276.67,282,271.12,286.53,270.26,292.85Zm-43.58,7s.07.11.12.11l11.77.08c3.79-.06,8.24-.06,11.86,2.09a17.61,17.61,0,0,1,5.73,4.94c.35.53.52.9.78,1.35,0-.34,0-.67,0-1a5,5,0,0,0-.5-.81,17.45,17.45,0,0,0-13.78-6.93l-14.77.12Zm-8.91,8.41a15.64,15.64,0,0,0-1.91,2.3,12.72,12.72,0,0,0-2,5.7c-.16,2.2-.13,5.35,0,8.11a17,17,0,0,1-.25,3,4.83,4.83,0,0,1-.76,1.48l-.12,3.94-.24-1.25c.06,3.21.11,5.95.16,8.62,0,2.83-.29,5,.36,7.38l.5.27a12.73,12.73,0,0,0,2.62,4.55,5.32,5.32,0,0,1-.85-.83c-.22.24-.07.93-.65.5a9.46,9.46,0,0,1-2.28-3.59,15.38,15.38,0,0,0-1-2.73c-.34-.3-.55-2.58-.7-4.19-.41-3.8-1-2.55-1.48-2.79a.31.31,0,0,0-.28,0c0,1.36,0,2.73,0,4.07,0,1,0,2.09,0,3.11l0,1.53-.14,2.37a25.09,25.09,0,0,1-.57,2.92l.06.14a21.66,21.66,0,0,0,5.43,6.6A20.61,20.61,0,0,1,208,353c0,.17-.06.35-.1.52a40.17,40.17,0,0,0,3.54,5.13,15.71,15.71,0,0,0,7.3,4.79,23.1,23.1,0,0,0,7.78,1.15,27.38,27.38,0,0,1,5.35.37c1,.22.16.56.16.84H242.4l-5,2.09,2.08.14c-6.21.2-3.13,1.11-8.21,1.43l1.84.12h13.18a24.19,24.19,0,0,0,3.14-1c-5.1.88-7.57.28-3.11-.65,1-.29-.19-.33,0-.54a7.64,7.64,0,0,1,2.42-1.23,30.22,30.22,0,0,0,7.73-4.3,12.68,12.68,0,0,0,2.65-2.73c-.16-.38-.4-.72-.54-1.1a27.12,27.12,0,0,1-1.38-5.24,18.11,18.11,0,0,1-7,6.47,13.66,13.66,0,0,1-6.53,1.69c-1.3-.07-1.59-.3-1-.68a7.5,7.5,0,0,0,1.83-1.78c2.69-.46,4.14-1.56,3.33-1.74a14.6,14.6,0,0,0,8.74-14.89l.09.44q.07-1,.13-2.1c0-1,0-2,.06-3V318.42c0-1,0-1.85-.07-2.61-.29-3.22-1-4-1.07-3.58-.35.79-1.55-2.44-3.35-4a13.35,13.35,0,0,0-8.19-3.86,53.86,53.86,0,0,0-5.4,0l-5.91.18-4.78.12-2.37.05a12.48,12.48,0,0,0-1.83.21A11.07,11.07,0,0,0,217.78,308.28Zm-6.78.49a17.53,17.53,0,0,1,3-3.94l.12,0a17.5,17.5,0,0,0-2.25,2.9,21.22,21.22,0,0,1,3.24-3.39,18.4,18.4,0,0,1,4.82-3.29C217.66,301.33,213,304.2,211,308.76Zm-44.81-59.7c.07,0,.11.11.19.11l9.35,0c3.1.12,6.22-.26,9.52.48a17.06,17.06,0,0,1,12.86,13.47c.57,4.08.23,7.75.37,11.64,0,7.6-.16,9.77-.92,8.79.14,4.22.24,7.49.35,10.85l.15,7c0,1.5,0,2.94,0,4.4a28.22,28.22,0,0,1,2.51-4.92c-.09-3-.13-5.94-.09-8.24,0-1.17.06-2.67.13-3.25.48-4,.48-3.94.06-9.77l-1.34,8.83c-.17,1-.38.77-.57,1.1V278.24l.15-3.77c-.16-4,.32-7.66-.48-12a17.34,17.34,0,0,0-6.86-10.32,18.29,18.29,0,0,0-11.81-3.25l-11.72.06Zm-18.33,19.06a22.84,22.84,0,0,1,.48-5.46,22.3,22.3,0,0,0-.31,3.39,17.5,17.5,0,0,1,1.87-7.16,17.3,17.3,0,0,1,5.83-7.1,14.71,14.71,0,0,0-5.74,5.63A17.36,17.36,0,0,0,147.86,268.12Zm-4.18,80.15a19.64,19.64,0,0,0,1.83,8.11,21.55,21.55,0,0,0,8.45,9.4,25.83,25.83,0,0,0,10.57,3.44c.86.12.94.26.83.4,2.81,0,5.6,0,8.45.09,5.07.09,10.66.11,16.21.11l1.28-.68a25.84,25.84,0,0,0,9.61-8.91c-.45-.66-.94-1.3-1.33-2a30.2,30.2,0,0,1-1.9-4.2,17.64,17.64,0,0,1-4.49,6.84,15.86,15.86,0,0,1-9.71,4.28c-2.05,0-2.52-.24-1.58-.62a9.46,9.46,0,0,0,2.89-2c4.24-1.06,6.09-3.45,5-3.11a14.56,14.56,0,0,0,6-12.85c0-5.45-.07-10.86-.11-16.27l.09.7c.06-1.62.18-3.23.18-4.87V293c0-1.46,0-3,0-4.37.09-5.7.07-7.32-.26-6.69-.63,1.16-.69-5.19-.85-9.62-.17-2.82,0-6.19-.5-8.36a13,13,0,0,0-3.43-6.4,12.6,12.6,0,0,0-6.33-3.56,13.62,13.62,0,0,0-3.8-.31l-4.69.09-7.59.12-3.76.06a12,12,0,0,0-10.87,7.77,13.32,13.32,0,0,0-.86,4.68c0,8.82-.36,17.23-.15,26.36a42.55,42.55,0,0,1-.25,4.7,9.87,9.87,0,0,1-.76,2.35l-.12,6.26-.24-2c.06,5.1.11,9.44.16,13.69s-.16,8.38-.26,13l.37.79c0,2.9,0,5.83-.06,10.25l-.12-2.27c-.32.14-.61,1.27-.81,0-.16-1-.28-4.86-.3-7.62,0-3,0-4.22-.29-5.07-.2-.62-.35-4.53-.52-7-.41-6-1-4.05-1.48-4.43-.18-.13-.37.19-.62.36l-.24,5-.34-8.3.33.48c0-1.28,0-3.21,0-3.72-.37-4-.73-8.38-1.14-11.39-.55-4-1.24,4.74-1.3,11.53,0,8.59,0,17.36-.05,26.05,0,3.57-.07,7.14-.11,10.93L144.44,329h-.15l-.07,5.79a77.36,77.36,0,0,1-.33,9A36.48,36.48,0,0,0,143.68,348.27Zm4.25,24.17-.33-.21c-1.8,0-3.6,0-5.41,0-1.48,0-3,0-4.47-.07l-.57.15Zm63.49-2.74a28.54,28.54,0,0,1-8.12-6.39c-.27.38-.47.75-.78,1.13a25.79,25.79,0,0,1-5.5,5.2l-.25.15H197C201.84,369.79,206.62,369.75,211.41,369.71Zm-3.33,20.45c-1-.09-.17-.23-.18-.35,2.28,0,5.39,0,6.68,0,2.81.13,4.7.32,6.5.46l19.72-.49c1,0,2.15-.07,2.57-.13,4.26-.54-6.16-1.23-17-1.22-12,0-24.06-.06-35.95-.15a59.75,59.75,0,0,0-8.76.25c-2.52.54-4.85,1.08-6.74,1.63a12.7,12.7,0,0,0,3.11.31c7.93.36,17.12.13,25.76.12C210.4,390.59,211.26,390.45,208.08,390.16Zm109.79-5.84c-4.58,0-10.38.11-15.25,0-7.07-.11-11.77.09-17.51.19-8.6.15-17.54.25-27.24.38-.76.1-2.38.28-3.29.47-.42.09.07.21,1,.29,2.81.25,8,.47,8.64.73,1.34.53,8.94.36,14.11.45a58.56,58.56,0,0,0,8.65-.28c1.81-.25,4.63-.49,7.9-.7,1.33-.08,6.14-.14,7.41-.08,8.47.38,17,.08,23.87.1-1.6-.28-3.12-.52-4.41-.77S319.18,384.59,317.87,384.31Zm-183.88,5,1.75-.33c-5.54-.06-10.54-.14-15.63-.17-1.72,0-4.14.06-5.46.13-8.21.45-4.58,1.21,5.68,1.55,10.92.36,22.61.19,33.9.27,3,0,6.07,0,9.11,0l1-.13-28.61-1.38Z"/></svg>