<svg id="Layer_1" data-name="Layer 1" xmlns="http://www.w3.org/2000/svg" viewBox="0 0 512 512"><defs><style>.cls-1{fill:#d9e4e8;}.cls-2{fill:#9bbdc6;}.cls-3{fill:#3fc451;}.cls-4{fill:#141f38;}</style></defs><title>document-linear-chart-filled</title><path class="cls-1" d="M115.2,499.2A51.26,51.26,0,0,1,64,448V64a51.26,51.26,0,0,1,51.2-51.2H302L448,158.9V448a51.26,51.26,0,0,1-51.2,51.2Z"/><path class="cls-2" d="M358.4,153.6a51.26,51.26,0,0,1-51.2-51.2V18.12L442.34,153.6Z"/><path class="cls-3" d="M243.2,281.6A25.6,25.6,0,1,1,268.8,256,25.62,25.62,0,0,1,243.2,281.6Z"/><path class="cls-4" d="M307.34,0H115.2a64,64,0,0,0-64,64V448a64,64,0,0,0,64,64H396.8a64,64,0,0,0,64-64V153.6ZM411.49,140.8H358.4A38.44,38.44,0,0,1,320,102.4V49.08ZM435.2,448a38.44,38.44,0,0,1-38.4,38.4H115.2A38.44,38.44,0,0,1,76.8,448V64a38.44,38.44,0,0,1,38.4-38.4H294.4v76.8a64,64,0,0,0,64,64h76.8Z"/><path class="cls-4" d="M329.05,285.35a13,13,0,0,0-10-3.72,12.79,12.79,0,0,0-9.33,5.09l-27,36-20.16-33.61a38.4,38.4,0,1,0-39.52-.41L192,335.32,177.05,312.9a12.79,12.79,0,0,0-10.65-5.7h-.31a12.78,12.78,0,0,0-10.67,6.21l-38.4,64A12.8,12.8,0,1,0,139,390.59l28-46.66,14.38,21.57a12.8,12.8,0,0,0,21.3,0l40-60,28,46.66a12.81,12.81,0,0,0,10.31,6.19,12.56,12.56,0,0,0,10.9-5.1l29.55-39.39,28,28a12.8,12.8,0,0,0,20.94-4.29l25.6-64A12.8,12.8,0,1,0,372.11,264l-18.39,46ZM243.2,243.2A12.8,12.8,0,1,1,230.4,256,12.81,12.81,0,0,1,243.2,243.2Z"/></svg>