<svg id="Layer_1" data-name="Layer 1" xmlns="http://www.w3.org/2000/svg" viewBox="0 0 512 512"><defs><style>.cls-1{fill:#707070;}</style></defs><title>document-linear-chart-handdrawn</title><path class="cls-1" d="M74.89,47.43c.56-1,1.18-2,1.8-3Q75.74,45.93,74.89,47.43Zm5.22-7.77a58.05,58.05,0,0,1,4.24-4.78A54.85,54.85,0,0,0,80.11,39.67Zm-5.88,9c.22-.41.42-.83.65-1.23C74.66,47.84,74.45,48.25,74.23,48.66Zm2.46-4.2c.68-1,1.39-2.08,2.14-3.09C78.09,42.38,77.37,43.41,76.69,44.46Zm3.42-4.79c-.44.56-.85,1.13-1.28,1.71C79.26,40.8,79.66,40.23,80.11,39.67ZM85,502.08a73.89,73.89,0,0,1-24.86-27.95,70.69,70.69,0,0,1-7-21.54,81.45,81.45,0,0,1-1-11.77c0-3.38,0-6.78,0-10.19.06-60.16.13-120.78.19-180.48,0-25,0-38.51-.34-44-.72-12.65-1.44-24.34-2.17-33.84-.12-1.58-.31,7.64-.41,15.61-.49,39.79-.17,86-.16,129.3,0,33.32.2,37.66.6,21.69.12-4.78.31-.87.46-.92,0,11.47,0,27,0,33.56l-.61,32.63L50,429.56q.07,6.38.14,12.71a77.83,77.83,0,0,0,1.84,14.94A74.22,74.22,0,0,0,85.76,504a66.05,66.05,0,0,0,14.15,6.56c6.18,1.94,7.18,1.63,4,.73A80,80,0,0,1,85,502.08Zm376.39-91.95-1,22.13c-.2,3.53-.3,6.59-.6,10a65.68,65.68,0,0,1-1.56,10.37,67,67,0,0,1-18.82,36C429.12,498.72,415.25,505.4,402,507c-10,1.16-17.67.49-25.42.68l-21.8.06-41.46.23-136.74.51-16.53.63c-2.12.12.36.28,4.91.39,14.08.33,40.13.63,43.38,1,6.71.7,44.86.49,70.86.61,22.09.1,34.71-.05,43.41-.37,9.09-.34,23.26-.66,39.66-.93l18.72-.12h10.92c3.47-.1,6.65-.24,8.39-.41,24-2.23,45.82-18.51,55-39.63a80.8,80.8,0,0,0,3.1-8c.68-2.75,1.54-5.44,2-8.2a60.89,60.89,0,0,0,.94-8.23l.19-4.08v-3.6C461.45,427.95,461.44,418.79,461.42,410.14ZM49.78,83.52l.15-9.12A75.75,75.75,0,0,1,51,63.51a70,70,0,0,1,6.77-20.73A73.57,73.57,0,0,1,87.24,11.63,71.14,71.14,0,0,1,107.37,3.8,72.89,72.89,0,0,1,118,2.17L123.43,2c1.82-.06,3.08,0,4.65,0l8.82-.1-8.81.45,78.47.23L234,2.39c41.24-.6,23-1.62-28.54-2.07L163.68.07,142.43,0H131.74C128,0,125-.11,120.25.19A74.47,74.47,0,0,0,72.57,20.78a75.8,75.8,0,0,0-23,46.34c-.21,2.29-.29,4.61-.41,6.93s0,3.9-.05,5.9V91.38c0,7.65,0,15.34,0,23l.18,5.08ZM329,181.72A60.85,60.85,0,0,0,340.39,185c1.29.22.18-.2-2.88-1.18-1.83-.59-.26-.38-.24-.54a77.12,77.12,0,0,0,13.14,2.25c5.9.55,8.71.69,11.68.88l32.47-.66c1.67,0,3.54-.1,4.23-.17,7-.72-10.13-1.64-28-1.63l-14.84,0a74.29,74.29,0,0,1-17.34-2.26,70.35,70.35,0,0,1-30.44-16.32c-7.17-6.54-10-11-11.52-12.5a100.52,100.52,0,0,1-8.42-10.57c-.36-.54,1,2.93,2.42,5.8C297.83,162.49,312.59,175.59,329,181.72Zm133.83-3.39c.11.49-.56.28-.8.45l-4.22,1-2.26.53v2.12l-.05-2.11h-.05c-.06,8.14-.11,16.21-.17,24.44q0,88.74,0,177.56c0,7.82,0,16,0,23.43-.06,30.49-.12,39.21.23,35.84.22-1.59.32-.63.27,2.17a53.56,53.56,0,0,1-1.63,12.8C451.89,467.51,444,481,434.49,489a63.54,63.54,0,0,1-21.23,12.41c-7.79,2.83-16.56,3.68-24.62,3.59l-49,.22-100.14.37-81.68.2-20.42,0c-6.79,0-13.38.28-20.65-.43a64.68,64.68,0,0,1-55.48-48.74,69,69,0,0,1-1.65-9.28c-.14-3.1-.39-6.35-.31-9.19q0-8.77,0-17.48c0-11.63.07-23.21.1-34.85,0-23.28,0-46.76,0-71.22,0-6.32.13-21.56.25-25.16.23-6.88.49-8.35.76-12.57,0-9.32.07-20.39.12-33.54.07,3,.12,5.39.24,10.66-.06-27.31-.11-50.54-.16-73.33s.16-44.9.26-69.84l-.37-4.25c0-7.76,0-15.58,0-24.4,0-2.21,0-4.47,0-6.82s.16-5,.47-7.6a65.87,65.87,0,0,1,4.24-16.54c-3.89,10.53-3.73,15.37-3.44,12.22.34-.73,2.19-6.76.81.07-1.53,5.62-.68,26.37-.82,41.07,0,15.84,0,22.6.29,27.17.2,3.34.35,24.23.52,37.4.41,32.33,1,21.7,1.48,23.73.18.71.37-1,.62-1.91,0-2,.1-10.89.24-26.87.13,17.33.22,29.34.34,44.47L65,206c0,6.84,0,17.18,0,19.94l1.14,61c.55,21.54,1.24-25.38,1.3-61.76,0-46,0-93,.05-139.52,0-9.8-.24-18.68,2.57-27.39a58.43,58.43,0,0,1,4.21-9.62,56,56,0,0,0-6.49,25.26l0,46.6.15-.06c0-10.35,0-20.72.07-31,0-5.09,0-9.85,0-14.33l.36-6c.32-1.92.56-3.79.92-5.58a51.73,51.73,0,0,1,7.56-17.91A59,59,0,0,1,91.31,30.33,55.67,55.67,0,0,1,120,19.61c3.48-.26,7.68-.26,12-.25l13.09,0,26.84,0c17.67,0,34.2.08,45.47.37,8.47.22,1.37.56,1.37.84h82.57V15.77h-.53q-2.63-.06-4-.16c-1.89-.14-2.17-.35-.89-.64,2.31-.51,3.55-1,5.51-1.62l6.31-.09c3.39,3.22,5.36,4.86,4.48,3.45L353,57.34l-.55-.47L413,117.34c.34-.36,7.37,6.59,12.52,11.53l23.88,23.23c2.51,2.35,3.94,4.67,6,7,.52.61.81,1.12,1.22,1.68.12.73.09,1.56.14,2.34l.19,4.75.19,4.78c0,.78.11,1.64,0,2.35l-1.62.18v2.29l1.73-.32,1.53-.28c.39-.2,1.33.11,1.06-.71l-.14-3.49-.27-6.9c-.21-2.16.19-4.9-.93-6.14l-4.65-6.74-6.77-6.65-5.65-5.58L435.79,135,418,117.21l-3.72-5.28-4.4-5.86c8,8,18.18,17.69,27.66,27.91,1.43,1.54,7.06,7.09,8.69,8.56l8.34,7.74,1.91,1.75c.47.56.76,1.08,1.13,1.59l1.9,2.77,1.76,2.69a4.58,4.58,0,0,1,.74,1.5,4.43,4.43,0,0,1,.34,1.91c.16,3.24.3,7.27.4,12.34q0,1.12,0,2.3Zm-73.48-6.49-9.73.15,12.57.14,15.53-.42c-6-.32-18.95-.28-31.71.11l13,0Zm30.46-13,10-.07c1.5,0,1.15-.05,1.19-.07l0-.06,0-.08s0,0,.07,0,.31-.09.3-.49c0,0,0,0,0-.1l-.83-.88-1.85-1.94-4.27-4.41-9.14-9.36.45.71a84.76,84.76,0,0,1-6.53-5.57c-6.2-6-12.66-12.49-18.74-19.05-4.32-4.66-11.61-12-18.39-19l2.45,1.32c-19.35-19.59-10.88-12.32-9.58-12l-21-20.8C333.56,56.49,322.45,45.48,313.74,36L303.74,26l-.09-.11c.28,12.69,1.07,6.35,1.37,19.46l.32-13.75c.28,4.52.49,9.87.95,7.25.36-2,.82,6.51,1.25,9.34.17,1.14.38-1.18.57-.55a15.06,15.06,0,0,1,.63,4.8c.1,7.33.81,10.77.3,22.32,0,1,0,3.8,0,5.44,0,9.44.1,18.64.14,27.83v3.45l.12,2.74a31.28,31.28,0,0,0,.5,5.3,49.47,49.47,0,0,0,2.73,10.36,46.45,46.45,0,0,0,35,28.32,58.42,58.42,0,0,0,8.69.74l11.27,0ZM305.49,83.67c0-2.43.06-4.9.1-7.35l-.2-.94-.16,22.46-.08,11.23,0,2.79.11,2.35a29.41,29.41,0,0,0,.39,4.68l.44,1.82c0-1.68-.26-3.09-.26-5l-.19-4.28v-5.15c0-3.45,0-6.91,0-10.34C305.55,91.81,305.52,87.76,305.49,83.67ZM302.86,24.3l.3-.06h0l-.32,0ZM303,25l.48,3.19.06-2.54Zm147.76,146.5H449.6c0,.1,0,.19,0,.29A5.26,5.26,0,0,0,450.73,171.54Zm-24.76.13c.13,0,.19.11.33.11l15.65,0,.41,0c0-.08,0-.16,0-.24l-13,0Zm23.63,6.92a14.62,14.62,0,0,0,1.52-.27l1.3-.24c0-.83,0-1.67,0-2.5l-2.8.32C449.6,176.8,449.6,177.7,449.6,178.6ZM302.29,20.48h5.16l-5.12.25.2,1.31a10.07,10.07,0,0,1,1.68-.32,31.64,31.64,0,0,1,2.59,2.22l7.59,7.39c6.4,6.33,14.6,13,12.72,10.44-2.72-3.78,7.15,5.14,19.54,17.62l20.71,20.74c1.5,1.49,3.21,3,4.24,3.82,3.76,3.17,17.27,16.11,24.65,23.65,1.44,1.47,3.27,3.37,3.94,4.14,4.62,5.31,4.54,5.23,12.08,12.2l-10-11.92c-1.11-1.35-.68-1.22-1-1.77l14.05,14.09,4.56,4.79,28.36,28.26c1,1.17,2.53,2.08,3,3.45l.16,4.7.17,4.71,0,.72a2.26,2.26,0,0,0,.7-1.35c0-.46,0-.86,0-1.33a7.62,7.62,0,0,0-.32-1.58l-.1-3.84a8,8,0,0,0-.23-2.36L419.18,128,350.81,59.83q-16.43-16.35-26.66-26.66l-12-11.87-5.52-5.48-5.07-.05ZM73.39,119.86c.05,2.26.11,4.55.16,6.83.13-6.09.36-11.34.37-18.44,0-10.26,0-20.72,0-31.23a52,52,0,0,1,5.86-25.46,50.86,50.86,0,0,1,21.71-21.4A49.89,49.89,0,0,1,119.21,25l2.36-.31c-19,.74-37,13.42-44.17,31.15a55.3,55.3,0,0,0-3.56,13.77c-.15,2.51-.36,4.47-.35,7.45l0,8.56ZM64.65,446.63c.24,2.14.59,4.2,1,6.22A55.34,55.34,0,0,1,64.65,446.63ZM131.07,501c-4.57-.17-10.43.16-17-1.13a60.81,60.81,0,0,1-21.13-8.13c-12.32-7.26-22.87-21-26.81-37a58.43,58.43,0,0,0,14.3,27l.57.7a63.18,63.18,0,0,1-6.54-8,62.39,62.39,0,0,1-7.93-17.07,57.85,57.85,0,0,0,10.62,21.07,58.6,58.6,0,0,0,10,10,59.75,59.75,0,0,0,21.21,10.55C115.73,501,123.2,501.17,131.07,501Zm36.87-12.85,30.49-.07c51.53-.43,118.14-.26,159.14.29l34,.22a52.94,52.94,0,0,0,15.77-2.26,47,47,0,0,0,13.61-7l-1.66,1,3.47-2.84,3-3a55.39,55.39,0,0,0,6.82-9.15,45.17,45.17,0,0,0,5.65-14.13c1.09-5.18,1.19-9.66,1.15-17.18.09-13.68.19-27.47.28-41.12.1-19.37.26-51,.41-80.68l.81,8.12c.14-84,1-50,1.71-46.58-.07-32.15-.14-61.48-.2-90.22,0-.62,0-1.26,0-1.88a67.49,67.49,0,0,1-8-.44c-.44-.09-1.61-.17-3.22-.25l-3.79-.24-8.44-.48c-1.49-.11-2.31-.27-1.61-.39,1.49-.25,4.17-.49,5.42-.63l13.27-.13c2.08-.07,4.29,0,6.44,0v-2.74l-52.08.56-11.25,0-22.94-.15a69.42,69.42,0,0,1-24.29-4.74A46.24,46.24,0,0,1,324,168a28.47,28.47,0,0,1-3.32-2.91,71.56,71.56,0,0,1-8.89-7.32l2.87,2.28a62.9,62.9,0,0,1-15.5-19.55,61.55,61.55,0,0,1-6.33-22.91l-.44-1.43c-.38-5.45-.11-10.37-.16-18.18l.12,4c.32-.24.61-2.24.81,0,.24,1.79.1,8.45.48,13.46a35.51,35.51,0,0,0,1.39,9c.24.52.83,2.47,1.51,4.8s1.88,4.93,2.72,6.94c2.44,4.8,3.59,6.19,4.13,6.5s.36-.41.75-.25.14-.48.21-.84a54.15,54.15,0,0,1-3.54-7.84A57.37,57.37,0,0,0,307.91,146l-.76-.47a55.05,55.05,0,0,0,3.91,5A53.12,53.12,0,0,0,326.53,162c6.15,2.85-6.84-4.33-13.78-13.22a58.35,58.35,0,0,1-13.61-39.66c0-6.27.07-12.55.11-19.2l.11,15.31c0,5.23,0,10,.76,14.66l.14,0a68.07,68.07,0,0,1-.57-9.5c0-6.68,0-11.64.33-15.8.26-3.82.3-10.11.25-18.7-.06-10.38-.33-24.67.25-32.06.22-2.78.56-.45.84-.45V24.74l-1.4-.05c.38,0,1.12-.06,1.4-.09V24c-1.11-.09-2.45-.19-2.94-.29s-.67-.22-.07-.34c.3-.06.76-.12,1.4-.19.37,0,1.15-.1,1.61-.14V20.78L264.8,22.57l17.73.14c-52.82.2-26.61,1.11-69.83,1.43l41.94.32c-13.78.28-30.1.49-22.11.95,6.25.36-19.85.82-28.47,1.25-3.48.17,3.59.38,1.68.57a135,135,0,0,1-14.64.63c-22.21.13-33.14.75-67.75.37a49.31,49.31,0,0,0-12.62,1.95A48,48,0,0,0,85,49.69a44.5,44.5,0,0,0-6.29,14.86c-1.23,5.42-1.33,10-1.28,17.73-.08,28-.16,56-.24,84.58,0,36.25-.09,77.77-.13,116.58.08,45.94.17,91.35.25,137.29v19.9a51.47,51.47,0,0,0,2.42,15.2A47.85,47.85,0,0,0,98,480a48.77,48.77,0,0,0,13.92,6.37,53.94,53.94,0,0,0,7.54,1.48c2.6.11,4.89.33,8.54.27ZM452.43,181l-2.83.66c0,26.93,0,54,0,80.79,0,6.44.18,13.28.3,17.39.42,14.92.85,72,.75,104.16,0,6.28-.11,14.32-.13,17.43-.24,10.71-.36,16-.37,22.48,0,3.25,0,6.8.07,11.51s.32,10.3-1,17.61c.43-1.92.72-3.87,1.1-5.81l.5-5.89c.12-4.11.24-8.19.35-12.19.23-8,.46-15.66.66-22.63a25.58,25.58,0,0,1,.57-5.87v30.38c0,5.05.1,10.17-.26,15.06a58.38,58.38,0,0,1-3.1,14.45,57.1,57.1,0,0,1-9.53,17.15,58.86,58.86,0,0,1-38.91,22.31,111.54,111.54,0,0,1-15.48.61l-62.76.06-125.5.13-10.19.06a7,7,0,0,0,1,.11l200.34.15c10.17.19,20.42-1,29.6-5.5a59.63,59.63,0,0,0,23.32-19,58.78,58.78,0,0,0,10.32-22.43A75,75,0,0,0,452.9,439c.14-7.34.37-8.94.75-6.31-.14-22.62-.24-40.11-.35-58.13,0-12.1-.1-24.76-.15-37.46C452.89,280.87,452.66,230.54,452.43,181ZM281.77,122a54.78,54.78,0,0,1-.4-7.22c-.08-2.58,0-4.53.09-6.44l.46-11.78.92-23.55-.1-2.89.44,2.89c.08-9.13.16-17.35.23-25.73,0-2.83-.08-6.82-.17-9-.6-13.52-1.62-7.54-2.07,9.36-.48,18-.25,37.23-.35,55.81,0,2.46,0,5,0,7.46.06,2.7.21,6.09.48,9.07ZM193.7,354.95l-12.08-18.59-.78-.5L174,325.44l1.55,2.1c0-.63-.83-2.35.11-1.3.74.82,3.66,5,5.74,8.07a46.48,46.48,0,0,0,4.23,5.82c.74.75,4.39,6,6.63,9,5.48,7.48,3.68,3.77,4.09,3.47.12-.14-.12-.84-.22-1.44l-3.76-6.07,5.22,7.33,1-1.63-.34,1.09,2.81-4.22,4.22-7.33,3.59-6.44c1.47-2.7.21-1.37-2.14,1.71-1.93,2.44-4.34,5.73-6.43,8.81l-2.73,4-16.66-25L173,311.51l-3.66,6,3.66-6.18,15.22,22.51.1-.11-6.41-9.74c-3.69-5.52-6.51-9.82-8.94-13.81l-1,1.54c-2.31,3.34-6.19,9.73-11.37,18.46l-8.45,14.31c-2.58,4.31-5.07,8.3-7,10.89-1.43,2-.68,0-.92-.1l-13,21.61,4.45-11.47L133,369.63c7.55-13,2.94-7.06,9-17.75l-6.41,10.06c1.77-3.51,4-7.59,2.42-5.88-1.22,1.34,2.2-5.26,3.1-7.58.36-.94-.86.68-.73.12a11.47,11.47,0,0,1,1.6-3.9c1.59-2.75,2.62-4.85,3.95-7.31.66-1.23,1.4-2.55,2.32-4.08l5.38-8.62,4.8-8,14.16-23.87L191.29,321l4.67,7.07,1.17,1.77c.39.59.11.18.19.31v.05l.05.3a2.67,2.67,0,0,0,.19.47,2.41,2.41,0,0,0,.29-.36l1.31-2L220.6,296l4.28-6.42a36.79,36.79,0,0,1-16.75-29.69c-.12-1.54,0-3.33,0-4.59A32.74,32.74,0,0,1,210.85,243a32,32,0,0,1,6.42-9.43,47.3,47.3,0,0,1,8.47-7l-.42,0a13.9,13.9,0,0,1,3-2.6,28.18,28.18,0,0,1,11.77-3.74,42.51,42.51,0,0,1,12.08.36l-1.3.62c6.11,1,7.67,2.22,7.78,2.51s-1.29.3-1.62.56A33.07,33.07,0,0,1,268.3,230c5,3.84,9.09,9.5,10.65,14.77a45.84,45.84,0,0,1,1.8,6,27.79,27.79,0,0,1,.33,5.32,21.66,21.66,0,0,0-.76-3c.16,3.67-.37,5.44-1,2.21-.17-.73-.35.13-.54,0-.63-.34-.76-1.85-2.92-8-1.2-3.28-4.29-6-4.09-4.71.13,1.82-2.45-2.15-7-6.07a27.25,27.25,0,0,0-8.62-5,5.77,5.77,0,0,0-1.93-.33,48.76,48.76,0,0,0-11.33-.13,17.19,17.19,0,0,1-1.89.16c-2.35.09-2.42,0-5.44,1.61a24,24,0,0,1,5.18-.25c.57,0,.49.28.7.44a27,27,0,0,0-5.82,1.9,20,20,0,0,0-1.89.79,25.64,25.64,0,0,0-12.81,20.75v1s.11-.05.11-.1a25.29,25.29,0,0,1,8.17-17.67,26.43,26.43,0,0,1,4.91-3.67c3.6-1.91,4.88-1.8,4.59-1a24.19,24.19,0,0,1,5.43-1.49,19.46,19.46,0,0,1,3.66-.19,27.74,27.74,0,0,1,15,5.19,21.87,21.87,0,0,1,4.32,4.47,26.42,26.42,0,0,1,4.32,8.78c1.29,5.05.59,7.13,0,6.13a10,10,0,0,0-1.7-1.54c-.24-2.26-.87-3.61-1.24-3a22.72,22.72,0,0,0-8.27-12.88l.32.12a17.38,17.38,0,0,0-1.77-1.52,22.7,22.7,0,0,0-15.19-3.55l-2.07.34c-2.69.54-3.37,1-3,1.16.72.39-2.05,1.43-3.64,2.73a22.19,22.19,0,0,0-8.71,13.49,19.88,19.88,0,0,0,1.52,12.77c.43.67.77,1.65,1.3,2.41a18.58,18.58,0,0,0,8,7.75,13.78,13.78,0,0,1,1.75,1.07,3.5,3.5,0,0,1,.71,1.07,23.54,23.54,0,0,0,2.7.85,7.62,7.62,0,0,1-.93,0,29,29,0,0,0,12.13-.47l.22-.47a19.06,19.06,0,0,0,4.19-2L257,277c.21.25.82.22.41.7a10.45,10.45,0,0,1-3.17,1.79c-1.32.55-1.93.61-2.26,1s-2.09.8-3.29,1.12c-3,.56-2,1.07-2.2,1.59-.07.19.11.36.2.61.2,0,1.1.08,2.74.05a25.55,25.55,0,0,1-4.55.46l.28-.31-2-.16a34.71,34.71,0,0,1-6.44-.45c-2.41-.37,2.09,2.4,6.23,2.88a27.76,27.76,0,0,0,15.25-2.31,33.8,33.8,0,0,0,5.66-3.31,28.66,28.66,0,0,1-9.22,5l0,.14a29.31,29.31,0,0,0,3.35-1.16c2.13-1,3.6-1.84,5-2.41A16.54,16.54,0,0,0,268.1,278c2.55-2.72,4.77-7.27,6.14-9.57.55-.86.59,0,.85.14A30.06,30.06,0,0,0,277,258.12a32,32,0,0,1,1.61,5.47l.46-2.25a24.36,24.36,0,0,0-.24,5.08c.08.77.34,1.43-.56,4.23a36.27,36.27,0,0,0,2-5.37c-.16,1.89-.59,4.15.15,3.21.64-.74-.11,2.92-.24,4.25-.06.53.57-.33.63,0a3.38,3.38,0,0,1-.36,2.24c-1.45,3-1.62,4.88-5.47,8.63l-1.73,1.81a34.26,34.26,0,0,1-6,4.86l5.78,9.5,5.73,9.16,5.44,9a2.55,2.55,0,0,0,0,.86l.06.1c.07.1.19,0,.35-.09l.24-.22.13-.12,1.48-1.91-.58.45a64.11,64.11,0,0,1,3.9-6.34l6.82-9.24,12.55-16.27,8.87-11.5,21.4,21.7-3.62-2.48,7.31,7.42,3.3,3.5c1.65,1.8,2.25,2.61,2.3,2.88.09.54-2.07-1.06-2.67-1.15l3.08,3,1,.91,1.85,1.76,0-.06,1.55-3.76,3-7.18,3.5-8c1-2.26,3.23-8.14,4.77-11.81l4.4-10-2,6.13c3.13-7,5-10.45,2.86-3.64-.49,1.56.41-.07.45.32.1,1-.62,4.19-6.07,18.13-2.84,7.27-5.25,16.15-3.75,13.79,1.08-1.71.72.17-.63,4.24-.9,2.94-2.54,7.51-4.6,12.6l-.88,2.19-11.32-11.28c-1.3-1.29-2.8-2.54-3.71-3.28l-3.09-2.71-4.89-4.56-12.42-12L315.61,295c-1.3,1.7-3,3.87-3.66,4.66-2.35,2.74-3.57,4.17-5,6-1.17,1.55-2.37,3.31-4.88,7l9.53-10.47c1.11-1.2,1-.69,1.42-.94l-10.71,14.28L298.8,320,283,341.14,261.77,306l-1.54-2.45c0,.12,0,.19.06.3L283,341.94l6.38-8.47,10.11-13.59c6.92-9.26,9.06-11.8,8.76-10.15l9.83-13.7,1.37-1.9,6.14,6,16.16,15.83,13.9,13.27.94-2.55,5.82-14.89,10-25.44c5.2-13.39,7.52-18.48,7.15-15.67a49.9,49.9,0,0,0-.27,5c-2.53,6.44-4,10.74-2.83,9.3l-19.38,49,.41-1.27-.74,1.7-4.55-4.73-32.51-32.52-2.36,3.14-3.54,4.72-4.87,6.45c-.92,1.29-1.08,1.64-.65,1.36,1.56-1-4.19,6.74-8.1,12.22l-17.53,24.16-18.74-30.43-14-22.74a40.82,40.82,0,0,1-7.51-.17l-2.33,3.54-10,14.75c-3.72,5.47-7.46,11-11.23,16.85-1,1.51-3.51,5-4.18,5.81a20.78,20.78,0,0,1-2.62,2.55l-6.45,9.46,1.88-3.26-9.88,15.09Zm43.23-60h0c-.4.65-.81,1.28-1.21,1.92Zm28.29-8,.19.31.26-.15a38,38,0,0,0,4-3.22c.76-.68,1.55-1.34,2.25-2.09l.11-.43A33.27,33.27,0,0,1,265.22,287Zm-43.83-24a16.85,16.85,0,0,0,3.71,8.88,25.17,25.17,0,0,1-1.93-3.47v-.1a27,27,0,0,0,1.49,2.55,37.53,37.53,0,0,1-1.55-3.46A33,33,0,0,1,221.38,263Zm-27.22,69.33c-1.17-2-2.7-4.7-4.56-7.51l-16.89-25.26-.27.45L163,315.84l-5.73,9.35-.58,1.37,16-26.4,19.65,29.77Zm33.4,3.7c5.25-7.89,5.77-9,2.92-5.46-.85,1.07-.39,0-.53,0,1.81-2.71,4.22-6.43,5.31-7.92,2.38-3.24,4.08-5.34,5.65-7.38l3.86-6.09c.21-.33.27-.43.23-.39v-.06l0-.12.08-.26c.12-.37.29-.83.52-1.37l.11-.29a.09.09,0,0,0,.09,0,2.57,2.57,0,0,0,0-1.81c-.37-.2-1.51.92-2.76,2.81L211.22,355c-7,10.42-10.71,16.11-12.24,19l-1.41,2.7c-3.16-3.64-6.16-7-8.84-9.92-.53-.57,2.25,3.94,4.72,7.82l4.11,6.41,17.95-26.69Zm86.17-22.35-4.18,3.76L295,336.85c-4.95,6.45-8.84,11.73-12.64,17l-7.27-11.73-22.8-37a16.34,16.34,0,0,0-1.75-1.69c-.23-.16-.16.28.08.88l.64,1.55,1.74,3.36a37,37,0,0,1,2.16,4.55c.19,1,1.72,3.8,3.68,7.14l6.7,11.33c5.21,8.88,8.36,13.83,10.51,16.79,1.56,2.15,3.64,5.17,6.1,8.87l3.71-5.39c1.76-2.54,8-11,9.74-13.16l7.76-10,5.32-7.06L317,311.05l-1.31.86A22.66,22.66,0,0,0,313.73,313.67ZM173.82,345.79v0l0,0S173.82,345.84,173.82,345.79Zm-1.56-1.32-.11.38-.15-.61-10.62,17.24c-1.27,2.09-3,5.11-3.86,6.77-5.52,10.36-2,6.44,5.95-5.89l5.5-8.73,4.81-7.84s0,0,0,0h0l.11-.1c.22-.24.16-.89-.16-1.93Q173.34,343.54,172.25,344.47Zm71.15-73.28c1.28.31,2,.28,2.32,0A7.54,7.54,0,0,0,247.3,269c.06-.12-.36-.31-.69-.38a23.12,23.12,0,0,1-5.07-1.33c-1.16-.68-1.44-.64-1.08,0,.12.2-.13.28-.22.41a5.55,5.55,0,0,1-1.21-.91,4.82,4.82,0,0,1-.6-1.44,11.13,11.13,0,0,1-2.79-3.33,1.68,1.68,0,0,0-.37-.49c-.91-.85-1.35,2,.47,4.41A13.93,13.93,0,0,0,243.4,271.19ZM242.54,242c-.58-.21-1.19-.45-1.71-.59l-1.68-.55a27.71,27.71,0,0,0-4.78,3,12.88,12.88,0,0,0-3.93,5.07,18.51,18.51,0,0,0-2,9.48,7.38,7.38,0,0,0,.69,1.12c.12.14.28,0,.37-.36.22-1,.67-2.64,1-2.79.76-.33.87-2.65,1.66-4.05a6.12,6.12,0,0,0,.9-2.51,6.08,6.08,0,0,1,.77-2.58,6.74,6.74,0,0,1,1.66-1.8C237.95,243.94,240.3,242.49,242.54,242ZM256,262.22c-1.31,1.82-2.76,3.76-4.83,4.8-.55.23-1.09.51-1.67.7a1.57,1.57,0,0,1-.14.24,10.94,10.94,0,0,0,6.2-2,1.63,1.63,0,0,0,.2-.38,3.62,3.62,0,0,1,.07.61,13,13,0,0,0,2.25-3.17,5,5,0,0,0,.29-1.34C258.24,259.58,257.08,260.46,256,262.22Z"/></svg>