<svg id="Layer_1" data-name="Layer 1" xmlns="http://www.w3.org/2000/svg" viewBox="0 0 512 512"><defs><style>.cls-1{fill:#141f38;}</style></defs><title>document-linear-chart-glyph</title><path class="cls-1" d="M243.2,243.2a12.8,12.8,0,0,0-.05,25.6h.07a12.8,12.8,0,0,0,0-25.6Z"/><path class="cls-1" d="M307.34,0H115.2a64,64,0,0,0-64,64V448a64,64,0,0,0,64,64H396.8a64,64,0,0,0,64-64V153.6Zm88.54,273.56-25.6,64a12.8,12.8,0,0,1-20.94,4.29l-28-28-29.55,39.39a12.56,12.56,0,0,1-10.9,5.1,12.81,12.81,0,0,1-10.31-6.19l-28-46.66-40,60a12.8,12.8,0,0,1-21.3,0L167,343.93l-28,46.66A12.8,12.8,0,1,1,117,377.41l38.4-64a12.78,12.78,0,0,1,10.67-6.21h.31a12.79,12.79,0,0,1,10.65,5.7L192,335.32l31.08-46.62a38.4,38.4,0,1,1,39.56.41l20.15,33.58,27-36a12.79,12.79,0,0,1,9.33-5.09,13,13,0,0,1,10,3.72L353.72,310l18.39-46a12.8,12.8,0,0,1,23.77,9.51ZM358.4,166.4a64,64,0,0,1-64-64V25.6L435.2,166.4Z"/></svg>