<svg id="Layer_1" data-name="Layer 1" xmlns="http://www.w3.org/2000/svg" viewBox="0 0 512 512"><defs><style>.cls-1{fill:#dde5e8;}.cls-2{fill:#9bbdc6;}.cls-3{fill:#afc3c9;}.cls-4{fill:#48b753;}</style></defs><title>document-linear-chart-flat</title><path class="cls-1" d="M307.34,0H115.2a64,64,0,0,0-64,64V448a64,64,0,0,0,64,64H396.8a64,64,0,0,0,64-64V153.6Z"/><path class="cls-2" d="M307.2,0V89.6a64,64,0,0,0,64,64h89.6Z"/><path class="cls-3" d="M128,396.8a12.8,12.8,0,0,1-11-19.39l38.4-64a12.78,12.78,0,0,1,10.67-6.21h.31a12.79,12.79,0,0,1,10.65,5.7L192,335.33l40.55-60.82a12.09,12.09,0,0,1,11-5.69A12.78,12.78,0,0,1,254.18,275l28.61,47.68,27-36a12.79,12.79,0,0,1,9.33-5.09,13,13,0,0,1,10,3.72L353.73,310l18.39-46a12.8,12.8,0,1,1,23.77,9.51l-25.6,64a12.8,12.8,0,0,1-20.94,4.29l-28-28-29.55,39.39a12.56,12.56,0,0,1-10.9,5.1,12.81,12.81,0,0,1-10.31-6.19l-28-46.66-40,60a12.8,12.8,0,0,1-21.3,0L167,343.93l-28,46.66A12.79,12.79,0,0,1,128,396.8Z"/><circle class="cls-4" cx="243.2" cy="256" r="38.4"/></svg>