<svg id="Layer_1" data-name="Layer 1" xmlns="http://www.w3.org/2000/svg" viewBox="0 0 512 512"><defs><style>.cls-1{fill:#141f38;}</style></defs><title>notepad-1-glyph</title><path class="cls-1" d="M396.8,38.4H339.15A32,32,0,0,0,313.6,25.6H292.21a38.4,38.4,0,0,0-72.41,0H198.4a32,32,0,0,0-25.55,12.8H115.2a64.19,64.19,0,0,0-64,64V448a64.19,64.19,0,0,0,64,64H396.8a64.19,64.19,0,0,0,64-64V102.4A64.19,64.19,0,0,0,396.8,38.4ZM256,25.6a12.8,12.8,0,1,1-12.8,12.8A12.81,12.81,0,0,1,256,25.6ZM219.79,51.2a38.4,38.4,0,0,0,72.41,0H313.6a6.49,6.49,0,0,1,6.4,6.4V96a6.49,6.49,0,0,1-6.4,6.4H198.4A6.49,6.49,0,0,1,192,96V57.6a6.49,6.49,0,0,1,6.4-6.4ZM166.4,422.4a12.8,12.8,0,1,1,12.8-12.8A12.8,12.8,0,0,1,166.4,422.4Zm0-51.2a12.8,12.8,0,1,1,12.8-12.8A12.8,12.8,0,0,1,166.4,371.2Zm0-51.2a12.8,12.8,0,1,1,12.8-12.8A12.8,12.8,0,0,1,166.4,320Zm0-51.2A12.8,12.8,0,1,1,179.2,256,12.8,12.8,0,0,1,166.4,268.8Zm0-51.2a12.8,12.8,0,1,1,12.8-12.8A12.8,12.8,0,0,1,166.4,217.6ZM345.6,422.4h-128a12.8,12.8,0,0,1,0-25.6h128a12.8,12.8,0,1,1,0,25.6Zm0-51.2h-128a12.8,12.8,0,0,1,0-25.6h128a12.8,12.8,0,1,1,0,25.6Zm0-51.2h-128a12.8,12.8,0,0,1,0-25.6h128a12.8,12.8,0,1,1,0,25.6Zm0-51.2h-128a12.8,12.8,0,0,1,0-25.6h128a12.8,12.8,0,1,1,0,25.6Zm0-51.2h-128a12.8,12.8,0,0,1,0-25.6h128a12.8,12.8,0,1,1,0,25.6Z"/></svg>