<svg id="Layer_1" data-name="Layer 1" xmlns="http://www.w3.org/2000/svg" viewBox="0 0 512 512"><defs><style>.cls-1{fill:#141f38;}</style></defs><title>document-x-glyph</title><path class="cls-1" d="M422.4,358.4a76.8,76.8,0,1,0,76.8,76.8A76.89,76.89,0,0,0,422.4,358.4Zm34.65,93.35a12.8,12.8,0,1,1-18.1,18.1L422.4,453.3l-16.55,16.55a12.8,12.8,0,0,1-18.1-18.1L404.3,435.2l-16.55-16.55a12.8,12.8,0,0,1,18.1-18.1L422.4,417.1l16.55-16.55a12.8,12.8,0,1,1,18.1,18.1L440.5,435.2Z"/><path class="cls-1" d="M320,435.2A102.4,102.4,0,0,1,422.4,332.8V153.6L268.94,0H76.8a64,64,0,0,0-64,64V448a64,64,0,0,0,64,64h278A102.05,102.05,0,0,1,320,435.2ZM256,25.6,396.8,166.4H320a64,64,0,0,1-64-64ZM128,243.2H230.4a12.8,12.8,0,1,1,0,25.6H128a12.8,12.8,0,1,1,0-25.6Zm0,51.2H307.2a12.8,12.8,0,0,1,0,25.6H128a12.8,12.8,0,0,1,0-25.6Zm178.82,76.8H128a12.8,12.8,0,1,1,0-25.6H306.82a12.8,12.8,0,1,1,0,25.6Z"/></svg>