<svg id="Layer_1" data-name="Layer 1" xmlns="http://www.w3.org/2000/svg" viewBox="0 0 512 512"><defs><style>.cls-1{fill:#141f38;}</style></defs><title>document-remove-glyph</title><path class="cls-1" d="M422.4,358.4a76.8,76.8,0,1,0,76.8,76.8A76.89,76.89,0,0,0,422.4,358.4ZM448,448H396.8a12.8,12.8,0,0,1,0-25.6H448a12.8,12.8,0,0,1,0,25.6ZM320,435.2A102.4,102.4,0,0,1,422.4,332.8V153.6L268.94,0H76.8a64,64,0,0,0-64,64V448a64,64,0,0,0,64,64h278A102.05,102.05,0,0,1,320,435.2ZM256,25.6,396.8,166.4H320a64,64,0,0,1-64-64ZM116,251.45q.19-.5.42-1A12.74,12.74,0,0,1,128,243.2H230.4a12.8,12.8,0,0,1,0,25.6H128a12.74,12.74,0,0,1-11.53-7.28q-.23-.47-.42-1a12.63,12.63,0,0,1,0-9.1ZM116,302.9a12.7,12.7,0,0,1,.51-1.22A12.74,12.74,0,0,1,128,294.4H307.2a12.8,12.8,0,0,1,0,25.6H128a12.77,12.77,0,0,1-12-17.1ZM319,362.21a13,13,0,0,1-12.22,9H128a12.77,12.77,0,0,1-12-17.35q.19-.5.42-1a12.83,12.83,0,0,1,6-6A12.88,12.88,0,0,1,128,345.6H306.82a12.85,12.85,0,0,1,2.58.26q.62.13,1.23.32a12.71,12.71,0,0,1,2.29,1A12.82,12.82,0,0,1,319,362.21Z"/></svg>