<svg id="Layer_1" data-name="Layer 1" xmlns="http://www.w3.org/2000/svg" viewBox="0 0 512 512"><defs><style>.cls-1{fill:#fff;}.cls-2{fill:#dde5e8;}.cls-3{fill:#9bbdc6;}.cls-4{fill:#afc3c9;}.cls-5{fill:#cad8dd;}</style></defs><title>two-documents-flat</title><path class="cls-1" d="M243.2,76.8H102.4a64,64,0,0,0-64,64V448a64,64,0,0,0,64,64H332.8a64,64,0,0,0,64-64V230.4Z"/><path class="cls-2" d="M473.6,153.6V371.2a64,64,0,0,1-64,64H179.2a64,64,0,0,1-64-64V64a64,64,0,0,1,64-64H320Z"/><path class="cls-3" d="M473.6,153.6H384a64,64,0,0,1-64-64V0Z"/><path class="cls-4" d="M320,217.6a12.8,12.8,0,0,1-12.8,12.8H230.4a12.8,12.8,0,0,1-12.8-12.8h0a12.8,12.8,0,0,1,12.8-12.8h76.8A12.8,12.8,0,0,1,320,217.6Z"/><path class="cls-4" d="M371.2,268.8a12.8,12.8,0,0,1-12.8,12.8h-128a12.8,12.8,0,0,1-12.8-12.8h0A12.8,12.8,0,0,1,230.4,256h128a12.8,12.8,0,0,1,12.8,12.8Z"/><path class="cls-4" d="M370.82,320A12.8,12.8,0,0,1,358,332.8H230.4A12.8,12.8,0,0,1,217.6,320h0a12.8,12.8,0,0,1,12.8-12.8H358a12.8,12.8,0,0,1,12.8,12.8Z"/><path class="cls-5" d="M179.2,435.2a64,64,0,0,1-64-64V76.8H102.4a64,64,0,0,0-64,64V448a64,64,0,0,0,64,64H332.8a64,64,0,0,0,64-64V435.2Z"/></svg>