<svg id="Layer_1" data-name="Layer 1" xmlns="http://www.w3.org/2000/svg" viewBox="0 0 512 512"><defs><style>.cls-1{fill:#707070;}</style></defs><title>two-documents-handdrawn</title><path class="cls-1" d="M105.64,511.58c2.76.22,2,.77-3.43.08a64.83,64.83,0,0,1-12.84-2.87,73.81,73.81,0,0,1-38.81-30,73,73,0,0,1-11.75-36.25l-.17-3.26,0-2.73,0-5.38c.17-7.61.34-15.62.6-27.5,0-5.5,0-18.62,0-28.29-.16,0-.34-3.26-.46.77-.39,13.46-.58,9.81-.59-18.28,0-36.53-.32-75.46.16-109,.1-6.71.29-14.49.41-13.16.72,8,1.44,17.87,2.16,28.53.31,4.59.39,15.94.34,37.05,0,25.17-.1,50.53-.14,75.93l0,38.13v23.85l.27,5.62a67.54,67.54,0,0,0,1.79,11.1,73.57,73.57,0,0,0,18.84,34,75.33,75.33,0,0,0,26.56,17.22A89.16,89.16,0,0,0,105.64,511.58ZM135.33,49.11c.81-1.56,1.67-3.11,2.63-4.6A50.74,50.74,0,0,0,135.33,49.11Zm0,0c-.35.68-.66,1.37-1,2.06C134.68,50.48,135,49.79,135.33,49.11Zm-1.93,4.23c.3-.73.62-1.45,1-2.17C134,51.89,133.7,52.61,133.4,53.34Zm27.92,381a75.33,75.33,0,0,1-26.56-17.22,73.57,73.57,0,0,1-18.84-34,67.54,67.54,0,0,1-1.79-11.1l-.27-5.62V342.55l0-38.13c0-25.41.1-50.77.14-75.93,0-21.12,0-32.46-.34-37.05-.72-10.66-1.43-20.52-2.16-28.53-.12-1.33-.31,6.44-.41,13.16-.48,33.54-.17,72.47-.16,109,0,28.09.2,31.74.59,18.28.12-4,.31-.73.46-.77,0,9.67,0,22.79,0,28.29-.26,11.89-.44,19.89-.6,27.5l0,5.38,0,2.73.17,3.26A73,73,0,0,0,123.4,406a73.81,73.81,0,0,0,38.81,30,64.84,64.84,0,0,0,12.84,2.87c5.42.7,6.19.14,3.43-.08A89.15,89.15,0,0,1,161.32,434.3ZM340.83,180.88a60.57,60.57,0,0,0,11.31,3.26c1.29.22.17-.2-2.87-1.18-1.82-.59-.25-.38-.24-.54a76.78,76.78,0,0,0,13.08,2.24c5.87.55,8.67.68,11.63.88l32.32-.65c1.67,0,3.53-.1,4.21-.17,7-.71-10.09-1.63-27.91-1.62l-14.78,0a74,74,0,0,1-17.27-2.25A70.06,70.06,0,0,1,320,164.58c-7.14-6.51-9.92-11-11.47-12.44a100.07,100.07,0,0,1-8.38-10.52c-.36-.53,1,2.92,2.41,5.77C309.78,161.74,324.47,174.78,340.83,180.88Zm133.24-3.38c.11.49-.56.27-.8.45l-4.2,1-2.52.59q0,67.77,0,135.58c0,6.6,0,13.47,0,19.75-.09,25.72-.07,33,.26,30.2.15-2.69,1,3.28-.5,12.64-1.27,9.34-6.75,21.2-13.46,29.2a64.18,64.18,0,0,1-35.29,21.59A84.15,84.15,0,0,1,399.84,430c0,.85,0,1.67,0,2.53,2.29,0,4.65,0,7.2-.15a64.71,64.71,0,0,0,22.12-4.72A66.28,66.28,0,0,0,470,374.24c.57-2.94.78-5.92,1.08-8.71l.54-8.31,1-18.65c0,7.29,0,15,0,23.05a103.5,103.5,0,0,1-.56,13.24,66.51,66.51,0,0,1-3.24,13.92c-6.22,18.33-21.38,34.57-40.55,41.28a74.15,74.15,0,0,1-17,4.07c-4.52.35-8.38.42-11.47.44a102.85,102.85,0,0,1-.56,13.12,66.51,66.51,0,0,1-3.24,13.92c-6.22,18.33-21.38,34.57-40.55,41.28a74.15,74.15,0,0,1-17,4.07c-7.59.59-13.64.38-16.56.5-13.82.27-25.77.6-33.43.93-7.34.32-18,.47-36.6.37-21.92-.12-54.08.1-59.74-.6-2.75-.34-24.7-.64-36.57-1-3.84-.11-5.93-.27-4.14-.39l13.93-.63,115.27-.51,34.95-.23c6-.09,11.69.08,18.61-.2a64.7,64.7,0,0,0,22.12-4.72,66.28,66.28,0,0,0,40.85-53.46c.57-2.94.78-5.92,1.08-8.71l.24-3.78c-1.49,0-2.81,0-3.73.05l-1.09,0c0,3.7.13,4.54.28,3.26.15-2.69,1,3.28-.5,12.64-1.27,9.34-6.75,21.2-13.46,29.2a64.19,64.19,0,0,1-35.29,21.59c-7,1.56-14.36,1.53-21.09,1.54l-20.78.11-84.42.37-68.86.2-34.25.11A64.54,64.54,0,0,1,58.89,475a66.12,66.12,0,0,1-10.54-29.48c-.36-5.35-.32-10.23-.28-15.09l.05-14.69c0-19.62,0-39.42,0-60,0-5.33.13-18.17.25-21.21.23-5.8.48-7,.76-10.6,0-7.86.07-17.19.12-28.28l.24,9c-.06-23-.11-42.6-.16-61.82s.16-37.85.25-58.88l-.37-3.59c0-6.55,0-13.13,0-20.57,0-3.72,0-7.65,0-11.9l.37-6.91c.42-2.36.61-4.87,1.27-7.39-1.81,9.28-1.25,13.27-1.33,10.62.35-.63.91-5.91.81,0-.19,4.71.18,22,.12,34.48,0,13.35,0,19.06.29,22.9.2,2.81.35,20.43.51,31.53.41,27.25,1,18.29,1.47,20,.18.6.36-.88.62-1.61,0-1.7.1-9.18.23-22.65.13,14.61.22,24.73.34,37.49l-.32-2.18c0,5.77,0,14.48,0,16.81.4,18.06.83,37.78,1.13,51.41.55,18.16,1.23-21.4,1.29-52.06,0-38.76,0-78.37.05-117.61.12-8.06-.39-16.32.75-23.67A53.17,53.17,0,0,1,59,130.75c-.35,1.12-.68,2.25-.95,3.4a68.47,68.47,0,0,0-1.65,18.53L56.47,192l.14-.06c0-8.72,0-17.46.07-26.15,0-4.29,0-8.31,0-12.08s0-7.32.26-10.3a50.66,50.66,0,0,1,3.88-15.94A59.88,59.88,0,0,1,70,112.28a58.28,58.28,0,0,1,20.79-15.6,56.64,56.64,0,0,1,19-4.48l1,0c0-5.61,0-11.22,0-16.72,0-.06,0-.11,0-.17A75.91,75.91,0,0,0,92,78.18a68.67,68.67,0,0,1,8.58-2.41,73,73,0,0,0-8.69,2.08,73.27,73.27,0,0,0-50,49.3,72.82,72.82,0,0,0-3.07,18.13c-.24,3.34-.14,5.3-.22,8l-.11,7.57-.46,30.28-.18-4.28c0-12.86,0-25.92,0-38.55A80,80,0,0,1,41,126.55a77.55,77.55,0,0,1,9.38-20.17A80.48,80.48,0,0,1,65.3,89.83,79.67,79.67,0,0,1,84.43,78.42,77.64,77.64,0,0,1,106,73.17c1.77-.12,3.35-.19,4.88-.23a76.44,76.44,0,0,1,3-19.22,77.55,77.55,0,0,1,9.38-20.17A80.49,80.49,0,0,1,138.14,17,79.67,79.67,0,0,1,157.27,5.58,77.63,77.63,0,0,1,178.83.33c8-.54,13-.23,19.19-.29l35.2.24C276.66.73,292,1.75,257.28,2.34l-23.11.17-32.36-.1-16.67,0a76.83,76.83,0,0,0-20.27,3,68.67,68.67,0,0,1,8.58-2.41A73,73,0,0,0,164.75,5a73.27,73.27,0,0,0-50,49.3,72.82,72.82,0,0,0-3.07,18.13c0,.17,0,.29,0,.45,3.86-.1,7.13,0,10.52,0l.25-4.74c.42-2.36.61-4.87,1.27-7.39C121.94,70,122.49,74,122.42,71.35c.35-.63.91-5.91.81,0,0,.39,0,1,0,1.55h2l3.94,0a63.75,63.75,0,0,1,.61-6.75,55.67,55.67,0,0,1,3.67-12.82,54.81,54.81,0,0,0-2.55,8,60.15,60.15,0,0,0-1.57,11.61h.41c0-.76.05-1.59.11-2.3a50.66,50.66,0,0,1,3.88-15.94,59.88,59.88,0,0,1,9.15-15.23,58.27,58.27,0,0,1,20.79-15.6,56.64,56.64,0,0,1,19-4.48c6.94-.35,15-.14,22.35-.21,14.9,0,28.83.08,38.33.37,7.14.22,1.16.56,1.16.84h68.81V15.67h-.53q-2.62-.06-4-.16c-1.88-.14-2.16-.35-.89-.63,2.3-.51,3.54-1,5.49-1.62l6.28-.09C323,16.37,325,18,324.08,16.59L364.74,57l-.93-.79.49.52,60.18,60c.39-.3,7.36,6.58,12.46,11.49l23.78,23.12c2.5,2.34,3.92,4.65,5.94,7,.51.61.8,1.11,1.21,1.67.12.72.09,1.55.14,2.33l.19,4.73.19,4.76c0,.78.11,1.64,0,2.34l-1.89.21v2.3l2-.37,1.52-.28c.39-.2,1.32.11,1.05-.71l-.14-3.48-.27-6.87c-.21-2.16.19-4.87-.93-6.11l-4.63-6.71-6.74-6.62-5.63-5.55-5.66-5.73-17.68-17.67-3.71-5.25-4.38-5.84c8,8,18.1,17.61,27.54,27.79,1.42,1.53,7,7.05,8.65,8.52l8.31,7.7,1.9,1.74c.47.55.76,1.08,1.13,1.59l1.89,2.76,1.76,2.68a4.56,4.56,0,0,1,.74,1.5,4.41,4.41,0,0,1,.33,1.9c.16,3.22.29,7.24.39,12.29l0,2.29ZM400.92,171l-9.68.15,12.51.14,15.46-.42c-5.94-.31-18.86-.27-31.57.11l13,0Zm30.32-12.91,10-.07c1.5,0,1.14-.05,1.19-.07l0-.06,0-.08s0,0,.07,0,.31-.09.3-.48c0,0,0,0,0-.1l-.83-.88-1.85-1.93L435.84,150l-9.1-9.32.44.71a84.61,84.61,0,0,1-6.5-5.54c-6.18-6-12.61-12.43-18.66-19-4.3-4.64-11.56-12-18.31-18.93l2.44,1.31c-19.26-19.5-10.84-12.26-9.53-12L355.68,66.6c-10.33-10.4-21.38-21.36-30.06-30.75l-10-10-.09-.11c.28,12.63,1.07,6.32,1.36,19.38l.32-13.69c.28,4.5.49,9.83.95,7.22.36-2,.81,6.48,1.24,9.3.17,1.14.38-1.17.57-.55a15,15,0,0,1,.63,4.78c.1,7.3.81,10.72.3,22.22,0,1,0,3.78,0,5.42,0,9.4.1,18.55.14,27.7v3.43l.12,2.73a31.14,31.14,0,0,0,.5,5.27,49.28,49.28,0,0,0,2.72,10.31,46.26,46.26,0,0,0,34.89,28.2,58.16,58.16,0,0,0,8.66.74l11.22,0ZM317.41,83.27c0-2.42.06-4.88.1-7.32l-.2-.93-.15,22.36-.08,11.18,0,2.78.11,2.34a29.27,29.27,0,0,0,.39,4.66l.44,1.82c0-1.67-.26-3.08-.26-5q-.1-2.12-.19-4.27v-5.13c0-3.43,0-6.88,0-10.29C317.46,91.37,317.44,87.34,317.41,83.27Zm-2.62-59.11.3-.06h0l-.32,0Zm.11.73.47,3.17.06-2.53ZM460.88,171a5.32,5.32,0,0,0,1.14-.3h-1.14Zm-23.51-.16c.13,0,.19.11.33.11l15.58,0c.13,0,.29,0,.42,0s0-.16,0-.24l-13,0Zm23.52,6.89a14.4,14.4,0,0,0,1.52-.27l1.52-.28v-2.47l-3,.35C460.88,176,460.88,176.88,460.88,177.77ZM314.22,20.36h5l-5,.29.19,1.27a10,10,0,0,1,1.67-.32,31.5,31.5,0,0,1,2.58,2.21l7.56,7.36c6.37,6.31,14.53,13,12.66,10.39-2.71-3.76,7.12,5.12,19.46,17.54L379,79.74c1.49,1.48,3.19,2.94,4.22,3.81,3.74,3.15,17.19,16,24.55,23.55,1.44,1.47,3.26,3.36,3.93,4.12,4.6,5.29,4.52,5.21,12,12.14l-10-11.87c-1.1-1.34-.68-1.21-.95-1.76l14,14,4.54,4.77,28.23,28.14c1,1.16,2.52,2.07,3,3.44l.16,4.67.16,4.69,0,.72c.83-.73,1.14-2,.38-4.25l-.1-3.82c0-1.27.2-2.67-1.06-3.42L459.45,156l-9.39-9.23-36.75-36.57L355.62,52.73c-11.87-11.79-20.81-20.74-27-27l-4.6-4.56-5.49-5.45-5-.05ZM169.14,31.08c-2,.44-6.86,3.1-9.59,4.86a53.26,53.26,0,0,0-10.21,9.47,50.33,50.33,0,0,0-6.95,11.86,49.72,49.72,0,0,0-3.21,13.25c-.32,3.95-.2,10.76-.23,16.45-.08,23.63-.16,47.21-.24,71.3,0,30.56-.09,65.56-.13,98.28,0,19.37.08,38.62.12,57.87l.08,28.89,0,14.47V365c0,2.4.2,3.89.25,5.88a47.21,47.21,0,0,0,30,39,45.83,45.83,0,0,0,12.59,2.9c3.75.32,10.26.19,15.65.22H231l25.71-.07c43.44-.43,99.6-.26,134.16.29l12.87.14A49,49,0,0,0,416,412,47.2,47.2,0,0,0,438.39,399a9.53,9.53,0,0,1-1.28,1c3.59-4.17,5.45-6.52,9.23-14.17A43.2,43.2,0,0,0,450,373.6a44.17,44.17,0,0,0,.59-6.53c.11-2.35,0-5.6.06-8.37.09-11.53.19-23.16.28-34.66.1-16.33.26-43,.41-68l.8,6.85c.13-70.78,1-42.18,1.7-39.27,0-14.94-.1-29.07-.14-42.77a67.52,67.52,0,0,1-8.07-.44c-.44-.09-1.61-.17-3.21-.25l-3.78-.24-8.41-.48c-1.49-.11-2.3-.27-1.6-.39,1.49-.25,4.15-.49,5.4-.63l13.21-.12c2.09-.07,4.3,0,6.45,0v-2.73l-51.89.56-11.2,0L367.78,176a69.11,69.11,0,0,1-24.18-4.72,46.19,46.19,0,0,1-7.74-4,28.35,28.35,0,0,1-3.3-2.9,71.24,71.24,0,0,1-8.85-7.29l2.85,2.27a62.65,62.65,0,0,1-15.43-19.46,61.28,61.28,0,0,1-6.3-22.81l-.44-1.42c-.38-5.42-.11-10.32-.16-18.1l.12,4c.32-.24.61-2.23.81,0,.24,1.78.1,8.41.48,13.4a35.39,35.39,0,0,0,1.39,9c.24.52.82,2.46,1.51,4.78s1.87,4.91,2.71,6.91c2.43,4.78,3.57,6.17,4.11,6.47s.36-.41.75-.25.14-.47.21-.84a54,54,0,0,1-3.52-7.8,57.07,57.07,0,0,0,7,12.2l-.76-.47a54.13,54.13,0,0,0,3.9,5,52.82,52.82,0,0,0,15.4,11.41c6.12,2.84-6.81-4.31-13.72-13.16a58.1,58.1,0,0,1-13.55-39.49c0-6.25.07-12.5.11-19.11l.11,15.24c0,5.21,0,10,.76,14.59l.14,0a67.77,67.77,0,0,1-.57-9.46c0-6.65,0-11.58.32-15.72.26-3.81.3-10.07.25-18.62-.06-10.33-.33-24.56.25-31.92.22-2.76.56-.45.84-.45V24.6l-1.39-.05c.38,0,1.11-.06,1.39-.09v-.63c-1.1-.09-2.44-.19-2.93-.29s-.66-.22-.07-.34c.29-.06.75-.12,1.4-.19.37,0,1.14-.09,1.6-.14V20.7l-30,1.74,14.95.14c-44.53.2-22.43,1.1-58.87,1.42l35.35.32c-11.62.28-25.38.49-18.64.95,5.27.36-16.73.82-24,1.24-2.93.17,3,.38,1.42.57a96.52,96.52,0,0,1-12.34.63l-24.61.38-6.52.08c-2.33,0-4.87,0-6.68.17A46.3,46.3,0,0,0,169.14,31.08ZM388.19,447.73a81.24,81.24,0,0,0,1.16-13h-.64A78.32,78.32,0,0,1,388.19,447.73Zm1.24-15.12c0-.84.05-1.68.08-2.52h-.84c0,.82,0,1.61,0,2.52Zm-11.55-7-16.74,0-105.8.13-8.59.06a5,5,0,0,0,.85.11L332,426l42.23,0h3.63C377.88,425.9,377.88,425.76,377.88,425.62Zm10.76.44h1l0-.46h-1C388.64,425.75,388.64,425.91,388.64,426.06Zm2.19-.46v.47H392c0-.15,0-.31,0-.47Zm0,7h.59c0-1.17.11-2,.17-2.51h-.77C390.83,430.93,390.83,431.76,390.83,432.6Zm1.23-2.52H392c0,.12,0,.21.07.36C392.07,430.32,392.07,430.2,392.07,430.08Zm1.59-4H399l0-.46h-5.38C393.66,425.75,393.65,425.9,393.65,426.06ZM126.82,193.47l-.32-2.18c0,5.77,0,14.48,0,16.81.4,18.06.83,37.78,1.13,51.41.55,18.16,1.23-21.4,1.29-52.06,0-35.14,0-71,0-106.61l-5.3.08h-.31c0,1.68,0,3.32,0,4.89,0,13.35,0,19.06.29,22.9.2,2.81.35,20.43.51,31.53.41,27.25,1,18.29,1.47,20,.18.6.36-.88.62-1.61,0-1.7.09-9.18.23-22.65C126.61,170.59,126.71,180.72,126.82,193.47ZM154.76,417.3c-4.08-2.73-9.1-4.91-18-16.56a58.62,58.62,0,0,0,14,14.23,54.84,54.84,0,0,0,10.28,6,60.89,60.89,0,0,0,19.4,4.89c6.41.41,12.92,0,19.49,0-7.65-.52-20.08,1.18-33.44-3.45a60.27,60.27,0,0,1-27.19-18.91c.91,1.12,1.75,2.34,2.73,3.35a56.2,56.2,0,0,0,12.16,10Zm-16.34-14.79c-.92-1.17-1.78-2.38-2.61-3.62C136.64,400.16,137.53,401.34,138.42,402.51Zm-3.53-283.86c.05,1.91.11,3.84.16,5.76.13-5.13.36-9.56.37-15.54,0-8.65,0-17.47,0-26.33V75.87c0-2.19.18-3.77.23-5.69s.54-3.63.77-5.45c.49-1.76.86-3.56,1.4-5.3a50.25,50.25,0,0,1,13.92-21.71,46.52,46.52,0,0,1,13-8.55,15.39,15.39,0,0,1,1.74-1,50.8,50.8,0,0,0-30.09,35.15,58.21,58.21,0,0,0-1.07,5.92c-.18,2-.25,3.93-.35,6.1l0,14.44Zm-5.32-43.39h-.39c0,1.48,0,3,0,4.58l0,12.17h.29c0-3.91,0-7.62,0-11.09Q129.51,77.93,129.57,75.25Zm-.32,25.58.05,18.37.14-.06q0-9.16,0-18.31Zm-6.07-25.6c0,4.14.06,10.27.12,16.76H129V89.83c.07-4.88,0-9.8.07-14.58h-5.87ZM111.33,92.15c3.43-.13,7.07-.16,10.76-.16,0-1.69,0-3.29,0-5.06,0-3.66,0-7.53,0-11.7l-9.81,0-.7,0c-.05,1.83,0,3.36-.08,5.2L111.39,88ZM62.58,148.71c0-2.19.18-3.77.23-5.69s.54-3.63.77-5.45c.49-1.76.86-3.56,1.4-5.3A50.25,50.25,0,0,1,78.9,110.56a46.52,46.52,0,0,1,13-8.55,15.39,15.39,0,0,1,1.74-1,50.8,50.8,0,0,0-30.09,35.15,58.21,58.21,0,0,0-1.07,5.92c-.18,2-.25,3.93-.35,6.1l0,14.44-.08,28.88c.05,1.91.11,3.84.16,5.76.13-5.13.36-9.56.37-15.54,0-8.65,0-17.47,0-26.33Zm64.46,350c-7.65-.52-20.08,1.18-33.44-3.45A60.26,60.26,0,0,1,66.4,476.35c.91,1.12,1.75,2.34,2.73,3.35a56.22,56.22,0,0,0,12.16,10l.63.43c-4.08-2.73-9.1-4.91-18-16.56a58.62,58.62,0,0,0,14,14.23,54.84,54.84,0,0,0,10.28,6,60.88,60.88,0,0,0,19.4,4.89C114,499.07,120.46,498.69,127,498.71Zm31.08-12.79,25.71-.07c43.44-.43,99.59-.26,134.16.29l12.87.14a49,49,0,0,0,12.28-1.47,47.2,47.2,0,0,0,22.42-12.94,9.53,9.53,0,0,1-1.28,1c3.59-4.17,5.45-6.52,9.23-14.17a43.19,43.19,0,0,0,3.68-12.3,44.17,44.17,0,0,0,.59-6.53c.06-1.4.06-3.12.06-4.88-6.55.17-12.21.36-16.5.54-7.34.32-18,.47-36.6.37-21.92-.12-54.08.1-59.74-.6-2.75-.34-24.7-.64-36.57-1-3.84-.11-5.93-.27-4.14-.39l13.93-.63,115.27-.51,24.35-.16c0-.38,0-.79,0-1.15v-1.38h-2.17l-84.42.37-68.86.2-34.25.11a64.54,64.54,0,0,1-56.42-28.65,66.12,66.12,0,0,1-10.54-29.48c-.36-5.35-.32-10.23-.28-15.09l.05-14.69c0-19.62,0-39.42,0-60,0-5.33.13-18.17.25-21.21.23-5.8.48-7,.76-10.6,0-7.86.07-17.19.12-28.28l.24,9c-.06-23-.11-42.6-.16-61.82s.16-37.85.25-58.88l-.37-3.59c0-2.16,0-4.37,0-6.56l-4.92.06c-2.06,0-4.22,0-6,.13l-.26,17.15-.18-4.28c0-4.27,0-8.56,0-12.85h-.29a46.3,46.3,0,0,0-14.16,2.75c-2,.44-6.86,3.1-9.59,4.86a53.26,53.26,0,0,0-10.2,9.47,50.31,50.31,0,0,0-6.95,11.86,49.67,49.67,0,0,0-3.21,13.25c-.32,3.95-.2,10.76-.23,16.45C66,183.44,66,207,65.87,231.11c0,30.56-.09,65.56-.13,98.28,0,19.37.08,38.62.12,57.87l.08,28.89,0,14.47v7.25c0,2.4.2,3.89.25,5.88a47.21,47.21,0,0,0,30,39,45.83,45.83,0,0,0,12.59,2.9c3.75.32,10.26.19,15.65.22Zm233.24-51.21h-.52c0,6.62-.26,13.13-2,19.39a55.19,55.19,0,0,1-6.53,15.21,59,59,0,0,1-41.35,28.24c-8.46,1.34-17.39.7-26.19.87l-26.45,0-105.8.13-8.59.06a5,5,0,0,0,.85.11l84.43.08,42.23,0,21.12,0c7.06,0,14.06.21,20.88-1.2a60.39,60.39,0,0,0,40.06-29.37c8.22-15,7.53-26.57,7.86-32.57C391.34,435.37,391.35,435.06,391.36,434.71Zm7.43-4.66h-5.13c0,.91,0,1.76,0,2.52h5l.16-2.52Zm65.14-249.89-3.05.72c0,11.09,0,22.21,0,33.23,0,5.43.18,11.2.3,14.66.42,12.58.85,60.68.75,87.81,0,5.3-.11,12.07-.13,14.69-.24,9-.36,13.47-.36,19,0,2.74,0,5.74.07,9.7s.35,8.84-.5,15c1.26-6.4,1.11-13.47,1.4-20.25l.66-19.08a18.44,18.44,0,0,1,.57-4.95v25.61c0,8.58.25,17-2,25.05a55.21,55.21,0,0,1-6.53,15.21,59,59,0,0,1-41.35,28.24,90.73,90.73,0,0,1-13.95.87c0,.15,0,.31,0,.46a80.35,80.35,0,0,0,16.41-1.2,60.39,60.39,0,0,0,40.06-29.37c8.22-15,7.54-26.57,7.86-32.57.14-6.19.37-7.53.75-5.32-.14-19.07-.24-33.82-.35-49,0-10.2-.1-20.88-.15-31.58C464.24,242.59,464.08,210.82,463.93,180.16ZM293.79,121.47a54.54,54.54,0,0,1-.4-7.18c-.08-2.56,0-4.51.09-6.41l.46-11.72.92-23.45-.1-2.88.44,2.87c.08-9.09.16-17.27.23-25.62,0-2.81-.07-6.79-.17-8.95-.6-13.46-1.61-7.51-2.06,9.32-.48,17.9-.25,37.07-.35,55.56,0,2.45,0,4.93,0,7.43.06,2.69.21,6.06.48,9Zm-59.56,94.4,2-1.56-.81-.11c2.42-.15,1.22-.83,3.2-1.06l-1.92-.24c.63-.21,1.38-.37,1-.71s.91-.61,1.3-.93c.16-.13-.16-.29-.08-.42a.82.82,0,0,1,.67-.48c1-.07,1.5-.6,3.12-.23a3.76,3.76,0,0,0,.76,0,51.88,51.88,0,0,1,7.75.08c1.66.12,3.56.12,5.34.1,2.1,0,4.18-.16,6.28-.19,2.43,0,4.87,0,7.3,0a11.77,11.77,0,0,0,1.4-.05,23.86,23.86,0,0,1,7.28.22,33,33,0,0,0,3.38.27l-.11-.14a2.87,2.87,0,0,1,1.19-.51,12.82,12.82,0,0,1,3.73.14c.89.18,2.33.2,3.69.31l-.37.6c3.84.1,2.29.74,2.13,1.28,1.47-.06,2.81-.16,4.13-.15a33.94,33.94,0,0,1,6,.32c.4.08,1.41,0,2.05,0s1.18.17,1.76.27l-1,.33c1.23.24,1.86.56.72,1-.26.09,0,.26,0,.4-.15.36-.66.73-3.07.82-1.26,0-2.73.84-2.28,1.22.64.55-1.21,1.07-3.67,1-1.36,0-2.73,0-4.09,0a2.15,2.15,0,0,0-.8.23,16,16,0,0,1-4.77.56,3.9,3.9,0,0,1-.8-.1c-1-.35-1-.36-2.4,0,.76.35,1.53.67,2.16,1,.24.13.19.28.27.43-.93,0-1.86,0-2.78,0-.32,0-.63-.12-.92-.11l-11.49.18c-.16,0-.31,0-.47,0,0,0,0,.08,0,.08l9.17.11c.94,0,1.88,0,2.82-.05,1.86,0,2.39.12,2.15.68l2.66-.26c.55,0,1.13-.1,1.71-.11a70.19,70.19,0,0,0,7.43-.56c.8-.09,1.87-.07,2.81-.09,1.47,0,3-.07,4.42-.14,2.31-.11,3.21.09,2.77.61a9.54,9.54,0,0,0-.77,1.21c-1.11,0-1.84.24-1.56.62l-8,.16.17-.07a10.42,10.42,0,0,0-1.19-.14c-2.71,0-5.42,0-8.13,0-.36,0-.73,0-1.07,0-1.4-.07-1.79-.05-1.64.2.29.47-1.27.52-2.36.64-2.86.32-5.94.47-9,.66-2.45.15-5.05.13-7.4.37-.45,0-1,0-1.57,0-2.16,0-4.22-.27-6.46-.11a3.56,3.56,0,0,1-1.15-.19c-.32-.17-.38-.36-.58-.57l-1.53-.09.49-.18c-1.25.05-2.31.13-3.36.12s-2.05-.12-3.2-.19l-.19.28-2.51,0,.56-.09c0-.24-.31-.46,0-.61a7.53,7.53,0,0,1,1.87-.22c.73,0,1,0,1.24-.22a8.06,8.06,0,0,1,1.71-.39c1.48-.31,1-.72,1.09-1.11,0-.13,0-.27-.09-.46l-1.23-.18,2-.25-.12.24a7.43,7.43,0,0,0,.91,0,27.37,27.37,0,0,0,2.79-.85c1-.41-1.16-.92-2.83-1-2.1-.06-4.25,0-6.38,0-.88,0-1.75,0-2.68-.08l4.27-.17s0-.07,0-.11c-.47,0-.95-.05-1.42-.05a6.42,6.42,0,0,1-2.2-.24,7.93,7.93,0,0,0-2.61-.19c-1.45,0-3.44.25-4.47-.19-.39-.17-.06-.42-.06-.63Zm29.76,4,1.82,0,0,0-1.36.12c.91.06,1.44.14,1.75.11.77-.08,1.45-.21,2.17-.31A12.59,12.59,0,0,0,264,219.83Zm-21.23-7,6.27.23.31-.12a2.68,2.68,0,0,0-.84-.28c-.94,0-1.92,0-2.87,0-.57,0-1.14.06-1.71.06-.34,0-.68,0-1-.07Zm17.79,17.39a12.41,12.41,0,0,1,1.49.45l4.53-.49a2.2,2.2,0,0,0,.59-.13c1-.54-1.41-1.22-3.91-1.22-2.75,0-5.53-.06-8.26-.15-1.15,0-1.76,0-2,.25a15.39,15.39,0,0,0-1.55,1.62c-.07.09.35.23.71.31a31.3,31.3,0,0,0,5.92.12c1.52,0,1.72-.15,1-.45-.22-.09,0-.23,0-.35A12.67,12.67,0,0,1,260.56,230.25Zm23.73-5.49c-1.05,0-2.39.11-3.5,0a23.88,23.88,0,0,0-4,.19c-2,.15-4,.25-6.26.38a4.9,4.9,0,0,0-.76.47c-.1.09,0,.21.22.29.64.25,1.84.47,2,.72.31.53,2.05.36,3.24.45a3.29,3.29,0,0,0,2-.28,7.68,7.68,0,0,1,1.82-.7,7,7,0,0,1,1.7-.08,28.36,28.36,0,0,0,5.49.1c-.37-.28-.72-.52-1-.77S284.59,225,284.29,224.76Zm-45.44,4.49a5.68,5.68,0,0,0-1.25.13c-1.89.45-1.05,1.21,1.31,1.54a72.39,72.39,0,0,0,7.79.27c.69,0,1.39,0,2.09,0l.23-.13-6.57-1.38-.4.07.4-.33C241.17,229.36,240,229.29,238.85,229.25ZM241,264.43h-6.76l3.25-1.56-1.35-.11c4-.15,2-.83,5.33-1.06l-3.2-.24c1.05-.21,2.3-.37,1.69-.71s1.51-.61,2.17-.93c.27-.13-.27-.29-.13-.42a1.49,1.49,0,0,1,1.12-.48c1.7-.07,2.5-.6,5.19-.23a10.43,10.43,0,0,0,1.27,0c4.39-.19,8.57-.12,12.92.08,2.76.12,5.93.12,8.89.1,3.5,0,7-.16,10.47-.19,4,0,8.11,0,12.17,0,.78,0,1.69,0,2.33-.05a66,66,0,0,1,12.14.22c1.31.17,3.72.18,5.63.27l-.19-.14a6.72,6.72,0,0,1,2-.51,35.45,35.45,0,0,1,6.22.14c1.48.18,3.89.2,6.15.31l-.62.6c6.4.1,3.82.74,3.55,1.28,2.45-.06,4.69-.16,6.88-.15a93.89,93.89,0,0,1,10,.32c.67.08,2.35,0,3.42,0s2,.17,2.94.27l-1.72.33c2,.24,3.1.56,1.19,1-.44.09.06.26,0,.4-.25.36-1.1.73-5.12.82-2.09,0-4.55.84-3.81,1.22,1.07.55-2,1.07-6.11,1-2.27,0-4.56,0-6.82,0a5.49,5.49,0,0,0-1.33.23,43.61,43.61,0,0,1-7.95.56,10.64,10.64,0,0,1-1.33-.1c-1.63-.35-1.61-.36-4,0,1.27.35,2.54.67,3.61,1,.4.13.31.28.45.43-1.54,0-3.09,0-4.63,0-.53,0-1-.12-1.54-.11l-19.15.18c-.27,0-.52,0-.78,0,0,0,0,.08.08.08l15.28.11c1.56,0,3.13,0,4.7-.05,3.1,0,4,.12,3.59.68l4.43-.26c.92,0,1.89-.1,2.86-.11,4.48,0,8.46-.27,12.39-.56,1.32-.09,3.11-.07,4.69-.09,2.46,0,4.94-.07,7.36-.14,3.85-.11,5.35.09,4.62.61a10.61,10.61,0,0,0-1.28,1.21c-1.86,0-3.07.24-2.6.62l-13.38.16.28-.07c-.66,0-1.32-.13-2-.14-4.51,0-9,0-13.54,0-.6,0-1.22,0-1.79,0-2.33-.07-3-.05-2.73.2.48.47-2.12.52-3.93.64-4.77.32-9.9.47-15,.66-4.08.15-8.42.13-12.33.37-.75,0-1.74,0-2.62,0-3.6,0-7-.27-10.77-.11a9.61,9.61,0,0,1-1.92-.19,3,3,0,0,1-1-.57l-2.56-.09.81-.18c-2.08.05-3.85.13-5.59.12s-3.42-.12-5.33-.19l-.32.28-4.19,0,.93-.09c-.06-.24-.52-.46,0-.61a20.54,20.54,0,0,1,3.11-.22,4.84,4.84,0,0,0,2.07-.22,21.24,21.24,0,0,1,2.85-.39c2.47-.31,1.65-.72,1.81-1.11.05-.13-.08-.27-.15-.46l-2-.18,3.39-.25-.2.24c.52,0,1.31,0,1.52,0,1.63-.27,3.42-.54,4.65-.85,1.64-.41-1.94-.92-4.71-1-3.51-.06-7.09,0-10.64,0-1.46,0-2.92,0-4.47-.08l7.12-.17s0-.07,0-.11c-.79,0-1.58-.05-2.37-.05a17.51,17.51,0,0,1-3.67-.24,21.78,21.78,0,0,0-4.35-.19c-2.41,0-5.74.25-7.46-.19C240.46,264.89,241,264.64,241,264.43Zm42.84,4,3,0,.07,0-2.26.12c1.52.06,2.4.14,2.92.11,1.29-.08,2.42-.21,3.61-.31A34.79,34.79,0,0,0,283.84,268.39Zm-35.38-7,10.45.23.52-.12a6.72,6.72,0,0,0-1.41-.28c-1.56,0-3.19,0-4.79,0-1,0-1.9.06-2.85.06-.57,0-1.14,0-1.71-.07Zm34.15,16c-4.59,0-9.21-.06-13.77-.15a9,9,0,0,0-3.35.25,23.17,23.17,0,0,0-2.58,1.62c-.12.09.58.23,1.19.31a86.79,86.79,0,0,0,9.86.12c2.54,0,2.87-.15,1.65-.45-.37-.09-.07-.23-.07-.35.88,0,2.06,0,2.56,0,1.08.13,1.8.32,2.49.45l7.55-.49a5.8,5.8,0,0,0,1-.13C290.76,278.12,286.77,277.43,282.61,277.43Zm35-4.11c-1.75,0-4,.11-5.84,0a66.09,66.09,0,0,0-6.71.19c-3.29.15-6.72.25-10.43.38a10.21,10.21,0,0,0-1.26.47c-.16.09,0,.21.38.29a20.1,20.1,0,0,1,3.31.72c.51.53,3.42.36,5.4.45a8.8,8.8,0,0,0,3.31-.28,18.62,18.62,0,0,1,3-.7,19.2,19.2,0,0,1,2.84-.08,78.64,78.64,0,0,0,9.14.1c-.61-.28-1.19-.52-1.69-.77S318.16,273.6,317.66,273.32Zm-75.73,4.49a15.6,15.6,0,0,0-2.09.13c-3.15.45-1.75,1.21,2.18,1.54,4.18.36,8.66.18,13,.27,1.14,0,2.32,0,3.49,0l.39-.13-11-1.38-.67.07.67-.33C245.79,277.92,243.88,277.85,241.93,277.81Zm113.71,44.5-3.25,1.56,1.35.11c-4,.15-2,.83-5.33,1.06l3.2.24c-1.05.21-2.3.37-1.69.71s-1.51.61-2.17.93c-.27.13.27.29.13.42a1.48,1.48,0,0,1-1.12.47c-1.7.07-2.5.61-5.19.23a10.75,10.75,0,0,0-1.27,0c-4.39.19-8.57.12-12.92-.08-2.76-.12-5.93-.12-8.89-.1-3.5,0-7,.16-10.47.19-4,0-8.11,0-12.17,0-.78,0-1.69,0-2.33.05a66.09,66.09,0,0,1-12.14-.22c-1.31-.17-3.72-.18-5.63-.27l.19.14a6.75,6.75,0,0,1-2,.51,35.45,35.45,0,0,1-6.22-.14c-1.48-.18-3.89-.2-6.15-.31l.62-.6c-6.4-.1-3.82-.74-3.55-1.28-2.45.06-4.69.16-6.88.15a93.88,93.88,0,0,1-10-.32c-.67-.08-2.35,0-3.42,0s-2-.17-2.94-.27l1.72-.34c-2-.24-3.1-.55-1.19-1,.44-.09-.06-.27,0-.4.25-.35,1.1-.73,5.12-.82,2.09,0,4.55-.84,3.81-1.22-1.07-.55,2-1.07,6.11-1,2.27,0,4.56,0,6.82,0a5.49,5.49,0,0,0,1.33-.22,43.61,43.61,0,0,1,7.95-.56,10.49,10.49,0,0,1,1.33.1c1.63.35,1.61.36,4,0-1.27-.35-2.54-.67-3.61-1-.4-.13-.31-.28-.45-.43,1.54,0,3.09,0,4.63,0,.53,0,1,.12,1.54.11l19.15-.18c.27,0,.52,0,.78,0,0,0,0-.08-.08-.08q-7.64-.06-15.28-.11c-1.56,0-3.13,0-4.7.05-3.1,0-4-.12-3.59-.68l-4.43.26c-.92,0-1.89.1-2.86.11-4.47,0-8.46.27-12.39.56-1.32.09-3.11.07-4.69.09-2.46,0-4.94.07-7.36.14-3.85.11-5.35-.09-4.62-.61A10.69,10.69,0,0,0,235.7,317c1.86,0,3.07-.24,2.6-.62l13.38-.16-.28.07c.66,0,1.32.13,2,.14h13.54c.6,0,1.22,0,1.79,0,2.33.07,3,.05,2.73-.2-.48-.47,2.12-.52,3.93-.64,4.77-.32,9.9-.47,15-.66,4.08-.15,8.42-.13,12.33-.37.75,0,1.74,0,2.62,0,3.6,0,7,.27,10.77.11a9.55,9.55,0,0,1,1.92.19,3,3,0,0,1,1,.57l2.56.09-.81.18c2.08-.05,3.85-.13,5.59-.12s3.42.12,5.33.19l.32-.28,4.19,0-.93.09c.06.24.52.46,0,.61a20.54,20.54,0,0,1-3.11.22,4.82,4.82,0,0,0-2.07.22,21.25,21.25,0,0,1-2.85.39c-2.47.31-1.65.72-1.81,1.1-.05.14.08.27.15.46l2,.18-3.39.25.2-.24c-.52,0-1.31,0-1.52,0-1.63.27-3.42.54-4.65.85-1.64.41,1.94.92,4.71,1,3.51.06,7.09,0,10.64,0,1.46,0,2.92,0,4.47.08l-7.12.17s0,.07,0,.11c.79,0,1.58.05,2.37.05a17.52,17.52,0,0,1,3.67.24,21.67,21.67,0,0,0,4.35.19c2.41,0,5.74-.25,7.46.19.65.16.1.42.1.63Zm-49.6-4-3,0-.07,0,2.26-.12c-1.52-.06-2.4-.14-2.92-.11-1.29.08-2.42.21-3.61.31A34.8,34.8,0,0,0,306,318.34Zm35.38,7L331,325.09l-.52.12a6.72,6.72,0,0,0,1.41.28c1.56,0,3.19,0,4.79,0,1,0,1.9-.06,2.85-.06.57,0,1.14,0,1.71.07Zm-29.65-17.4c-1.08-.13-1.8-.32-2.49-.45l-7.55.49a5.72,5.72,0,0,0-1,.13c-1.63.53,2.36,1.22,6.52,1.22,4.59,0,9.21.06,13.77.15a9,9,0,0,0,3.35-.25,23.31,23.31,0,0,0,2.58-1.62c.12-.09-.58-.23-1.19-.31a86.79,86.79,0,0,0-9.86-.12c-2.54,0-2.87.15-1.65.45.37.09.07.23.07.35C313.45,307.94,312.27,308,311.77,307.92Zm-24.4,3a8.8,8.8,0,0,0-3.31.28,18.61,18.61,0,0,1-3,.7,19.3,19.3,0,0,1-2.84.08,78.64,78.64,0,0,0-9.14-.1c.61.28,1.19.52,1.69.77s1,.54,1.48.81c1.75,0,4-.11,5.84,0a66.09,66.09,0,0,0,6.71-.19c3.29-.15,6.72-.25,10.43-.38a10.17,10.17,0,0,0,1.26-.47c.16-.09,0-.21-.37-.29a20,20,0,0,1-3.31-.72C292.26,310.8,289.35,311,287.36,310.87Zm60.58-2a15.73,15.73,0,0,0,2.09-.13c3.15-.45,1.75-1.21-2.18-1.54-4.18-.36-8.66-.18-13-.27-1.14,0-2.32,0-3.49,0l-.39.13,11,1.38.67-.07-.67.33C344.08,308.81,346,308.89,347.94,308.92Z"/></svg>