<svg id="Layer_1" data-name="Layer 1" xmlns="http://www.w3.org/2000/svg" viewBox="0 0 512 512"><defs><style>.cls-1{fill:#141f38;}</style></defs><title>two-documents-glyph</title><path class="cls-1" d="M153.6,460.8a64,64,0,0,1-64-64V78.09A64,64,0,0,0,38.4,140.8V448a64,64,0,0,0,64,64H332.8a64,64,0,0,0,62.71-51.2Z"/><path class="cls-1" d="M320,0H179.2a64,64,0,0,0-64,64V371.2a64,64,0,0,0,64,64H409.6a64,64,0,0,0,64-64V153.6ZM230.4,204.8h76.8a12.8,12.8,0,0,1,0,25.6H230.4a12.8,12.8,0,1,1,0-25.6ZM358,332.8H230.4a12.8,12.8,0,1,1,0-25.6H358a12.8,12.8,0,0,1,0,25.6Zm.38-51.2h-128a12.8,12.8,0,1,1,0-25.6h128a12.8,12.8,0,1,1,0,25.6Zm12.8-115.2a64,64,0,0,1-64-64V25.6L448,166.4Z"/></svg>