<svg id="Layer_1" data-name="Layer 1" xmlns="http://www.w3.org/2000/svg" viewBox="0 0 512 512"><defs><style>.cls-1{fill:#707070;}</style></defs><title>document-download-handdrawn</title><path class="cls-1" d="M68.21,507.61c3.15.9,2.16,1.21-4-.72a65.62,65.62,0,0,1-14-6.52,73.69,73.69,0,0,1-33.57-46.46,77.27,77.27,0,0,1-1.83-14.84q-.07-6.28-.13-12.61l-.17-25.16.6-32.39c0-6.48,0-21.93,0-33.32-.16.05-.34-3.84-.46.91-.39,15.86-.58,11.56-.59-21.53,0-43-.32-88.87.16-128.37.1-7.91.29-17.06.41-15.5.72,9.44,1.44,21,2.15,33.6.31,5.41.38,18.77.34,43.64-.06,59.28-.13,119.46-.19,179.19q0,5.08,0,10.12a80.91,80.91,0,0,0,1,11.69,70.2,70.2,0,0,0,6.91,21.38,73.37,73.37,0,0,0,24.68,27.75A79.42,79.42,0,0,0,68.21,507.61ZM14.47,82.92l.15-9.06a75.2,75.2,0,0,1,1.07-10.81,69.54,69.54,0,0,1,6.72-20.58A73,73,0,0,1,51.66,11.55a70.63,70.63,0,0,1,20-7.78,72.36,72.36,0,0,1,10.6-1.61l5.34-.21c1.81-.06,3.06,0,4.62,0l8.76-.1-8.74.44,77.9.23,27.22-.17C238.28,1.78,220.16.76,169,.31L127.55.07,106.45,0H95.84c-3.67,0-6.67-.12-11.41.18A73.93,73.93,0,0,0,37.1,20.63a75.25,75.25,0,0,0-22.81,46c-.21,2.28-.29,4.58-.4,6.88s0,3.87-.05,5.85V90.73c0,7.6,0,15.23,0,22.8l.18,5ZM318.4,182.6a73.75,73.75,0,0,1-17.22-2.24A69.84,69.84,0,0,1,271,164.16c-7.12-6.49-9.89-10.94-11.44-12.41a100,100,0,0,1-8.36-10.49c-.36-.53,1,2.91,2.4,5.76,7.16,14.31,21.81,27.31,38.13,33.4A60.41,60.41,0,0,0,303,183.66c1.28.22.17-.2-2.86-1.18-1.81-.59-.25-.38-.24-.54a76.56,76.56,0,0,0,13,2.23c5.86.55,8.64.68,11.6.87l32.24-.65c1.66,0,3.52-.1,4.2-.17,7-.71-10.06-1.62-27.83-1.62ZM244.8,121.17a54.39,54.39,0,0,1-.4-7.16c-.08-2.56,0-4.5.09-6.4l.46-11.69.91-23.38-.09-2.87.44,2.87c.08-9.06.16-17.22.23-25.55,0-2.81-.07-6.77-.17-8.92-.59-13.42-1.61-7.48-2.05,9.29-.48,17.85-.24,37-.35,55.41,0,2.44,0,4.92,0,7.41.06,2.68.21,6,.47,9Zm252.07,278.6a46.49,46.49,0,0,1,.38,10.14c-.15,1.37-.43.33-1-4.25-.24-2.09-.34.31-.54-.13a45.1,45.1,0,0,1-1.36-5.36,104.33,104.33,0,0,0-5-18.19,61.14,61.14,0,0,0-6.37-12.5c-2.2-3-3.57-4.48-2.89-2.88,1.73,4.84-5-8.22-19.32-20.52a87.92,87.92,0,0,0-26.91-15.65,31.81,31.81,0,0,0-5.85-1.65l-6.17-1.27c-2.72-.48-6-.78-9.49-1.27a111.5,111.5,0,0,0-20.22.5l-6,.79c-7.29,1.34-7.36,1-17.33,5.28l8.21-2.33c2.71-.55,5.33-.94,7.67-1.33,1.79-.3,1.44.07,2.07.14a87.76,87.76,0,0,0-19.52,6.38c-2.1,1.07-4.33,1.76-6.17,3-24.84,14-41.93,40.83-43.36,69.27,0,1.19-.08,2.33-.11,3.45a.93.93,0,0,0,.12-.34,85.4,85.4,0,0,1,27.37-60,86.89,86.89,0,0,1,16.73-12.3c3-1.63,5.62-2.75,7.67-3.74s3.77-1.34,4.95-1.72c2.37-.72,2.94-.68,2.23,0,3.55-1.28,6.84-2,9.9-2.86,3.12-.49,6-1.14,9.05-1.44a79.67,79.67,0,0,1,12.57-.29,87.49,87.49,0,0,1,50.39,19.17c4.48,3.8,10.28,9.36,14.26,15.18a86.41,86.41,0,0,1,14,29.45,67.53,67.53,0,0,1,2.47,17.76c0,3.41-.16,4.24-.59,2.62-.63-2.37-1.21-3.61-1.89-5.54-.73-8-2.32-13.08-2.34-11a83.51,83.51,0,0,0-29.93-47.64l1,.65c-2.26-1.71-4.37-3.62-6.79-5.17-16.17-10.85-36.29-15.18-55.54-13-2.53.43-5.2.73-7.58,1.25-9.78,2.2-12.26,3.82-11.16,3.59,2.11-.17-8.37,3.58-14.63,8.13-17,10.94-30.81,29.54-35.42,50.59a80.26,80.26,0,0,0,4.64,50.52c1.5,2.77,3,6.61,5.06,9.66a78.66,78.66,0,0,0,32.22,30.48c1.84.82,6.1,3.18,7.2,3.54a26.59,26.59,0,0,1,3.53,2.1A89.13,89.13,0,0,0,387.55,494a29.21,29.21,0,0,1-3.4-.55,88.63,88.63,0,0,0,45.74-2l1.17-.82a51.57,51.57,0,0,0,7.28-3l4.11-2,4.53-2.73-3.3,2.15c.36.16,2.2-.63.42.69a31.37,31.37,0,0,1-4.81,2.7l-3.54,1.78-3.63,1.37c-4.83,1.94-7.06,2.21-8.43,2.91-1,.66-7.73,2-12,2.7-10.67,1-7.18,1.33-7.84,1.86-.24.19.35.35.65.58.68-.08,3.7.05,9.12-.37a84.51,84.51,0,0,1-15.12.75l.9-.28a67.79,67.79,0,0,1-6.76-.53,92.59,92.59,0,0,1-20.49-4c-7.2-2.28,7.62,5.1,20.46,6.42a88.17,88.17,0,0,0,47.64-7.33,73.07,73.07,0,0,0,8.93-4.72c1.42-.79,2.79-1.67,4.15-2.59a88.93,88.93,0,0,1-24.37,12l.06.13a107.74,107.74,0,0,0,10.27-3.72,150.91,150.91,0,0,0,15-8c1.71-1.14,4-2.66,6.65-4.74,2.46-2.3,5.67-4.78,8.65-8.36a58.92,58.92,0,0,0,5.7-7,67.61,67.61,0,0,0,5.24-7.92,77.49,77.49,0,0,0,4.22-7.83c1.33-2.42,2.24-4.71,3-6.55,1.24-2.76.69-.27,1-.17a89.11,89.11,0,0,0,5.59-31.16,101.86,101.86,0,0,1,.68,15.57l1.08-6.43-1.24,9.91c-.39,2-.54,3.16-.65,4.17-.27,2-.08,3.71-2.84,11.31a102.13,102.13,0,0,0,4.85-14.91c-1,5.07-2.39,11.08-1.16,8.3,1.16-2.14-1.64,7.39-2.59,10.6-.42,1.28.94-1.1.8-.36a20,20,0,0,1-1.87,5.37c-3.89,7.67-5.25,11.85-14.5,22-.84.83-3,3.35-4.41,4.7A96,96,0,0,1,414,511.5a101.41,101.41,0,0,1-44.48-5.63c-.88-.31-1.73-.69-2.6-1-1.47.25-2.93.57-4.42.71-1.73.18-4.89.31-8.33.41H343.28l-18.58.12c-16.28.27-30.35.59-39.38.93-8.64.32-21.17.47-43.1.37-25.82-.12-63.69.1-70.35-.6-3.24-.34-29.09-.63-43.07-1-4.52-.11-7-.27-4.88-.39l16.41-.63,135.75-.51,41.16-.23,21.64-.06c7.46-.18,14.91.41,24.41-.6-1.62-.71-3.19-1.49-4.76-2.29-2.57.19-5.14.31-7.63.28l-48.68.22L202.8,502l-81.1.2-20.27,0c-6.74,0-13.29.27-20.5-.43a64.21,64.21,0,0,1-55.08-48.39,68.51,68.51,0,0,1-1.64-9.21c-.14-3.08-.38-6.31-.31-9.12q0-8.71,0-17.36c0-11.54.07-23,.1-34.6,0-23.11,0-46.42,0-70.71,0-6.28.13-21.4.25-25,.22-6.83.48-8.29.76-12.48,0-9.26.07-20.25.12-33.3.07,2.94.12,5.35.24,10.58-.06-27.11-.11-50.17-.16-72.81s.16-44.57.25-69.34l-.37-4.22c0-7.71,0-15.46,0-24.22,0-2.19,0-4.44,0-6.77s.16-5,.46-7.55a65.39,65.39,0,0,1,4.21-16.43C26,61.36,26.12,66.17,26.42,63c.34-.72,2.18-6.71.81.07-1.52,5.58-.67,26.18-.82,40.78,0,15.73,0,22.44.29,27,.2,3.31.34,24.06.51,37.13.41,32.1,1,21.54,1.47,23.56.18.71.36-1,.61-1.9,0-2,.09-10.81.23-26.68.13,17.2.22,29.13.34,44.15l-.32-2.57c0,6.79,0,17.06,0,19.8l1.13,60.55c.55,21.39,1.23-25.2,1.29-61.32,0-45.64,0-92.3.05-138.51-.05-9.73-.24-18.55,2.55-27.2a57.93,57.93,0,0,1,4.18-9.56A55.6,55.6,0,0,0,32.3,73.39l0,46.26.14-.06c0-10.27,0-20.57.07-30.8,0-5.05,0-9.78,0-14.22l.36-6c.32-1.9.56-3.76.91-5.54a51.35,51.35,0,0,1,7.51-17.78A58.59,58.59,0,0,1,55.7,30.11,55.27,55.27,0,0,1,84.23,19.47c3.45-.26,7.62-.26,11.87-.25l13,0,26.65,0c17.54,0,34,.08,45.15.37,8.41.22,1.36.56,1.36.83h82V15.66h-.52c-1.74,0-3.07-.09-4-.16-1.87-.14-2.15-.35-.89-.63,2.29-.51,3.53-1,5.47-1.61l6.26-.09c3.37,3.2,5.33,4.82,4.45,3.42l40.54,40.34-.55-.47,60.13,60c.35-.35,7.32,6.54,12.43,11.45L411.26,151c2.49,2.33,3.91,4.64,5.93,7,.51.61.8,1.11,1.21,1.67.12.72.09,1.55.14,2.32l.19,4.72.19,4.74c0,.77.11,1.63,0,2.34l-1.61.18v2.27l1.72-.32,1.52-.28c.39-.2,1.32.11,1-.7l-.14-3.47q-.14-3.44-.27-6.85c-.21-2.15.19-4.86-.92-6.1l-4.62-6.69-6.72-6.6-5.61-5.54L397.7,134l-17.63-17.62-3.7-5.24L372,105.31c7.94,8,18,17.56,27.46,27.71,1.42,1.53,7,7,8.63,8.5l8.29,7.68,1.9,1.73c.47.55.76,1.08,1.12,1.58l1.88,2.75,1.75,2.67a4.56,4.56,0,0,1,.73,1.49,4.4,4.4,0,0,1,.33,1.89c.16,3.21.29,7.22.39,12.25q0,1.11,0,2.28l0,1.18c.11.49-.55.27-.8.44l-4.19,1-2.24.53v2.11l-.05-2.09h-.05c-.06,8.08-.11,16.1-.17,24.27q0,56.56,0,113.16c.48.08,1,.13,1.45.21l-1.45.15v.47c14.47,2.33,18.5,5,19,5.31.46.5-3-.34-3.74-.22a91.89,91.89,0,0,1,30.09,15.74c13.5,10.34,24.36,25.55,29.36,39.45l2.61,7.25c.89,3,1.7,6.33,2.33,8.9a87.73,87.73,0,0,1,1.49,14.39A53.49,53.49,0,0,0,496.87,399.76ZM428.31,505A32,32,0,0,0,435,503.3c7.38-2.33,14.41-6.32,21-10.5A101.3,101.3,0,0,0,467,484.08a66.53,66.53,0,0,0,6-5.83l.57-.93a95,95,0,0,1-42.87,26.89ZM351.62,170.6l-9.66.15,12.48.14,15.42-.42c-5.93-.31-18.81-.27-31.49.11l12.95,0Zm30.24-12.88,9.93-.07c1.49,0,1.14-.05,1.19-.07l0-.06,0-.08s0,0,.07,0,.31-.09.3-.48c0,0,0,0,0-.1l-.82-.88L390.69,154l-4.24-4.37-9.08-9.29.44.71a84.31,84.31,0,0,1-6.48-5.53c-6.16-5.95-12.57-12.4-18.61-18.92-4.29-4.63-11.53-11.93-18.26-18.88L336.9,99c-19.21-19.45-10.81-12.23-9.51-11.94L306.51,66.45c-10.3-10.37-21.32-21.3-30-30.66l-9.93-10-.09-.11c.27,12.59,1.07,6.31,1.36,19.32.13-5.48.22-9.15.32-13.65.28,4.49.49,9.8.94,7.2.36-2,.81,6.46,1.24,9.27.17,1.13.38-1.17.56-.55a15,15,0,0,1,.63,4.77c.1,7.28.81,10.69.3,22.16,0,1,0,3.77,0,5.4,0,9.37.09,18.5.14,27.63v3.42l.12,2.72a31.06,31.06,0,0,0,.5,5.26,49.09,49.09,0,0,0,2.71,10.29A46.12,46.12,0,0,0,310.09,157a58,58,0,0,0,8.63.74l11.19,0ZM268.35,83.07c0-2.41.06-4.87.1-7.3l-.2-.93-.15,22.3L268,108.29l0,2.77.11,2.33a29.2,29.2,0,0,0,.38,4.65l.44,1.81c0-1.67-.26-3.07-.26-5l-.19-4.25v-5.12c0-3.42,0-6.86,0-10.27C268.4,91.15,268.37,87.13,268.35,83.07Zm-2.61-58.94.3-.06h0l-.32,0Zm.11.73.47,3.17c0-.07,0-1.13.06-2.52Zm146.7,145.45h-1.13c0,.1,0,.19,0,.29A5.22,5.22,0,0,0,412.54,170.31Zm-24.58.13c.13,0,.19.11.33.11l15.53,0,.41,0c0-.08,0-.16,0-.24l-13,0Zm23.46,6.87a14.5,14.5,0,0,0,1.51-.27l1.29-.23c0-.83,0-1.66,0-2.48l-2.78.32C411.42,175.53,411.42,176.42,411.42,177.31Zm-146.25-157h5.12l-5.08.25.19,1.3a10,10,0,0,1,1.67-.32,31.41,31.41,0,0,1,2.57,2.21l7.54,7.34c6.36,6.29,14.49,12.95,12.63,10.36-2.71-3.75,7.1,5.1,19.4,17.49l20.56,20.59c1.49,1.48,3.18,2.93,4.21,3.8,3.73,3.14,17.14,16,24.48,23.48,1.43,1.46,3.25,3.35,3.92,4.11,4.59,5.27,4.51,5.19,12,12.11l-9.93-11.83c-1.1-1.34-.67-1.21-.95-1.76l14,14L382,128.2l28.15,28.06c1,1.16,2.52,2.06,3,3.43l.16,4.66.16,4.67,0,.71a2.24,2.24,0,0,0,.7-1.34c0-.45,0-.86,0-1.32a7.57,7.57,0,0,0-.31-1.57l-.1-3.81a8,8,0,0,0-.23-2.35l-32.31-32.25L313.33,59.4Q297,43.17,286.86,32.93L275,21.15l-5.48-5.44-5-.05ZM37.92,119c.05,2.25.11,4.52.16,6.78.13-6,.36-11.26.37-18.31,0-10.19,0-20.57,0-31a51.56,51.56,0,0,1,5.81-25.28A50.5,50.5,0,0,1,65.81,29.94,49.53,49.53,0,0,1,83.4,24.8l2.34-.31C66.84,25.22,49,37.82,41.89,55.42a54.91,54.91,0,0,0-3.53,13.67c-.15,2.49-.35,4.43-.35,7.4L38,85ZM95.17,497.35c-4.54-.17-10.36.16-16.93-1.12a60.37,60.37,0,0,1-21-8.07c-10.69-6.3-20-17.55-24.83-30.83a57.29,57.29,0,0,0,12.42,20.92l.57.7A62.62,62.62,0,0,1,38.94,471,61.94,61.94,0,0,1,31.07,454,57.43,57.43,0,0,0,41.61,475a58.18,58.18,0,0,0,9.88,9.9,59.33,59.33,0,0,0,21.06,10.47C79.94,497.41,87.37,497.56,95.17,497.35Zm256.83.18-.83-.5c-1.26,0-2.5,0-3.77,0l-62.31.06-124.6.13-10.12.06a7.26,7.26,0,0,0,1,.11l198.9.14C350.86,497.57,351.43,497.53,352,497.53Zm-32.86-67.46c.82,6.07,4.63,19.27,12.3,30.1l-3.63-6L325,448.38l-.09-.3a92.75,92.75,0,0,0,4.73,8.82,60.19,60.19,0,0,1-3.66-7.23,42.11,42.11,0,0,1-1.91-4.41A97.14,97.14,0,0,1,319.15,430.07Zm82.75-114.75c0-1.78,0-3.57,0-5.35l.53,5.35h.27c.15-79.82,1-46.93,1.69-43.54-.07-31.92-.14-61-.2-89.57,0-.61,0-1.25,0-1.86a67,67,0,0,1-8-.43c-.43-.09-1.6-.17-3.2-.25l-3.77-.24-8.38-.48c-1.48-.11-2.29-.27-1.6-.39,1.48-.25,4.14-.49,5.38-.63l13.17-.12c2.07-.07,4.25,0,6.39,0v-2.72l-51.71.56-11.17,0-22.77-.15a68.91,68.91,0,0,1-24.12-4.7,45.9,45.9,0,0,1-7.72-4,28.21,28.21,0,0,1-3.29-2.89,71,71,0,0,1-8.82-7.27l2.85,2.26a62.45,62.45,0,0,1-15.39-19.41,61.09,61.09,0,0,1-6.28-22.74l-.44-1.42c-.38-5.41-.11-10.3-.16-18.05.11,3.48.15,4.93.12,4,.32-.23.61-2.22.81,0,.24,1.78.1,8.39.48,13.37a35.27,35.27,0,0,0,1.38,8.95c.24.52.82,2.45,1.5,4.76s1.86,4.89,2.7,6.89c2.42,4.76,3.56,6.15,4.1,6.46s.36-.4.75-.25.14-.47.21-.83a53.76,53.76,0,0,1-3.51-7.78,57,57,0,0,0,7,12.17l-.76-.47a54.66,54.66,0,0,0,3.89,5,52.73,52.73,0,0,0,15.36,11.37c6.1,2.83-6.79-4.3-13.68-13.13A57.94,57.94,0,0,1,262,108.31c0-6.23.07-12.46.1-19.06l.11,15.2c0,5.19,0,10,.75,14.55l.14,0a67.69,67.69,0,0,1-.57-9.43c0-6.63,0-11.55.32-15.68.26-3.8.3-10,.25-18.57-.06-10.3-.33-24.49.25-31.83.22-2.76.56-.45.84-.45V24.57l-1.39-.05c.38,0,1.11-.06,1.39-.09v-.63c-1.1-.09-2.43-.19-2.92-.29s-.66-.22-.07-.34c.29-.06.75-.12,1.39-.19.37,0,1.14-.09,1.6-.14v-2.2l-36.3,1.78,17.6.14c-52.44.2-26.42,1.1-69.33,1.42l41.64.32c-13.69.28-29.89.49-22,.94,6.2.36-19.71.81-28.27,1.24-3.45.17,3.57.38,1.67.56a134,134,0,0,1-14.53.63c-22,.13-32.9.74-67.26.37A49,49,0,0,0,75,30a47.66,47.66,0,0,0-25.5,19.38,44.19,44.19,0,0,0-6.25,14.75C42,69.47,41.91,74,42,81.7c-.08,27.82-.16,55.6-.24,84,0,36-.09,77.21-.13,115.74.08,45.61.16,90.69.25,136.3v19.75a51.15,51.15,0,0,0,2.41,15.09,47.52,47.52,0,0,0,18.09,24,48.46,48.46,0,0,0,13.82,6.33,53.87,53.87,0,0,0,7.49,1.47c2.58.1,4.85.33,8.48.26h39.64l30.27-.07c51.16-.43,117.29-.26,158,.29l15.4.1a102.31,102.31,0,0,1-8.91-9.53c-12.85-16-20.87-36.41-21.54-57.1a98.72,98.72,0,0,1,.06-11.83,90.53,90.53,0,0,1,23.18-56.23c4.39-5,13.34-13.46,21.59-18.6l-.93.35c2.66-1.86,3.88-3.21,8.37-5.75a85.83,85.83,0,0,1,30.07-9.83A88.39,88.39,0,0,1,401.89,315.32Zm13,.82c-.22-48.45-.43-92.79-.63-136.4l-2.81.66c0,26.73,0,53.61,0,80.21,0,6.39.18,13.19.3,17.27.18,6.48.37,21,.51,38C413.12,315.95,414,316,414.85,316.14Zm42.89,167.62c-1.49,1.12-3,2.19-4.48,3.21C454.78,485.93,456.3,484.9,457.75,483.76ZM344.23,457.45c10.4,14,25.93,24.51,43,28.21,3.55.83,6.37,1,8.42,1.39a28.12,28.12,0,0,0,4.27-.08,48.72,48.72,0,0,0,9.64-2.28c.43-.14-2.18-.22-4.41-.19a77.12,77.12,0,0,1-34.78-8.24c-8-4.65-9.05-5.4-5.53-2.58,1.09.8,0,.38,0,.52a66.5,66.5,0,0,1-7.66-5.62,55.5,55.5,0,0,1-6.19-6.85,71.51,71.51,0,0,1-15-23.36c-.52-1.35-1.16-2.83-1.42-3.38-1-2.87-1.16-.56.38,4.17A58.13,58.13,0,0,0,344.23,457.45Zm-14.79-60.61c.56-2,1-4.13,1.69-6.22l2.21-5.9,3.39-7.23c1-1.81,1.77-3.24,2.31-4.44a24.58,24.58,0,0,1,2.5-4.52,44.93,44.93,0,0,1,3.93-5.62c.67-.77,2.14-2.6,3.78-4.26l4.18-3.77c10.12-8.08,22-13.78,32.28-16.13-2.43.31-4.84.39-6.79.82l-6,1.05A92.31,92.31,0,0,0,352.57,353a69.76,69.76,0,0,0-17.34,21,78.65,78.65,0,0,0-10.17,40.6c.2,1.17.57,3.68.88,5.06.15.64.27-.14.31-1.53-.17-4.32.8-12.2,1.23-13.12S328.47,400.79,329.44,396.84ZM470.75,442c.81-2.35,2.07-5.63,2.47-7.5,1.19-5.83,1.18-7.47.41-5.94s-2.15,6.27-5.06,12.86c-6.44,13.88-17.69,26.78-31.66,34.28l-5.71,2.73c-2,.81-4,1.47-6,2.24a9.68,9.68,0,0,1-1.29.62,75.86,75.86,0,0,0,18.57-7.73A74.3,74.3,0,0,0,458.4,460.8a14.64,14.64,0,0,0,1.54-2,14.77,14.77,0,0,1-1.27,2.22A77.33,77.33,0,0,0,470.75,442Zm-74.2-29.44.33,7.71c0,.56,0,.47.08.5a.39.39,0,0,0,.28.06c.09-.13.18.21.26-.67a51.56,51.56,0,0,0,.27-5.55c0-4.68.06-9.4.1-14.06a13.84,13.84,0,0,0-.17-3.42,27.9,27.9,0,0,0-1.08-2.64c-.06-.12-.15.6-.2,1.22-.24,3.1-.09,6.7-.08,10.07,0,2.6.1,2.93.3,1.69.06-.37.15-.07.23-.07,0,.89,0,2.11,0,2.61Zm-2.19,10.87.35,1.07.43,1.19c.77.76,1.72,1.62,2.54,2.51a27.48,27.48,0,0,0,2.68,2.51v-.16c-.08-2-.16-4.14-.25-6.43a7.87,7.87,0,0,0-.31-.92c-.06-.12-.14-.08-.19,0-.16.41-.31,1.13-.48,1-.35-.22-.24,1-.3,1.65a4.27,4.27,0,0,0,.1,1.29.21.21,0,0,0,0,.08c0,.2-.23.23-.56.1a5.14,5.14,0,0,1-.92-.84A27.09,27.09,0,0,0,394.36,423.44Zm2-50.27c-.24,4.27-.12,8.84-.18,13.26,0,1.17,0,2.37,0,3.56l.09.4.91-11.19,0-.69.22.69c0-2.17.08-4.13.11-6.11,0-.67,0-1.62-.08-2.14C397.14,367.73,396.63,369.15,396.4,373.17Zm21.53,64.21.24-.41c-.81.85-1.48,1.6-2.17,2.29s-1.42,1.31-2.21,2c0,.09,0,.16,0,.26l-1.69,1.65.33-.41c-.13-.09-.42,0-.29-.28a9.81,9.81,0,0,1,1.14-1.35c.47-.49.68-.69.72-.93a10.44,10.44,0,0,1,1-1.32c.84-1.13.32-1,.2-1.24,0-.09-.16-.1-.28-.16l-.9.74,1.23-1.47,0,.19c.21-.21.54-.51.6-.61.52-.78,1.11-1.62,1.46-2.26.46-.85-1.21.34-2.33,1.42-1.43,1.37-2.84,2.81-4.26,4.23l-.39.37c.05,3.67.06,7.5,0,11l.15-.17c.79-.76,1.59-1.49,2.47-2.31l-.11.42.23-.3,5-3.72-.09.22c-.46.46-.93.94-1.39,1.39-1.76,1.69-3.47,3.55-5.3,5.05a11.44,11.44,0,0,1-1,.72c0,.74,0,1.53,0,2.23l-4.62-4.88-3.24-3.34-1.3,1.3.56-2-.59.49a6,6,0,0,0,.5-.62l-3.91-4,.28.41a26.94,26.94,0,0,1-2.82-2.34c-2.89-2.77-6-5.93-8.87-9-1-1.15-2.71-2.9-4.3-4.59l.73.16c-4.58-4.67-2.41-3.1-2-3.17l-5-4.9c-2.46-2.48-5.12-5.08-7.1-7.41l-2.45-2.48-2-2.25,1.4,1.09c-1.36-1.59-2-2.5-.4-1.32.36.27.08-.17.21-.16.35,0,1.14.45,4.09,3.31,1.53,1.49,3.68,2.89,3.32,2.18-.51-1,2,1,4.9,3.92L382.6,420a8.4,8.4,0,0,0,1.06.85,67.7,67.7,0,0,1,6,5.47l1,1.11a18.27,18.27,0,0,0,3.5,3.54l-2.78-3.72c-.28-.4-.13-.4-.18-.58l3.63,3.63,1.21,1.31,7.89,7.8-.06-10.21,0-.89s-.05,0-.05,0l-.05,10.6-4.2-4.23L396,431.14c-2.4-2.38-3-3.14-2.58-3.22l-3.32-3.08-2.12-2c-3.25-3.21-6.24-6-9.21-8.69l-3.43-3.34-5.38-5.26c-2.84-2.73-3.82-3.91-3-3.62a10.42,10.42,0,0,0,1.5.36c1.36,1.32,2.33,2.11,2.17,1.59l9.74,9.59-.24-.17,1.37,1.5,9.78,9.78,1.21,1.21c1.46,1.53,1.9,2,1.79,1.6-.18-.61,1.39.9,2.43,1.83l5,4.61c0-1.59-.09-3.2-.14-4.81l-.25-9.76,0-2.67c0-3.68.18-7.19.07-11a15,15,0,0,1,.13-2,3.63,3.63,0,0,1,.38-1c0-.73,0-1.59.06-2.61l.12.83c0-2.13-.06-3.94-.08-5.71s.08-3.5.13-5.44l-.18-.33,0-4.27c.05.83.08,1.18.06.95.16-.06.3-.53.4,0s.14,2,.15,3.18a7.39,7.39,0,0,0,.15,2.12c.1.26.17,1.89.26,2.91.21,2.52.48,1.69.73,1.85.09.05.18-.08.31-.15l.12-2.09.17,3.47-.16-.2c0,.53,0,1.29,0,1.55.18,1.67.36,3.5.57,4.75.27,1.68.61-2,.64-4.81,0-3.59,0-7.24,0-10.87,0-1.49,0-3,.05-4.56l.11,7.28h.07l0-2.42a27.24,27.24,0,0,1,.16-3.75,34.15,34.15,0,0,0,.12-4.44,57.83,57.83,0,0,1,.13-7.62c.11-.66.28-.11.42-.11v-6.91l1,3.32.07-1.38c.1,4.11.55,2.07.71,5.44l.16-3.27c.14,1.07.24,2.35.47,1.72s.41,1.55.62,2.22c.09.27.19-.28.28-.13a1.94,1.94,0,0,1,.32,1.14,27.9,27.9,0,0,1,.15,5.3c0,.27,0,.9,0,1.29.13,4.48.08,8.75-.05,13.2,0,2.87,0,6.06-.06,9.08l.12,10.7c0,5.93,0,11.89,0,17.84,0,.54,0,1.12,0,1.68,1-1,2.1-2,3.11-3,1.39-1.41,2.7-2.85,4.09-4.26,1.6-1.63,3.24-3.23,4.86-4.85.31-.31.67-.68.9-1a31.63,31.63,0,0,1,4.94-4.74c.6-.44,1.57-1.4,2.37-2.12h-.14a3.36,3.36,0,0,1,.55-1,17,17,0,0,1,2.55-2.41c.67-.51,1.64-1.46,2.6-2.31l0,.53c2.6-2.51,1.87-1.17,2-.82,1-1,1.79-1.95,2.67-2.81a44.86,44.86,0,0,1,4.16-3.85c.3-.23.93-.95,1.38-1.35s.87-.7,1.3-1l-.53.84c.93-.7,1.5-1,.93,0-.13.22.15.1.17.2.07.26-.1.78-1.66,2.43-.81.86-1.42,2.21-.95,2.09.69-.17-.3,1.31-1.95,2.93-.91.9-1.82,1.81-2.71,2.73a2.64,2.64,0,0,0-.42.64,21,21,0,0,1-2.91,3.43,5.11,5.11,0,0,1-.58.48c-.82.48-.81.47-1.61,1.57.67-.34,1.33-.7,1.91-1,.22-.1.26,0,.38,0-.61.62-1.23,1.24-1.85,1.85-.21.21-.47.36-.67.56l-7.55,7.72c-.11.11-.19.22-.29.33s.05,0,.07,0q3.08-3,6.15-6c.63-.62,1.23-1.27,1.85-1.9,1.23-1.25,1.65-1.53,1.75-1.11l1.64-1.89c.35-.39.71-.8,1.09-1.19,1.76-1.81,3.25-3.5,4.68-5.2.48-.57,1.21-1.27,1.83-1.92,1-1,1.94-2,2.87-3,1.49-1.59,2.18-2.09,2.13-1.55a6.6,6.6,0,0,0,.06,1.08c-.72.76-1.11,1.34-.75,1.33l-5.26,5.41.08-.15c-.29.24-.59.46-.86.73l-5.41,5.4c-.24.24-.48.5-.71.71-1,.9-1.22,1.17-1,1.18.41,0-.6,1.09-1.27,1.86-1.75,2.05-3.73,4.17-5.68,6.3-1.56,1.7-3.3,3.42-4.74,5.09-.28.32-.68.7-1,1.06-1.43,1.44-2.93,2.68-4.35,4.24a4.66,4.66,0,0,1-.85.68,1.65,1.65,0,0,1-.65.11Zm4.84-7.53,1.2-1.23h0l-.85,1c.63-.58,1-.89,1.22-1.12.48-.55.87-1.06,1.29-1.59A16.72,16.72,0,0,0,422.78,429.85Zm-19-14c0,1.15,0,2.13,0,3.1l0,.07-.08-2.31-.07,3,.21,3.89A57.54,57.54,0,0,0,403.78,415.88Zm4.48-25.46.08.53a10.24,10.24,0,0,0,.19-1.44c0-1.6,0-3.26,0-4.89l0-2.91,0-1.75-.1-.22Zm3.39,48.16-.05,0c-.32.31-.66.6-1,.92-.12.13-.2.16-.32.27s0,.18,0,.27Zm12.45.48c1-1,1.07-1.22.45-.87-.19.1-.13-.08-.19-.13.35-.35.8-.84,1-1,.49-.37.87-.57,1.21-.78l2.78-3.24a2.78,2.78,0,0,0,.33-.45c.4-.9-1.51.37-3.17,2-1.83,1.83-3.7,3.65-5.56,5.42-.78.74-1.16,1.18-1.22,1.46a13,13,0,0,0-.27,1.79c0,.09.34-.12.62-.33A41.43,41.43,0,0,0,424.1,439.05Zm12.17-18a31.67,31.67,0,0,0-2.58,2.77c-1.24,1.38-2.56,2.8-4,4.34a5.36,5.36,0,0,0-.28.73c0,.1.11.09.29,0a9.73,9.73,0,0,1,1.66-1c.45,0,1.54-1.19,2.37-1.94a4.24,4.24,0,0,0,1.19-1.45,7.3,7.3,0,0,1,2-2.7,37.61,37.61,0,0,0,3.69-3.6c-.37.11-.72.23-1,.31s-.64.14-1,.21C437.89,419.39,437,420.32,436.27,421ZM137,251.62l1.95-1.56-.81-.1c2.41-.15,1.21-.82,3.19-1.06l-1.91-.24c.63-.21,1.37-.37,1-.71s.91-.61,1.3-.93c.16-.13-.16-.29-.08-.42a.82.82,0,0,1,.67-.47c1-.07,1.5-.6,3.11-.23a3.76,3.76,0,0,0,.76,0,51.73,51.73,0,0,1,7.73.08c1.65.12,3.55.12,5.32.1,2.1,0,4.17-.16,6.26-.18,2.42,0,4.85,0,7.28,0a11.74,11.74,0,0,0,1.39-.05,23.79,23.79,0,0,1,7.26.22,32.89,32.89,0,0,0,3.37.27l-.11-.14a2.86,2.86,0,0,1,1.19-.51,12.79,12.79,0,0,1,3.72.14c.88.18,2.32.2,3.68.3l-.37.6c3.83.1,2.28.74,2.13,1.27,1.47-.06,2.81-.16,4.12-.15a33.85,33.85,0,0,1,6,.32c.4.08,1.41,0,2,0s1.18.17,1.76.27l-1,.33c1.22.24,1.85.55.71,1-.26.09,0,.26,0,.4-.15.35-.66.73-3.06.82-1.25,0-2.72.84-2.28,1.22.64.55-1.21,1.07-3.66,1-1.36,0-2.73,0-4.08,0a2.14,2.14,0,0,0-.79.22,16,16,0,0,1-4.75.56,3.89,3.89,0,0,1-.8-.1c-1-.35-1-.36-2.39,0,.76.35,1.52.67,2.16,1,.24.13.19.28.27.43-.92,0-1.85,0-2.77,0-.32,0-.63-.12-.92-.11l-11.46.18c-.16,0-.31,0-.46,0,0,0,0,.08,0,.08l9.14.11c.93,0,1.87,0,2.81-.05,1.86,0,2.39.12,2.15.68l2.65-.26c.55,0,1.13-.1,1.71-.11a70,70,0,0,0,7.41-.56c.79-.09,1.86-.07,2.81-.09,1.47,0,3-.07,4.41-.14,2.31-.11,3.2.09,2.76.61a9.63,9.63,0,0,0-.77,1.21c-1.11,0-1.84.23-1.56.62l-8,.16.17-.07a10.4,10.4,0,0,0-1.19-.14c-2.7,0-5.4,0-8.1,0-.36,0-.73,0-1.07,0-1.39-.07-1.79-.05-1.63.2.28.47-1.27.51-2.35.63-2.85.32-5.93.47-9,.65-2.44.15-5,.13-7.38.37-.45,0-1,0-1.57,0-2.16,0-4.21-.27-6.44-.11a3.55,3.55,0,0,1-1.15-.19c-.31-.17-.38-.36-.57-.57l-1.53-.09.49-.18c-1.25.05-2.31.13-3.35.12s-2-.12-3.19-.19l-.19.28-2.5,0,.55-.09c0-.24-.31-.46,0-.61a7.51,7.51,0,0,1,1.86-.22c.72,0,1,0,1.24-.22a8,8,0,0,1,1.71-.38c1.48-.31,1-.72,1.08-1.1,0-.13,0-.27-.09-.46l-1.23-.18,2-.25-.12.24a7.41,7.41,0,0,0,.91,0,27.33,27.33,0,0,0,2.78-.85c1-.41-1.16-.92-2.82-1-2.1-.06-4.24,0-6.37,0-.87,0-1.75,0-2.67-.08l4.26-.17v-.11c-.47,0-.95-.05-1.42-.05a6.4,6.4,0,0,1-2.2-.24,7.91,7.91,0,0,0-2.6-.19c-1.44,0-3.43.25-4.46-.19-.39-.16-.06-.42-.06-.63Zm29.68,4,1.82,0,0,0-1.35.12c.91.06,1.43.14,1.75.11.77-.08,1.45-.21,2.16-.31A12.56,12.56,0,0,0,166.66,255.57Zm-21.17-7,6.25.23.31-.12a2.68,2.68,0,0,0-.84-.28c-.94,0-1.91,0-2.87,0-.57,0-1.13.06-1.7.06-.34,0-.68,0-1-.07ZM163.23,266a12.29,12.29,0,0,1,1.49.45l4.52-.49a2.19,2.19,0,0,0,.59-.13c1-.53-1.41-1.22-3.9-1.21-2.75,0-5.51-.06-8.24-.14-1.14,0-1.76,0-2,.25a15.24,15.24,0,0,0-1.54,1.61c-.07.09.35.23.71.3a31.21,31.21,0,0,0,5.9.12c1.52,0,1.72-.15,1-.44-.22-.09,0-.23,0-.35A12.63,12.63,0,0,1,163.23,266Zm23.66-5.48c-1,0-2.38.11-3.49,0a23.81,23.81,0,0,0-4,.19c-2,.15-4,.25-6.24.38a4.88,4.88,0,0,0-.75.47c-.1.09,0,.21.22.29.64.25,1.83.47,2,.72.31.53,2,.36,3.23.45a3.29,3.29,0,0,0,2-.28,7.66,7.66,0,0,1,1.81-.7,6.93,6.93,0,0,1,1.7-.08,28.28,28.28,0,0,0,5.47.1c-.37-.28-.72-.52-1-.76S187.19,260.76,186.89,260.49ZM141.58,265a5.66,5.66,0,0,0-1.25.13c-1.88.45-1,1.21,1.3,1.54a72.19,72.19,0,0,0,7.77.26c.68,0,1.39,0,2.09,0l.23-.13-6.56-1.37-.4.07.4-.33C143.9,265.07,142.75,265,141.58,265ZM145.07,300H137l3.89-1.56-1.62-.1c4.82-.15,2.43-.82,6.37-1.06l-3.83-.24c1.26-.21,2.75-.37,2-.71-.57-.27,1.81-.61,2.6-.93.32-.13-.33-.29-.15-.42a1.94,1.94,0,0,1,1.34-.47c2-.07,3-.6,6.21-.23a15,15,0,0,0,1.51,0c5.25-.19,10.25-.12,15.47.08,3.31.12,7.1.12,10.64.1,4.19,0,8.34-.16,12.53-.18,4.84,0,9.71,0,14.56,0,.93,0,2,0,2.78-.05a94.63,94.63,0,0,1,14.53.22c1.57.17,4.46.18,6.74.27l-.23-.14a9.36,9.36,0,0,1,2.38-.51,50.86,50.86,0,0,1,7.44.14c1.77.18,4.65.2,7.36.3l-.74.6c7.66.1,4.57.74,4.25,1.27,2.93-.06,5.61-.16,8.23-.15,4.1,0,8.45,0,12,.32.8.08,2.81,0,4.09,0s2.35.17,3.52.27l-2.06.33c2.45.24,3.71.55,1.43,1-.52.09.07.26,0,.4-.3.35-1.32.73-6.13.82-2.51,0-5.44.84-4.56,1.22,1.28.55-2.42,1.07-7.31,1-2.71,0-5.45,0-8.16,0a7.79,7.79,0,0,0-1.59.22,62.41,62.41,0,0,1-9.51.56,15.22,15.22,0,0,1-1.59-.1c-2-.35-1.92-.36-4.78,0,1.51.35,3,.67,4.31,1,.48.13.37.28.54.43-1.85,0-3.7,0-5.54,0-.64,0-1.25-.12-1.84-.11l-22.91.18c-.32,0-.63,0-.93,0,0,0,.05.08.09.08l18.29.11c1.87,0,3.75,0,5.63-.05,3.71,0,4.78.12,4.3.68l5.31-.26c1.1,0,2.26-.1,3.42-.11,5.35,0,10.12-.27,14.83-.56,1.59-.09,3.73-.07,5.61-.09,2.94,0,5.92-.07,8.81-.14,4.61-.11,6.4.09,5.52.61a12.07,12.07,0,0,0-1.53,1.21c-2.22,0-3.67.23-3.11.62l-16,.16.34-.07c-.79,0-1.58-.13-2.38-.14q-8.1,0-16.21,0c-.71,0-1.46,0-2.14,0-2.78-.07-3.58-.05-3.27.2.57.47-2.54.51-4.7.63-5.71.32-11.85.47-18,.65-4.88.15-10.08.13-14.76.37-.9,0-2.08,0-3.13,0-4.31,0-8.42-.27-12.89-.11a13.65,13.65,0,0,1-2.3-.19,3.78,3.78,0,0,1-1.15-.57l-3.06-.09,1-.18c-2.49,0-4.61.13-6.69.12s-4.1-.12-6.37-.19l-.39.27-5,0,1.11-.09c-.07-.24-.62-.46,0-.61a29.4,29.4,0,0,1,3.72-.22,6.83,6.83,0,0,0,2.48-.22,30.25,30.25,0,0,1,3.41-.38c3-.31,2-.72,2.17-1.1.07-.13-.09-.27-.17-.46l-2.45-.18,4.06-.25-.24.24c.62,0,1.57,0,1.82,0,2-.27,4.09-.54,5.57-.85,2-.41-2.32-.92-5.64-1-4.2-.06-8.48,0-12.73,0-1.75,0-3.5,0-5.34-.08l8.52-.17s0-.07,0-.11c-.94,0-1.89-.05-2.83-.05a25.07,25.07,0,0,1-4.4-.24,31.22,31.22,0,0,0-5.21-.19c-2.89,0-6.87.25-8.92-.19C144.42,300.5,145.07,300.25,145.07,300Zm51.26,4,3.63,0,.08,0-2.71.12c1.82.06,2.87.14,3.5.11,1.54-.08,2.89-.21,4.32-.31A49.92,49.92,0,0,0,196.34,304ZM154,297l12.5.23.62-.12a9.46,9.46,0,0,0-1.68-.28c-1.87,0-3.82,0-5.73,0-1.14,0-2.27.06-3.41.06-.68,0-1.36,0-2-.07Zm35.48,17.35c1.29.13,2.15.32,3,.45l9-.49a8.38,8.38,0,0,0,1.18-.13c2-.53-2.82-1.22-7.8-1.21-5.49,0-11-.06-16.47-.14a12.74,12.74,0,0,0-4,.25,29.32,29.32,0,0,0-3.09,1.61c-.14.09.7.23,1.42.3,3.63.36,7.85.13,11.8.12,3,0,3.44-.15,2-.44-.44-.09-.08-.23-.08-.35C187.46,314.37,188.88,314.33,189.48,314.39Zm29.2-2.94a12.56,12.56,0,0,0,4-.28,26.28,26.28,0,0,1,3.62-.7,27.85,27.85,0,0,1,3.4-.08c3.88.38,7.78.08,10.94.1-.73-.27-1.43-.52-2-.76s-1.17-.53-1.77-.81c-2.1,0-4.76.11-7,0-3.24-.11-5.39.09-8,.19-3.94.15-8,.25-12.48.38a13.86,13.86,0,0,0-1.51.47c-.19.09,0,.21.45.29a28,28,0,0,1,4,.72C212.83,311.52,216.31,311.36,218.68,311.45Zm-72.49,1.94a22.69,22.69,0,0,0-2.5.13c-3.76.45-2.1,1.21,2.61,1.54,5,.36,10.36.18,15.53.26,1.37,0,2.78,0,4.17,0l.46-.13-13.11-1.37-.81.07.8-.33C150.81,313.5,148.52,313.42,146.19,313.39Zm136.07,44.37-3.89,1.56,1.62.1c-4.82.15-2.43.82-6.37,1.06l3.83.24c-1.26.21-2.75.37-2,.71.57.27-1.81.61-2.6.93-.32.13.33.29.15.42a1.94,1.94,0,0,1-1.34.47c-2,.08-3,.6-6.21.23a15,15,0,0,0-1.51,0c-5.25.19-10.25.12-15.46-.08-3.31-.12-7.1-.12-10.64-.1-4.19,0-8.34.16-12.53.18-4.84,0-9.71,0-14.56,0-.93,0-2,0-2.78.05a94.83,94.83,0,0,1-14.53-.21c-1.57-.17-4.46-.18-6.74-.26l.23.14a9.46,9.46,0,0,1-2.38.51,50.86,50.86,0,0,1-7.44-.14c-1.77-.18-4.65-.2-7.36-.3l.74-.6c-7.66-.1-4.57-.74-4.25-1.27-2.93.06-5.61.16-8.23.15-4.1,0-8.45,0-12-.32-.8-.08-2.81,0-4.09,0s-2.35-.17-3.52-.27l2.06-.34c-2.45-.24-3.71-.55-1.43-1,.52-.09-.07-.26,0-.4.3-.35,1.32-.73,6.13-.82,2.51,0,5.44-.84,4.56-1.22-1.28-.55,2.42-1.07,7.31-1,2.71,0,5.45,0,8.16,0a7.74,7.74,0,0,0,1.59-.22,62.42,62.42,0,0,1,9.51-.56,15.23,15.23,0,0,1,1.59.1c2,.35,1.92.36,4.78,0-1.51-.34-3-.66-4.31-1-.48-.13-.37-.28-.54-.43,1.85,0,3.7,0,5.54,0,.64,0,1.25.12,1.84.11l22.91-.18c.32,0,.63,0,.93,0,0,0-.05-.08-.09-.08q-9.14-.06-18.29-.11c-1.87,0-3.75,0-5.63.05-3.71,0-4.78-.12-4.3-.68l-5.31.26c-1.1,0-2.26.1-3.42.11-5.35,0-10.12.27-14.83.56-1.59.1-3.73.07-5.61.1-2.94,0-5.92.07-8.81.14-4.61.11-6.4-.09-5.52-.61a12,12,0,0,0,1.53-1.21c2.22,0,3.67-.23,3.11-.62l16-.16-.34.07c.79,0,1.58.13,2.38.14q8.1,0,16.21,0c.71,0,1.46,0,2.14,0,2.78.07,3.58.05,3.27-.2-.57-.47,2.54-.51,4.7-.63,5.71-.32,11.85-.47,18-.65,4.88-.15,10.08-.13,14.76-.37.9,0,2.08,0,3.13,0,4.31,0,8.42.27,12.89.11a13.64,13.64,0,0,1,2.3.19,3.79,3.79,0,0,1,1.15.57l3.06.09-1,.18c2.49,0,4.61-.13,6.69-.12s4.1.12,6.37.19l.39-.27,5,0-1.11.09c.07.24.62.46,0,.61a29.39,29.39,0,0,1-3.72.22,6.83,6.83,0,0,0-2.48.22,30.24,30.24,0,0,1-3.41.38c-3,.31-2,.72-2.17,1.1-.07.14.09.27.17.46l2.45.17-4.06.25.24-.24c-.62,0-1.57,0-1.82,0-2,.27-4.09.54-5.57.85-2,.41,2.32.92,5.64,1,4.2.06,8.48,0,12.73,0,1.75,0,3.5,0,5.34.08l-8.52.17s0,.07,0,.11c.94,0,1.89.05,2.83.05a24.84,24.84,0,0,1,4.4.24,31.27,31.27,0,0,0,5.21.19c2.89,0,6.87-.25,8.92.19.77.17.13.42.13.63Zm-59.35-4-3.63,0-.08,0,2.71-.12c-1.82-.06-2.87-.14-3.5-.11-1.54.08-2.89.2-4.32.31A49.94,49.94,0,0,0,222.9,353.81Zm42.34,7-12.5-.23-.62.12a9.46,9.46,0,0,0,1.68.28c1.87,0,3.82,0,5.73,0,1.14,0,2.27-.05,3.41-.06.68,0,1.36,0,2,.07Zm-40.87-16c5.49,0,11,.06,16.47.14a12.74,12.74,0,0,0,4-.25,29.31,29.31,0,0,0,3.09-1.61c.14-.09-.7-.23-1.42-.3-3.63-.36-7.85-.13-11.8-.12-3,0-3.44.15-2,.44.44.09.08.23.08.35-1,0-2.47,0-3.06,0-1.29-.13-2.15-.32-3-.45l-9,.49a8.36,8.36,0,0,0-1.18.13C214.61,344.11,219.39,344.8,224.37,344.79Zm-41.94,4.1c2.1,0,4.76-.11,7,0,3.24.11,5.39-.09,8-.19,3.94-.15,8-.25,12.48-.38a13.88,13.88,0,0,0,1.51-.47c.19-.09,0-.21-.45-.29a28,28,0,0,1-4-.72c-.61-.52-4.09-.36-6.47-.45a12.57,12.57,0,0,0-4,.28,26.28,26.28,0,0,1-3.62.7,27.85,27.85,0,0,1-3.4.08c-3.88-.38-7.78-.08-10.94-.1.73.27,1.43.52,2,.76S181.83,348.62,182.43,348.89ZM273,344.42a22.7,22.7,0,0,0,2.5-.13c3.76-.45,2.1-1.21-2.61-1.54-5-.36-10.36-.18-15.53-.26-1.37,0-2.78,0-4.17,0l-.46.13L265.88,344l.81-.07-.8.33C268.42,344.31,270.71,344.38,273,344.42Z"/></svg>