<svg id="Layer_1" data-name="Layer 1" xmlns="http://www.w3.org/2000/svg" viewBox="0 0 512 512"><defs><style>.cls-1{fill:#dde5e8;}.cls-2{fill:#9bbdc6;}.cls-3{fill:#afc3c9;}.cls-4{fill:#48b753;}.cls-5{fill:#2e8234;}</style></defs><title>document-download-flat</title><path class="cls-1" d="M422.4,153.6V448a64,64,0,0,1-64,64H76.8a64,64,0,0,1-64-64V64a64,64,0,0,1,64-64H268.93Z"/><path class="cls-2" d="M422.4,153.6H332.8a64,64,0,0,1-64-64V0h.13Z"/><path class="cls-3" d="M217.6,256a12.8,12.8,0,0,1-12.8,12.8H128A12.8,12.8,0,0,1,115.2,256h0A12.8,12.8,0,0,1,128,243.2h76.8A12.8,12.8,0,0,1,217.6,256Z"/><path class="cls-3" d="M294.4,307.2A12.8,12.8,0,0,1,281.6,320H128a12.8,12.8,0,0,1-12.8-12.8h0A12.8,12.8,0,0,1,128,294.4H281.6a12.8,12.8,0,0,1,12.8,12.8Z"/><path class="cls-3" d="M294,358.4a12.8,12.8,0,0,1-12.8,12.8H128a12.8,12.8,0,0,1-12.8-12.8h0A12.8,12.8,0,0,1,128,345.6H281.22A12.8,12.8,0,0,1,294,358.4Z"/><circle class="cls-4" cx="409.6" cy="422.4" r="89.6"/><path class="cls-5" d="M444.25,413.35a12.8,12.8,0,0,0-18.1,0l-3.75,3.75V396.8a12.8,12.8,0,1,0-25.6,0v20.3l-3.75-3.75a12.8,12.8,0,0,0-18.1,18.1l25.6,25.6a12.88,12.88,0,0,0,1,.87c.3.25.61.47.93.69l.09.07a12.71,12.71,0,0,0,3.37,1.58h0c.35.11.71.19,1.07.27l.14,0c.33.07.67.11,1,.15l.22,0q.62.06,1.24.06t1.24-.06h.1c.38,0,.76-.09,1.13-.17h0q.6-.12,1.19-.3h0q.59-.18,1.16-.41h0c.32-.13.64-.28.95-.44l.35-.19.66-.39.33-.21q.41-.28.79-.58l.13-.1c.31-.25.6-.52.88-.8l.07-.06,25.6-25.6A12.8,12.8,0,0,0,444.25,413.35Z"/></svg>