<svg id="Layer_1" data-name="Layer 1" xmlns="http://www.w3.org/2000/svg" viewBox="0 0 512 512"><defs><style>.cls-1{fill:#dde5e8;}.cls-2{fill:#9bbdc6;}.cls-3{fill:#afc3c9;}</style></defs><title>document-flat</title><path class="cls-1" d="M460.8,153.6V448a64,64,0,0,1-64,64H115.2a64,64,0,0,1-64-64V64a64,64,0,0,1,64-64H307.33Z"/><path class="cls-2" d="M460.8,153.6H371.2a64,64,0,0,1-64-64V0h.13Z"/><path class="cls-3" d="M281.6,256a12.8,12.8,0,0,1-12.8,12.8H166.4A12.8,12.8,0,0,1,153.6,256h0a12.8,12.8,0,0,1,12.8-12.8H268.8A12.8,12.8,0,0,1,281.6,256Z"/><path class="cls-3" d="M358.4,307.2A12.8,12.8,0,0,1,345.6,320H166.4a12.8,12.8,0,0,1-12.8-12.8h0a12.8,12.8,0,0,1,12.8-12.8H345.6a12.8,12.8,0,0,1,12.8,12.8Z"/><path class="cls-3" d="M358,358.4a12.8,12.8,0,0,1-12.8,12.8H166.4a12.8,12.8,0,0,1-12.8-12.8h0a12.8,12.8,0,0,1,12.8-12.8H345.22A12.8,12.8,0,0,1,358,358.4Z"/></svg>