<svg id="Layer_1" data-name="Layer 1" xmlns="http://www.w3.org/2000/svg" viewBox="0 0 512 512"><defs><style>.cls-1{fill:#707070;}</style></defs><title>document-handdrawn</title><path class="cls-1" d="M74.89,47.44c-.23.4-.43.82-.65,1.22C74.45,48.25,74.66,47.84,74.89,47.44Zm1.81-3c-.63,1-1.24,2-1.81,3Q75.75,45.92,76.69,44.46Zm3.42-4.79c-.44.56-.86,1.13-1.28,1.71C79.26,40.8,79.66,40.23,80.11,39.67Zm-3.42,4.79c.68-1,1.39-2.08,2.14-3.08C78.09,42.38,77.37,43.4,76.69,44.46Zm3.42-4.79a58.05,58.05,0,0,1,4.24-4.78A54.85,54.85,0,0,0,80.11,39.67ZM85,502.08a73.89,73.89,0,0,1-24.86-27.95,70.69,70.69,0,0,1-7-21.54,81.5,81.5,0,0,1-1-11.77c0-3.38,0-6.78,0-10.19.06-60.16.13-120.78.19-180.48,0-25,0-38.51-.34-44-.72-12.65-1.44-24.34-2.17-33.84-.12-1.58-.31,7.64-.41,15.61-.49,39.79-.17,86-.16,129.3,0,33.32.2,37.66.6,21.69.12-4.78.31-.87.46-.92,0,11.47,0,27,0,33.56-.26,14.11-.44,23.6-.61,32.63q.08,12.81.17,25.34l.13,12.71a77.86,77.86,0,0,0,1.84,14.94A74.22,74.22,0,0,0,85.76,504a66.05,66.05,0,0,0,14.15,6.56c6.18,1.94,7.18,1.63,4,.73A80,80,0,0,1,85,502.08Zm376.39-91.95-1,22.13c-.2,3.53-.3,6.59-.6,10a65.68,65.68,0,0,1-1.56,10.37,67,67,0,0,1-18.82,36C429.12,498.72,415.25,505.4,402,507c-10,1.16-17.67.49-25.42.68l-21.8.06-41.46.23-136.74.51-16.53.63c-2.12.12.36.28,4.91.39,14.08.33,40.13.63,43.38,1,6.71.7,44.86.49,70.86.61,22.09.1,34.71-.05,43.41-.37,9.09-.34,23.26-.66,39.66-.93l18.72-.12h10.92c3.47-.1,6.65-.24,8.39-.41,24-2.23,45.82-18.51,55-39.63a80.8,80.8,0,0,0,3.1-8c.68-2.75,1.54-5.44,2-8.2a60.77,60.77,0,0,0,.94-8.23l.19-4.08v-3.6C461.45,427.95,461.44,418.79,461.42,410.14ZM49.78,83.52l.15-9.12A75.77,75.77,0,0,1,51,63.51a70,70,0,0,1,6.77-20.73A73.57,73.57,0,0,1,87.24,11.63,71.14,71.14,0,0,1,107.37,3.8,72.89,72.89,0,0,1,118,2.17L123.43,2c1.82-.06,3.08,0,4.65,0l8.82-.1-8.81.45,78.47.23L234,2.39c41.24-.6,23-1.62-28.54-2.07L163.68.07,142.43,0H131.74C128,0,125-.11,120.25.19A74.47,74.47,0,0,0,72.57,20.78a75.8,75.8,0,0,0-23,46.34c-.21,2.29-.29,4.61-.41,6.93s0,3.9-.05,5.9V91.38c0,7.65,0,15.34,0,23l.18,5.08ZM329,181.72A60.85,60.85,0,0,0,340.38,185c1.29.22.18-.2-2.88-1.18-1.83-.59-.26-.38-.24-.54a77.12,77.12,0,0,0,13.14,2.25c5.9.55,8.71.69,11.68.88l32.47-.66c1.68,0,3.54-.1,4.23-.17,7-.72-10.13-1.64-28-1.63l-14.84,0a74.29,74.29,0,0,1-17.34-2.26,70.35,70.35,0,0,1-30.44-16.32c-7.17-6.54-10-11-11.52-12.5a100.58,100.58,0,0,1-8.42-10.57c-.36-.54,1,2.93,2.42,5.8C297.83,162.49,312.59,175.59,329,181.72Zm133.83-3.39c.11.49-.56.28-.8.45l-4.22,1-2.26.53v2.12l-.05-2.11h-.05c-.06,8.14-.11,16.21-.17,24.44q0,88.74,0,177.56c0,7.82,0,16,0,23.43-.06,30.49-.12,39.21.23,35.84.22-1.59.32-.63.27,2.17a53.57,53.57,0,0,1-1.63,12.8C451.89,467.51,444,481,434.49,489a63.55,63.55,0,0,1-21.23,12.41c-7.79,2.83-16.56,3.68-24.62,3.59l-49,.22-100.14.37-81.68.2-20.42,0c-6.79,0-13.38.28-20.65-.43a64.68,64.68,0,0,1-55.48-48.74,68.94,68.94,0,0,1-1.65-9.28c-.14-3.1-.39-6.35-.31-9.19q0-8.77,0-17.48c0-11.63.07-23.21.1-34.85,0-23.28,0-46.76,0-71.22,0-6.32.13-21.56.25-25.16.23-6.88.49-8.35.76-12.57,0-9.32.07-20.39.12-33.54.07,3,.12,5.39.24,10.66-.06-27.31-.11-50.54-.16-73.33s.16-44.9.26-69.84l-.37-4.25c0-7.76,0-15.58,0-24.4,0-2.21,0-4.47,0-6.82s.16-5,.47-7.6a65.87,65.87,0,0,1,4.24-16.54c-3.89,10.53-3.73,15.37-3.44,12.22.34-.72,2.19-6.76.81.07-1.53,5.62-.68,26.37-.82,41.07,0,15.84,0,22.6.29,27.17.2,3.34.35,24.23.52,37.4.41,32.33,1,21.7,1.48,23.73.18.71.37-1,.62-1.91,0-2,.1-10.89.23-26.87.13,17.33.22,29.34.34,44.47L65,206c0,6.84,0,17.18,0,19.94.4,21.42.84,44.83,1.14,61,.55,21.54,1.24-25.38,1.3-61.76,0-46,0-93,.05-139.52,0-9.8-.24-18.68,2.57-27.39a58.39,58.39,0,0,1,4.21-9.63,56,56,0,0,0-6.5,25.26l0,46.6.14-.06c0-10.35,0-20.72.07-31,0-5.09,0-9.85,0-14.33l.36-6c.32-1.92.56-3.79.92-5.58A51.75,51.75,0,0,1,76.85,45.6,59,59,0,0,1,91.31,30.33,55.67,55.67,0,0,1,120,19.61c3.48-.26,7.68-.26,12-.25l13.09,0,26.84,0c17.67,0,34.2.08,45.47.37,8.47.22,1.37.56,1.37.84h82.57V15.77h-.53q-2.63-.06-4-.16c-1.89-.14-2.17-.35-.89-.64,2.31-.51,3.55-1,5.51-1.62l6.31-.09c3.39,3.22,5.36,4.86,4.48,3.45L353,57.34l-.55-.47L413,117.34c.35-.35,7.37,6.59,12.52,11.53l23.88,23.23c2.51,2.35,3.94,4.67,6,7,.52.61.81,1.12,1.22,1.68.12.73.09,1.56.14,2.34l.19,4.75.19,4.78c0,.78.11,1.64,0,2.35l-1.62.18v2.29l1.73-.32,1.53-.28c.39-.2,1.33.11,1.06-.71l-.14-3.49-.27-6.9c-.21-2.16.19-4.9-.93-6.14l-4.65-6.74-6.77-6.65-5.65-5.58L435.79,135,418,117.21l-3.72-5.28-4.4-5.86c8,8,18.18,17.69,27.66,27.91,1.43,1.54,7.06,7.09,8.69,8.56l8.35,7.74,1.91,1.75c.47.56.76,1.08,1.13,1.59l1.9,2.77,1.76,2.69a4.58,4.58,0,0,1,.74,1.5,4.42,4.42,0,0,1,.34,1.91c.16,3.24.3,7.27.4,12.34l0,2.3Zm-73.48-6.49-9.73.15,12.57.14,15.53-.42c-6-.32-18.95-.28-31.71.11l13,0Zm30.46-13,10-.07c1.5,0,1.15-.05,1.19-.07l0-.06,0-.08s0,0,.07,0,.31-.09.3-.49c0,0,0,0,0-.1l-.83-.88-1.85-1.94-4.27-4.41-9.14-9.36.45.71a84.83,84.83,0,0,1-6.53-5.57c-6.2-6-12.66-12.49-18.74-19.05-4.32-4.66-11.61-12-18.39-19l2.45,1.32c-19.35-19.59-10.88-12.32-9.58-12l-21-20.8C333.56,56.49,322.45,45.48,313.74,36L303.74,26l-.09-.11c.28,12.69,1.07,6.35,1.37,19.46.13-5.52.22-9.22.32-13.75.28,4.52.49,9.87.95,7.25.36-2,.82,6.51,1.25,9.34.17,1.14.38-1.18.57-.55a15.07,15.07,0,0,1,.63,4.8c.1,7.33.81,10.77.3,22.32,0,1,0,3.8,0,5.44,0,9.44.1,18.64.14,27.83v3.45l.12,2.74a31.28,31.28,0,0,0,.5,5.3,49.49,49.49,0,0,0,2.73,10.36,46.45,46.45,0,0,0,35,28.32,58.43,58.43,0,0,0,8.69.74l11.27,0ZM305.49,83.67c0-2.43.06-4.9.1-7.35l-.2-.94-.15,22.46-.08,11.23v2.79l.11,2.35a29.4,29.4,0,0,0,.39,4.68l.44,1.82c0-1.68-.26-3.09-.26-5l-.19-4.28v-5.15c0-3.45,0-6.91,0-10.34C305.55,91.81,305.52,87.76,305.49,83.67ZM302.86,24.3l.3-.06h0l-.32,0ZM303,25l.48,3.19.06-2.54Zm147.76,146.5H449.6c0,.1,0,.19,0,.29A5.26,5.26,0,0,0,450.73,171.54Zm-24.76.13c.13,0,.19.11.33.11l15.65,0,.41,0v-.24l-13,0Zm23.63,6.92a14.62,14.62,0,0,0,1.52-.27l1.3-.24c0-.83,0-1.67,0-2.5l-2.8.32C449.6,176.8,449.6,177.7,449.6,178.6ZM302.29,20.48h5.16l-5.12.25.2,1.31a10.06,10.06,0,0,1,1.68-.32,31.64,31.64,0,0,1,2.59,2.22l7.59,7.39c6.4,6.33,14.6,13,12.72,10.44-2.72-3.78,7.15,5.14,19.54,17.62l20.71,20.74c1.5,1.49,3.21,3,4.24,3.82,3.75,3.17,17.27,16.11,24.65,23.65,1.44,1.47,3.27,3.37,3.94,4.14,4.63,5.31,4.54,5.23,12.08,12.2l-10-11.92c-1.11-1.35-.68-1.22-1-1.77l14.05,14.09,4.56,4.79,28.36,28.26c1,1.17,2.54,2.08,3,3.45l.16,4.7.17,4.71,0,.72a2.26,2.26,0,0,0,.7-1.35c0-.46,0-.86,0-1.33a7.6,7.6,0,0,0-.32-1.59l-.1-3.84a8,8,0,0,0-.23-2.36L419.18,128,350.81,59.83q-16.43-16.35-26.66-26.66l-12-11.87-5.52-5.48-5.07-.05ZM73.39,119.86c.05,2.26.11,4.55.16,6.83.13-6.09.36-11.34.37-18.44,0-10.26,0-20.72,0-31.23a52,52,0,0,1,5.86-25.46,50.86,50.86,0,0,1,21.71-21.4A49.89,49.89,0,0,1,119.21,25l2.36-.31c-19,.74-37,13.42-44.17,31.15a55.29,55.29,0,0,0-3.56,13.77c-.15,2.51-.36,4.47-.35,7.45l0,8.56ZM64.65,446.63c.24,2.14.59,4.2,1,6.21A55.29,55.29,0,0,1,64.65,446.63ZM131.07,501c-4.57-.17-10.43.16-17-1.13a60.81,60.81,0,0,1-21.12-8.13c-12.32-7.26-22.87-21-26.81-37a58.43,58.43,0,0,0,14.3,27l.57.7a63.14,63.14,0,0,1-6.54-8,62.42,62.42,0,0,1-7.93-17.07,57.86,57.86,0,0,0,10.62,21.07,58.6,58.6,0,0,0,10,10,59.75,59.75,0,0,0,21.21,10.55C115.73,501,123.2,501.17,131.07,501Zm36.87-12.85,30.49-.07c51.53-.43,118.14-.26,159.14.29l34,.22a53,53,0,0,0,15.77-2.26,47,47,0,0,0,13.61-7l-1.66,1,3.47-2.84,3-3a55.43,55.43,0,0,0,6.82-9.15,45.19,45.19,0,0,0,5.65-14.13c1.09-5.18,1.19-9.66,1.15-17.18.09-13.68.19-27.47.28-41.12.1-19.37.26-51,.41-80.68l.81,8.12c.14-84,1-50,1.71-46.58-.07-32.15-.14-61.48-.2-90.22,0-.62,0-1.26,0-1.88a67.49,67.49,0,0,1-8-.44c-.44-.09-1.61-.17-3.22-.25l-3.79-.24-8.44-.48c-1.49-.11-2.31-.27-1.61-.39,1.49-.25,4.17-.49,5.42-.63l13.27-.13c2.08-.07,4.29,0,6.44,0v-2.74l-52.08.56-11.25,0-22.94-.15a69.42,69.42,0,0,1-24.29-4.74A46.24,46.24,0,0,1,324,168a28.51,28.51,0,0,1-3.32-2.91,71.56,71.56,0,0,1-8.89-7.32l2.87,2.28a62.9,62.9,0,0,1-15.5-19.55,61.55,61.55,0,0,1-6.33-22.91l-.44-1.43c-.38-5.45-.11-10.37-.16-18.18l.12,4c.32-.24.61-2.24.81,0,.24,1.79.1,8.45.48,13.46a35.51,35.51,0,0,0,1.39,9c.24.52.83,2.47,1.51,4.8s1.88,4.93,2.72,6.94c2.44,4.8,3.59,6.19,4.13,6.5s.36-.41.75-.25.14-.48.21-.84a54.15,54.15,0,0,1-3.54-7.84A57.37,57.37,0,0,0,307.91,146l-.76-.47a54.94,54.94,0,0,0,3.91,5A53.12,53.12,0,0,0,326.53,162c6.15,2.85-6.84-4.33-13.78-13.22a58.36,58.36,0,0,1-13.61-39.66c0-6.27.07-12.55.11-19.2l.11,15.31c0,5.23,0,10,.76,14.66l.14,0a68.07,68.07,0,0,1-.57-9.5c0-6.68,0-11.64.33-15.8.26-3.82.3-10.11.25-18.7-.06-10.38-.33-24.67.25-32.06.22-2.78.56-.45.84-.45V24.74l-1.4-.05c.39,0,1.12-.06,1.4-.09V24c-1.11-.09-2.45-.19-2.94-.29s-.67-.22-.07-.34c.3-.06.76-.12,1.4-.19.37,0,1.15-.1,1.61-.14V20.78L264.8,22.57l17.73.14c-52.82.2-26.61,1.11-69.83,1.43l41.94.32c-13.78.28-30.1.49-22.11.95,6.25.36-19.85.82-28.47,1.25-3.48.17,3.59.38,1.68.57a135,135,0,0,1-14.64.63c-22.21.13-33.14.75-67.75.37a49.3,49.3,0,0,0-12.62,1.95A48,48,0,0,0,85,49.69a44.5,44.5,0,0,0-6.29,14.86c-1.23,5.42-1.33,10-1.28,17.73-.08,28-.16,56-.25,84.58,0,36.25-.09,77.77-.13,116.58.08,45.94.17,91.35.25,137.29v19.9a51.47,51.47,0,0,0,2.42,15.2A47.85,47.85,0,0,0,98,480a48.77,48.77,0,0,0,13.92,6.37,54,54,0,0,0,7.54,1.48c2.6.11,4.89.33,8.54.27ZM452.43,181l-2.83.67c0,26.93,0,54,0,80.79,0,6.44.18,13.28.3,17.39.42,14.92.85,72,.75,104.16,0,6.28-.11,14.32-.13,17.43-.24,10.71-.36,16-.37,22.48,0,3.25,0,6.81.07,11.51s.32,10.3-1,17.61c.43-1.92.72-3.87,1.1-5.81l.5-5.89c.12-4.11.24-8.19.35-12.19.23-8,.46-15.66.66-22.63a25.58,25.58,0,0,1,.57-5.87v30.38c0,5.05.1,10.17-.26,15.06a58.36,58.36,0,0,1-3.1,14.45,57.1,57.1,0,0,1-9.53,17.15,58.86,58.86,0,0,1-38.91,22.31,111.54,111.54,0,0,1-15.48.61l-62.76.06-125.5.13-10.19.06a7,7,0,0,0,1,.11l200.34.15c10.17.19,20.42-1,29.6-5.5a59.63,59.63,0,0,0,23.32-19,58.78,58.78,0,0,0,10.32-22.43A75,75,0,0,0,452.9,439c.14-7.34.37-8.94.75-6.31-.14-22.62-.24-40.11-.35-58.13,0-12.1-.1-24.76-.15-37.46C452.89,280.87,452.66,230.54,452.43,181ZM281.77,122a54.78,54.78,0,0,1-.4-7.22c-.08-2.58,0-4.53.09-6.44l.46-11.78.92-23.55-.1-2.89.44,2.89c.08-9.13.16-17.35.23-25.73,0-2.83-.08-6.82-.17-9-.6-13.52-1.62-7.54-2.07,9.36-.48,18-.25,37.23-.36,55.81,0,2.46,0,5,0,7.46.06,2.7.21,6.09.48,9.07ZM173.18,253.44l2.61-1.57-1.09-.11c3.24-.15,1.63-.83,4.28-1.07l-2.57-.24c.84-.21,1.85-.37,1.36-.71s1.22-.61,1.74-.93c.21-.13-.22-.29-.1-.43a1.11,1.11,0,0,1,.9-.48c1.37-.07,2-.61,4.17-.23a6.71,6.71,0,0,0,1,0,92.57,92.57,0,0,1,10.38.08c2.22.12,4.77.12,7.14.1,2.82,0,5.6-.16,8.41-.19,3.25,0,6.52,0,9.78,0,.63,0,1.36,0,1.87-.05a42.46,42.46,0,0,1,9.75.22c1.05.17,3,.18,4.53.27l-.15-.14a4.58,4.58,0,0,1,1.6-.52,22.83,22.83,0,0,1,5,.14c1.19.18,3.12.2,4.94.31l-.5.61c5.15.1,3.07.74,2.86,1.28,2-.06,3.77-.17,5.53-.15a60.44,60.44,0,0,1,8.07.33c.53.08,1.89,0,2.75,0s1.58.18,2.36.27l-1.38.34c1.64.24,2.49.56,1,1-.35.09,0,.27,0,.4-.2.36-.89.74-4.12.82-1.68,0-3.65.84-3.06,1.23.86.56-1.62,1.08-4.91,1-1.82,0-3.66,0-5.48,0a3.62,3.62,0,0,0-1.07.23,28.21,28.21,0,0,1-6.38.56,6.87,6.87,0,0,1-1.07-.1c-1.31-.36-1.29-.36-3.21,0,1,.35,2,.67,2.9,1,.33.13.25.29.36.43-1.24,0-2.49,0-3.72,0-.43,0-.84-.12-1.24-.11l-15.39.18c-.22,0-.42,0-.63,0,0,0,0,.08.06.08l12.28.11c1.25,0,2.52,0,3.78-.05,2.49,0,3.21.12,2.88.69l3.56-.26c.74,0,1.52-.1,2.3-.11,3.6,0,6.8-.27,10-.56,1.06-.09,2.5-.07,3.77-.09,2,0,4-.07,5.92-.14,3.1-.11,4.3.09,3.71.61a9.73,9.73,0,0,0-1,1.22c-1.49,0-2.47.24-2.09.62l-10.75.16.23-.07c-.53,0-1.06-.14-1.6-.14-3.63,0-7.26,0-10.88,0-.48,0-1,0-1.44,0-1.87-.07-2.4-.06-2.2.2.38.47-1.7.52-3.16.64-3.83.32-8,.47-12.07.66-3.28.15-6.77.13-9.91.37-.61,0-1.4,0-2.1,0-2.89,0-5.65-.27-8.65-.11a6.24,6.24,0,0,1-1.54-.19,2.38,2.38,0,0,1-.77-.57l-2.06-.09.65-.18c-1.67.05-3.1.13-4.49.12s-2.75-.12-4.28-.19l-.26.28-3.36,0,.74-.09c0-.24-.42-.46,0-.61a13.28,13.28,0,0,1,2.5-.22c1,0,1.39,0,1.66-.22a13.9,13.9,0,0,1,2.29-.39c2-.31,1.33-.73,1.45-1.11,0-.14-.06-.27-.12-.46l-1.65-.18,2.73-.25-.16.24c.42,0,1.05,0,1.22,0,1.31-.28,2.75-.54,3.74-.85,1.32-.41-1.56-.93-3.79-1-2.82-.06-5.7,0-8.55,0-1.17,0-2.35,0-3.59-.08l5.72-.17s0-.07,0-.11c-.63,0-1.27-.05-1.9-.05a11.32,11.32,0,0,1-3-.24,14.05,14.05,0,0,0-3.5-.19c-1.94,0-4.61.25-6-.19-.52-.17-.08-.42-.08-.63Zm39.86,4,2.44,0,.06,0-1.82.12c1.22.06,1.92.14,2.35.11,1-.08,1.94-.21,2.9-.31A22.4,22.4,0,0,0,213,257.42Zm-28.43-7,8.4.23.42-.12a4.47,4.47,0,0,0-1.13-.28c-1.26,0-2.57,0-3.85,0-.77,0-1.52.06-2.29.06-.45,0-.92,0-1.37-.07Zm23.82,17.47c.87.13,1.45.32,2,.46l6.07-.49a3.78,3.78,0,0,0,.79-.13c1.31-.54-1.89-1.23-5.24-1.22-3.69,0-7.4-.06-11.06-.15a5.84,5.84,0,0,0-2.69.25,18.48,18.48,0,0,0-2.07,1.63c-.1.09.47.23,1,.31a55.83,55.83,0,0,0,7.92.12c2,0,2.31-.15,1.33-.45-.29-.09-.05-.23-.06-.35C207.07,267.87,208,267.83,208.43,267.89Zm31.78-5.52c-1.41,0-3.19.11-4.69,0a42.53,42.53,0,0,0-5.39.19c-2.64.15-5.4.25-8.38.38a7.23,7.23,0,0,0-1,.47c-.13.09,0,.21.3.29a13.47,13.47,0,0,1,2.66.73c.41.53,2.75.36,4.34.45a5.73,5.73,0,0,0,2.66-.28,12.51,12.51,0,0,1,2.43-.7,12.36,12.36,0,0,1,2.28-.08,50.58,50.58,0,0,0,7.35.1c-.49-.28-1-.52-1.36-.77S240.61,262.65,240.21,262.37Zm-60.85,4.51a10.07,10.07,0,0,0-1.68.13c-2.53.45-1.41,1.21,1.75,1.55,3.36.36,7,.19,10.43.27.92,0,1.87,0,2.8,0l.31-.13-8.8-1.38-.54.07.54-.33C182.46,267,180.93,266.92,179.36,266.88Zm3.32,35.33h-9.51l4.57-1.57-1.9-.11c5.67-.15,2.85-.83,7.49-1.07l-4.5-.24c1.48-.21,3.23-.37,2.37-.71-.67-.27,2.13-.61,3.05-.93.37-.13-.39-.29-.18-.43a2.5,2.5,0,0,1,1.57-.48c2.4-.07,3.52-.61,7.3-.23.33,0,1.24,0,1.78,0,6.17-.19,12-.12,18.17.08,3.89.12,8.34.12,12.5.1,4.93,0,9.8-.16,14.73-.19,5.69,0,11.41,0,17.11,0,1.1,0,2.38,0,3.27-.05a129.67,129.67,0,0,1,17.07.22c1.84.17,5.24.18,7.92.27l-.27-.14a12.57,12.57,0,0,1,2.8-.52,69.69,69.69,0,0,1,8.74.14c2.08.18,5.46.2,8.65.31l-.87.61c9,.1,5.37.74,5,1.28,3.45-.06,6.59-.17,9.68-.15,4.81,0,9.93,0,14.13.33.94.08,3.3,0,4.81,0s2.76.18,4.13.27l-2.42.34c2.88.24,4.36.56,1.68,1-.61.09.08.27,0,.4-.35.36-1.55.74-7.2.82-2.95,0-6.39.84-5.35,1.23,1.5.56-2.84,1.08-8.59,1-3.19,0-6.41,0-9.59,0a10.56,10.56,0,0,0-1.87.23,85.42,85.42,0,0,1-11.17.56c-.67,0-1.54,0-1.87-.1-2.3-.36-2.26-.36-5.61,0,1.78.35,3.58.67,5.07,1,.57.13.44.29.63.43-2.17,0-4.35,0-6.51,0-.75,0-1.47-.12-2.16-.11l-26.92.18c-.38,0-.74,0-1.09,0,0,0,.06.08.11.08l21.49.11c2.19,0,4.4,0,6.61-.05,4.36,0,5.61.12,5,.69l6.23-.26c1.3,0,2.66-.1,4-.11,6.29,0,11.9-.27,17.42-.56,1.86-.09,4.38-.07,6.6-.09,3.46,0,7-.07,10.36-.14,5.42-.11,7.53.09,6.49.61a14.14,14.14,0,0,0-1.8,1.22c-2.61,0-4.32.24-3.65.62l-18.82.16.4-.07c-.93,0-1.85-.14-2.8-.14q-9.52,0-19,0c-.84,0-1.71,0-2.51,0-3.27-.07-4.2-.06-3.84.2.67.47-3,.52-5.52.64-6.7.32-13.93.47-21.12.66-5.74.15-11.84.13-17.34.37-1.06,0-2.44,0-3.68,0-5.06,0-9.89-.27-15.14-.11a18.76,18.76,0,0,1-2.7-.19,4.79,4.79,0,0,1-1.35-.57l-3.6-.09,1.14-.18c-2.93.05-5.42.13-7.87.12s-4.82-.12-7.49-.19l-.46.28-5.88,0,1.3-.09c-.08-.24-.73-.46,0-.61a40.23,40.23,0,0,1,4.37-.22,9.36,9.36,0,0,0,2.91-.22c.36-.15,2.6-.26,4-.39,3.47-.31,2.33-.73,2.54-1.11.08-.14-.11-.27-.2-.46l-2.88-.18,4.77-.25-.28.24c.73,0,1.84,0,2.14,0,2.3-.28,4.81-.54,6.54-.85,2.31-.41-2.72-.93-6.62-1-4.93-.06-10,0-15,0-2.05,0-4.11,0-6.28-.08l10-.17s0-.07,0-.11c-1.11,0-2.22-.05-3.33-.05a34.28,34.28,0,0,1-5.17-.24,42.78,42.78,0,0,0-6.12-.19c-3.39,0-8.07.25-10.49-.19C181.92,302.68,182.69,302.42,182.69,302.21Zm60.24,4,4.27,0,.1,0-3.18.12c2.14.06,3.37.14,4.11.11,1.81-.08,3.4-.21,5.08-.31A68.41,68.41,0,0,0,242.92,306.2Zm-49.75-7,14.69.23.73-.12a12.83,12.83,0,0,0-2-.28c-2.2,0-4.49,0-6.73,0-1.34,0-2.67.06-4,.06-.8,0-1.6,0-2.41-.07Zm41.69,17.47c1.51.13,2.53.32,3.5.46l10.62-.49a11.24,11.24,0,0,0,1.38-.13c2.29-.54-3.31-1.23-9.17-1.22-6.45,0-13-.06-19.36-.15a17.47,17.47,0,0,0-4.71.25A36.36,36.36,0,0,0,213.5,317c-.17.09.82.23,1.67.31,4.27.36,9.22.13,13.87.12,3.57,0,4-.15,2.33-.45-.51-.09-.09-.23-.1-.35C232.5,316.65,234.17,316.6,234.87,316.66Zm34.32-3a17.13,17.13,0,0,0,4.66-.28,35.23,35.23,0,0,1,4.25-.7,37.76,37.76,0,0,1,4-.08c4.56.38,9.14.08,12.85.1-.86-.28-1.68-.52-2.37-.77s-1.38-.54-2.08-.82c-2.47,0-5.59.11-8.21,0-3.81-.11-6.34.09-9.43.19-4.63.15-9.45.25-14.67.38a18.32,18.32,0,0,0-1.77.47c-.23.09,0,.21.53.29a38.14,38.14,0,0,1,4.65.73C262.3,313.77,266.4,313.61,269.18,313.7Zm-85.19,2c-.92,0-2.23.06-2.94.13-4.42.45-2.47,1.21,3.06,1.55,5.88.36,12.18.19,18.25.27,1.61,0,3.27,0,4.9,0l.55-.13-15.41-1.38-.95.07.94-.33C189.43,315.77,186.74,315.69,184,315.66ZM207.5,364c-3.45.06-6.59.16-9.68.15-4.81,0-9.93,0-14.13-.33-.94-.08-3.3,0-4.81,0s-2.76-.18-4.13-.27l2.42-.34c-2.88-.24-4.36-.56-1.68-1,.61-.1-.08-.27,0-.4.35-.36,1.55-.74,7.2-.82,2.95,0,6.39-.84,5.35-1.23-1.5-.56,2.84-1.08,8.59-1,3.19,0,6.41,0,9.59,0a10.57,10.57,0,0,0,1.87-.23,85.42,85.42,0,0,1,11.17-.56c.67,0,1.54,0,1.87.1,2.3.36,2.26.36,5.61,0-1.78-.35-3.58-.67-5.07-1-.57-.13-.44-.29-.63-.43,2.17,0,4.35,0,6.51,0,.75,0,1.47.12,2.16.11l26.92-.18c.38,0,.74,0,1.09,0,0,0-.06-.08-.11-.08q-10.74-.06-21.49-.11c-2.19,0-4.4,0-6.61.05-4.36,0-5.61-.12-5-.69l-6.23.26c-1.3,0-2.66.1-4,.11-6.29,0-11.9.27-17.42.56-1.86.1-4.38.07-6.6.1-3.46,0-7,.07-10.36.14-5.42.11-7.53-.09-6.49-.61a14.23,14.23,0,0,0,1.8-1.22c2.61,0,4.32-.24,3.65-.62l18.82-.16-.4.07c.93,0,1.85.14,2.8.14h19c.84,0,1.71,0,2.51,0,3.27.07,4.2.06,3.84-.2-.67-.47,3-.52,5.52-.64,6.7-.32,13.93-.47,21.12-.66,5.74-.15,11.84-.13,17.34-.37,1.06,0,2.44,0,3.68,0,5.06,0,9.89.27,15.14.11a18.65,18.65,0,0,1,2.7.19,4.79,4.79,0,0,1,1.35.57l3.6.09-1.14.18c2.93-.05,5.42-.13,7.87-.12s4.82.12,7.49.19l.46-.28,5.88,0-1.3.09c.08.24.73.46,0,.61a40.23,40.23,0,0,1-4.37.22,9.33,9.33,0,0,0-2.91.22c-.36.15-2.6.26-4,.39-3.47.31-2.33.73-2.54,1.11-.08.14.11.27.2.46l2.88.18-4.77.25.28-.24c-.73,0-1.84,0-2.14,0-2.3.28-4.81.54-6.54.85-2.31.41,2.72.93,6.62,1,4.93.06,10,0,15,0,2.05,0,4.11,0,6.28.08l-10,.17s0,.07,0,.11c1.11,0,2.22.05,3.33.05a34.29,34.29,0,0,1,5.17.24,42.55,42.55,0,0,0,6.12.19c3.39,0,8.07-.25,10.49.19.91.17.15.42.15.63h9.51l-4.57,1.57,1.9.11c-5.67.15-2.85.83-7.49,1.07l4.5.24c-1.48.21-3.23.37-2.37.71.67.27-2.13.61-3.05.93-.37.13.39.29.18.43a2.5,2.5,0,0,1-1.57.48c-2.4.08-3.52.61-7.3.23-.33,0-1.24,0-1.78,0-6.17.19-12,.12-18.17-.08-3.89-.12-8.34-.12-12.5-.1-4.93,0-9.8.16-14.73.19-5.69,0-11.41,0-17.11,0-1.1,0-2.38,0-3.27.05a129.92,129.92,0,0,1-17.07-.22c-1.84-.17-5.24-.18-7.92-.27l.27.14a12.61,12.61,0,0,1-2.8.52,69.7,69.7,0,0,1-8.74-.14c-2.08-.18-5.46-.2-8.65-.31l.87-.61C203.49,365.16,207.13,364.52,207.5,364Zm101-.72a12.83,12.83,0,0,0,2,.28c2.2,0,4.49,0,6.73,0,1.34,0,2.67-.06,4-.06.8,0,1.6,0,2.41.07l.31-.15-14.69-.23Zm-44.7-6.81a68.43,68.43,0,0,0,10.37-.09l-4.27,0-.1,0,3.18-.12c-2.14-.06-3.37-.14-4.11-.11C267,356.22,265.45,356.35,263.77,356.46Zm12.1-9.17c6.45,0,13,.06,19.36.15a17.47,17.47,0,0,0,4.71-.25,36.53,36.53,0,0,0,3.63-1.63c.17-.09-.82-.23-1.67-.31-4.27-.36-9.22-.13-13.87-.12-3.57,0-4,.15-2.33.45.51.09.09.23.1.35-1.23,0-2.9,0-3.6,0-1.51-.13-2.53-.32-3.5-.46l-10.62.49a11.11,11.11,0,0,0-1.38.13C264.4,346.6,270,347.29,275.87,347.29Zm-49.28,4.13c2.47,0,5.59-.11,8.21,0,3.81.11,6.34-.09,9.43-.19,4.63-.15,9.45-.25,14.67-.38a18.32,18.32,0,0,0,1.77-.47c.23-.09,0-.21-.53-.29a38,38,0,0,1-4.65-.73c-.72-.53-4.81-.36-7.6-.45a17.13,17.13,0,0,0-4.66.28,35.23,35.23,0,0,1-4.25.7,38,38,0,0,1-4,.08c-4.56-.38-9.14-.08-12.85-.1.86.28,1.68.52,2.37.77S225.88,351.14,226.58,351.42Zm106.49-4.51c.92,0,2.23-.06,2.94-.13,4.42-.45,2.47-1.21-3.06-1.55-5.88-.36-12.18-.19-18.25-.27-1.61,0-3.27,0-4.9,0l-.55.13,15.41,1.38.95-.07-.94.33C327.64,346.8,330.33,346.87,333.07,346.91Z"/></svg>