<svg id="Layer_1" data-name="Layer 1" xmlns="http://www.w3.org/2000/svg" viewBox="0 0 512 512"><defs><style>.cls-1{fill:#707070;}</style></defs><title>document-locked-handdrawn</title><path class="cls-1" d="M84.83,511.31c3.12.93,2.19,1.09-4-.58-1.18-.4-3.39-1.12-6-2.13a76,76,0,0,1-8.08-4.05,74.15,74.15,0,0,1-34.57-45.12,74,74,0,0,1-2.34-14.63l-.19-3.72,0-3.12,0-6.16-.17-24.94.61-32.11c0-6.42,0-21.73,0-33-.16.05-.34-3.8-.46.9-.4,15.72-.59,11.45-.6-21.34,0-42.64-.33-88.09.16-127.24.1-7.84.29-16.91.41-15.36.73,9.35,1.45,20.86,2.17,33.3.31,5.36.39,18.6.34,43.25C32,314,32,373.64,31.91,432.84v5c0,1.63,0,3.31.11,5.38a71.11,71.11,0,0,0,8.83,32.55,79.31,79.31,0,0,0,12,16.18,76.86,76.86,0,0,0,13.25,10.65A78.4,78.4,0,0,0,84.83,511.31ZM29.44,91.25c.11-6,.07-11.44.31-18A73.64,73.64,0,0,1,58,17.68,73.86,73.86,0,0,1,97.11,2.31c3.39-.22,7.18-.48,9.82-.44-2.1.07-4.87.29-9.77.79l6.08-.29,5.17,0,9.93,0,19.36.06,37.77.1,27-.17C243,1.78,225.08.76,174.37.31L133.29.06,112.38,0h-5.25c-1.71,0-3.44,0-5.76.11a79.61,79.61,0,0,0-12.9,1.5A75.7,75.7,0,0,0,45,28.64C34,42,28.6,60.14,28.81,76.59c0,14.74,0,30,0,45l.18,5ZM323.2,183.8a74.25,74.25,0,0,1-17.33-2.25,70.3,70.3,0,0,1-30.42-16.31c-7.16-6.53-10-11-11.51-12.49a100.6,100.6,0,0,1-8.41-10.56c-.36-.54,1,2.93,2.42,5.8,7.21,14.4,22,27.49,38.38,33.62a60.83,60.83,0,0,0,11.36,3.27c1.29.22.18-.2-2.88-1.18-1.82-.59-.26-.38-.24-.54a77.07,77.07,0,0,0,13.13,2.25c5.9.55,8.7.69,11.67.88l32.45-.66c1.67,0,3.54-.1,4.23-.17,7-.72-10.13-1.63-28-1.63ZM249.11,122a54.75,54.75,0,0,1-.4-7.21c-.08-2.57,0-4.53.09-6.44l.46-11.77L250.18,73l-.1-2.89.44,2.89c.08-9.12.16-17.34.23-25.71,0-2.83-.07-6.81-.17-9-.6-13.51-1.62-7.53-2.07,9.35-.48,18-.25,37.21-.35,55.77,0,2.45,0,4.95,0,7.46.06,2.7.21,6.09.48,9.06ZM349,405.16c.27-.64.53-1.29.84-1.9C349.56,403.76,349.28,404.4,349,405.16ZM482.24,412l.13,2.85q0,1,0,1.9c0,1.1,0,2.1,0,3-.06,1.79-.1,3.2-.14,4.29-.11,2.17-.25,3.06-.41,3.26-.32.4-.71-2-1.07-2.4.07,8.14.14,15.58.2,22.85,0,5.68,0,11.55,0,17.23v1.06l-.07,1.49a28.37,28.37,0,0,1-.26,3,34.62,34.62,0,0,1-1.26,5.79,35.68,35.68,0,0,1-5,10,48.58,48.58,0,0,1-4.74,5.63,34.53,34.53,0,0,1-7,5.32,34.16,34.16,0,0,1-13.1,4.25,33.43,33.43,0,0,0,7.63-2.48,27.07,27.07,0,0,1-9.39,1.71c-1.3-.17-.3-.29,3.83-1.37,1.86-.6-.33-.28,0-.56s1.64-.75,4.57-2.11a35.92,35.92,0,0,0,13.31-10.23,26.85,26.85,0,0,0,5.22-11.26c.57-3.24.28-5-.16-3.59-.83,2-.5,0-.52-4.52-.17-4.12-.4-9.87-.36-16.72,0-7.53,0-15.13,0-22.64a43.14,43.14,0,0,0-.3-4.41c-.11-.94-.21-2.56-.31-4.57l-.14-3.29a34.49,34.49,0,0,0-.42-4.11,29.88,29.88,0,0,0-7-14.8,39.42,39.42,0,0,0-3.48-3.5,20.3,20.3,0,0,0-5.24-3.71,23.61,23.61,0,0,0-8.23-2.22,26.37,26.37,0,0,1,11.57,6.11c1.05,1,.66,1,.92,1.4a26.85,26.85,0,0,0-14.76-5.85c-1.88-.14-3.56-.26-5.2-.25l-63.59.25-2.58.06c.1,0,.14.11.26.11l50.75.15,15.61-.07a27.37,27.37,0,0,1,10.43,1.32c1.76.77,2,1.14,1.28,1.26A25.16,25.16,0,0,1,465,400.24a24.65,24.65,0,0,1,4.23,8.6c1,3.68.9,7.42,1,10.91s.11,7,.17,10.39c.17,6.79.33,13.36.49,19.9,0,4.42.08,10.34.13,15.58A27.09,27.09,0,0,1,460,487.92a24.39,24.39,0,0,1-13.11,4.93c-2.7,0-3.32-.21-2.07-.62a15.36,15.36,0,0,0,4-2c5.88-1.28,8.83-4.11,7.32-3.66a23.48,23.48,0,0,0,11.26-16.69c.49-3.29.22-7.09.27-10.75l-.05-11,.09.94.18-6.6V419.93c0-3.83.13-7.37-.84-10.74a23.21,23.21,0,0,0-4.85-9.22,24.57,24.57,0,0,0-4.07-3.75c-6-4.1-8.45-3.76-7.65-3.43.6.55-1,.09-3.41-.08s-6,0-9,0l-49.87.88-10.29.11-5.14.06a23,23,0,0,0-4.38.56,21,21,0,0,0-13.36,9.89,22.41,22.41,0,0,0-2.67,6.71,40.3,40.3,0,0,0-.51,8l-.1,8.83c-.07,5.9-.11,11.85,0,18,0,1.6-.13,5.46-.25,6.37a16.83,16.83,0,0,1-.76,3.18c0,2.36-.07,5.17-.12,8.5l-.24-2.7c0,1.73,0,3.39.06,5a26.73,26.73,0,0,0,.46,4.17,23.81,23.81,0,0,0,2.83,7.31,22.88,22.88,0,0,0,11.83,10c.38,0,.65,0,1,0,3.31,1.09,6.77,1,12.94,1l-3.08.12c.18.32,1.73.61,0,.81-1.44.15-6.47.45-9.8-.61-3.6-1.08-5-2-6-2.32-.87-.09-5.05-3.06-7-5.66-2.52-3.07-3.09-4.36-3.55-4.59s-.42.33-.77.2-.22.39-.35.71a25.32,25.32,0,0,0,3.64,6.17,26.66,26.66,0,0,1-5.78-10.42l.49.59a34.15,34.15,0,0,1-1-5.25c-.59-5.68-.79-11.43-1.25-15.57-.28-2.73-.58-1.12-.83,2.32l-.31,6.22a74.29,74.29,0,0,0,0,7.46,29.24,29.24,0,0,0,26.69,26.59c5.53.25,9.89.07,15.17.23l-11.83.11a29.84,29.84,0,0,1-13.31-2.66l0,.14a28.47,28.47,0,0,0,8.85,2.6c3.18.34,5.43.24,7.38.3s3.77.13,5.37.27c3,.26,7.81.3,14.45.25,8-.06,19.06-.33,24.77.26,2.15.22.35.56.35.84h22.46l-10.8,2.09,4.49.14c-13.38.2-6.74,1.11-17.69,1.42l10.62.32c-3.49.28-7.63.49-5.6.95,1.58.36-5,.82-7.21,1.24-.88.17.91.38.43.57a9.23,9.23,0,0,1-3.71.64c-5.66.1-8.32.81-17.24.3-.77,0-2.94,0-4.2,0l-10.82.13h-.41c-1.58.53-3.15,1.1-4.78,1.49-3.23,1.14-12.11,2.34-19.95,2.28l-18.42.12c-16.14.27-30.08.6-39,.93-8.56.32-21,.48-42.72.37-25.59-.12-63.13.1-69.74-.61-3.21-.34-28.84-.64-42.69-1-4.48-.11-6.92-.27-4.84-.39l16.26-.63,134.56-.51,40.8-.23,21.45-.06a94.42,94.42,0,0,0,21.84-1.78h-1.69l-2.06-.09a37.69,37.69,0,0,1-6.7-1c-16.1.57-31.64.29-47.74.47l-98.54.37-80.38.2-20.1,0c-6.73,0-13.1.23-20.28-.28a65.39,65.39,0,0,1-37.1-16.49c-7.88-6.76-15.64-18.46-18.8-30.21a67.92,67.92,0,0,1-2.52-18.26q0-8.63,0-17.21c0-11.44.07-22.84.1-34.29,0-22.91,0-46,0-70.09,0-6.22.13-21.21.25-24.76.23-6.77.48-8.22.76-12.37,0-9.17.07-20.07.12-33,.07,2.91.12,5.31.24,10.49-.06-26.88-.11-49.73-.16-72.17s.16-44.18.26-68.73L40.16,114c0-7.64,0-15.33,0-24,0-4.34,0-8.93,0-13.89a66.28,66.28,0,0,1,2-16.63c-2.38,10.78-1.62,15.47-1.73,12.36.36-.74,1-6.9.82,0-.17,5.45.18,25.67.13,40.23,0,15.59,0,22.24.29,26.74.2,3.28.35,23.85.52,36.8.41,31.81,1,21.35,1.48,23.35.18.7.37-1,.62-1.88,0-2,.1-10.72.24-26.44.13,17.05.22,28.87.34,43.76l-.33-2.54c0,6.73,0,16.91,0,19.62l1.14,60c.55,21.2,1.23-25,1.3-60.78,0-45.24,0-91.48.05-137.29.18-9.37-.52-19.11.87-27.68a54.18,54.18,0,0,1,7.67-20.16A56.55,56.55,0,0,0,49.36,60c-2,7-2.2,13.77-2,21.66l.11,46,.15-.06c0-10.18,0-20.39.07-30.53,0-5,0-9.7,0-14.11s0-8.61.27-12.08A54.31,54.31,0,0,1,52.84,52.4a58.15,58.15,0,0,1,12-16.91A56.81,56.81,0,0,1,91.26,20.89a54.41,54.41,0,0,1,11-1.46c3.88-.2,8.43-.08,12.73-.13l26.42,0c17.39,0,33.66.08,44.75.37,8.34.22,1.35.56,1.35.84h81.16V15.76h-.53q-2.62-.06-4-.16c-1.88-.14-2.17-.35-.89-.64,2.31-.51,3.55-1,5.51-1.62l6.31-.09c3.39,3.22,5.36,4.85,4.47,3.44l40.81,40.61-.54-.46,60.52,60.42c.37-.32,7.38,6.6,12.51,11.53L416.67,152c2.51,2.35,3.94,4.67,6,7,.52.61.81,1.12,1.22,1.68.12.73.09,1.56.14,2.33l.19,4.75.19,4.78c0,.78.11,1.64,0,2.35l-1.62.18v2.29l1.73-.32,1.53-.28c.39-.2,1.33.11,1.06-.71L427,172.6l-.27-6.89c-.21-2.16.19-4.89-.93-6.14l-4.65-6.74-6.76-6.65-5.65-5.57L403,134.86l-17.75-17.73-3.72-5.27L377.16,106c8,8,18.17,17.68,27.65,27.9,1.43,1.54,7.06,7.08,8.69,8.56l8.34,7.73,1.91,1.74c.47.56.76,1.08,1.13,1.59l1.9,2.77,1.76,2.69a4.56,4.56,0,0,1,.74,1.5,4.42,4.42,0,0,1,.34,1.9c.16,3.24.3,7.26.4,12.33l0,2.3,0,1.19c.11.49-.56.28-.8.45l-4.22,1-2.38.56c0,6.84-.1,13.65-.15,20.58q0,65.49,0,131a17.87,17.87,0,0,1,3.13,1.77,53.22,53.22,0,0,1,6,4.15l-.08-.3a6.33,6.33,0,0,1,2.44,1.09,20.55,20.55,0,0,1,5.39,6.08,48.34,48.34,0,0,1,3.75,7.07l-1.07-.37c3,7.55.79,4.79.11,4.72a31.84,31.84,0,0,1,2,8.1l.15,3.14,0,2.26a25.09,25.09,0,0,1-.39,4,16.43,16.43,0,0,0,0,2.17h.24l1.89,0a28.69,28.69,0,0,1,4,.34,35,35,0,0,1,7.83,2,37.3,37.3,0,0,1,13.55,8.7,41.81,41.81,0,0,1,8.17,11.6,39.13,39.13,0,0,1,3.71,16.7ZM419.68,180.92l-2.84.67c0,25.35,0,50.8,0,76,0,6.34.18,13.07.3,17.12.25,8.64.5,31.62.64,55.53.9.23,1.74.5,2.58.8h0C420.12,277,419.9,228.51,419.68,180.92Zm-63-9.2-9.72.15,12.56.14L375,171.6c-6-.32-18.93-.28-31.69.11l13,0Zm30.44-13,10-.07c1.5,0,1.15-.05,1.19-.07l0-.06,0-.08s0,0,.07,0,.31-.09.3-.49c0,0,0,0,0-.1l-.83-.88L396,155l-4.27-4.4-9.14-9.35.45.71a84.78,84.78,0,0,1-6.52-5.57c-6.2-6-12.65-12.48-18.73-19-4.31-4.66-11.6-12-18.38-19l2.45,1.32c-19.34-19.58-10.88-12.31-9.57-12l-21-20.79C300.86,56.44,289.76,45.44,281.05,36l-10-10.08-.09-.11c.28,12.68,1.07,6.35,1.37,19.45l.32-13.74c.28,4.52.49,9.87.95,7.25.36-2,.82,6.5,1.24,9.33.17,1.14.38-1.18.57-.55a15.06,15.06,0,0,1,.63,4.8c.1,7.32.81,10.76.3,22.3,0,1,0,3.79,0,5.44,0,9.43.1,18.63.14,27.81v3.44l.12,2.74a31.23,31.23,0,0,0,.5,5.29,49.44,49.44,0,0,0,2.73,10.35,46.43,46.43,0,0,0,35,28.31,58.39,58.39,0,0,0,8.69.74l11.26,0ZM272.81,83.61l.1-7.35-.2-.94-.15,22.44L272.48,109l0,2.79.11,2.35a29.29,29.29,0,0,0,.39,4.68l.44,1.82c0-1.68-.26-3.09-.26-5l-.19-4.28v-5.15c0-3.44,0-6.91,0-10.33C272.86,91.74,272.84,87.7,272.81,83.61Zm-2.63-59.33.3-.06h0l-.32,0Zm.11.74.48,3.19.06-2.54ZM416.83,171.72a5.24,5.24,0,0,0,1.13-.3h-1.13Zm-23.61-.16c.13,0,.19.11.33.11l15.64,0,.41,0c0-.08,0-.16,0-.24l-13,0Zm23.61,6.92a14.58,14.58,0,0,0,1.52-.27l1.31-.24c0-.83,0-1.67,0-2.5l-2.82.33C416.83,176.68,416.83,177.58,416.83,178.48Zm5.93-1.08-.06-2.25q0,1.13,0,2.27ZM269.61,20.46h5.15l-5.11.25.2,1.31a10.05,10.05,0,0,1,1.68-.32,31.7,31.7,0,0,1,2.59,2.22l7.59,7.39c6.4,6.33,14.59,13,12.71,10.43-2.72-3.78,7.15,5.14,19.53,17.61l20.7,20.72c1.5,1.49,3.2,3,4.24,3.82,3.75,3.16,17.26,16.1,24.64,23.64,1.44,1.47,3.27,3.37,3.94,4.14,4.62,5.31,4.54,5.23,12.07,12.19l-10-11.91c-1.11-1.35-.68-1.22-1-1.77l14,14.08,4.56,4.79,28.34,28.25c1,1.16,2.53,2.07,3,3.45l.16,4.69.17,4.7,0,.72a2.27,2.27,0,0,0,.72-1.42c0-.39,0-.79,0-1.19a7.64,7.64,0,0,0-.33-1.66l-.1-3.84a7.84,7.84,0,0,0-.24-2.39l-34.24-34.17L317.42,59.1C306.71,48.45,298,39.79,291.33,33L279.48,21.28,274,15.81l-5.06-.05ZM53,127c.05,2.23.11,4.48.16,6.72.13-6,.36-11.16.37-18.15,0-10.1,0-20.39,0-30.74,0-5.18-.05-10.61.23-14.54a51.18,51.18,0,0,1,2.85-12.46A49.6,49.6,0,0,1,91.29,26.39l2.21-.79c-18.38,3.63-34,18.53-38.59,36.73a53.3,53.3,0,0,0-1.75,14.12l0,16.85Zm58.38,373.63c-4.5-.13-10.29.14-16.8-1a60,60,0,0,1-20.95-7.58,61.8,61.8,0,0,1-19-17.67,61.1,61.1,0,0,1-10-25.88c1.82,14.26,8.26,25.34,16.53,34.06l.57.68a69.49,69.49,0,0,1-6.58-7.75,73.13,73.13,0,0,1-4-6.3,57.74,57.74,0,0,0,16.77,19.74A59.3,59.3,0,0,0,89,498.88C96.31,500.79,103.69,500.8,111.42,500.64Zm243,0-.62-.36-54.1.12-123.5.13-10,.06a6.79,6.79,0,0,0,1,.11C229.53,500.66,292,501,354.39,500.65Zm10.72-.14c-.54-.13-1.07-.26-1.6-.41-.51,0-1,.1-1.52.12l.15.07c.47.15,1,.21,1.46.34h.62C364.52,500.61,364.81,500.54,365.11,500.51Zm8,1.07-1-.05c.47.16.94.34,1.41.49l7.57,0,9.46-.08,5.68.1.72-.2-17.35-.15-4.34,0ZM360.76,392a23.65,23.65,0,0,0-8.36,6.64A25.22,25.22,0,0,0,347,412.26a25.89,25.89,0,0,1,2-7.1,31.25,31.25,0,0,0-1.31,4.29,27.74,27.74,0,0,1,4.17-9A27.27,27.27,0,0,1,360.76,392Zm12.38-15.93H374c-.23-.75-.44-1.44-.83-1s-.82-1.26-1.24-1.8c-.17-.22-.38.23-.57.11a1.13,1.13,0,0,1-.63-.93c-.1-1.42-.81-2.08-.3-4.32a11.87,11.87,0,0,0,.05-1.36,31.81,31.81,0,0,1,4.13-16.2,45.1,45.1,0,0,1,6.74-9.32,38.34,38.34,0,0,1,10.84-8.12,37.43,37.43,0,0,1,15.34-3.71l-.34-.06c0-7.57.08-15.25.12-22.82l.81,8c.14-82.63,1-49.24,1.71-45.84-.07-31-.13-59.38-.2-87.14a67.51,67.51,0,0,1-8-.44c-.44-.09-1.61-.17-3.22-.25l-3.79-.24-8.44-.48c-1.49-.11-2.31-.27-1.61-.39,1.49-.25,4.17-.49,5.42-.63l13.26-.12c2.08-.07,4.28,0,6.43,0,0-.9,0-1.83,0-2.74l-52,.56-11.24,0-22.92-.15a69.37,69.37,0,0,1-24.28-4.73,46.21,46.21,0,0,1-7.77-4.06A28.36,28.36,0,0,1,288,165a71.49,71.49,0,0,1-8.88-7.32l2.86,2.28A62.86,62.86,0,0,1,266.5,140.4a61.48,61.48,0,0,1-6.32-22.89l-.44-1.43c-.38-5.44-.11-10.36-.16-18.17l.12,4c.32-.24.61-2.24.81,0,.24,1.79.1,8.44.48,13.45a35.49,35.49,0,0,0,1.39,9c.24.52.83,2.46,1.51,4.79s1.88,4.92,2.72,6.93c2.44,4.8,3.59,6.19,4.13,6.5s.36-.41.75-.25.14-.48.21-.84a54.14,54.14,0,0,1-3.54-7.83,57.31,57.31,0,0,0,7,12.25l-.76-.47a55,55,0,0,0,3.91,5,53.09,53.09,0,0,0,15.46,11.45c6.14,2.85-6.84-4.33-13.77-13.21A58.32,58.32,0,0,1,266.46,109c0-6.27.07-12.54.11-19.19l.11,15.3c0,5.23,0,10,.76,14.65l.14,0a68.08,68.08,0,0,1-.57-9.5c0-6.67,0-11.63.33-15.79.26-3.82.3-10.1.25-18.69-.06-10.37-.33-24.65.25-32,.22-2.77.56-.45.84-.45V24.72l-1.4-.05c.39,0,1.12-.06,1.4-.09v-.63c-1.11-.09-2.44-.19-2.94-.29s-.67-.22-.07-.34c.3-.06.76-.12,1.4-.19.37,0,1.15-.1,1.61-.14V20.76L232.8,22.55l17.45.14c-52,.2-26.19,1.11-68.72,1.43l41.27.32c-13.56.28-29.62.49-21.76.95,6.15.36-19.53.82-28,1.25-3.42.17,3.54.38,1.65.57a130.8,130.8,0,0,1-14.4.63l-28.73.38-16.24.1-10.07,0a61.07,61.07,0,0,0-9.45.64,47.65,47.65,0,0,0-5.59,1.26,49,49,0,0,0-6.35,2.55A46.74,46.74,0,0,0,61.55,55.34a48.5,48.5,0,0,0-4.2,15.32l-.2,4c-.06,1.43,0,3.37,0,5V90c-.08,27.58-.16,55.11-.24,83.23,0,35.67-.09,76.53-.13,114.72.08,45.21.17,89.89.25,135.11v14.68c0,1.65,0,3.35.09,4.46A44.09,44.09,0,0,0,60,457a46.94,46.94,0,0,0,18.6,23.24,44.45,44.45,0,0,0,13.81,6,45.83,45.83,0,0,0,7.45,1.31l3.8.2,4.8,0H147.7l30-.07c50.71-.43,116.26-.26,156.61.29l6.52.06a40,40,0,0,1-6.54-18c-.3-4.41-.16-6.29-.19-8.91s0-5,0-7.47l-.25-34.78c0-1.88-.08-2.81.09-5.83a35.9,35.9,0,0,1,1.21-7.7,39.28,39.28,0,0,1,33.35-29c1-.16,2-.16,3.08-.23Zm28.73-32.8a12,12,0,0,0-1.8.75c1.24-.41,2-.44,2.43-.6,1-.41,2-.7,3-1a11.14,11.14,0,0,0-6.13,1.7,22.16,22.16,0,0,1,2.47-.88Zm-25.46,12.22a6.71,6.71,0,0,0-.92,1.45,29.4,29.4,0,0,0-1.23,5.56,25.5,25.5,0,0,0-.25,3.36l-.17,1.94.2.18a35.94,35.94,0,0,1,2.31-11.85Zm-1,20.55a3.26,3.26,0,0,1-.95-2.25l-.28,2.27h0Zm42.78.25c3.25.17,8.53.22,13.64.28-.12-.2-.27-.3-.46-.15-.12-3.69,0-7.64-.32-10.94l.1.21a6.38,6.38,0,0,0,0-1.54,22,22,0,0,0-3.88-9.64l-.83-1.11c-1.1-1.43-1.49-1.78-1.59-1.4-.19.67-1.61-.66-2.76-1.34a23.17,23.17,0,0,0-10.16-3.5,18.71,18.71,0,0,0-8.51.95c-.49.16-1.14.36-1.7.59a16.7,16.7,0,0,0-6.42,3.67,3.84,3.84,0,0,1-1.16.72,2.54,2.54,0,0,1-1,0,15.12,15.12,0,0,0-1.31,1.34l.17-.63a46.86,46.86,0,0,0-4,7l.27.34a23,23,0,0,0-.75,3l0-.7c-.32,0-.66.27-.8-.15a8.22,8.22,0,0,1,.29-2.4c.3-.89.45-1.26.28-1.61a6.78,6.78,0,0,1,.46-2.28c.56-2-.17-1.65-.57-2-.13-.13-.35-.13-.6-.21a12.45,12.45,0,0,0-1.05,1.48,22.78,22.78,0,0,1,1.18-2.79l.18.33.74-1.12c.52-1.4,1.33-2.84,1.82-4,.73-1.47-2.26.35-3.83,2.58a26.87,26.87,0,0,0-4.35,9.27c-.41,1.36-.56,2.77-.89,4.24a29.42,29.42,0,0,1,1.33-6.81l-.14,0a12.55,12.55,0,0,0-.76,2.21,27.48,27.48,0,0,1-1,3.51,10.87,10.87,0,0,0-.55,4.27c.06,2,.33,4.77-.26,6.2-.22.54-.56.09-.84.09V376c5.67-.18,12-.25,18.27-.23a5.25,5.25,0,0,1-.19-.63,8.26,8.26,0,0,1-.17-1.74c.08-1.61.15-3.21.23-5l.44.56-.1-.56a4.05,4.05,0,0,1,.51-1.52,5,5,0,0,1,.57-1,8,8,0,0,1,1.37-1.7l.12.18c-.17.36-.16.78-.33,1.14a10.82,10.82,0,0,0-.26,2.47,42.14,42.14,0,0,1-.32,5.35,10.12,10.12,0,0,1-.59,2.44C405.27,375.83,412.63,376,418.15,376.31Zm18.71.36-.63-.19c1.45-.16,2.48-.38,4-.53-.06-.5-.11-1.06-.13-1.79-.06-1.74-1.12-3.78-1.63-3.17-.78.76-1.34-1.4-1.49-5.36a26.62,26.62,0,0,0-1.22-6.47,3.87,3.87,0,0,0-.72-1.11l-4.14-6.28a7.27,7.27,0,0,1-.64-1.07c-.57-1.5-.61-1.5-2.45-2.82a21.44,21.44,0,0,1,1.24,3.33c.08.4-.13.46-.21.67a25.77,25.77,0,0,0-2.73-3c-.34-.32-.57-.73-.9-1a25.45,25.45,0,0,0-15.42-5.72l-.68,0,.06.11a25.26,25.26,0,0,1,12.47,3.75,27.87,27.87,0,0,1,3.33,2.29c2,1.75,2.31,2.54,1.55,2.77a25.49,25.49,0,0,1,2.6,2.67c.47.62.95,1.29,1.38,2a32.86,32.86,0,0,1,3.66,10,26.36,26.36,0,0,1,.22,4c.06,2,.12,4.1.18,6.12,0,.31,0,.52,0,.8Zm-86.65,25.72c-.15.27-.24.59-.39.87l.55-1.06Zm13.29,5.16,1-1.29c.81-1.12-.31-1-2.07.65a11,11,0,0,0-2.47,3.63,9.88,9.88,0,0,0-.78,2.57,6.76,6.76,0,0,0-.18,1.41,17.44,17.44,0,0,0-.07,1.92c-.07,15.24-.13,30.59-.2,45.72,0,1.55,0,2.92,0,4.12a11.32,11.32,0,0,0,.19,1.82,4.75,4.75,0,0,0,.71,2,9.6,9.6,0,0,0,3.82,3c.19.09-.29-.91-.59-1.77a12.7,12.7,0,0,1-.83-3.37,18,18,0,0,1-.13-1.88v-4.14c0-5.56-.07-11.23-.11-16.71,0-8.44-.2-9.54-.6-5.49-.12,1.21-.31.22-.46.23,0-2.91-.06-6.85,0-8.5.18-3.58.43-6,.61-8.27l-.17-6.42,0-2.21a13.47,13.47,0,0,1,.1-1.49A12.8,12.8,0,0,1,363.5,407.54ZM454,400.7a20.56,20.56,0,0,0-3.08-2.72,19.64,19.64,0,0,0-3.28-2,22.67,22.67,0,0,0-3.63-.29l-4.94,0-9.83,0c-9-.15-15,.12-22.27.26l-34.42.55a13.44,13.44,0,0,0-3,1c-.36.18.12.26.94.26a76,76,0,0,1,9.87.74c1.7.71,11.36.49,18,.61a70.9,70.9,0,0,0,11-.37c2.3-.33,5.89-.66,10-.93,1.7-.11,7.81-.18,9.42-.11,5.32.26,10.93.26,15.79.27A17.35,17.35,0,0,1,454,400.7Zm-35.3,79.15c2.18,0,5.27-.08,6.94-.17,10.45-.6,5.82-1.62-7.23-2.07-13.89-.48-28.76-.25-43.11-.36h-2.14l-.32,0a7.66,7.66,0,0,1-1.27-.11,9.39,9.39,0,0,1-2.44-.62,2.16,2.16,0,0,1-.59-.05,11.49,11.49,0,0,0,3.85,1.41,28.33,28.33,0,0,0,3.67.28l4.55.23,18.19.92,2.23-.1-2.23.44ZM403.3,355.59a15.77,15.77,0,0,0-5,3.62c-.55.68-.8,1.09-.6,1.43a8.53,8.53,0,0,0,1.34,2c.09.1.35-.06.57-.18.91-.7,1.44-1.81,2.34-2.6.67-.58.7-.78.09-.84-.18,0-.21-.23-.31-.35.29-.18.59-.56.82-.56a4.32,4.32,0,0,1,1.11,0,11.56,11.56,0,0,1,2.42-1.59,1.19,1.19,0,0,0,.33-.26C406.95,355.5,405.06,354.78,403.3,355.59Zm11.63-5.25a19.63,19.63,0,0,0-6.41-.6,4.68,4.68,0,0,0-.74.67c-.09.12,0,.28.24.38.64.24,1.74.67,1.84,1,.23.69,1.76.64,2.73,1.07.83.27,1.31.39,1.77.18a4.06,4.06,0,0,1,1.9-.17,3.63,3.63,0,0,1,1.45.71c1.26,1.41,2.82,2.36,3.8,3.53l.11-1.4c0-.47.14-1,.15-1.43-.83-.76-2-1.57-2.93-2.29A9.29,9.29,0,0,0,414.93,350.34ZM152.76,253.27l2.29-1.57-.95-.11c2.83-.15,1.43-.83,3.74-1.07l-2.25-.24c.74-.21,1.61-.37,1.19-.71s1.06-.61,1.53-.93c.19-.13-.19-.29-.09-.43a1,1,0,0,1,.78-.48c1.2-.07,1.76-.61,3.65-.23a5.14,5.14,0,0,0,.89,0,70.85,70.85,0,0,1,9.08.08c1.94.12,4.17.12,6.25.1,2.46,0,4.89-.16,7.36-.19,2.84,0,5.7,0,8.55,0a16.06,16.06,0,0,0,1.63-.05,32.53,32.53,0,0,1,8.53.22c.92.17,2.62.18,4,.27l-.13-.14a3.66,3.66,0,0,1,1.4-.52,17.48,17.48,0,0,1,4.37.14c1,.18,2.73.2,4.32.31l-.44.61c4.5.1,2.68.74,2.5,1.28,1.72-.06,3.29-.17,4.84-.15a46.29,46.29,0,0,1,7.06.33c.47.08,1.65,0,2.4,0s1.38.18,2.06.27l-1.21.34c1.44.24,2.18.56.84,1-.31.09,0,.27,0,.4-.17.36-.78.74-3.6.82-1.47,0-3.19.84-2.68,1.23.75.55-1.42,1.07-4.29,1-1.59,0-3.2,0-4.79,0a2.83,2.83,0,0,0-.93.23,21.68,21.68,0,0,1-5.58.56,5.28,5.28,0,0,1-.93-.1c-1.15-.36-1.13-.36-2.81,0,.89.35,1.79.67,2.53,1,.28.13.22.29.31.43-1.08,0-2.17,0-3.25,0-.37,0-.73-.12-1.08-.11l-13.45.18c-.19,0-.37,0-.55,0,0,0,0,.08.05.08l10.74.11c1.1,0,2.2,0,3.3-.05,2.18,0,2.8.12,2.52.69l3.12-.26c.65,0,1.33-.1,2-.11,3.14,0,5.94-.27,8.71-.56.93-.09,2.19-.07,3.3-.09,1.73,0,3.47-.07,5.18-.14,2.71-.11,3.76.09,3.24.61a9.52,9.52,0,0,0-.9,1.22c-1.3,0-2.16.24-1.83.62l-9.4.16.2-.07c-.47,0-.93-.14-1.4-.14-3.17,0-6.34,0-9.52,0-.42,0-.86,0-1.26,0-1.63-.07-2.1-.06-1.92.2.33.47-1.49.52-2.76.64-3.35.32-7,.47-10.55.66-2.87.15-5.92.13-8.66.37-.53,0-1.22,0-1.84,0-2.53,0-4.94-.27-7.57-.11a4.82,4.82,0,0,1-1.35-.19c-.37-.17-.45-.36-.67-.57l-1.8-.09.57-.18c-1.46.05-2.71.13-3.93.12s-2.41-.12-3.74-.19l-.23.28-2.94,0,.65-.09c0-.24-.37-.46,0-.61a10.21,10.21,0,0,1,2.19-.22c.85,0,1.21,0,1.46-.22a10.77,10.77,0,0,1,2-.39c1.73-.31,1.16-.73,1.27-1.11,0-.14-.06-.27-.1-.46l-1.44-.18,2.38-.25-.14.24a10.16,10.16,0,0,0,1.07,0c1.15-.28,2.4-.54,3.27-.85,1.15-.41-1.36-.93-3.31-1-2.46-.06-5,0-7.48,0-1,0-2.05,0-3.14-.08l5-.17s0-.07,0-.11c-.55,0-1.11-.05-1.66-.05a8.7,8.7,0,0,1-2.58-.24,10.79,10.79,0,0,0-3.06-.19c-1.7,0-4,.25-5.24-.19-.45-.17-.07-.42-.07-.63Zm34.85,4,2.13,0,0,0-1.59.12c1.07.06,1.68.14,2.05.11.91-.08,1.7-.21,2.54-.31A17.16,17.16,0,0,0,187.62,257.26Zm-24.86-7,7.34.23.37-.12a3.52,3.52,0,0,0-1-.28c-1.1,0-2.24,0-3.36,0-.67,0-1.33.06-2,.06-.4,0-.8,0-1.2-.07Zm20.83,17.46a16.33,16.33,0,0,1,1.75.46l5.31-.49a2.93,2.93,0,0,0,.69-.13c1.15-.54-1.66-1.23-4.58-1.22-3.22,0-6.47-.06-9.67-.15a4.52,4.52,0,0,0-2.36.25,16.72,16.72,0,0,0-1.81,1.63c-.08.09.41.23.84.31a42.74,42.74,0,0,0,6.93.12c1.79,0,2-.15,1.16-.45-.26-.09,0-.23,0-.35A17.29,17.29,0,0,1,183.59,267.72Zm27.79-5.51c-1.23,0-2.79.11-4.1,0a32.58,32.58,0,0,0-4.71.19c-2.31.15-4.72.25-7.33.38a6,6,0,0,0-.89.47c-.11.09,0,.21.26.29a10.65,10.65,0,0,1,2.33.73c.36.53,2.4.36,3.8.45a4.43,4.43,0,0,0,2.33-.28,9.94,9.94,0,0,1,2.13-.7,9.47,9.47,0,0,1,2-.08,38.72,38.72,0,0,0,6.42.1c-.43-.28-.84-.52-1.19-.77S211.73,262.48,211.38,262.2Zm-53.21,4.51a7.72,7.72,0,0,0-1.47.13c-2.21.45-1.23,1.21,1.53,1.55,2.94.36,6.08.19,9.12.27.8,0,1.63,0,2.45,0l.27-.13-7.7-1.38-.47.07.47-.33C160.88,266.82,159.54,266.75,158.17,266.71ZM161.59,302h-8.82l4.24-1.57-1.77-.11c5.26-.15,2.65-.83,7-1.07L158,299c1.37-.21,3-.37,2.2-.71-.62-.27,2-.61,2.83-.93.35-.13-.36-.29-.17-.43a2.21,2.21,0,0,1,1.46-.48c2.22-.07,3.27-.61,6.77-.23.3,0,1.15,0,1.65,0,5.73-.19,11.18-.12,16.86.08,3.61.12,7.74.12,11.6.1,4.57,0,9.09-.16,13.67-.19,5.28,0,10.59,0,15.88,0,1,0,2.21,0,3-.05a111.77,111.77,0,0,1,15.84.22c1.71.17,4.86.18,7.35.27l-.25-.14a10.92,10.92,0,0,1,2.6-.52,60.07,60.07,0,0,1,8.11.14c1.93.18,5.07.2,8,.31l-.81.61c8.36.1,5,.74,4.64,1.28,3.2-.06,6.12-.17,9-.15,4.47,0,9.21,0,13.11.33.87.08,3.07,0,4.46,0s2.57.18,3.83.27l-2.25.34c2.67.24,4,.56,1.55,1-.57.09.08.27,0,.4-.32.36-1.44.74-6.68.82-2.73,0-5.93.84-5,1.23,1.4.55-2.64,1.07-8,1-3,0-5.95,0-8.9,0a9.14,9.14,0,0,0-1.73.23,73.67,73.67,0,0,1-10.37.56c-.63,0-1.43,0-1.73-.1-2.13-.36-2.1-.36-5.21,0,1.65.35,3.32.67,4.7,1,.53.13.41.29.58.43-2,0-4,0-6,0-.69,0-1.36-.12-2-.11l-25,.18c-.35,0-.68,0-1,0,0,0,.06.08.1.08l19.94.11c2,0,4.09,0,6.13-.05,4,0,5.21.12,4.68.69l5.79-.26c1.2,0,2.46-.1,3.73-.11,5.84,0,11-.27,16.17-.56,1.73-.09,4.06-.07,6.12-.09,3.21,0,6.45-.07,9.61-.14,5-.11,7,.09,6,.61a13.12,13.12,0,0,0-1.67,1.22c-2.42,0-4,.24-3.39.62l-17.46.16.37-.07c-.87,0-1.72-.14-2.6-.14q-8.83,0-17.67,0c-.78,0-1.59,0-2.33,0-3-.07-3.9-.06-3.57.2.62.47-2.77.52-5.13.64-6.22.32-12.92.47-19.6.66-5.33.15-11,.13-16.09.37-1,0-2.27,0-3.41,0-4.7,0-9.18-.27-14.05-.11a16.19,16.19,0,0,1-2.5-.19,4.27,4.27,0,0,1-1.25-.57l-3.34-.09,1.06-.18c-2.72.05-5,.13-7.3.12s-4.47-.12-7-.19l-.42.28-5.46,0,1.21-.09c-.07-.24-.68-.46,0-.61a34.71,34.71,0,0,1,4.06-.22,8.09,8.09,0,0,0,2.7-.22,35.62,35.62,0,0,1,3.72-.39c3.22-.31,2.16-.73,2.36-1.11.07-.14-.1-.27-.19-.46l-2.67-.18,4.43-.25-.26.24c.68,0,1.71,0,2,0,2.13-.28,4.47-.54,6.07-.85,2.14-.41-2.53-.93-6.15-1-4.58-.06-9.25,0-13.89,0-1.9,0-3.81,0-5.83-.08l9.3-.17v-.11c-1,0-2.06-.05-3.09-.05a29.57,29.57,0,0,1-4.79-.24,36.88,36.88,0,0,0-5.68-.19c-3.15,0-7.49.25-9.73-.19C160.88,302.49,161.59,302.23,161.59,302Zm55.9,4,4,0,.09,0-3,.12c2,.06,3.13.14,3.81.11,1.68-.08,3.16-.21,4.71-.31A59,59,0,0,0,217.49,306Zm-46.17-7,13.64.23.68-.12a11.12,11.12,0,0,0-1.84-.28c-2,0-4.16,0-6.25,0-1.25,0-2.47.06-3.72.06-.74,0-1.49,0-2.23-.07ZM210,316.46c1.41.13,2.35.32,3.25.46l9.85-.49a9.75,9.75,0,0,0,1.28-.13c2.13-.54-3.08-1.23-8.51-1.22-6,0-12-.06-18-.15a15.08,15.08,0,0,0-4.38.25,32.62,32.62,0,0,0-3.37,1.63c-.16.09.76.23,1.55.31,4,.36,8.56.13,12.87.12,3.32,0,3.75-.15,2.16-.45-.48-.09-.09-.23-.09-.35C207.81,316.45,209.36,316.4,210,316.46Zm31.85-3a14.79,14.79,0,0,0,4.32-.28,30.57,30.57,0,0,1,3.95-.7,32.53,32.53,0,0,1,3.7-.08c4.23.38,8.48.08,11.93.1-.8-.28-1.56-.52-2.2-.77s-1.28-.54-1.93-.82c-2.29,0-5.19.11-7.62,0-3.53-.11-5.88.09-8.75.19-4.3.15-8.77.25-13.61.38A16,16,0,0,0,230,312c-.21.09,0,.21.49.29a33.09,33.09,0,0,1,4.32.73C235.47,313.57,239.27,313.41,241.86,313.5Zm-79.05,2a26.37,26.37,0,0,0-2.73.13c-4.1.45-2.29,1.21,2.84,1.55,5.46.36,11.3.19,16.94.27,1.49,0,3,0,4.55,0l.51-.13-14.3-1.38-.88.07.88-.33C167.84,315.57,165.35,315.49,162.8,315.46Zm148.38,44.67-4.25,1.57,1.77.11c-5.26.15-2.65.83-7,1.07l4.17.24c-1.37.21-3,.37-2.2.71.62.27-2,.61-2.83.93-.35.13.36.29.17.43a2.21,2.21,0,0,1-1.46.48c-2.22.08-3.27.61-6.77.23-.3,0-1.15,0-1.65,0-5.73.19-11.18.12-16.86-.08-3.61-.12-7.74-.12-11.6-.1-4.57,0-9.09.16-13.67.19-5.28,0-10.59,0-15.88,0-1,0-2.21,0-3,.05a112,112,0,0,1-15.84-.22c-1.71-.17-4.86-.18-7.35-.27l.25.14a11,11,0,0,1-2.6.52,60.06,60.06,0,0,1-8.11-.14c-1.93-.18-5.07-.2-8-.31l.81-.6c-8.36-.1-5-.74-4.64-1.28-3.2.06-6.12.16-9,.15-4.47,0-9.21,0-13.11-.33-.87-.08-3.07,0-4.46,0s-2.57-.18-3.83-.27l2.25-.34c-2.67-.24-4-.56-1.55-1,.57-.1-.08-.27,0-.4.32-.36,1.44-.74,6.68-.82,2.73,0,5.93-.84,5-1.23-1.4-.56,2.64-1.07,8-1,3,0,5.95,0,8.9,0a9.14,9.14,0,0,0,1.73-.23,73.67,73.67,0,0,1,10.37-.56c.63,0,1.43,0,1.73.1,2.13.36,2.1.36,5.21,0-1.65-.35-3.32-.67-4.7-1-.53-.13-.41-.29-.58-.43,2,0,4,0,6,0,.69,0,1.36.12,2,.11l25-.18c.35,0,.68,0,1,0,0,0-.06-.08-.1-.08q-10-.06-19.94-.11c-2,0-4.09,0-6.13.05-4,0-5.21-.12-4.69-.69l-5.79.26c-1.2,0-2.46.1-3.73.11-5.84,0-11,.27-16.17.56-1.73.1-4.06.07-6.12.1-3.21,0-6.45.07-9.61.14-5,.11-7-.09-6-.61a13.17,13.17,0,0,0,1.67-1.22c2.42,0,4-.24,3.39-.62l17.46-.16-.37.07c.87,0,1.72.14,2.6.14h17.67c.78,0,1.59,0,2.33,0,3,.07,3.9.06,3.57-.2-.62-.47,2.77-.52,5.13-.64,6.22-.32,12.92-.47,19.6-.66,5.33-.15,11-.13,16.09-.37,1,0,2.27,0,3.41,0,4.7,0,9.18.27,14.05.11a16.1,16.1,0,0,1,2.51.19,4.27,4.27,0,0,1,1.25.57l3.34.09-1.06.18c2.72-.05,5-.13,7.3-.12s4.47.12,7,.19l.42-.28,5.46,0-1.21.09c.07.24.68.46,0,.61a34.7,34.7,0,0,1-4.06.22,8.07,8.07,0,0,0-2.7.22,35.61,35.61,0,0,1-3.72.39c-3.22.31-2.16.73-2.36,1.11-.07.14.1.27.19.46l2.67.18-4.43.25.26-.24c-.68,0-1.71,0-2,0-2.13.28-4.47.54-6.07.85-2.14.41,2.53.93,6.15,1,4.58.06,9.25,0,13.89,0,1.9,0,3.81,0,5.83.08l-9.3.17s0,.07,0,.11c1,0,2.06.05,3.09.05a29.59,29.59,0,0,1,4.79.24,36.69,36.69,0,0,0,5.68.19c3.15,0,7.49-.25,9.73.19.84.17.14.42.14.63Zm-64.73-4-4,0-.09,0,3-.12c-2-.06-3.13-.14-3.82-.11-1.68.08-3.16.21-4.71.32A59,59,0,0,0,246.46,356.14Zm46.17,7L279,362.91l-.68.12a11.11,11.11,0,0,0,1.84.28c2,0,4.16,0,6.25,0,1.25,0,2.47-.06,3.72-.06.74,0,1.49,0,2.23.07Zm-44.57-16.08c6,0,12,.06,18,.15a15.08,15.08,0,0,0,4.38-.25,32.84,32.84,0,0,0,3.37-1.63c.16-.09-.76-.23-1.55-.31-4-.36-8.56-.13-12.87-.12-3.32,0-3.75.15-2.16.45.48.09.09.23.09.35-1.14,0-2.69,0-3.34,0-1.41-.13-2.35-.32-3.25-.46l-9.85.49a9.62,9.62,0,0,0-1.28.13C237.42,346.38,242.63,347.07,248.06,347.07Zm-45.74,4.13c2.29,0,5.19-.11,7.62,0,3.53.11,5.88-.09,8.75-.19,4.3-.15,8.77-.25,13.61-.38a16,16,0,0,0,1.64-.47c.21-.09,0-.21-.49-.29a33,33,0,0,1-4.32-.73c-.67-.53-4.47-.36-7.05-.45a14.79,14.79,0,0,0-4.32.28,30.57,30.57,0,0,1-3.95.7,32.7,32.7,0,0,1-3.7.08c-4.23-.38-8.48-.08-11.93-.1.8.28,1.56.52,2.2.77S201.67,350.92,202.32,351.2Zm98.82-4.51a26.59,26.59,0,0,0,2.73-.13c4.11-.45,2.29-1.21-2.84-1.55-5.46-.36-11.3-.19-16.94-.27-1.49,0-3,0-4.55,0l-.51.13,14.3,1.38.88-.07-.88.33C296.1,346.58,298.6,346.65,301.14,346.69Zm119,105.13c2.83-1.87,5.23-4.53,5.09-8.13a17.22,17.22,0,0,0-1.78-5.76c-.65-1.58-1.22-3.94-2.55-5.14s-2.52-1-4-1.19c-2.55-.32-4.88-1.52-7.49-1.11a6,6,0,0,0-3.18,1.59c-6.34,1.26-8.09,10.58-5.61,16C404.08,455.73,413.86,456,420.11,451.82Z"/></svg>