<svg id="Layer_1" data-name="Layer 1" xmlns="http://www.w3.org/2000/svg" viewBox="0 0 512 512"><defs><style>.cls-1{fill:#dde5e8;}.cls-2{fill:#9bbdc6;}.cls-3{fill:#afc3c9;}.cls-4{fill:#e04848;}.cls-5{fill:#9e2d2d;}</style></defs><title>document-locked-flat</title><path class="cls-1" d="M422.4,153.6V448a64,64,0,0,1-64,64H89.6a64,64,0,0,1-64-64V64a64,64,0,0,1,64-64H268.93Z"/><path class="cls-2" d="M422.4,153.6H332.8a64,64,0,0,1-64-64V0h.13Z"/><path class="cls-3" d="M243.2,256a12.8,12.8,0,0,1-12.8,12.8H140.8A12.8,12.8,0,0,1,128,256h0a12.8,12.8,0,0,1,12.8-12.8h89.6A12.8,12.8,0,0,1,243.2,256Z"/><path class="cls-3" d="M320,307.2A12.8,12.8,0,0,1,307.2,320H140.8A12.8,12.8,0,0,1,128,307.2h0a12.8,12.8,0,0,1,12.8-12.8H307.2A12.8,12.8,0,0,1,320,307.2Z"/><path class="cls-3" d="M319.62,358.4a12.8,12.8,0,0,1-12.8,12.8h-166A12.8,12.8,0,0,1,128,358.4h0a12.8,12.8,0,0,1,12.8-12.8h166a12.8,12.8,0,0,1,12.8,12.8Z"/><path class="cls-4" d="M454.4,384H448V371.2a38.4,38.4,0,0,0-76.8,0V384h-6.4a32,32,0,0,0-32,32v64a32,32,0,0,0,32,32h89.6a32,32,0,0,0,32-32V416A32,32,0,0,0,454.4,384Zm-57.6,0V371.2a12.8,12.8,0,1,1,25.6,0V384Z"/><path class="cls-5" d="M409.6,460.8A12.89,12.89,0,0,1,396.8,448a11,11,0,0,1,.26-2.5,11.49,11.49,0,0,1,.7-2.43,14.87,14.87,0,0,1,1.22-2.18,13.85,13.85,0,0,1,3.52-3.52,14.87,14.87,0,0,1,2.17-1.22,10.52,10.52,0,0,1,2.43-.7,11.9,11.9,0,0,1,5,0,10,10,0,0,1,2.37.7,12.57,12.57,0,0,1,2.24,1.22,13.74,13.74,0,0,1,3.53,3.52,14.83,14.83,0,0,1,1.21,2.18,11.9,11.9,0,0,1,.71,2.43,11,11,0,0,1,.26,2.5,12.92,12.92,0,0,1-1,4.93,12.07,12.07,0,0,1-2.81,4.1A12.48,12.48,0,0,1,409.6,460.8Z"/></svg>