<svg id="Layer_1" data-name="Layer 1" xmlns="http://www.w3.org/2000/svg" viewBox="0 0 512 512"><defs><style>.cls-1{fill:#dde5e8;}.cls-2{fill:#9bbdc6;}.cls-3{fill:#afc3c9;}.cls-4{fill:#e04848;fill-rule:evenodd;}</style></defs><title>document-heart-flat</title><path class="cls-1" d="M422.4,153.6V448a64,64,0,0,1-64,64H76.8a64,64,0,0,1-64-64V64a64,64,0,0,1,64-64H268.93Z"/><path class="cls-2" d="M422.4,153.6H332.8a64,64,0,0,1-64-64V0h.13Z"/><path class="cls-3" d="M217.6,256a12.8,12.8,0,0,1-12.8,12.8H128A12.8,12.8,0,0,1,115.2,256h0A12.8,12.8,0,0,1,128,243.2h76.8A12.8,12.8,0,0,1,217.6,256Z"/><path class="cls-3" d="M294.4,307.2A12.8,12.8,0,0,1,281.6,320H128a12.8,12.8,0,0,1-12.8-12.8h0A12.8,12.8,0,0,1,128,294.4H281.6a12.8,12.8,0,0,1,12.8,12.8Z"/><path class="cls-3" d="M294,358.4a12.8,12.8,0,0,1-12.8,12.8H128a12.8,12.8,0,0,1-12.8-12.8h0A12.8,12.8,0,0,1,128,345.6H281.22A12.8,12.8,0,0,1,294,358.4Z"/><path class="cls-4" d="M499.2,415.94a44.45,44.45,0,0,1-7.6,25c-.89,1.34-1.92,2.62-2.94,3.89l-.32.39C478.08,457,467.51,468.43,457.5,480.4c-7.31,8.75-14.23,19.44-23.63,26A31.63,31.63,0,0,1,416.2,512c-16.54,0-26.66-14.6-36.42-26S360,463.14,350,451.77c-2.51-2.86-5-5.73-7.48-8.61a6.93,6.93,0,0,1-.64-.83l-1.27-1.79a43.79,43.79,0,0,1-7.41-24.6,44.67,44.67,0,0,1,83-23,44.67,44.67,0,0,1,83,23Z"/></svg>