<svg id="Layer_1" data-name="Layer 1" xmlns="http://www.w3.org/2000/svg" viewBox="0 0 512 512"><defs><style>.cls-1,.cls-2{fill:#141f38;}.cls-2{fill-rule:evenodd;}</style></defs><title>document-heart-glyph</title><path class="cls-1" d="M268.94,0H76.8a64,64,0,0,0-64,64V448a64,64,0,0,0,64,64H358.4a64,64,0,0,0,18.88-2.84l-.24-.29c-1.16-1.4-2.3-2.79-3.44-4.13q-15.87-18.71-32-37.26l-8-9.3a18.38,18.38,0,0,1-1.53-2l-1.4-2A61.28,61.28,0,0,1,320.4,420c0-34,27.33-61.61,60.93-61.61a60.82,60.82,0,0,1,41.07,16.14V153.6ZM128,243.2H230.4a12.8,12.8,0,0,1,0,25.6H128a12.8,12.8,0,0,1,0-25.6Zm178.82,128H128a12.8,12.8,0,1,1,0-25.6H306.82a12.8,12.8,0,1,1,0,25.6Zm.38-51.2H128a12.8,12.8,0,0,1,0-25.6H307.2a12.8,12.8,0,0,1,0,25.6ZM320,166.4a64,64,0,0,1-64-64V25.6L396.8,166.4Z"/><path class="cls-2" d="M457.21,482.18c7.12-8.62,14.54-17.07,21.72-25.24,3.91-4.44,7.82-8.89,11.68-13.37.9-1.14,1.76-2.19,2.49-3.32A36.29,36.29,0,0,0,499.2,420c0-19.86-15.85-36-35.33-36a34.86,34.86,0,0,0-30.24,17.41l-11,18.7-11-18.7A34.86,34.86,0,0,0,381.33,384C361.85,384,346,400.15,346,420a35.56,35.56,0,0,0,5.84,19.76l1.18,1.67-.24-.26,8.19,9.55q16.15,18.66,32.16,37.46c1.22,1.43,2.43,2.91,3.66,4.4,9.68,11.73,16.7,19.42,25.81,19.42a21,21,0,0,0,11.6-3.69c6.05-4.31,11.55-11.44,16.87-18.34C453.12,487.31,455.15,484.68,457.21,482.18Z"/></svg>