<svg id="Layer_1" data-name="Layer 1" xmlns="http://www.w3.org/2000/svg" viewBox="0 0 512 512"><defs><style>.cls-1{fill:#141f38;}</style></defs><title>document-heart-outline</title><path class="cls-1" d="M115.2,256A12.8,12.8,0,0,1,128,243.2h76.8a12.8,12.8,0,0,1,0,25.6H128A12.8,12.8,0,0,1,115.2,256Zm166.4,38.4H128a12.8,12.8,0,0,0,0,25.6H281.6a12.8,12.8,0,0,0,0-25.6Zm-.38,51.2H128a12.8,12.8,0,0,0,0,25.6H281.22a12.8,12.8,0,0,0,0-25.6Zm218,66.28a52.82,52.82,0,0,1-9.25,30c-1,1.47-2.17,2.94-3.36,4.39L486,447c-3.34,3.76-6.72,7.5-10.1,11.24-6,6.69-12.31,13.61-18.18,20.53-1.6,1.88-3.18,3.88-4.77,5.89-5.37,6.77-11.45,14.44-19.5,20A42.32,42.32,0,0,1,409.8,512a38.93,38.93,0,0,1-22.2-7.12A63.52,63.52,0,0,1,358.4,512H76.8a64,64,0,0,1-64-64V64a64,64,0,0,1,64-64H268.94L422.4,153.6V363.44a54.37,54.37,0,0,1,22.76-5C475,358.4,499.2,382.39,499.2,411.88ZM281.6,49.08V102.4A38.44,38.44,0,0,0,320,140.8h53.09ZM358.4,486.4a38.09,38.09,0,0,0,9.16-1.21l-1-1.2q-13.59-15.59-27.39-31l-6.84-7.75a18,18,0,0,1-1.42-1.78l-1.24-1.72a52.41,52.41,0,0,1-9.25-29.84c0-29.49,24.24-53.48,54-53.48a54.37,54.37,0,0,1,22.36,4.87V166.4H320a64,64,0,0,1-64-64V25.6H76.8A38.44,38.44,0,0,0,38.4,64V448a38.44,38.44,0,0,0,38.4,38.4Zm115.2-74.52c0-15.37-12.76-27.88-28.44-27.88a28.26,28.26,0,0,0-24.41,13.59L409.8,415.65l-10.95-18.06A28.26,28.26,0,0,0,374.44,384C358.76,384,346,396.51,346,411.88A26.66,26.66,0,0,0,350.6,427l1,1.36,6.69,7.58q13.84,15.54,27.56,31.24c1,1.2,2.09,2.43,3.15,3.68,8,9.39,13.72,15.54,20.82,15.54a16.65,16.65,0,0,0,9-2.77c4.95-3.43,9.36-9,14-14.89,1.78-2.24,3.53-4.46,5.31-6.55,6.14-7.23,12.53-14.3,18.71-21.14q5-5.51,9.94-11.06c.65-.81,1.37-1.66,2-2.57A27.35,27.35,0,0,0,473.6,411.88Z"/></svg>