<svg id="Layer_1" data-name="Layer 1" xmlns="http://www.w3.org/2000/svg" viewBox="0 0 512 512"><defs><style>.cls-1{fill:#707070;}</style></defs><title>document-heart-handdrawn</title><path class="cls-1" d="M72.94,511.29c3.18.91,2.18,1.22-4-.72A66.16,66.16,0,0,1,54.8,504,74.23,74.23,0,0,1,21,457.21a77.86,77.86,0,0,1-1.84-14.94L19,429.56q-.08-12.54-.17-25.34c.17-9,.34-18.52.61-32.63,0-6.52,0-22.09,0-33.56-.16.05-.34-3.87-.46.92-.4,16-.59,11.64-.6-21.69,0-43.33-.33-89.51.16-129.3.1-8,.29-17.19.41-15.61.73,9.5,1.45,21.19,2.17,33.84.31,5.44.39,18.91.34,44-.06,59.71-.13,120.33-.19,180.48q0,5.12,0,10.19a81.5,81.5,0,0,0,1,11.77,70.7,70.7,0,0,0,7,21.54,73.9,73.9,0,0,0,24.86,27.95A80,80,0,0,0,72.94,511.29ZM18.82,83.52,19,74.4A75.77,75.77,0,0,1,20,63.51a70,70,0,0,1,6.77-20.73A73.57,73.57,0,0,1,56.28,11.63,71.14,71.14,0,0,1,76.41,3.8,72.89,72.89,0,0,1,87.08,2.17L92.47,2c1.82-.06,3.08,0,4.65,0l8.82-.1-8.81.45,78.47.23L203,2.39c41.24-.6,23-1.62-28.54-2.07L132.72.07,111.47,0H100.78c-3.7,0-6.72-.12-11.49.18A74.47,74.47,0,0,0,41.61,20.78a75.8,75.8,0,0,0-23,46.34c-.21,2.29-.29,4.61-.41,6.93s0,3.9-.05,5.9V91.38c0,7.65,0,15.34,0,23l.18,5.08ZM325,183.92a74.29,74.29,0,0,1-17.34-2.26,70.35,70.35,0,0,1-30.44-16.32c-7.17-6.54-10-11-11.52-12.5a100.58,100.58,0,0,1-8.42-10.57c-.36-.54,1,2.93,2.42,5.8,7.21,14.41,22,27.5,38.41,33.64A60.85,60.85,0,0,0,309.42,185c1.29.22.18-.2-2.88-1.18-1.83-.59-.26-.38-.24-.54a77.12,77.12,0,0,0,13.14,2.25c5.9.55,8.71.69,11.68.88l32.47-.66c1.68,0,3.54-.1,4.23-.17,7-.72-10.13-1.64-28-1.63ZM250.81,122a54.78,54.78,0,0,1-.4-7.22c-.08-2.58,0-4.53.09-6.44L251,96.61l.92-23.55-.1-2.89.44,2.89c.08-9.13.16-17.35.23-25.73,0-2.83-.08-6.82-.17-9-.6-13.52-1.62-7.54-2.07,9.36-.48,18-.25,37.23-.36,55.81,0,2.46,0,5,0,7.46.06,2.7.21,6.09.48,9.07ZM491.91,393.92a30.85,30.85,0,0,1,1,9.27c-.24,1.27-.22.29-1.18-3.81-.42-1.87-.31.31-.55-.07a36.82,36.82,0,0,1-1.7-4.69,49.32,49.32,0,0,0-7.69-15c-5.23-7.45-14.84-11.81-12.47-9.71,1.55,1.6-.26.55-4.39-1.45a49.42,49.42,0,0,0-19.05-4.61,42.7,42.7,0,0,0-21.57,4.91v2.78c-.65-.12-1.33-.21-2-.31v-1.37c-.63.37-1.3.65-1.9,1.05a22,22,0,0,0-3.71,3.14,42.77,42.77,0,0,0-6,7.9,33.16,33.16,0,0,0-4-5,35.7,35.7,0,0,0-5-4.26c-1.47-1.11-3.49-2.35-4.27-2.82a28.14,28.14,0,0,0-5.92-3,34.35,34.35,0,0,0-8.64-1.79,41,41,0,0,1,12.66,5.28c1.26.86.86.88,1.21,1.29a41,41,0,0,0-16.24-4.89,35.11,35.11,0,0,0-5.67-.21,40.46,40.46,0,0,0-30.28,16.11,39.54,39.54,0,0,0-6.79,33.49,27.2,27.2,0,0,0,.85,2.73c0-.12.05-.18,0-.3a39.42,39.42,0,0,1,20.22-47.25A41,41,0,0,1,375.3,367a31.75,31.75,0,0,1,11.24,1.23c2,.6,2.27,1,1.49,1.17a38.61,38.61,0,0,1,14.17,7,35.33,35.33,0,0,1,6.84,7c.62.82,1.13,1.69,1.63,2.42,7.25-12.22,21.24-19.42,34.68-19.26a39.53,39.53,0,0,1,16.75,3.88,40.35,40.35,0,0,1,19.11,18.79A34.2,34.2,0,0,1,485,403.76c0,2.85-.2,3.52-.62,2.19a19.67,19.67,0,0,0-2-4.44c-1-6.45-3.3-10.14-3.07-8.45-5.69-14.64-21-23.89-36-23.23l1-.13a34.54,34.54,0,0,0-6.78.45,37.32,37.32,0,0,0-14.54,6c-4.38,2.72-9,8.42-12.23,13.57-3-4.83-7.16-10-11.32-12.93a40.93,40.93,0,0,0-5.22-3.19c-7.21-3.48-9.72-3.23-8.86-2.88,1.47.88-7.2-1-13.19.29a36.78,36.78,0,0,0-21.16,11.16,34.68,34.68,0,0,0-9.48,22.42A33.75,33.75,0,0,0,349,427.78l10.9,12,6.23,7,12.54,14.43c4.22,4.72,8.26,10,12.69,14.45,1.15,1.17,3.86,3.94,4.52,4.52a29.61,29.61,0,0,1,2.06,2.49,25.23,25.23,0,0,0,7.33,3.53l-1-.18a23.77,23.77,0,0,0,15.94-.93c5.09-2,9.45-6,13.92-10.86l.46-1.1c2.72-3.12,5.26-6.5,9.45-11.56-1.14,1.49-1.79,2.36-2,2.69.38,0,1.65-1.08.65.49-.81,1.24-4.18,5.78-6.73,8.82-2.75,3.26-4.05,4.48-4.71,5.55a33.93,33.93,0,0,1-7.49,6.49c-3.69,2.17-5.16,2.59-5.49,3s.28.46.08.79.38.27.69.45a28.31,28.31,0,0,0,7.11-2.94,29.67,29.67,0,0,1-11.94,4.54l.7-.42a29.3,29.3,0,0,1-5.75.24c-6.34.18-12.88-3-16.71-5.61-2.55-1.79-1.5-.28,1.69,2.27s9.24,5.65,15.11,5.79a31.18,31.18,0,0,0,20.38-6.18c5.65-4.2,10-9.42,14-14.41,3.31-4.18,6.37-8.07,10.23-12.1-5.79,6.21-10.22,13.08-16.35,19.8l.12.09c2.06-2.17,4-4.4,5.77-6.63,3.55-4.44,6-7.52,8.48-9.88,2.31-2.2,5.81-6.07,10.51-11.43l9.38-10.71c3.11-3.59,6.35-6.77,8.67-9.54,1.74-1.92.71,0,.94.16a43.53,43.53,0,0,0,8.58-26.24,44.86,44.86,0,0,1,0,14,48.07,48.07,0,0,0,1.53-5.71c-1.69,8.66-3,10.66-3.35,12.49-.63,1.67-.75,3.52-5,9.24a45.7,45.7,0,0,0,7.44-12.13c-1.42,4.59-4.43,9.5-2.55,7.35.71-.88,0,.8-1.12,2.88s-2.66,4.35-3.8,5.93c-.25.41,0,.29.25.13s.88-.7.58-.21a12.9,12.9,0,0,1-2.26,3.5c-4,4.59-5.3,7.18-12,14-.58.59-2.12,2.31-3,3.34L459,470.06c-2.51,2.81-4.46,5.4-7,8.55-5.08,6.12-10.37,13.19-20.36,19.28a41.91,41.91,0,0,1-22.52,5.5,36.37,36.37,0,0,1-13.15-3,65.42,65.42,0,0,1-26.62,8.83c-1.74.18-4.92.31-8.39.41H350l-18.72.12c-16.4.28-30.57.6-39.66.93-8.7.32-21.32.48-43.41.37-26-.12-64.15.1-70.86-.61-3.26-.34-29.3-.64-43.38-1-4.55-.11-7-.27-4.91-.39l16.53-.63L282.32,508l41.46-.23,21.8-.06c7.75-.19,15.43.49,25.42-.67a63.32,63.32,0,0,0,22.75-7.67c-1.06-.52-2.11-1-3.09-1.59a61,61,0,0,1-8.36,3.72c-7.79,2.83-16.56,3.69-24.62,3.59l-49,.22-100.14.37-81.68.2-20.42,0c-6.79,0-13.38.28-20.65-.43A65.29,65.29,0,0,1,48.41,488a64.64,64.64,0,0,1-18.14-31.27,69,69,0,0,1-1.65-9.28c-.14-3.1-.39-6.35-.31-9.19q0-8.77,0-17.48c0-11.63.07-23.21.1-34.85,0-23.28,0-46.76,0-71.22,0-6.32.13-21.56.25-25.16.23-6.88.49-8.35.76-12.57,0-9.32.07-20.39.12-33.54.07,3,.12,5.39.24,10.66-.06-27.31-.11-50.54-.16-73.33s.16-44.9.26-69.84l-.37-4.25c0-7.76,0-15.58,0-24.4,0-2.21,0-4.47,0-6.82s.16-5,.47-7.6a65.87,65.87,0,0,1,4.24-16.54c-3.89,10.53-3.73,15.37-3.44,12.22.34-.72,2.19-6.76.81.07-1.53,5.62-.68,26.37-.82,41.07,0,15.84,0,22.6.29,27.17.2,3.34.35,24.23.52,37.4.41,32.33,1,21.7,1.48,23.73.18.71.37-1,.62-1.91,0-2,.1-10.89.24-26.87.13,17.33.22,29.34.34,44.47L34,206c0,6.84,0,17.18,0,19.94.4,21.42.84,44.83,1.14,61,.55,21.54,1.24-25.38,1.3-61.76,0-46,0-93,.05-139.52-.05-9.8-.24-18.68,2.57-27.39a58.38,58.38,0,0,1,4.21-9.63,56,56,0,0,0-6.5,25.26l0,46.6.14-.06c0-10.35,0-20.72.07-31,0-5.09,0-9.85,0-14.33l.36-6c.32-1.92.56-3.79.92-5.58A51.75,51.75,0,0,1,45.89,45.6,59,59,0,0,1,60.35,30.33,55.67,55.67,0,0,1,89.09,19.61c3.48-.26,7.68-.26,12-.25l13.09,0,26.84,0c17.67,0,34.2.08,45.47.37,8.47.22,1.37.56,1.37.84H270.4V15.77h-.53q-2.63-.06-4-.16c-1.89-.14-2.17-.35-.89-.64,2.31-.51,3.55-1,5.51-1.62l6.31-.09c3.39,3.22,5.36,4.86,4.48,3.45l40.83,40.64-.55-.47,60.57,60.48c.35-.35,7.37,6.59,12.52,11.53l23.88,23.23c2.51,2.35,3.94,4.67,6,7,.52.61.81,1.12,1.22,1.68.12.73.09,1.56.14,2.34l.19,4.75.19,4.78c0,.78.11,1.64,0,2.35l-1.62.18v2.29l1.73-.32,1.53-.28c.39-.2,1.33.11,1.06-.71l-.14-3.49-.27-6.9c-.21-2.16.19-4.9-.93-6.14l-4.65-6.74-6.77-6.65-5.65-5.58L404.83,135l-17.76-17.74-3.72-5.28-4.4-5.86c8,8,18.18,17.69,27.66,27.91,1.43,1.54,7.06,7.09,8.69,8.56l8.35,7.74,1.91,1.75c.47.56.76,1.08,1.13,1.59l1.9,2.77,1.76,2.69a4.58,4.58,0,0,1,.74,1.5,4.42,4.42,0,0,1,.34,1.91c.16,3.24.3,7.27.4,12.34l0,2.3,0,1.19c.11.49-.56.28-.8.45l-4.22,1-2.26.53v2.12l-.05-2.11h-.05c-.06,8.14-.11,16.21-.17,24.44q0,78.05,0,156.17a49.14,49.14,0,0,1,18.18-4.31,50.19,50.19,0,0,1,23.13,4.67A47.73,47.73,0,0,1,483,375c1.93,2.35,6.33,8.74,7.94,13.43a47.28,47.28,0,0,1,2.9,13.09A53,53,0,0,0,491.91,393.92Zm-51.58,92.21a42.25,42.25,0,0,0,4.09-3.93c4.05-4.64,7.47-9.4,10.86-13.37l6.68-7.62,4.12-4.48.36-.71L454,469.76c-3.74,4.39-7.56,9.59-12.37,14.71ZM358.41,171.84l-9.73.15,12.57.14,15.53-.42c-6-.32-18.95-.28-31.71.11l13,0Zm30.46-13,10-.07c1.5,0,1.15-.05,1.19-.07l0-.06,0-.08s0,0,.07,0,.31-.09.3-.49c0,0,0,0,0-.1l-.83-.88-1.85-1.94-4.27-4.41-9.14-9.36.45.71a84.83,84.83,0,0,1-6.53-5.57c-6.2-6-12.66-12.49-18.74-19.05-4.32-4.66-11.61-12-18.39-19l2.45,1.32c-19.35-19.59-10.88-12.32-9.58-12l-21-20.8C302.6,56.49,291.49,45.48,282.78,36L272.78,26l-.09-.11c.28,12.69,1.07,6.35,1.37,19.46.13-5.52.22-9.22.32-13.75.28,4.52.49,9.87.95,7.25.36-2,.82,6.51,1.25,9.34.17,1.14.38-1.18.57-.55a15.07,15.07,0,0,1,.63,4.8c.1,7.33.81,10.77.3,22.32,0,1,0,3.8,0,5.44,0,9.44.1,18.64.14,27.83v3.45l.12,2.74a31.28,31.28,0,0,0,.5,5.3,49.49,49.49,0,0,0,2.73,10.36,46.45,46.45,0,0,0,35,28.32,58.43,58.43,0,0,0,8.69.74l11.27,0ZM274.53,83.67c0-2.43.06-4.9.1-7.35l-.2-.94-.15,22.46-.08,11.23v2.79l.11,2.35a29.4,29.4,0,0,0,.39,4.68l.44,1.82c0-1.68-.26-3.09-.26-5l-.19-4.28v-5.15c0-3.45,0-6.91,0-10.34C274.59,91.81,274.56,87.76,274.53,83.67ZM271.9,24.3l.3-.06h0l-.32,0ZM272,25l.48,3.19.06-2.54Zm147.76,146.5h-1.13c0,.1,0,.19,0,.29A5.26,5.26,0,0,0,419.77,171.54Zm-24.76.13c.13,0,.19.11.33.11l15.65,0,.41,0v-.24l-13,0Zm23.63,6.92a14.62,14.62,0,0,0,1.52-.27l1.3-.24c0-.83,0-1.67,0-2.5l-2.8.32C418.64,176.8,418.64,177.7,418.64,178.6ZM271.33,20.48h5.16l-5.12.25.2,1.31a10.06,10.06,0,0,1,1.68-.32,31.64,31.64,0,0,1,2.59,2.22l7.59,7.39c6.4,6.33,14.6,13,12.72,10.44-2.72-3.78,7.15,5.14,19.54,17.62L336.4,80.13c1.5,1.49,3.21,3,4.24,3.82,3.75,3.17,17.27,16.11,24.65,23.65,1.44,1.47,3.27,3.37,3.94,4.14,4.63,5.31,4.54,5.23,12.08,12.2l-10-11.92c-1.11-1.35-.68-1.22-1-1.77l14.05,14.09,4.56,4.79,28.36,28.26c1,1.17,2.54,2.08,3,3.45l.16,4.7.17,4.71,0,.72a2.26,2.26,0,0,0,.7-1.35c0-.46,0-.86,0-1.33a7.6,7.6,0,0,0-.32-1.59l-.1-3.84a8,8,0,0,0-.23-2.36L388.22,128,319.85,59.83q-16.43-16.35-26.66-26.66l-12-11.87-5.52-5.48-5.07-.05ZM42.43,119.86c.05,2.26.11,4.55.16,6.83.13-6.09.36-11.34.37-18.44C43,98,43,87.53,43,77a52,52,0,0,1,5.86-25.46,50.86,50.86,0,0,1,21.71-21.4A49.89,49.89,0,0,1,88.25,25l2.36-.31c-19,.74-37,13.42-44.17,31.15a55.33,55.33,0,0,0-3.56,13.77c-.15,2.51-.35,4.47-.35,7.45l0,8.56ZM100.11,501c-4.57-.17-10.43.16-17-1.13a60.8,60.8,0,0,1-21.12-8.13c-10.76-6.35-20.18-17.68-25-31.05A57.71,57.71,0,0,0,49.43,481.7l.57.7a63.18,63.18,0,0,1-6.54-8,62.4,62.4,0,0,1-7.93-17.07,57.85,57.85,0,0,0,10.62,21.08,58.6,58.6,0,0,0,10,10,59.75,59.75,0,0,0,21.21,10.55C84.77,501,92.24,501.17,100.11,501Zm287-5.54c-.15-.11-.34-.21-.49-.32l-.05,0c-.72.35-1.42.76-2.15,1.07a60,60,0,0,1-14.78,3.93,111.3,111.3,0,0,1-15.48.61l-62.76.06-125.5.13-10.19.06a7.32,7.32,0,0,0,1,.11l200.34.15c10.17.19,20.42-1,29.6-5.5C386.82,495.59,387,495.49,387.12,495.41Zm-40.76-63.12c3.06,3.94,10.23,12,17.55,19.72l-7.21-8.11-.13-.22,5.47,6c-3.54-4.13-5.53-6.55-6.81-7.94Zm62.45-67.85c.08-16.11.17-34.39.26-52.22l.81,8.12c.14-84,1-50,1.71-46.58-.07-32.15-.14-61.48-.2-90.22,0-.62,0-1.26,0-1.88a67.49,67.49,0,0,1-8-.44c-.44-.09-1.61-.17-3.22-.25l-3.79-.24-8.44-.48c-1.49-.11-2.31-.27-1.61-.39,1.49-.25,4.17-.49,5.42-.63l13.27-.13c2.08-.07,4.29,0,6.44,0v-2.74l-52.08.56-11.25,0-22.94-.15a69.42,69.42,0,0,1-24.29-4.74,46.24,46.24,0,0,1-7.78-4.06,28.51,28.51,0,0,1-3.32-2.91,71.56,71.56,0,0,1-8.89-7.32l2.87,2.28a62.9,62.9,0,0,1-15.5-19.55,61.55,61.55,0,0,1-6.33-22.91l-.44-1.43c-.38-5.45-.11-10.37-.16-18.18l.12,4c.32-.24.61-2.24.81,0,.24,1.79.1,8.45.48,13.46a35.51,35.51,0,0,0,1.39,9c.24.52.83,2.47,1.51,4.8s1.88,4.93,2.72,6.94c2.44,4.8,3.59,6.19,4.13,6.5s.36-.41.75-.25.14-.48.21-.84a54.15,54.15,0,0,1-3.54-7.84A57.37,57.37,0,0,0,276.95,146l-.76-.47a54.94,54.94,0,0,0,3.91,5A53.12,53.12,0,0,0,295.57,162c6.15,2.85-6.84-4.33-13.78-13.22a58.36,58.36,0,0,1-13.61-39.66c0-6.27.07-12.55.11-19.2l.11,15.31c0,5.23,0,10,.76,14.66l.14,0a68.07,68.07,0,0,1-.57-9.5c0-6.68,0-11.64.33-15.8.26-3.82.3-10.11.25-18.7-.06-10.38-.33-24.67.25-32.06.22-2.78.56-.45.84-.45V24.74l-1.4-.05c.39,0,1.12-.06,1.4-.09V24c-1.11-.09-2.45-.19-2.94-.29s-.67-.22-.07-.34c.3-.06.76-.12,1.4-.19.37,0,1.15-.1,1.61-.14V20.78l-36.56,1.79,17.73.14c-52.82.2-26.61,1.11-69.83,1.43l41.94.32c-13.79.28-30.1.49-22.11.95,6.25.36-19.85.82-28.47,1.25-3.48.17,3.59.38,1.68.57a135,135,0,0,1-14.64.63c-22.21.13-33.14.75-67.75.37a49.3,49.3,0,0,0-12.62,1.95A48,48,0,0,0,54.09,49.69a44.5,44.5,0,0,0-6.29,14.86c-1.23,5.42-1.33,10-1.28,17.73-.08,28-.16,56-.25,84.58,0,36.25-.09,77.77-.13,116.58.08,45.94.17,91.35.25,137.29v19.9a51.52,51.52,0,0,0,2.42,15.2A47.86,47.86,0,0,0,67,480,48.81,48.81,0,0,0,81,486.35a54.28,54.28,0,0,0,7.54,1.48c2.6.1,4.89.33,8.54.26H137l30.49-.07c51.53-.43,118.14-.26,159.14.29l34,.22a53,53,0,0,0,15.77-2.26c.16,0,.3-.13.46-.18-2-2.2-3.93-4.36-5.68-6.36L358.85,465.9l-23.39-26.52a49.58,49.58,0,0,1-3.59-4.94,52.69,52.69,0,0,1-2.82-5,56.73,56.73,0,0,1-3.91-10.72,50.52,50.52,0,0,1,18.48-52.79c4.92-3.91,15.41-9.54,24.59-10.59l-.93,0a36.65,36.65,0,0,1,9.46-1.59,49.56,49.56,0,0,1,28.6,8.27C406.42,362.63,407.58,363.51,408.81,364.45Zm13.47-2.58q0-12.22-.1-24.74c-.26-56.26-.49-106.59-.72-156.08l-2.83.67c0,26.93,0,54,0,80.79,0,6.44.18,13.28.3,17.39.34,12,.68,51.53.75,83.24C420.56,362.66,421.43,362.29,422.29,361.87ZM392.18,466c5,6,9.88,10.6,14.16,12.06,3.54,1.17,5.71.63,6.55.24a11.66,11.66,0,0,0,4.28-3.61c.13-.21-1,.21-2.17.46a13.26,13.26,0,0,1-7.75-.15c-2.42-.75-5.74-3.17-9.14-6.78-5.32-5.81-6.44-7.08-4-3.5.71,1-.09.37-.2.48l-6-7c-2.42-3-4-5.13-5.46-7.1l-18.44-19.9c-.95-1-2-2.16-2.46-2.53-4.4-3.9,4.36,7.42,14.26,18.63C381.28,453.43,387,459.74,392.18,466Zm-43.68-69.2a64.11,64.11,0,0,1,4-8.15,22.84,22.84,0,0,1,5.39-6.66c1-1.18,5.67-3.7,7-4.13,8.81-3.09,18.79-2.62,25.61.76a33.71,33.71,0,0,0-4.24-2.69,36.89,36.89,0,0,0-4.12-2,36,36,0,0,0-17.6,2c-7.72,3.08-11.83,7.33-15.48,12.81a32.36,32.36,0,0,0-2.51,29.92,18.86,18.86,0,0,0,2.18,3c.33.35.19-.21-.17-1.13-1.3-2.83-2.35-8.36-2-9.11C346.82,410,346.21,401.86,348.5,396.81Zm116.74,27.52a25.48,25.48,0,0,0,3-4.51c1.61-3.56,1.34-4.74.67-3.87s-2.22,3.63-5.42,6.95c-5.07,5.34-10.39,11.23-15.61,17.07L440,448.81l-3.93,4.41-4,4.84c-2.63,3.26-5.06,6.42-7.39,9l-.64,1c3.9-3.74,7.87-8.69,12.77-14.07l13.82-14.16,1.54-1.87L451,440Zm-323-170.9,2-1.57-.81-.11c2.43-.15,1.22-.83,3.21-1.07l-1.93-.24c.63-.21,1.38-.37,1-.71s.91-.61,1.31-.93c.16-.13-.17-.29-.08-.43a.82.82,0,0,1,.67-.48c1-.07,1.51-.61,3.13-.23a3.78,3.78,0,0,0,.76,0,52.11,52.11,0,0,1,7.79.08c1.67.12,3.57.12,5.36.1,2.11,0,4.2-.16,6.31-.19,2.44,0,4.89,0,7.33,0a11.82,11.82,0,0,0,1.4-.05,24,24,0,0,1,7.32.22,33.16,33.16,0,0,0,3.4.27l-.11-.14a2.89,2.89,0,0,1,1.2-.52,12.87,12.87,0,0,1,3.75.14c.89.18,2.34.2,3.71.31l-.37.61c3.86.1,2.3.74,2.14,1.28,1.48-.06,2.83-.17,4.15-.15a34.09,34.09,0,0,1,6.05.33c.4.08,1.42,0,2.06,0s1.18.18,1.77.27l-1,.34c1.23.24,1.87.56.72,1-.26.09,0,.27,0,.4-.15.36-.67.74-3.09.82-1.26,0-2.74.84-2.29,1.23.64.56-1.22,1.08-3.68,1-1.37,0-2.75,0-4.11,0a2.16,2.16,0,0,0-.8.23,16.06,16.06,0,0,1-4.79.56,3.91,3.91,0,0,1-.8-.1c-1-.36-1-.36-2.41,0,.76.35,1.53.67,2.17,1,.24.13.19.29.27.43-.93,0-1.86,0-2.79,0-.32,0-.63-.12-.93-.11l-11.54.18c-.16,0-.32,0-.47,0,0,0,0,.08,0,.08l9.21.11c.94,0,1.89,0,2.83-.05,1.87,0,2.41.12,2.16.69l2.67-.26c.56,0,1.14-.1,1.72-.11a70.5,70.5,0,0,0,7.47-.56c.8-.09,1.88-.07,2.83-.09,1.48,0,3-.07,4.44-.14,2.32-.11,3.23.09,2.78.61a9.58,9.58,0,0,0-.77,1.22c-1.12,0-1.85.24-1.57.62l-8.06.16.17-.07a10.46,10.46,0,0,0-1.2-.14c-2.72,0-5.44,0-8.16,0-.36,0-.73,0-1.08,0-1.4-.07-1.8-.06-1.65.2.29.47-1.28.52-2.37.64-2.87.32-6,.47-9.05.66-2.46.15-5.08.13-7.43.37-.45,0-1,0-1.58,0-2.17,0-4.24-.27-6.49-.11a3.58,3.58,0,0,1-1.16-.19c-.32-.17-.38-.36-.58-.57l-1.54-.09.49-.18c-1.26.05-2.32.13-3.37.12s-2.06-.12-3.21-.19l-.2.28-2.52,0,.56-.09c0-.24-.31-.46,0-.61a7.56,7.56,0,0,1,1.87-.22c.73,0,1,0,1.25-.22a8.08,8.08,0,0,1,1.72-.39c1.49-.31,1-.73,1.09-1.11,0-.14,0-.27-.09-.46l-1.24-.18,2-.25L161,257a7.47,7.47,0,0,0,.92,0,27.52,27.52,0,0,0,2.8-.85c1-.41-1.17-.93-2.84-1-2.11-.06-4.27,0-6.41,0-.88,0-1.76,0-2.69-.08l4.29-.17s0-.07,0-.11c-.48,0-1-.05-1.43-.05a6.45,6.45,0,0,1-2.21-.24,8,8,0,0,0-2.62-.19c-1.45,0-3.46.25-4.49-.19-.39-.17-.06-.42-.06-.63Zm29.89,4,1.83,0,0,0-1.36.12c.92.06,1.44.14,1.76.11.78-.08,1.46-.21,2.18-.31A12.65,12.65,0,0,0,172.11,257.42Zm-21.32-7,6.3.23.31-.12a2.7,2.7,0,0,0-.85-.28c-.94,0-1.92,0-2.89,0-.58,0-1.14.06-1.72.06-.34,0-.69,0-1-.07Zm17.87,17.47a12.47,12.47,0,0,1,1.5.46l4.55-.49a2.21,2.21,0,0,0,.59-.13c1-.54-1.42-1.23-3.93-1.22-2.76,0-5.55-.06-8.3-.15-1.15,0-1.77,0-2,.25a15.46,15.46,0,0,0-1.56,1.63c-.07.09.35.23.72.31a31.44,31.44,0,0,0,5.94.12c1.53,0,1.73-.15,1-.45-.22-.09,0-.23,0-.35A12.73,12.73,0,0,1,168.66,267.89Zm23.84-5.52c-1.06,0-2.4.11-3.52,0a24,24,0,0,0-4,.19c-2,.15-4,.25-6.29.38a5,5,0,0,0-.76.47c-.1.09,0,.21.23.29.65.25,1.84.47,2,.73.31.53,2.06.36,3.26.45a3.31,3.31,0,0,0,2-.28,7.71,7.71,0,0,1,1.82-.7,7,7,0,0,1,1.71-.08,28.49,28.49,0,0,0,5.51.1c-.37-.28-.72-.52-1-.77S192.79,262.65,192.49,262.37Zm-45.64,4.51a5.7,5.7,0,0,0-1.26.13c-1.9.45-1.06,1.21,1.31,1.55a72.71,72.71,0,0,0,7.82.27c.69,0,1.4,0,2.1,0l.23-.13-6.6-1.38-.41.07.4-.33C149.18,267,148,266.92,146.85,266.88Zm3.51,35.33h-8.15l3.92-1.57-1.63-.11c4.86-.15,2.45-.83,6.42-1.07l-3.86-.24c1.27-.21,2.77-.37,2-.71-.57-.27,1.82-.61,2.62-.93.32-.13-.33-.29-.15-.43a2,2,0,0,1,1.35-.48c2.05-.07,3-.61,6.26-.23a15.08,15.08,0,0,0,1.53,0c5.29-.19,10.32-.12,15.58.08,3.33.12,7.15.12,10.72.1,4.22,0,8.4-.16,12.62-.19,4.87,0,9.78,0,14.67,0,.94,0,2,0,2.8-.05a95.32,95.32,0,0,1,14.63.22c1.58.17,4.49.18,6.79.27l-.23-.14a9.42,9.42,0,0,1,2.4-.52,51.22,51.22,0,0,1,7.49.14c1.78.18,4.68.2,7.42.31l-.75.61c7.72.1,4.6.74,4.28,1.28,3-.06,5.65-.17,8.29-.15,4.13,0,8.51,0,12.11.33.8.08,2.83,0,4.12,0s2.37.18,3.54.27l-2.08.34c2.47.24,3.74.56,1.44,1-.53.09.07.27,0,.4-.3.36-1.33.74-6.17.82-2.52,0-5.48.84-4.59,1.23,1.29.56-2.44,1.08-7.37,1-2.73,0-5.49,0-8.22,0a7.83,7.83,0,0,0-1.6.23,62.88,62.88,0,0,1-9.58.56,15.34,15.34,0,0,1-1.6-.1c-2-.36-1.94-.36-4.81,0,1.53.35,3.06.67,4.35,1,.49.13.38.29.54.43-1.86,0-3.73,0-5.58,0-.64,0-1.26-.12-1.85-.11l-23.08.18c-.32,0-.63,0-.94,0,0,0,.05.08.09.08l18.42.11c1.88,0,3.77,0,5.67-.05,3.74,0,4.81.12,4.33.69l5.34-.26c1.11,0,2.28-.1,3.44-.11,5.39,0,10.2-.27,14.93-.56,1.6-.09,3.75-.07,5.65-.09,3,0,6-.07,8.88-.14,4.65-.11,6.45.09,5.56.61a12.24,12.24,0,0,0-1.55,1.22c-2.24,0-3.7.24-3.13.62l-16.13.16.34-.07c-.8,0-1.59-.14-2.4-.14q-8.16,0-16.32,0c-.72,0-1.47,0-2.15,0-2.8-.07-3.6-.06-3.29.2.57.47-2.56.52-4.74.64-5.75.32-11.94.47-18.1.66-4.92.15-10.15.13-14.86.37-.91,0-2.1,0-3.15,0-4.34,0-8.48-.27-13-.11a13.74,13.74,0,0,1-2.31-.19,3.8,3.8,0,0,1-1.16-.57l-3.08-.09,1-.18c-2.51,0-4.65.13-6.74.12s-4.13-.12-6.42-.19l-.39.28-5,0,1.12-.09c-.07-.24-.63-.46,0-.61a29.62,29.62,0,0,1,3.75-.22,6.88,6.88,0,0,0,2.5-.22,30.47,30.47,0,0,1,3.44-.39c3-.31,2-.73,2.18-1.11.07-.14-.1-.27-.18-.46l-2.47-.18,4.09-.25-.24.24c.63,0,1.58,0,1.83,0,2-.28,4.12-.54,5.61-.85,2-.41-2.33-.93-5.68-1-4.23-.06-8.55,0-12.83,0-1.76,0-3.52,0-5.38-.08l8.59-.17s0-.07,0-.11c-1,0-1.9-.05-2.85-.05a25.24,25.24,0,0,1-4.43-.24,31.46,31.46,0,0,0-5.24-.19c-2.91,0-6.92.25-9-.19C149.71,302.68,150.37,302.42,150.37,302.21Zm51.63,4,3.66,0,.08,0-2.73.12c1.83.06,2.89.14,3.52.11,1.55-.08,2.91-.21,4.35-.31A50.28,50.28,0,0,0,202,306.2Zm-42.64-7,12.59.23.63-.12a9.54,9.54,0,0,0-1.7-.28c-1.89,0-3.85,0-5.77,0-1.15,0-2.28.06-3.43.06-.68,0-1.37,0-2.06-.07Zm35.74,17.47c1.3.13,2.17.32,3,.46l9.1-.49a8.44,8.44,0,0,0,1.19-.13c2-.54-2.84-1.23-7.86-1.22-5.53,0-11.1-.06-16.59-.15a12.83,12.83,0,0,0-4,.25,29.49,29.49,0,0,0-3.11,1.63c-.15.09.7.23,1.44.31,3.66.36,7.9.13,11.89.12,3.06,0,3.46-.15,2-.45-.44-.09-.08-.23-.08-.35C193.06,316.65,194.49,316.6,195.09,316.66Zm29.41-3a12.66,12.66,0,0,0,4-.28,26.46,26.46,0,0,1,3.65-.7,28.05,28.05,0,0,1,3.42-.08c3.91.38,7.84.08,11,.1-.74-.28-1.44-.52-2-.77s-1.18-.54-1.78-.82c-2.12,0-4.79.11-7,0-3.26-.11-5.43.09-8.08.19-4,.15-8.1.25-12.57.38a13.93,13.93,0,0,0-1.52.47c-.19.09,0,.21.45.29a28.17,28.17,0,0,1,4,.73C218.61,313.77,222.12,313.61,224.51,313.7Zm-73,2a22.85,22.85,0,0,0-2.52.13c-3.79.45-2.11,1.21,2.62,1.55,5,.36,10.44.18,15.65.27,1.38,0,2.8,0,4.2,0l.47-.13-13.21-1.38-.81.07.81-.33C156.15,315.77,153.84,315.69,151.49,315.66Zm137.05,44.69-3.92,1.57,1.63.11c-4.86.15-2.45.83-6.42,1.07l3.86.24c-1.27.21-2.77.37-2,.71.57.27-1.82.61-2.62.93-.32.13.33.29.15.43a2,2,0,0,1-1.35.48c-2.05.08-3,.61-6.26.23a15.08,15.08,0,0,0-1.53,0c-5.29.19-10.32.12-15.58-.08-3.33-.12-7.15-.12-10.72-.1-4.22,0-8.4.16-12.62.19-4.87,0-9.78,0-14.67,0-.94,0-2,0-2.8.05a95.51,95.51,0,0,1-14.63-.22c-1.58-.17-4.49-.18-6.79-.27l.23.14a9.52,9.52,0,0,1-2.4.52,51.23,51.23,0,0,1-7.49-.14c-1.78-.18-4.68-.2-7.42-.31l.75-.61c-7.72-.1-4.6-.74-4.28-1.28-3,.06-5.65.16-8.29.15-4.13,0-8.51,0-12.11-.33-.8-.08-2.83,0-4.12,0s-2.37-.18-3.54-.27l2.08-.34c-2.47-.24-3.74-.56-1.44-1,.53-.1-.07-.27,0-.4.3-.36,1.33-.74,6.17-.82,2.52,0,5.48-.84,4.59-1.23-1.29-.56,2.44-1.08,7.37-1,2.73,0,5.49,0,8.22,0a7.78,7.78,0,0,0,1.6-.23,62.89,62.89,0,0,1,9.58-.56,15.34,15.34,0,0,1,1.6.1c2,.36,1.94.36,4.81,0-1.53-.35-3.06-.67-4.35-1-.49-.13-.38-.29-.54-.43,1.86,0,3.73,0,5.58,0,.64,0,1.26.12,1.85.11l23.08-.18c.32,0,.63,0,.94,0,0,0-.05-.08-.09-.08q-9.21-.06-18.42-.11c-1.88,0-3.77,0-5.67.05-3.74,0-4.81-.12-4.33-.69l-5.34.26c-1.11,0-2.28.1-3.44.11-5.39,0-10.2.28-14.93.56-1.6.1-3.75.07-5.65.1-3,0-6,.07-8.88.14-4.65.11-6.45-.09-5.56-.61A12.14,12.14,0,0,0,144,355c2.24,0,3.7-.24,3.13-.62l16.13-.16-.34.07c.8,0,1.59.14,2.4.14q8.16,0,16.32,0c.72,0,1.47,0,2.15,0,2.8.07,3.6.06,3.29-.2-.57-.47,2.56-.52,4.74-.64,5.75-.32,11.94-.47,18.1-.66,4.92-.15,10.15-.13,14.86-.37.91,0,2.1,0,3.15,0,4.34,0,8.48.27,13,.11a13.74,13.74,0,0,1,2.31.19,3.8,3.8,0,0,1,1.16.57l3.08.09-1,.18c2.51,0,4.65-.13,6.74-.12s4.13.12,6.42.19l.39-.28,5,0-1.12.09c.07.24.63.46,0,.61a29.6,29.6,0,0,1-3.75.22,6.88,6.88,0,0,0-2.5.22,30.45,30.45,0,0,1-3.44.39c-3,.31-2,.73-2.18,1.11-.07.14.1.28.18.47l2.47.18-4.09.25.24-.24c-.63,0-1.58,0-1.83,0-2,.28-4.12.54-5.61.85-2,.41,2.33.93,5.68,1,4.23.06,8.55,0,12.83,0,1.76,0,3.52,0,5.38.08l-8.59.17s0,.07,0,.11c1,0,1.9.06,2.85.05a25,25,0,0,1,4.43.25,31.51,31.51,0,0,0,5.24.19c2.91,0,6.92-.25,9,.19.78.17.13.42.13.63Zm-59.78-4-3.66,0-.08,0,2.73-.12c-1.83-.06-2.89-.14-3.52-.11-1.55.08-2.91.21-4.35.31A50.3,50.3,0,0,0,228.76,356.37Zm42.64,7-12.59-.23-.63.12a9.54,9.54,0,0,0,1.7.28c1.89,0,3.85,0,5.77,0,1.15,0,2.28-.05,3.43-.06.68,0,1.37,0,2.06.07Zm-41.17-16.09c5.53,0,11.1.06,16.59.15a12.83,12.83,0,0,0,4-.25,29.49,29.49,0,0,0,3.11-1.63c.15-.09-.7-.23-1.44-.31-3.66-.36-7.9-.13-11.89-.12-3.06,0-3.46.15-2,.45.44.09.08.23.08.35-1.05,0-2.49,0-3.08,0-1.3-.13-2.17-.32-3-.46l-9.1.49a8.44,8.44,0,0,0-1.19.13C220.41,346.6,225.22,347.29,230.24,347.29ZM188,351.42c2.12,0,4.79-.11,7,0,3.26.11,5.43-.09,8.08-.19,4-.15,8.1-.25,12.57-.38a13.93,13.93,0,0,0,1.52-.47c.19-.09,0-.21-.45-.29a28.18,28.18,0,0,1-4-.73c-.62-.53-4.12-.36-6.51-.46a12.66,12.66,0,0,0-4,.28,26.46,26.46,0,0,1-3.65.7,28.05,28.05,0,0,1-3.42.08c-3.91-.38-7.84-.08-11-.1.74.28,1.44.52,2,.77S187.39,351.14,188,351.42Zm91.27-4.51a22.85,22.85,0,0,0,2.52-.13c3.79-.45,2.11-1.21-2.62-1.55-5-.36-10.44-.18-15.65-.27-1.38,0-2.8,0-4.2,0l-.47.13,13.21,1.38.81-.07-.81.33C274.61,346.8,276.92,346.87,279.27,346.91Z"/></svg>