<svg id="Layer_1" data-name="Layer 1" xmlns="http://www.w3.org/2000/svg" viewBox="0 0 512 512"><defs><style>.cls-1{fill:#707070;}</style></defs><title>note-1-handdrawn</title><path class="cls-1" d="M63.05,73.1c-.33.68-.59,1.42-.91,2.11-.39.86-.81,1.62-1.17,2.53C61.66,76,62.35,74.54,63.05,73.1ZM73.42,85.37A48.86,48.86,0,0,1,96.7,57.57a59.56,59.56,0,0,1,9.06-3.81c3.91-1.18,4.44-1.56,2.35-1.19a42.91,42.91,0,0,0-12.95,4.36A50,50,0,0,0,76.82,73.66a47.6,47.6,0,0,0-6.22,13.74,52.34,52.34,0,0,0-1.56,7.77c-.18,2.78-.39,5-.34,8.63-.07,58.37-.13,117.2-.2,175.13-.05,24.31,0,37.37.34,42.65.73,12.27,1.47,23.61,2.21,32.84.12,1.53.32-7.42.42-15.14.49-38.61.17-83.42.16-125.47,0-32.34-.2-36.54-.61-21-.12,4.64-.31.84-.47.89,0-11.13,0-26.23,0-32.56.27-13.69.45-22.9.62-31.66Q71.12,117,71,104.84a77.83,77.83,0,0,1,.38-10.34A48.21,48.21,0,0,1,73.42,85.37ZM207.63,485.77l26.6-.17c40-.61,22.31-1.65-27.69-2.11l-81.9-.32h-5.21l-4-.21a43.93,43.93,0,0,1-7.86-1.34A47.12,47.12,0,0,1,93,475.19a48.25,48.25,0,0,1-18.82-24.91,49.77,49.77,0,0,1-1.81-8.18,26.54,26.54,0,0,1-.37-4.23l-.12-2.13V433c0-7.42,0-14.88,0-22.29l-.18-4.93-.23,17.42-.12,8.71c0,1.39-.07,3,0,4.22l.12,3.39a47.6,47.6,0,0,0,9.06,25.2,45.11,45.11,0,0,0,9.46,9.84,46,46,0,0,0,11.85,6.86,48.19,48.19,0,0,0,13.34,3.32c4.07.42,10.76.34,16.34.46l8.56-.1-8.55.45ZM468.94,327.29l-.19,5.82-.41,11.39-.21,4.69c-.59,1.47-1.33,3-2,4.44l-2,4.27-.48,1c-.29.35-.7.7-1,1L460.59,362l-7.8,7.55-18.38,17.91.72-.45a86.29,86.29,0,0,1-5.65,6.65c-6.08,6.33-12.67,12.91-19.33,19.11-4.73,4.4-12.19,11.84-19.3,18.76l1.33-2.5c-19.87,19.73-12.5,11.1-12.2,9.77l-21.11,21.45c-10.59,10.58-21.76,21.9-31.33,30.79L316.61,502l-6.71,6.55-12-.24,11.7-.45.06-.07-.07.06-9.75-.27a31.12,31.12,0,0,1-3.51-.31c-.61-.11-.68-.22-.07-.35.3-.06.77-.13,1.43-.19s1.14-.13,3.07-.21c3-.13-.44-.36.21-.54.83-.24,2.69-.49,7.57-.69l6.72-7.11,7.5-7.74c6.42-6.53,13.22-14.88,10.58-13-3.84,2.78,5.21-7.29,17.87-19.92l21-21.12c1.51-1.53,3-3.27,3.88-4.32,3.21-3.83,16.34-17.6,24-25.13,1.49-1.47,3.42-3.34,4.2-4,5.39-4.72,5.31-4.63,12.37-12.31l-12.1,10.2a5.11,5.11,0,0,1-1,.72l-53.8,54.06c-17.86,18-30.09,30.17-36.94,36.82l-.28.29-6.5,6.57-7.26-.06c-1.78,0-3.15-.09-4.11-.16-1.92-.15-2.2-.36-.91-.65,2.35-.52,3.62-1.05,5.6-1.65l5.59-.09c2.93-3.12,4.21-4.75,3-4.09L349.1,451l-.81.95,6.27-6,41.83-41.92,5.52-5.54,1.58-1.55,6-6c1-1,1.16-1.35.7-1.1-1.92,1,6.05-7.06,11.52-12.77L443,355l4.37-4.52,1.09-1.12a11.21,11.21,0,0,0,.06-1.56l0-3.15,0-3.13a14.83,14.83,0,0,0,0-1.52l-1.61,0-6.38.09-50.73.5-11.44,0L355,340.52a55.19,55.19,0,0,0-21.64,4.22c-1.81.76-6.18,2.63-7.16,3.2a25.31,25.31,0,0,1-3.79,1.39,66.76,66.76,0,0,0-8.35,6.58l2.35-2.46a61.26,61.26,0,0,0-14.18,18.37A60.17,60.17,0,0,0,295.86,393l.31,1.38c-.4,4.8-.17,10.28-.27,18.09-.11-3.57-.16-5.05-.13-4.05-.33.24-.62,2.28-.83,0a133.32,133.32,0,0,1-.13-13.5c.21-5.14.94-7.27.77-8.81,0-.55.44-2.48,1-4.82s1.54-4.95,2.22-7c2-4.92,2.77-6.58,2.87-7.15s-.55-.12-.59-.54-.5.11-.88.24A58,58,0,0,0,296,375a61.71,61.71,0,0,1,7-13.51l-.26.9c1.42-1.86,3.49-4.73,4.18-5.38a65.88,65.88,0,0,1,15.33-14.3c3.07-2.18,1-1.33-3.19,1a59.17,59.17,0,0,0-14.21,11.93C294,367.84,288.35,385,288.89,401.18c0,6.38-.07,12.77-.11,19.53l-.12-15.57c0-5-.2-10.6.63-16.16h-.15a71.41,71.41,0,0,0-.81,11c0,6.79,0,11.83-.33,16.06-.27,3.89-.3,10.28-.26,19,.06,10.55.34,25.09-.26,32.61-.23,2.82-.57.46-.86.46v29.57l-2.13-14.22-.14,5.91c-.2-17.62-1.13-8.88-1.45-23.29-.13,5.62-.22,9.38-.33,14-.29-4.6-.5-10-1-7.37-.36,2.08-.83-6.62-1.27-9.5-.18-1.16-.39,1.2-.58.56a15.32,15.32,0,0,1-.65-4.88c-.1-7.45-.83-10.95-.31-22.7,0-1,0-3.86,0-5.53,0-9.6-.1-19-.15-28.3v-3.5l.19-4.21a56.12,56.12,0,0,1,1-8.57,75.91,75.91,0,0,1,4.87-16.68A82.83,82.83,0,0,1,297,349.5a77.28,77.28,0,0,1,44.25-25.81,85.69,85.69,0,0,1,13.89-1.37l11.46,0,53.22,0,10.17-.07,12.06-.13,6.89,0,3.5,0h0c0-2.14,0-4.26,0-6.42q0-86.11,0-172.29c0-7.59,0-15.51,0-22.74,0-14.85.35-24.31-.81-29.39-.83-5.19-1.6-6.29-1.26-4.75.24,3-.74-3.61-5.27-12.5-4.34-9-13.75-19.16-23.45-24.4a59,59,0,0,0-20.56-7c-7.13-1.07-15-.57-22.84-.62l-47.58.23L303,42.2c.12.9.25,1.8.33,2.65h1.85c28-.14,50.86-.41,85.31-.26A58,58,0,0,1,423,53.83a61.16,61.16,0,0,1,12.74,11.41A62.65,62.65,0,0,1,444,78.91a62.34,62.34,0,0,1,3,16.61c.09,5.22-.45,13.16-.78,20.81q0-6.3,0-12.95a65.86,65.86,0,0,0-.93-12.13,52.45,52.45,0,0,0-9.93-22.69,53.32,53.32,0,0,0-20.09-16.5,55.5,55.5,0,0,0-12.64-4.31,58.49,58.49,0,0,0-6.68-.9c-2.2-.15-4.48-.3-7.18-.29l-36.1.11c-15.91.28-29.66.61-38.48,1-3,.12-6.57.21-10.79.28,0,.17,0,.33,0,.5,0-.16-.08-.34-.11-.5h-.71c-.09,2-.46,2.34-.9,0l-4.42.05c0-.75.09-1.5.05-2.23,0-.29-.06-.58-.08-.87h2.82l-.07-.24c-.17-.62-.38-1.46-.62-2.41h-2.38a36.45,36.45,0,0,0-.92-4.37h2l-.13-.37H296a35.82,35.82,0,0,0-3.85-8.81c0,.06,0,.08,0,.18.46,2.47-3-3.44-9.65-9.14A40.21,40.21,0,0,0,270,12.44a10.33,10.33,0,0,0-2.77-.61c-1.22-.14-4.08-.63-7.29-.86a62.23,62.23,0,0,0-9.28.33c-1,.13-2.26.28-2.76.29-3.41.35-3.48.21-8,2.4a37.67,37.67,0,0,1,7.47-1c.83,0,.69.24,1,.38a39.92,39.92,0,0,0-8.74,2.85,30.61,30.61,0,0,0-2.81,1.25,38.49,38.49,0,0,0-19.31,31.08q0,.79,0,1.54c0-.06.11-.08.12-.15a38.07,38.07,0,0,1,12.26-26.66,39.36,39.36,0,0,1,7.42-5.51c5.43-2.87,7.34-2.79,6.77-1.94a37.19,37.19,0,0,1,8.3-2.09,31.91,31.91,0,0,1,5.55-.21,40.45,40.45,0,0,1,22.57,8.15,34.63,34.63,0,0,1,6.44,6.74,39.21,39.21,0,0,1,6.39,13.18,25.44,25.44,0,0,1,1.06,8c-.06,1.53-.29,1.9-.68,1.18a15.36,15.36,0,0,0-1.77-2.39c-.34-3.48-1.18-5.62-1.49-4.66a35.6,35.6,0,0,0-12.86-20.24l.48.24a33.61,33.61,0,0,0-2.83-2.3,35.52,35.52,0,0,0-23.74-5.54l-3.24.54c-4.19.89-5.26,1.59-4.71,1.68,1,.28-3.39,1.9-6,3.89a35,35,0,0,0-14.35,21.34,32.79,32.79,0,0,0,2.19,20.74c.65,1.11,1.24,2.7,2.09,3.94A31.2,31.2,0,0,0,240.64,80.6c.76.32,2.46,1.38,2.9,1.59a6,6,0,0,1,1.3,1.31,37.56,37.56,0,0,0,4.33,1.29,12.33,12.33,0,0,1-1.46-.09A41.3,41.3,0,0,0,267,83.9l.42-.55a30.5,30.5,0,0,0,6.67-3.19l-1.34,1c.24.24,1.11,0,.42.72a19.77,19.77,0,0,1-5,2.66c-2.06.84-3,1-3.56,1.41-.39.4-3.28,1.07-5.15,1.46-4.61.65-3.12,1.14-3.39,1.68-.11.19.16.36.29.62.3,0,1.66.08,4.1,0a38.07,38.07,0,0,1-6.8.53l.41-.31c-1,0-2.62-.17-3-.24a47,47,0,0,1-9.44-1.18c-3.43-.77,3.26,3,9.26,3.66a40.64,40.64,0,0,0,22.17-3.38,44.08,44.08,0,0,0,4.13-2.15,41.36,41.36,0,0,1-9.34,4.5l.05.14a45.94,45.94,0,0,0,4.83-1.71c3.07-1.39,5.2-2.68,7.13-3.6A27.19,27.19,0,0,0,287,79.81c3.68-3.89,7-10.39,8.73-13.79.7-1.27.62,0,.88.08a42.73,42.73,0,0,0,2.67-14.92,47,47,0,0,1,1.45,7.64l.6-3.15a64.16,64.16,0,0,0-.58,7c0,1,.26,1.92-1,5.76A50.53,50.53,0,0,0,302.35,61c-.33,2.58-1,5.64-.11,4.31.76-1-.42,3.89-.72,5.63-.13.69.66-.49.67-.07a5.61,5.61,0,0,1-.67,2.92c-2,4-2.4,6.4-7.42,11.52l-2.31,2.43a48.44,48.44,0,0,1-30.47,14.35,54.24,54.24,0,0,1-23.13-3,51.25,51.25,0,0,1-22.41-15.77,50.79,50.79,0,0,1-11.22-29.76c-.17-2.05,0-4.43,0-6.11l-1.17-.09c-3.16-.35-28.43-.65-42.1-1-4.42-.11-6.83-.28-4.77-.4l16-.64,32.17-.12c.07-.89.16-1.77.29-2.69l-50.67.13c-13.13.12-26.73-.15-39.14.32A57.79,57.79,0,0,0,82.67,56.11c-6.86,5.7-14.3,15.14-17.6,25.08-4,10-3.48,20.65-3.53,32.18,0,11.28-.07,22.52-.1,33.81,0,22.59,0,45.37,0,69.11,0,6.13-.14,20.92-.26,24.42-.23,6.68-.49,8.11-.78,12.2,0,9-.07,19.79-.12,32.55L60,275.12c.06,26.5.11,49,.16,71.16s-.17,43.57-.26,67.77l.38,4.13c0,3.77,0,7.55,0,11.45,0,2,0,3.94,0,6s.19,3.91.29,6a59.48,59.48,0,0,0,9.26,26.31A62,62,0,0,1,64.52,458c-.09.83,2.07,6-.75.35A56.84,56.84,0,0,1,59.6,443.1c-.86-7.1-.5-15.85-.61-23,0-15.37,0-21.93-.3-26.36-.21-3.24-.35-23.51-.52-36.29-.42-31.37-1-21.05-1.5-23-.18-.69-.37,1-.63,1.86,0,2-.1,10.57-.24,26.07-.13-16.81-.23-28.47-.34-43.15l.33,2.51c0-6.64,0-16.67,0-19.35l-1.16-59.18c-.56-20.9-1.26,24.63-1.32,59.93,0,44.67.06,90.33.1,135.56a66.79,66.79,0,0,0,7.86,28.54A68.83,68.83,0,0,0,81.55,490a65.86,65.86,0,0,1-26.7-39.09c-2-7.86-1.9-16.19-1.88-23.51l-.06-22.65-.15.06c0,10,0,20.1-.07,30.1a68.25,68.25,0,0,0,17.31,46A63.11,63.11,0,0,0,89,495.6a65.19,65.19,0,0,0,15.44,5.6,71.53,71.53,0,0,0,9.17,1.42c3.24.19,6.57.34,9.65.27,30.7-.06,73-.34,94.87.26,8.22.23,1.33.57,1.33.86h86l-41.38,2.13,17.2.14c-51.26.2-25.82,1.13-67.76,1.45l40.69.33c-13.38.29-29.21.5-21.46,1,6.06.36-19.26.83-27.63,1.27-3.38.18,3.49.39,1.63.58a125,125,0,0,1-14.2.64c-21.68.1-31.86.83-66,.31l-7.36,0a87,87,0,0,1-10.7-.82,75.46,75.46,0,0,1-44.45-22.83C52.29,476,45.21,459.82,43.44,443.21L43.12,437c-.11-2.18,0-3.53,0-5.34l0-10.2q0-10.2.05-20.44c.05-13.65.11-27.37.16-41.23,0-35.17.09-75.46.13-113.12-.08-44.58-.17-88.64-.25-133.22.06-6.54-.24-12.29.44-20.8a78.86,78.86,0,0,1,6.19-22.85,76.39,76.39,0,0,1,53.36-43.38c7.55-1.68,16.48-1.85,22.27-1.75h38.74l29.59-.07c5.82-.05,11.9-.09,18.07-.12a45.94,45.94,0,0,1,4.9-6.25,61.26,61.26,0,0,1,11.31-9.52l-.53.11a23,23,0,0,1,4.18-3.29A40.22,40.22,0,0,1,247.45.44a55.14,55.14,0,0,1,16.21.35l-1.72.57c8.25,1.27,10.39,2.89,10.58,3.19s-1.66.17-2.08.41a45.65,45.65,0,0,1,25.73,19.45c19.38.09,37.4.24,52,.45l33,.22,9.74,0c1.47,0,3.82.14,5.71.22a41.56,41.56,0,0,1,6,.59,71.65,71.65,0,0,1,22.22,6.75l-2.59-1.45,6.25,2.8,5.68,3.2a69.09,69.09,0,0,1,13.68,11.19,75.45,75.45,0,0,1,20.3,43,54.72,54.72,0,0,1,.46,6.12l.13,3.07v2.53l-.06,10-.19,19.93c-.1,18.8-.26,49.44-.42,78.29l-.82-7.88c-.14,81.47-1,48.55-1.74,45.2.06,27.41.12,52.66.18,77.32A16.71,16.71,0,0,1,468.94,327.29ZM47.29,439.07c-.21-3.41-.14-6-.14-8.78l.06-24.93L47,398.73c-.13,5.91-.37,11-.38,17.89q0,7.47,0,15.06v3.8l.2,4.42a65.52,65.52,0,0,0,1,8.88,72.57,72.57,0,0,0,49.26,55.94,77.71,77.71,0,0,0,12.39,2.79,47.14,47.14,0,0,0,6.34.6c2.19.14,4.24.21,5.94.19l2.77-.21c-5.11,0-12.21,0-18.43-1.29a70.56,70.56,0,0,1-18.36-6.09,71.93,71.93,0,0,1-40.52-61.66ZM128.41,37.71a134.72,134.72,0,0,0-16.93.37,60.45,60.45,0,0,0-21.86,6.85c-15,7.68-28.33,24.16-31.95,43.15a64.27,64.27,0,0,1,4.47-12.86A61,61,0,0,1,73.64,58a75.33,75.33,0,0,1,5.82-5.51l4.78-3.59a62.13,62.13,0,0,1,21.59-9.46C113.29,37.66,120.88,37.79,128.41,37.71ZM268.3,97a13.09,13.09,0,0,0,3.43-.68A45.23,45.23,0,0,0,282.3,91a51.59,51.59,0,0,0,5.48-4.41,39.75,39.75,0,0,0,3.07-2.9l.21-.54a47.6,47.6,0,0,1-21.57,13.34ZM218.22,58.5a28.73,28.73,0,0,0,5.54,13.39,38,38,0,0,1-2.89-5.24l0-.14A41.13,41.13,0,0,0,223,70.39a47.14,47.14,0,0,1-2.4-5.2A46.5,46.5,0,0,1,218.22,58.5ZM206,37.79l.06-.2-13.78,0-9.89.06a6.49,6.49,0,0,0,1,.11Zm96.75,7.06c-.06-.22-.07-.4-.13-.62,0,.22,0,.41,0,.62ZM283.86,385.77c-.42,2.32-1.19,4.3-1.28,7.08q-.14,3-.28,6v5.24c0,3.51,0,7,0,10.52,0,4.17.05,8.29.08,12.45,0,2.47-.07,5-.1,7.48l.21,1,.16-22.84.08-11.42,0-2.87L283,395a47.14,47.14,0,0,1,.64-6.6Zm123.68-50.41c-6.07-.32-19.27-.28-32.26.12l13.27,0,.31,0-9.89.16,12.78.15Zm47.95.38s0,0-.06,0q0,.92,0,1.84v-.45ZM453.7,88.23c1.06,7.15.66,8.72.18,6.2.78,21.93.44,38.92.68,56.39,0,11.75.1,24,.15,36.35.23,48.46.45,92.4.65,135.26l3,1c0-21.32,0-42.68,0-63.86,0-6.25-.19-12.89-.31-16.88-.43-14.48-.86-69.84-.77-101.07,0-6.1.11-13.9.13-16.91.24-10.4.36-15.51.37-21.82-.29-6.28.25-14.91-6.38-29.48a64.45,64.45,0,0,1,5.23,24.29c.08,8-.36,15.27-.52,22.08a23.71,23.71,0,0,1-.58,5.7c-.11-9.86.24-19.57-.25-29.57a62,62,0,0,0-9.17-28.25,62.66,62.66,0,0,0-12.82-15.22,64.24,64.24,0,0,0-27.66-13.64,74.45,74.45,0,0,0-15.42-1.43l-15.23,0-60.9.06H302l.11.38,75.68.06c9.84.15,20-.73,29.9,2A62.59,62.59,0,0,1,449,73.79a66.42,66.42,0,0,1,3.21,8.14Zm-1.32,247.53c0-.08,0-.16,0-.25l-.81,0c-6.93-.36-14.84-.25-22.1-.23l-3.4.06c.13,0,.19.11.34.11l17.47.05C446.41,335.87,449.89,335.34,452.38,335.76Zm-97.51,12a53.94,53.94,0,0,0-12.2,1.54,49.66,49.66,0,0,0-21.54,11.28c-5.15,4.56-7,7.85-7.68,9.17a36.88,36.88,0,0,0-2.48,8.9c0,.43,1.12-1.67,2.15-3.43,5.27-8.74,14.22-17.3,24.67-21.27,8.06-2.72,9.26-2.81,5.13-2.27-1.23.19-.3-.25-.35-.4a29.16,29.16,0,0,1,4.77-1,20,20,0,0,1,3.89-.43c3.4-.06,6.88.23,9.87.41l33-.67c1.7,0,3.6-.1,4.3-.17,7.13-.73-10.31-1.66-28.51-1.66ZM435.53,356c-1.5,1.66-7.13,7.41-8.69,8.86-10.38,9.68-20.16,20.05-28.32,28.21l6-4.49,5.36-3.8,18-18.11,5.84-5.79,4.52-4.62,5.49-5.85c1-.6.53-1.85.64-2.84v-4.67c-.07-.45-1-.11-1.4-.2l-3.27.06L422.7,343c-1.27.14-4,.39-5.51.64-.71.12.12.29,1.64.4l8.59.49,3.78.24a2.26,2.26,0,0,1,.84.25c.42.36,1.77.48,3.41.53l2.62,0h1.31c.5-.07.09.73.17,1a18,18,0,0,0-.05,3.25c-.11.76-.69,1.11-.78,1.56A23.29,23.29,0,0,1,435.53,356ZM304.87,464c0,2.88.08,6.93.17,9.14.61,13.75,1.65,7.67,2.11-9.52.49-18.28.25-37.87.36-56.76,0-2.5,0-5,0-7.59.07-2.35.16-4,.3-6.07l0-1.31c-1.08,5.29-1.07,14.11-1.45,22l-.94,24,.1,2.94-.45-2.94C305,447.12,304.95,455.48,304.87,464ZM281.15,83.85a48.36,48.36,0,0,1-4.07,2.7A41.56,41.56,0,0,0,281.15,83.85Zm-31.06-7.29c2.51.57,3.92.55,4.49.23a12.81,12.81,0,0,0,3.25-2.24c.13-.13-.74-.3-1.46-.35a30.75,30.75,0,0,1-11.25-2.77c-2.59-1.51-3-1.63-2-.49.32.33-.1.3-.18.44a16.56,16.56,0,0,1-2.55-1.89,13.44,13.44,0,0,1-1.76-2.58,23.71,23.71,0,0,1-5.34-7.49,6.55,6.55,0,0,0-.59-1.09c-1.17-1.9-1.13,3.64,2.37,8.19A26.49,26.49,0,0,0,250.08,76.56Zm-13.33-47.8c4-2.82,8.4-5.17,12.32-6.07-1-.1-2-.29-2.78-.31l-2.61-.23a40.89,40.89,0,0,0-8.05,5,24.4,24.4,0,0,0-6.75,8.44,31.18,31.18,0,0,0-3.7,16,17.88,17.88,0,0,0,.74,1.95c.13.24.28-.07.37-.6.14-1.67.71-4.65,1.08-5,.81-.67,1.2-4.88,2.55-7.47a27.49,27.49,0,0,0,1.9-4.44,13.58,13.58,0,0,1,1.94-4.18A16,16,0,0,1,236.75,28.76ZM279.13,61a16.29,16.29,0,0,0,.74-2.62c.34-4.14-.88-2.32-2.88,1.83-2.39,4.33-5.87,8.55-10.41,10.93a34.19,34.19,0,0,1-3.75,1.59,2.79,2.79,0,0,1-.38.32,23.91,23.91,0,0,0,12.1-5.8,4.14,4.14,0,0,0,.48-.72,5.24,5.24,0,0,1-.21,1A26.42,26.42,0,0,0,279.13,61Zm-150.8,148.1c1.56-2.37,2.92-4.46,4.56-6.69l-2.49,2.21c7.17-6.88,3-4.09,9.22-9.57-2.61,1.94-4.27,3.31-6.3,5,1.82-1.9,4.11-4.06,2.71-3.34-1.11.56,2.56-2.93,3.75-4.21.47-.52-.75.19-.53-.15a7.33,7.33,0,0,1,2-2.13c3.66-2.59,5-4.42,11.79-7.44l3.2-1.47c11.12-5.11,25-6.56,37.58-1.31,8,3.21,15,9.15,20,13.46,6.25,5.36,10.67,8,15.67,8.2,6.24.46,10.64-1.82,17.53-8.13l4-3.74c3.51-3.37,8.78-7.8,15.48-10.36a36.16,36.16,0,0,1,18.49-2,42.62,42.62,0,0,1,16.5,6.31l-.41-.42a27.32,27.32,0,0,1,5,2.78c4.45,3.24,8.08,6.66,11.26,9.38a29.25,29.25,0,0,0,9.3,5.56,9.14,9.14,0,0,1-1.17.27c5,1.73,6.8,1.58,7,1.95s-1.07.47-1.35.73a31.74,31.74,0,0,0,12.46-1.52c6.3-1.86,12.76-6,18-9.62,1.18-.82,3.93-3.21,5.7-4.75s3.3-2.79,4.88-4.28c-.77.94-1.55,1.86-2.5,2.91,3.45-2.94,5.31-4.48,2.6-1.12-.62.76.28.1.23.35-.18.59-1.14,2.45-8,8.24-3.57,3-7.68,6.55-6.11,6,2.27-1-3,3.93-11.55,7a38.55,38.55,0,0,1-14.52,2.26l-2.86-.07a23.12,23.12,0,0,1-7.37-1.54,33.28,33.28,0,0,1-8.65-4.78c-.86-.67-2-1.5-2.35-1.91a45.39,45.39,0,0,0-7.14-6l5.84,6.2c.65.69.38.68.53,1l-8.37-6.93c-1-.79-1.86-1.65-2.84-2.31a30.27,30.27,0,0,0-21.75-6.31c-7.89.67-14.6,5.43-20.06,10.47l-1.33,1.26c.07,0,.13,0,.19-.06,4.4-4,9.2-8,15.06-10a27.83,27.83,0,0,1,18-.1,34.18,34.18,0,0,1,9.89,5.23c5.87,4.45,7.19,6.07,6.16,5.85a102.59,102.59,0,0,0,8.33,6.22,52.59,52.59,0,0,0,5.8,3.26c9.52,4.47,19.51,3.61,27.86.37a69,69,0,0,0,9.75-4.67,88.22,88.22,0,0,0,13.68-10.19c6.6-6.06,9-8.62,8.23-7a29.5,29.5,0,0,0-1.25,3c-3.09,3.09-5.12,5.14-4,4.69-8,7.21-16.73,13.52-27,16.85l.63-.28c-1.53.48-3.09.8-4.67,1.15a37.31,37.31,0,0,1-31.07-6.78c-1.14-.86-2.36-1.72-3.38-2.6-4.22-3.56-5.36-4.56-5.08-4,.52,1.11-4.07-2.91-7.52-5a27.91,27.91,0,0,0-15.11-4.47,25.94,25.94,0,0,0-15.13,5.32c-7.21,5.18-13.77,14-23.45,18a30.13,30.13,0,0,1-6.62,1.85A31.85,31.85,0,0,1,221.72,214a42.29,42.29,0,0,1-12.05-6.61,38,38,0,0,1-3.48-3.06,10.89,10.89,0,0,1-1.37-1.91l-4.51-3.86,1.57,1a56.8,56.8,0,0,0-10.53-6.94,34.81,34.81,0,0,0-11.24-3.24l-.74.23a34.67,34.67,0,0,0-9.21.59l2-.43c-.15-.22-1.23-.27-.1-.61a27.19,27.19,0,0,1,7-.56c2.74.11,3.86.5,4.69.38a23.55,23.55,0,0,1,6.36,1.48c5.32,2.05,3.77,1.08,4.31.82.18-.06,0-.34-.08-.58a31.6,31.6,0,0,0-4.41-2.25,40.26,40.26,0,0,1,7.42,3.52l-.53-.05,3,2c3.35,2.06,6.7,4.68,9.11,6.26,3.13,2.18-2.64-3.68-8.13-7.85a39.05,39.05,0,0,0-25.21-8.1,48.7,48.7,0,0,0-11.09,1.89,41.32,41.32,0,0,1,17.88-1.82v-.11a35.12,35.12,0,0,0-6.07-.38,66.37,66.37,0,0,0-9.34,1,37.32,37.32,0,0,0-10.38,3.57c-5.54,2.55-12.05,7.48-15.58,9.77-1.33.86-.47-.17-.6-.34A129.18,129.18,0,0,0,128.33,209.09Zm105,2.43a16.59,16.59,0,0,0,3.56-.56,14.73,14.73,0,0,0,3.17-.95l.16,0a22.21,22.21,0,0,1-5,1.47,28.47,28.47,0,0,0,6.47-1.78,35,35,0,0,0,6.91-4.63C246,206.77,240.23,210.94,233.34,211.53Zm-78.64-26.42c8.26-4,18.22-6.4,28.15-5l1.49.13a18,18,0,0,0-4-.78,44.69,44.69,0,0,0-13.49,1.12,52.23,52.23,0,0,0-7.46,2.36c-1.45.54-2.87,1.11-4.26,1.75Zm54.87,30.61a60.91,60.91,0,0,0,6.82,3.68,42,42,0,0,0,7.54,2.71,36.93,36.93,0,0,0,23.54-3.69c1.07-.58,2.25-1.24,2.64-1.54,1.83-1.58.39-.74-3.35.82a41.44,41.44,0,0,1-16.37,3.2,37.23,37.23,0,0,1-19.65-6.13c-5.53-3.54-9.54-7.5-13.4-10.63-3.2-2.66-4.87-3.59-5.67-3.83a15.76,15.76,0,0,0-4.83-.67c-.22.06.8.49,1.67,1.13,4.4,2.52,9.8,7.49,16.92,13.05a35.75,35.75,0,0,0,5.42,3.5c.68.32.15-.12-1.31-1.19C208.67,215.48,209.5,215.83,209.56,215.72Zm90.55-15.09a47.81,47.81,0,0,0-10.38-6.81,21.71,21.71,0,0,0-13-1.33c-6.35,1.11-11.79,5.48-18.09,11.56-.44.54-1.42,1.68-1.92,2.38-.25.33.21.11.87-.38,2.14-1.59,5.61-4.45,6.18-4.54,1.23-.46,5.77-4.38,9-5.44a25,25,0,0,1,3.37-1c.89-.26,1.56-.51,2.16-.62s1.4-.36,2.34-.53,2-.13,3.19-.09l2.58.44,2.46.86c5.42,2.68,10.84,7.45,15.9,11.6l-2.61-3.2Zm-149.52,6.74c-1.11.85-2.62,2.17-3.4,2.92-4.8,4.92-2.07,3.2,4.59-1.67,7.1-5.06,15-9.33,22.28-10.15a29.93,29.93,0,0,1,5.75-.06,3,3,0,0,1,.64-.06c-5.83-1.29-12.51-.19-19.22,2.71l-1.15.7,1-.94A65,65,0,0,0,150.58,207.37Zm129,44.42c-1.81,1.9-2.94,3.21-2.19,3A106.58,106.58,0,0,1,262.68,267l.3-.29-2.48,1.41a54.79,54.79,0,0,1-18,7.32l-2.56.43c-3.38.28-4.34.22-4,.48.72.48-3.14.63-5.83.34A37.13,37.13,0,0,1,219.41,274a59.08,59.08,0,0,1-9.8-5.59c-4.86-3.37-9.44-7.42-14-9.95-.88-.45-2-1.24-3-1.71a30.47,30.47,0,0,0-13.16-4c-.62-.06-2.11-.19-2.47-.26a4.54,4.54,0,0,1-1.27-.57c-.94.07-2.06.08-3.38.24a9.16,9.16,0,0,1,1.05-.32,44.31,44.31,0,0,0-7.29,1.67,53.58,53.58,0,0,0-6.78,2.45l-.28.44c-1.44.71-2.92,1.41-5,2.69l1-.74c-.19-.17-.85,0-.32-.53a26.42,26.42,0,0,1,3.68-2.22,8.94,8.94,0,0,0,2.5-1.41,26.28,26.28,0,0,1,3.56-1.76c3.18-1.34,2-1.4,2.1-1.84,0-.15-.19-.25-.33-.4l-2.87.72a47.33,47.33,0,0,1,4.65-1.61l-.22.31,2.15-.48a53.45,53.45,0,0,1,6.7-1.55c2.48-.42-3-1.12-7.13-.26a51.11,51.11,0,0,0-14.9,5.39c-1.92,1-3.75,2.12-5.7,3.27a68.67,68.67,0,0,1,9.13-5.24l-.05-.1c-1.07.48-2.18.92-3.19,1.5-2.06,1.06-3.51,1.93-4.85,2.49a29.2,29.2,0,0,0-5.42,3.45c-2.89,2.09-6.4,5.42-8.58,6.75-.82.5-.4-.22-.54-.38-2.15,2-4.2,3.92-7.08,6.86l2.23-4.49-1.48,1.33c4.14-4.26,1.54-2.71,5-6.22-1.52,1.19-2.46,2.05-3.67,3.06,1-1.23,2.25-2.63,1.34-2.26-.72.28,1.24-2,1.81-2.9.22-.37-.51.06-.43-.2a2.85,2.85,0,0,1,1-1.49c2-1.74,2.53-3,6.17-5.21.31-.19,1.14-.8,1.61-1.17a63.41,63.41,0,0,1,18.77-9.8,56.64,56.64,0,0,1,15.4-2.76,46,46,0,0,1,18.74,3.28c6.9,2.78,12.33,7,16.9,10.6.92.72,1.88,1.47,2.6,2A115.31,115.31,0,0,0,226,262.71a17.94,17.94,0,0,0,5.31,1.69l-.17-.18a15.31,15.31,0,0,1,2-.28c2,.05,4.06,0,6.22-.15a25.86,25.86,0,0,0,6.46-1.42l-.44.83c6.84-2.69,4.4-1.1,4.32-.38a67.44,67.44,0,0,0,7.3-4.25c3.62-2.32,7.25-5.29,10.41-7.63.73-.49,2.27-2.1,3.34-3l3-2.55-1.38,1.87c2.1-1.76,3.34-2.55,1.83-.43-.35.49.25.14.25.32,0,.48-.49,1.64-4.42,5.38-2.06,1.92-4.1,4.63-3.09,4.29,1.47-.52-1.37,2.71-6,5.8a73,73,0,0,1-7.92,4.64,9.29,9.29,0,0,0-1.51,1,29.06,29.06,0,0,1-9.89,3.77c-.63.09-1.44.19-1.76.19-2.2-.16-2.12,0-5.26.28,1.66.39,3.39.56,4.87.76.56,0,.46.22.66.34a37.72,37.72,0,0,1-6.34.36l-2.09-.27c-8.82-.67-16.62-5.41-23.6-11l-.89-.64c0,.05,0,.1,0,.13,5.58,4.42,11.37,8.81,18.23,10.69a32.13,32.13,0,0,0,6.38,1.16c4.27.29,5.52.15,5,.82a46.12,46.12,0,0,0,6.13-1.09c1.24-.37,2.56-.68,3.83-1.14A50.91,50.91,0,0,0,262,264.47c1.49-1.08,3.51-2.55,5.23-3.92,2.65-2.18,5.29-4.44,7.68-6.83,3.82-3.8,5.37-5.21,5.05-4.09A14.74,14.74,0,0,0,279.61,251.78Zm-122.69-5.34a15.83,15.83,0,0,0-2.16.69,60.55,60.55,0,0,0-6.62,3.67c-1.29.77-2.45,1.64-3.67,2.46l-2.19,1.46-.18.32a79.42,79.42,0,0,1,14.11-8.15Zm45.57,12a31.8,31.8,0,0,0-8.92-5.57,36.46,36.46,0,0,1,3.8,2.1l.07.08c-.59-.3-1.12-.7-2.85-1.53,1.89,1.08,2.86,1.87,3.53,2.21C199.66,256.67,201.08,257.46,202.49,258.4Zm-19.16,1.89a19,19,0,0,1,2.23,1.15,33.46,33.46,0,0,1,7.43,3.33,7.93,7.93,0,0,0,1.05.57c2,.78-1.69-3-5.84-4.85a28.66,28.66,0,0,0-14.45-2.27c-2.1.26-3.23.58-3.63,1a14.26,14.26,0,0,0-2.31,2.38c-.1.13.68,0,1.33-.1a40.07,40.07,0,0,1,10-1c2.48.22,2.8.29,1.67-.27-.34-.16,0-.24,0-.36A16.4,16.4,0,0,1,183.33,260.29Zm27.7,14.1a14.94,14.94,0,0,0,4.77,2.4c1.1.32,2.82.84,4.82,1.36.77.32,3.73,1,4.48,1.32a35.19,35.19,0,0,0,14.88,1L237.2,280c-.87-.24-1.59-.53-2.38-.8a35.55,35.55,0,0,1-9.16-1.08,55.7,55.7,0,0,1-9.91-3.66,87,87,0,0,1-12.93-8.52,17.15,17.15,0,0,0-1.68-.7c-.23-.07-.1.19.23.55a40.44,40.44,0,0,1,3.24,3.47C204.87,270.12,208.43,272.62,211,274.39Zm-65.54-.55a17,17,0,0,0-1.94,1.93c-2.69,3.19-.83,2.4,3.15-.72,4.25-3.26,8.63-6.78,13.12-9.25,1.19-.59,2.39-1.33,3.61-1.84l.35-.31a59.75,59.75,0,0,0-12,5.68l-.64.56.48-.78C149.37,270.66,147.41,272.18,145.49,273.84Z"/></svg>