<svg id="Layer_1" data-name="Layer 1" xmlns="http://www.w3.org/2000/svg" viewBox="0 0 512 512"><defs><style>.cls-1{fill:#141f38;}</style></defs><title>note-1-glyph</title><path class="cls-1" d="M396.8,25.6H300.33a51.19,51.19,0,0,0-88.67,0H115.2a64,64,0,0,0-64,64V448a64,64,0,0,0,64,64H307.34L460.8,358.4V89.6A64,64,0,0,0,396.8,25.6ZM256,25.6a25.6,25.6,0,1,1-25.6,25.6A25.63,25.63,0,0,1,256,25.6ZM118.79,208.71c21.07-21.81,41.91-31.72,61.86-29.42,15.17,1.73,24.72,9.83,32.4,16.33,7.12,6,11.12,9.19,17.35,9.19s10.16-3.24,17-9.45c7.47-6.81,17.69-16.15,34.24-16.15,15.91,0,25.89,8.46,33.91,15.26,6.31,5.35,11.29,9.58,18.74,10.42,11.73,1.38,25.3-6,40.54-21.77a12.8,12.8,0,0,1,18.41,17.79c-19.09,19.76-38,29.74-56.22,29.74a49.88,49.88,0,0,1-5.64-.32c-15.17-1.73-24.72-9.83-32.4-16.33-7.12-6-11.12-9.19-17.35-9.19s-10.17,3.24-17,9.46c-7.46,6.81-17.68,16.14-34.22,16.14-15.91,0-25.89-8.46-33.91-15.26-6.31-5.35-11.29-9.58-18.74-10.42-11.72-1.39-25.29,6-40.54,21.77a12.8,12.8,0,0,1-18.41-17.79Zm172,56.42c-19.09,19.76-38,29.74-56.22,29.74a49.88,49.88,0,0,1-5.64-.32c-14.52-1.66-24.26-9.31-32.08-15.46-6.61-5.2-11.83-9.31-19.12-10.14-11.64-1.37-25.3,6-40.54,21.78a12.8,12.8,0,0,1-18.41-17.79c21.08-21.81,41.91-31.72,61.86-29.42,14.51,1.66,24.23,9.31,32,15.45,6.62,5.21,11.85,9.32,19.16,10.15,11.65,1.39,25.3-6,40.54-21.77a12.8,12.8,0,1,1,18.41,17.79ZM294.4,486.4V409.6a64,64,0,0,1,64-64h76.8Z"/></svg>