<svg id="Layer_1" data-name="Layer 1" xmlns="http://www.w3.org/2000/svg" viewBox="0 0 512 512"><defs><style>.cls-1{fill:#dde5e8;}.cls-2{fill:#9bbdc6;}.cls-3{fill:#b7c9ce;}.cls-4{fill:#afc3c9;}</style></defs><title>note-1-flat</title><path class="cls-1" d="M396.8,38.4H278a25.31,25.31,0,0,1,3.56,12.8,25.6,25.6,0,0,1-51.2,0A25.31,25.31,0,0,1,234,38.4H115.2a64,64,0,0,0-64,64V448a64,64,0,0,0,64,64H307.33L460.8,358.4v-256A64,64,0,0,0,396.8,38.4Z"/><path class="cls-2" d="M460.8,358.4,307.33,512h-.13V422.4a64,64,0,0,1,64-64Z"/><path class="cls-3" d="M256,25.6a25.6,25.6,0,1,1-25.6,25.6A25.63,25.63,0,0,1,256,25.6M256,0a51.2,51.2,0,1,0,51.2,51.2A51.2,51.2,0,0,0,256,0Z"/><path class="cls-4" d="M337,230.64a49.88,49.88,0,0,1-5.64-.32c-15.18-1.73-24.73-9.83-32.4-16.33-7.12-6-11.12-9.19-17.35-9.19s-10.18,3.24-17,9.46c-7.46,6.81-17.68,16.14-34.22,16.14-15.91,0-25.89-8.46-33.91-15.26-6.31-5.35-11.29-9.58-18.74-10.43-11.72-1.39-25.29,6-40.54,21.78a12.8,12.8,0,0,1-18.41-17.79c21.07-21.81,41.91-31.72,61.86-29.43,15.17,1.73,24.72,9.83,32.4,16.33,7.12,6,11.12,9.19,17.35,9.19s10.16-3.24,17-9.45c7.47-6.81,17.69-16.15,34.24-16.15,15.91,0,25.89,8.46,33.91,15.26,6.31,5.35,11.29,9.57,18.74,10.42,11.73,1.38,25.3-6,40.54-21.78a12.8,12.8,0,1,1,18.41,17.79C374.11,220.66,355.23,230.64,337,230.64Z"/><path class="cls-4" d="M234.59,294.88a49.88,49.88,0,0,1-5.64-.32c-14.52-1.66-24.26-9.31-32.08-15.46-6.61-5.2-11.83-9.31-19.12-10.14-11.64-1.37-25.3,6-40.54,21.77a12.8,12.8,0,0,1-18.41-17.79c21.08-21.81,41.91-31.72,61.86-29.43,14.51,1.66,24.23,9.31,32,15.45,6.62,5.21,11.85,9.32,19.16,10.15,11.65,1.39,25.3-6,40.54-21.77a12.8,12.8,0,1,1,18.41,17.79C271.71,284.89,252.83,294.88,234.59,294.88Z"/></svg>