<svg id="Layer_1" data-name="Layer 1" xmlns="http://www.w3.org/2000/svg" viewBox="0 0 512 512"><defs><style>.cls-1{fill:#d9e4e8;}.cls-2{fill:#9bbdc6;}.cls-3{fill:#141f38;}</style></defs><title>note-1-filled</title><path class="cls-1" d="M396.8,51.2H294.4a38.4,38.4,0,1,1-76.8,0H115.2A51.26,51.26,0,0,0,64,102.4V448a51.26,51.26,0,0,0,51.2,51.2H302L448,353.1V102.4A51.26,51.26,0,0,0,396.8,51.2Z"/><path class="cls-2" d="M307.2,409.6a51.26,51.26,0,0,1,51.2-51.2h83.94L307.2,493.88Z"/><path class="cls-1" d="M128,217.6q27.37-28.32,51.2-25.6c23.15,2.64,29.27,25.6,51.2,25.6,23.15,0,28-25.6,51.2-25.6,21.93,0,28,23,51.2,25.6q23.83,2.72,51.2-25.6"/><path class="cls-1" d="M128,281.84q27.37-28.32,51.2-25.6c21.8,2.49,29.38,23.11,51.2,25.6q23.83,2.72,51.2-25.6"/><path class="cls-3" d="M392.89,182.79a12.8,12.8,0,0,1,.31,18.1c-19.09,19.76-38,29.74-56.22,29.74a49.9,49.9,0,0,1-5.64-.32c-15.18-1.73-24.72-9.83-32.4-16.33-7.12-6-11.12-9.19-17.35-9.19s-10.17,3.24-17,9.46c-7.46,6.81-17.68,16.14-34.22,16.14-15.91,0-25.89-8.46-33.91-15.26-6.31-5.35-11.29-9.58-18.74-10.42-11.72-1.39-25.29,6-40.54,21.77a12.8,12.8,0,1,1-18.41-17.79c21.07-21.81,41.91-31.72,61.86-29.43,15.18,1.73,24.72,9.83,32.4,16.33,7.12,6,11.12,9.19,17.35,9.19s10.16-3.24,17-9.45c7.47-6.81,17.69-16.15,34.24-16.15,15.91,0,25.89,8.46,33.91,15.26,6.31,5.35,11.29,9.58,18.74,10.42,11.73,1.37,25.3-6,40.54-21.77A12.8,12.8,0,0,1,392.89,182.79Zm-120.5,64.55c-15.24,15.78-28.89,23.17-40.54,21.77-7.31-.83-12.54-4.94-19.16-10.15-7.81-6.14-17.54-13.79-32-15.45-19.94-2.29-40.78,7.62-61.86,29.43a12.8,12.8,0,0,0,18.41,17.79c15.24-15.78,28.91-23.15,40.54-21.78,7.29.83,12.51,4.94,19.12,10.14,7.83,6.15,17.56,13.81,32.08,15.46a49.9,49.9,0,0,0,5.64.32c18.24,0,37.13-10,56.22-29.74a12.8,12.8,0,1,0-18.41-17.79ZM460.8,102.4v256L307.34,512H115.2a64,64,0,0,1-64-64V102.4a64,64,0,0,1,64-64h91.28a51.13,51.13,0,0,1,99,0H396.8A64,64,0,0,1,460.8,102.4ZM230.4,51.2A25.6,25.6,0,1,0,256,25.6,25.63,25.63,0,0,0,230.4,51.2Zm181.09,320H358.4A38.44,38.44,0,0,0,320,409.6v53.32ZM435.2,102.4A38.44,38.44,0,0,0,396.8,64H305.52a51.13,51.13,0,0,1-99,0H115.2a38.44,38.44,0,0,0-38.4,38.4V448a38.44,38.44,0,0,0,38.4,38.4H294.4V409.6a64,64,0,0,1,64-64h76.8Z"/></svg>