<svg id="Layer_1" data-name="Layer 1" xmlns="http://www.w3.org/2000/svg" viewBox="0 0 512 512"><defs><style>.cls-1{fill:#707070;}</style></defs><title>notepad-2-handdrawn</title><path class="cls-1" d="M80.63,483.76l-.24-.25Zm5.55,5a62.62,62.62,0,0,1-5.55-5A61.66,61.66,0,0,0,86.18,488.72ZM80.85,93.55a46.71,46.71,0,0,1,21.84-27.63A69.52,69.52,0,0,1,111.41,62c3.81-1.13,4.32-1.49,2.28-1.13a39.39,39.39,0,0,0-12.47,4.53A46.8,46.8,0,0,0,83.84,82.1a44.84,44.84,0,0,0-5.61,13.53A43.11,43.11,0,0,0,77,103.24l-.2,4v4.82c-.06,56.73-.13,113.91-.19,170.22,0,23.62,0,36.32.33,41.45.7,11.93,1.4,23,2.11,31.92.12,1.49.3-7.21.4-14.72.47-37.53.17-81.08.16-121.95,0-31.43-.2-35.51-.58-20.45-.12,4.51-.3.82-.45.87,0-10.82,0-25.5,0-31.65.25-13.3.43-22.25.59-30.77q-.08-12.08-.16-23.9l0-5.9.18-4.68A52.22,52.22,0,0,1,80.85,93.55ZM208.22,486.91l25.85-.17c38.89-.58,21.68-1.58-26.92-2l-79.6-.31h-2.47l-1.94-.11a25.11,25.11,0,0,1-3.87-.33,52.25,52.25,0,0,1-7.58-1.61A46.14,46.14,0,0,1,98,475.23,44.71,44.71,0,0,1,81.27,450c-1.34-5.47-1.48-10-1.4-17.95,0-7.22,0-14.47,0-21.66l-.17-4.79-.42,33.76a51,51,0,0,0,1.74,13,49.27,49.27,0,0,0,5.39,12,47.21,47.21,0,0,0,19.75,17.4,45.46,45.46,0,0,0,12.79,3.85,57.55,57.55,0,0,0,6.81.6l8.47.11,8.32-.09-8.31.43Zm251.47-151.6-.18,5.57-.39,10.9-.2,4.48c-.57,1.41-1.27,2.86-1.88,4.24l-1.87,4.09-.46,1c-.28.33-.67.67-1,1l-2,2-7.46,7.22L426.67,392.9l.69-.43a82.61,82.61,0,0,1-5.4,6.36c-5.82,6.05-12.12,12.35-18.49,18.28-4.52,4.21-11.66,11.32-18.46,17.94l1.27-2.39c-19,18.87-12,10.62-11.67,9.34l-20.19,20.52c-10.13,10.12-20.82,20.95-30,29.45L314,502.4l-6.42,6.27-11.47-.23,11.19-.44.06-.06-.06.06-9.33-.25a29.78,29.78,0,0,1-3.36-.29c-.58-.1-.65-.22-.07-.33.29-.06.74-.12,1.36-.18s1.09-.13,2.93-.2c2.92-.12-.42-.35.2-.52.79-.23,2.57-.47,7.24-.66l6.42-6.8,7.17-7.4C326,485.11,332.51,477.12,330,479c-3.67,2.66,5-7,17.09-19.06l20.12-20.2c1.45-1.46,2.87-3.13,3.71-4.14,3.07-3.66,15.63-16.84,23-24,1.43-1.41,3.27-3.19,4-3.85,5.16-4.51,5.08-4.43,11.84-11.78l-11.57,9.76a5,5,0,0,1-1,.68l-50.81,51.06c-17.38,17.5-29.27,29.36-35.92,35.81l-.34.35-6.22,6.29-6.95-.06q-2.56-.05-3.93-.16c-1.83-.14-2.11-.34-.87-.62,2.25-.5,3.46-1,5.36-1.58l5.34-.09c2.81-3,4-4.54,2.89-3.91l39.33-39.72-.77.91,6-5.76,40-40.1,5.28-5.29,1.74-1.71,5.42-5.44c1-1,1.19-1.36.73-1.12-1.83,1,5.79-6.76,11-12.22l20.36-21.11,4.18-4.33,1-1.07a10.82,10.82,0,0,0,.05-1.5l0-3,0-3a13.78,13.78,0,0,0,0-1.46l-1.54,0-6.11.09-48.53.48-10.94,0L350.7,348a52.81,52.81,0,0,0-20.7,4c-1.73.72-5.92,2.52-6.85,3.06a24.21,24.21,0,0,1-3.63,1.33,63.9,63.9,0,0,0-8,6.3l2.24-2.36a58.59,58.59,0,0,0-13.56,17.57,57.57,57.57,0,0,0-6.09,20.27l.3,1.32c-.38,4.59-.16,9.84-.26,17.31l-.12-3.88c-.31.23-.59,2.18-.79,0a127.53,127.53,0,0,1-.12-12.92c.2-4.92.9-7,.74-8.42,0-.52.42-2.38.91-4.61s1.48-4.73,2.12-6.7c1.95-4.7,2.65-6.3,2.75-6.84s-.52-.12-.57-.52-.48.11-.84.23a55.59,55.59,0,0,0-4,7.78A59,59,0,0,1,300.89,368l-.25.86c1.36-1.78,3.34-4.52,4-5.15a63,63,0,0,1,14.67-13.68c2.94-2.09,1-1.28-3.05.91a56.57,56.57,0,0,0-13.59,11.41c-10.35,11.71-15.71,28.14-15.19,43.61,0,6.1-.07,12.21-.1,18.68l-.11-14.9a100.67,100.67,0,0,1,.6-15.46h-.14a68.26,68.26,0,0,0-.78,10.48c0,6.5,0,11.32-.32,15.37-.26,3.72-.29,9.84-.25,18.2.06,10.1.33,24-.25,31.19-.22,2.7-.55.44-.82.44v28.28l-2-13.61-.14,5.66c-.19-16.85-1.08-8.49-1.39-22.28l-.31,13.38c-.28-4.4-.48-9.6-.92-7.06-.35,2-.8-6.33-1.21-9.08-.17-1.11-.37,1.15-.55.54a14.65,14.65,0,0,1-.62-4.67c-.1-7.13-.79-10.47-.3-21.71,0-1,0-3.7,0-5.29,0-9.18-.09-18.13-.14-27.07v-3.35l.19-4a53.68,53.68,0,0,1,.92-8.19,72.6,72.6,0,0,1,4.66-16,79.19,79.19,0,0,1,11.73-19,73.93,73.93,0,0,1,42.33-24.69,82,82,0,0,1,13.29-1.31l11,0,50.91,0,9.73-.07,11.53-.13,6.59,0,3.34,0h0c0-3.29,0-6.55.07-9.88q0-83.69,0-167.46c0-7.38,0-15.07,0-22.1-.05-14.33.29-23.75-.21-28.74s-1-6.24-.88-4.7c0,2.9-.38-3.57-4.13-12.52A62.91,62.91,0,0,0,430.32,71a61.93,61.93,0,0,0-12.64-11.36,55.63,55.63,0,0,0-29.88-9.21c0,.11,0,.25-.06.36a14.22,14.22,0,0,0-.25,2.3h.35a54,54,0,0,1,49.42,36.54A54.68,54.68,0,0,1,439,105.94l-1,20.76q0-6.12,0-12.58,0-3.23,0-6.53c0-2.13-.2-3.92-.28-5.93a52.28,52.28,0,0,0-26.4-40A54,54,0,0,0,387.92,55a1.72,1.72,0,0,1,.32.84,12.78,12.78,0,0,1-.18,4.25,41.51,41.51,0,0,0-.4,4.21l-.78-.42c-.13,4.38-1,2.61-1.67,2.43.07,1.68.21,3.21.19,4.71a33.91,33.91,0,0,1-.42,6.87c-.11.46,0,1.61,0,2.34a20.24,20.24,0,0,1-.35,2l-.44-1.18c-.32,1.4-.72,2.12-1.26.82-.12-.3-.35,0-.52,0-.46-.17-1-.76-1.07-3.5-.06-1.43-1.09-3.11-1.59-2.61-.72.73-1.4-1.38-1.36-4.18,0-1.55,0-3.12,0-4.66A2.21,2.21,0,0,0,378,66a16.06,16.06,0,0,1-.73-5.43,3.9,3.9,0,0,1,.13-.91c.46-1.12.47-1.1.06-2.73-.45.87-.87,1.74-1.3,2.47-.17.28-.37.21-.56.31,0-1.06,0-2.12,0-3.17,0-.36.15-.72.15-1.05s0-.38,0-.57h-.48c0,.22,0,.44,0,.66,0,2.12-.16,2.73-.89,2.46.13,1.18.25,2.09.34,3,.06.63.13,1.29.15,2a70.73,70.73,0,0,0,.73,8.47c.12.91.09,2.13.12,3.21.06,1.68.09,3.38.18,5,.14,2.64-.11,3.66-.8,3.16a12.94,12.94,0,0,0-1.58-.88c0-1.27-.31-2.1-.81-1.78l-.21-9.15.09.19a10.42,10.42,0,0,0,.18-1.36c0-3.09,0-6.18,0-9.26,0-.41,0-.83,0-1.22.09-1.59.07-2-.26-1.87-.6.32-.67-1.41-.82-2.64h-2.9c0,.74.05,1.47.06,2.11-.36.34-.71.65-1.06,1s-.64.73-1,1.15c0-1.26-.07-2.74,0-4.27l-15.57,0c-8.24.14-15.85.3-22.49.46a1.35,1.35,0,0,1,.15.41,12.78,12.78,0,0,1-.18,4.25,41.51,41.51,0,0,0-.4,4.21l-.78-.42c-.13,4.38-1,2.61-1.67,2.43.07,1.68.21,3.21.19,4.71a33.91,33.91,0,0,1-.42,6.87c-.11.46,0,1.61,0,2.34a20.24,20.24,0,0,1-.35,2l-.44-1.18c-.32,1.4-.72,2.12-1.26.82-.12-.3-.35,0-.52,0-.46-.17-1-.76-1.07-3.5-.06-1.43-1.09-3.11-1.59-2.61-.72.73-1.4-1.38-1.36-4.18,0-1.55,0-3.12,0-4.66a2.21,2.21,0,0,0-.29-.91,16.06,16.06,0,0,1-.73-5.43,3.9,3.9,0,0,1,.13-.91c.46-1.12.47-1.1.06-2.73-.45.87-.87,1.74-1.3,2.47-.17.28-.37.21-.56.31,0-1.06,0-2.12,0-3.17a4.72,4.72,0,0,1,.1-.73l-.44,0c0,1.89-.19,2.47-.89,2.21.13,1.18.25,2.09.34,3,.06.63.13,1.29.15,2a70.73,70.73,0,0,0,.73,8.47c.12.91.09,2.13.12,3.21.06,1.68.09,3.38.18,5,.14,2.64-.11,3.66-.8,3.16a12.94,12.94,0,0,0-1.58-.88c0-1.27-.31-2.1-.81-1.78l-.21-9.15.09.19a10.42,10.42,0,0,0,.18-1.36c0-3.09,0-6.18,0-9.26,0-.41,0-.83,0-1.22.09-1.59.07-2-.26-1.87s-.6-.65-.71-1.63l-3,.09c0,.34,0,.7,0,1-.36.34-.71.65-1.06,1s-.64.73-1,1.15c0-.94-.07-2-.1-3.12-7.83.18-18.53.25-34.51.17h-3.3a12.47,12.47,0,0,1-.2,3.86,41.51,41.51,0,0,0-.4,4.21l-.78-.42c-.13,4.38-1,2.61-1.67,2.43.07,1.68.21,3.21.19,4.71a33.91,33.91,0,0,1-.42,6.87c-.11.46,0,1.61,0,2.34a20.24,20.24,0,0,1-.35,2l-.44-1.18c-.32,1.4-.72,2.12-1.26.82-.12-.3-.35,0-.52,0-.46-.17-1-.76-1.07-3.5-.06-1.43-1.09-3.11-1.59-2.61-.72.73-1.4-1.38-1.36-4.18,0-1.55,0-3.12,0-4.66a2.21,2.21,0,0,0-.29-.91,16.06,16.06,0,0,1-.73-5.43,3.9,3.9,0,0,1,.13-.91c.46-1.12.47-1.1.06-2.73-.45.87-.87,1.74-1.3,2.47-.17.28-.37.21-.56.31,0-1.06,0-2.12,0-3.17a2,2,0,0,1,0-.32h-.39c0,1.55-.24,2.05-.88,1.81.13,1.18.25,2.09.34,3,.06.63.13,1.29.15,2a70.73,70.73,0,0,0,.73,8.47c.12.91.09,2.13.12,3.21.06,1.68.09,3.38.18,5,.14,2.64-.11,3.66-.8,3.16a12.94,12.94,0,0,0-1.58-.88c0-1.27-.31-2.1-.81-1.78l-.21-9.15.09.19a10.42,10.42,0,0,0,.18-1.36c0-3.09,0-6.18,0-9.26,0-.41,0-.83,0-1.22.09-1.59.07-2-.26-1.87s-.56-.5-.67-1.35h-3c0,.28,0,.58,0,.83-.36.34-.71.65-1.06,1s-.64.73-1,1.15c0-.91-.08-1.93-.11-3-15.34,0-30.24-.05-37.82-.31a12.76,12.76,0,0,1-.18,4.21,41.51,41.51,0,0,0-.4,4.21l-.78-.42c-.13,4.38-1,2.61-1.67,2.43.07,1.68.21,3.21.19,4.71a33.91,33.91,0,0,1-.42,6.87c-.11.46,0,1.61,0,2.34a20.24,20.24,0,0,1-.35,2l-.44-1.18c-.32,1.4-.72,2.12-1.26.82-.12-.3-.35,0-.52,0-.46-.17-1-.76-1.07-3.5-.06-1.43-1.09-3.11-1.59-2.61-.72.73-1.4-1.38-1.36-4.18,0-1.55,0-3.12,0-4.66a2.21,2.21,0,0,0-.29-.91,16.06,16.06,0,0,1-.73-5.43,3.9,3.9,0,0,1,.13-.91c.46-1.12.47-1.1.06-2.73-.45.87-.87,1.74-1.3,2.47-.17.28-.37.21-.56.31,0-1.06,0-2.12,0-3.17,0-.36.15-.72.15-1.05v-.12h-.48c0,.07,0,.15,0,.22,0,2.12-.16,2.73-.89,2.46.13,1.18.25,2.09.34,3,.06.63.13,1.29.15,2a70.73,70.73,0,0,0,.73,8.47c.12.91.09,2.13.12,3.21.06,1.68.09,3.38.18,5,.14,2.64-.11,3.66-.8,3.16A12.94,12.94,0,0,0,195.6,82c0-1.27-.31-2.1-.81-1.78l-.21-9.15.09.19a10.42,10.42,0,0,0,.18-1.36c0-3.09,0-6.18,0-9.26,0-.41,0-.83,0-1.22.09-1.59.07-2-.26-1.87-.55.29-.65-1.1-.78-2.29l-2.93-.06c0,.64.05,1.27.06,1.82-.36.34-.71.65-1.06,1s-.64.73-1,1.15c0-1.19-.07-2.59,0-4-8-.15-17.21-.3-23.69-.46-4.29-.1-6.63-.26-4.63-.38l15.59-.61,12.85,0c0-.25,0-.48.05-.73a7.05,7.05,0,0,0-.09-1.86l-30.5.08-8,0c-.16.93-.2,2.28-.29,3.44l.18-.13c.23.44.59.67.67,1.36a12.78,12.78,0,0,1-.18,4.25,41.51,41.51,0,0,0-.4,4.21l-.78-.42c-.13,4.38-1,2.61-1.67,2.43.07,1.68.21,3.21.19,4.71a33.91,33.91,0,0,1-.42,6.87c-.11.46,0,1.61,0,2.34a20.24,20.24,0,0,1-.35,2l-.44-1.18c-.32,1.4-.72,2.12-1.26.82-.12-.3-.35,0-.52,0-.46-.17-1-.76-1.07-3.5-.06-1.43-1.09-3.11-1.59-2.61-.72.73-1.4-1.38-1.36-4.18,0-1.55,0-3.12,0-4.66a2.21,2.21,0,0,0-.29-.91,16.06,16.06,0,0,1-.73-5.43,3.9,3.9,0,0,1,.13-.91c.46-1.12.47-1.1.06-2.73-.45.87-.87,1.74-1.3,2.47-.17.28-.37.21-.56.31,0-1.06,0-2.12,0-3.17,0-.36.15-.72.15-1.05,0-1.42-.05-2.84-.08-4.27H138c0,.38,0,.76,0,1.14,0,1.07.05,2.14.07,3.22,0,2.12-.16,2.73-.89,2.46.13,1.18.25,2.09.34,3,.06.63.13,1.29.15,2a70.73,70.73,0,0,0,.73,8.47c.12.91.09,2.13.12,3.21.06,1.68.09,3.38.18,5,.14,2.64-.11,3.66-.8,3.16a12.94,12.94,0,0,0-1.58-.88c0-1.27-.31-2.1-.81-1.78l-.21-9.15.09.19a10.42,10.42,0,0,0,.18-1.36c0-3.09,0-6.18,0-9.26,0-.41,0-.83,0-1.22.09-1.59.07-2-.26-1.87-.61.33-.67-1.45-.83-2.69s-.25-2.41-.36-3.64h-2.53a12.69,12.69,0,0,1,0,1.81c-.1,1.28,0,2.79,0,4-.36.34-.71.65-1.06,1s-.64.73-1,1.15c0-1.81-.36-4,.13-6.25a7.1,7.1,0,0,0-.07-1.73c-3.2,0-6.33.06-9.19.29a58.78,58.78,0,0,0-16.92,4.28A57.64,57.64,0,0,0,89.14,65a60.74,60.74,0,0,0-9.63,10.83,60.48,60.48,0,0,0-6.8,14A55.76,55.76,0,0,0,70.11,105C69.92,110.27,70,116,70,121.38c0,11-.07,21.89-.1,32.87,0,22,0,44.1,0,67.17,0,6-.13,20.33-.24,23.73-.22,6.49-.47,7.88-.74,11.85,0,8.79-.07,19.23-.12,31.64-.07-2.79-.12-5.09-.24-10,.06,25.76.11,47.66.16,69.16s-.16,42.34-.25,65.87l.36,4c0,7.29-.1,14.77.06,22.93A56.62,56.62,0,0,0,76,466.68a53.11,53.11,0,0,1-4.22-9.14l-.3-.79c-.08.7,1.57,6-.73.31a53.14,53.14,0,0,1-3-15.08c-.36-7.06-.17-15.55-.25-22.47,0-14.94,0-21.32-.28-25.62-.2-3.15-.34-22.86-.5-35.27-.4-30.49-.94-20.46-1.44-22.38-.18-.67-.36,1-.6,1.8,0,1.9-.09,10.27-.23,25.34-.13-16.34-.22-27.67-.33-41.94l.32,2.44c0-6.45,0-16.2,0-18.81l-1.11-57.51c-.54-20.32-1.2,23.94-1.26,58.25,0,43.36,0,87.68-.05,131.58a63.81,63.81,0,0,0,18.33,46.1,63.38,63.38,0,0,1-17.65-34.31,72.31,72.31,0,0,1-.92-11.62l0-11-.06-22-.14.06c0,9.76,0,19.54-.07,29.26a93,93,0,0,0,.7,14.11,45.36,45.36,0,0,0,1.25,6.48,42.83,42.83,0,0,0,1.77,5.95,67,67,0,0,0,10.24,18.85,63.23,63.23,0,0,0,17.65,15.36c8.27,5,19.88,8.72,33.13,8.68,29.84-.06,71-.33,92.21.25,8,.22,1.29.55,1.29.82h83.61l-40.22,2,16.72.14c-49.82.2-25.1,1.08-65.86,1.39l39.55.31c-13,.28-28.39.48-20.85.92,5.89.35-18.72.8-26.86,1.21-3.28.17,3.39.37,1.59.55a123.43,123.43,0,0,1-13.81.62c-21.07.1-31,.79-64.19.3-2.22.06-12.52-.15-18.17-1.39A72.62,72.62,0,0,1,52.39,441c-.13-2.19-.07-3.63-.08-5.33v-5l0-9.91q0-9.92.05-19.87c.05-13.27.1-26.6.16-40.08,0-34.19.08-73.35.13-109.94-.08-43.33-.16-86.15-.24-129.48V107.34c0-1.66.15-3.76.24-5.62a72.36,72.36,0,0,1,34.58-57,69.68,69.68,0,0,1,21.3-8.79,68.32,68.32,0,0,1,11.41-1.74l4.22-.19-.28-2.28a12.6,12.6,0,0,0,.59-1.7,12.56,12.56,0,0,0,0-1.75c-.15,0-.34-.2-.45,0-.38.83-.57.61-.58-1.13,0-2.26-.32-4.67.16-6.75.09-.42.28-.9.4-.81a19.26,19.26,0,0,1,2.11,1.77c.3.28.38,1,.33,2.29-.11,3.12-.2,6.28-.19,9.42,0,.28,0,.56,0,.83h6.86c0-2.29.32-4.5.13-6.88a3.61,3.61,0,0,1,.25-1.31c.22-.36.47-.44.74-.66l.12-1.75.24.56c-.06-1.43-.17-2.64-.16-3.83s.15-2.34.25-3.64l-.36-.22c0-.81,0-1.63.06-2.86l.12.63c.31,0,.59-.36.79,0a7.56,7.56,0,0,1,.29,2.13c0,.83,0,1.18.28,1.42a8.3,8.3,0,0,1,.5,2c.4,1.69.94,1.13,1.44,1.24a1.77,1.77,0,0,0,.6-.1l.23-1.4.33,2.32-.32-.13a7.57,7.57,0,0,0,0,1,28.38,28.38,0,0,0,1.11,3.18c.54,1.12,1.2-1.33,1.26-3.22.08-2.4,0-4.85.05-7.28,0-1,0-2,.1-3.06l.22,4.87h.14c0-.54.07-1.08.07-1.62a6.42,6.42,0,0,1,.32-2.51,8,8,0,0,0,.24-3c-.06-1.65-.33-3.93.25-5.1.22-.44.55-.07.82-.07V0l2,2.22.14-.92c.19,2.76,1.08,1.39,1.39,3.64l.31-2.19c.28.72.48,1.57.92,1.15s.8,1,1.21,1.49c.17.18.37-.19.55-.09a1,1,0,0,1,.62.76c.1,1.17.79,1.71.3,3.55a3.69,3.69,0,0,0,0,.86,51.78,51.78,0,0,1-.1,8.84c-.16,1.89-.15,4.06-.13,6.08,0,2.4.21,4.77.24,7.16,0,.45,0,.91,0,1.36H168l15.48,0-.27-2.19a12.6,12.6,0,0,0,.59-1.7,12.56,12.56,0,0,0,0-1.75c-.15,0-.34-.2-.45,0-.38.83-.57.61-.58-1.13,0-2.26-.32-4.67.16-6.75.09-.42.28-.9.4-.81a19.26,19.26,0,0,1,2.11,1.77c.3.28.38,1,.33,2.29-.11,3.12-.2,6.28-.19,9.42,0,.27,0,.54,0,.8l6.86,0c0-2.27.32-4.47.12-6.84a3.61,3.61,0,0,1,.25-1.31c.22-.36.47-.44.74-.66l.12-1.75.24.56c-.06-1.43-.17-2.64-.16-3.83s.15-2.34.25-3.64l-.36-.22c0-.81,0-1.63.06-2.86l.12.63c.31,0,.59-.36.79,0a7.56,7.56,0,0,1,.29,2.13c0,.83,0,1.18.28,1.42a8.3,8.3,0,0,1,.5,2c.4,1.69.94,1.13,1.44,1.24a1.77,1.77,0,0,0,.6-.1l.23-1.4.33,2.32-.32-.13a7.57,7.57,0,0,0,0,1,28.38,28.38,0,0,0,1.11,3.18c.54,1.12,1.2-1.33,1.26-3.22.08-2.4,0-4.85.05-7.28,0-1,0-2,.1-3.06l.22,4.87h.14c0-.54.07-1.08.07-1.62a6.42,6.42,0,0,1,.32-2.51,8,8,0,0,0,.24-3c-.06-1.65-.33-3.93.25-5.1.22-.44.55-.07.82-.07V0l2,2.22.14-.92c.19,2.76,1.08,1.39,1.39,3.64l.31-2.19c.28.72.48,1.57.92,1.15s.8,1,1.21,1.49c.17.18.37-.19.55-.09a1,1,0,0,1,.62.76c.1,1.17.79,1.71.3,3.55a3.69,3.69,0,0,0,0,.86,51.78,51.78,0,0,1-.1,8.84c-.16,1.89-.15,4.06-.13,6.08,0,2.4.21,4.77.24,7.16,0,.4,0,.8,0,1.2,10.57-.07,21.59-.11,32.76-.13l-.24-1.93a12.6,12.6,0,0,0,.59-1.7,12.56,12.56,0,0,0,0-1.75c-.15,0-.34-.2-.45,0-.38.83-.57.61-.58-1.13,0-2.26-.32-4.67.16-6.75.09-.42.28-.9.4-.81a19.26,19.26,0,0,1,2.11,1.77c.3.28.38,1,.33,2.29-.11,3.12-.2,6.28-.19,9.42,0,.19,0,.37,0,.55h6.86a62.09,62.09,0,0,0,.11-6.6,3.61,3.61,0,0,1,.25-1.31c.22-.36.47-.44.74-.66l.12-1.75.24.56c-.06-1.43-.17-2.64-.16-3.83s.15-2.34.25-3.64l-.36-.22c0-.81,0-1.63.06-2.86l.12.63c.31,0,.59-.36.79,0a7.56,7.56,0,0,1,.29,2.13c0,.83,0,1.18.28,1.42a8.3,8.3,0,0,1,.5,2c.4,1.69.94,1.13,1.44,1.24a1.77,1.77,0,0,0,.6-.1l.23-1.4.33,2.32-.32-.13a7.57,7.57,0,0,0,0,1,28.38,28.38,0,0,0,1.11,3.18c.54,1.12,1.2-1.33,1.26-3.22.08-2.4,0-4.85.05-7.28,0-1,0-2,.1-3.06l.22,4.87h.14c0-.54.07-1.08.07-1.62a6.42,6.42,0,0,1,.32-2.51,8,8,0,0,0,.24-3c-.06-1.65-.33-3.93.25-5.1.22-.44.55-.07.82-.07V0l2,2.22L264,1.3c.19,2.76,1.08,1.39,1.39,3.64l.31-2.19c.28.72.48,1.57.92,1.15s.8,1,1.21,1.49c.17.18.37-.19.55-.09a1,1,0,0,1,.62.76c.1,1.17.79,1.71.3,3.55a3.69,3.69,0,0,0,0,.86,51.78,51.78,0,0,1-.1,8.84c-.16,1.89-.15,4.06-.13,6.08,0,2.4.21,4.77.24,7.16,0,.36,0,.71,0,1.07,11.2,0,22.23.05,32.77.11l-.25-2a12.6,12.6,0,0,0,.59-1.7,12.62,12.62,0,0,0,0-1.75c-.15,0-.34-.2-.45,0-.38.83-.57.61-.58-1.13,0-2.26-.32-4.67.16-6.75.09-.42.28-.9.4-.81a19.26,19.26,0,0,1,2.11,1.77c.3.28.38,1,.33,2.29-.11,3.12-.2,6.28-.19,9.42,0,.23,0,.45,0,.67l6.86,0a67.15,67.15,0,0,0,.12-6.76,3.61,3.61,0,0,1,.25-1.31c.22-.36.47-.44.74-.66l.12-1.75.24.56c-.06-1.43-.17-2.64-.16-3.83s.15-2.34.25-3.64l-.36-.22c0-.81,0-1.63.06-2.86l.12.63c.31,0,.59-.36.79,0a7.56,7.56,0,0,1,.29,2.13c0,.83,0,1.18.28,1.42a8.3,8.3,0,0,1,.5,2c.4,1.69.94,1.13,1.44,1.24a1.77,1.77,0,0,0,.6-.1l.23-1.4.33,2.32-.32-.13a7.57,7.57,0,0,0,0,1,28.38,28.38,0,0,0,1.11,3.18c.54,1.12,1.2-1.33,1.26-3.22.08-2.4,0-4.85.05-7.28,0-1,0-2,.1-3.06l.22,4.87h.14c0-.54.07-1.08.07-1.62a6.42,6.42,0,0,1,.32-2.51,8,8,0,0,0,.24-3c-.06-1.65-.33-3.93.25-5.1.22-.44.55-.07.82-.07V0l2,2.22.14-.92c.19,2.76,1.08,1.39,1.39,3.64L325,2.76c.28.72.48,1.57.92,1.15s.8,1,1.21,1.49c.17.18.37-.19.55-.09a1,1,0,0,1,.62.76c.1,1.17.79,1.71.3,3.55a3.69,3.69,0,0,0,0,.86,51.78,51.78,0,0,1-.1,8.84c-.16,1.89-.15,4.06-.13,6.08,0,2.4.21,4.77.24,7.16,0,.46,0,.91,0,1.37,6.48.06,12.62.13,18.2.21l14.63.1-.31-2.54a12.6,12.6,0,0,0,.59-1.7,12.62,12.62,0,0,0,0-1.75c-.15,0-.34-.2-.45,0-.38.83-.57.61-.58-1.13,0-2.26-.32-4.67.16-6.75.09-.42.28-.9.4-.81a19.26,19.26,0,0,1,2.11,1.77c.3.28.38,1,.33,2.29-.11,3.12-.2,6.28-.19,9.42,0,.4,0,.79,0,1.17l6.87,0c0-2.43.34-4.75.14-7.27a3.61,3.61,0,0,1,.25-1.31c.22-.36.47-.44.74-.66l.12-1.75.24.56c-.06-1.43-.17-2.64-.16-3.83s.15-2.34.25-3.64l-.36-.22c0-.81,0-1.63.06-2.86l.12.63c.31,0,.59-.36.79,0a7.56,7.56,0,0,1,.29,2.13c0,.83,0,1.18.28,1.42a8.3,8.3,0,0,1,.5,2c.4,1.69.94,1.13,1.44,1.24a1.77,1.77,0,0,0,.6-.1l.23-1.4.33,2.32-.32-.13a7.57,7.57,0,0,0,0,1A28.38,28.38,0,0,0,377,25.59c.54,1.12,1.2-1.33,1.26-3.22.08-2.4,0-4.85.05-7.28,0-1,0-2,.1-3.06l.22,4.87h.14c0-.54.07-1.08.07-1.62a6.42,6.42,0,0,1,.32-2.51,8,8,0,0,0,.24-3c-.06-1.65-.33-3.93.25-5.1.22-.44.55-.07.82-.07V0l2,2.22.14-.92c.19,2.76,1.08,1.39,1.39,3.64l.31-2.19c.28.72.48,1.57.92,1.15s.8,1,1.21,1.49c.17.18.37-.19.55-.09a1,1,0,0,1,.62.76c.1,1.17.79,1.71.3,3.55a3.69,3.69,0,0,0,0,.86,51.78,51.78,0,0,1-.1,8.84c-.16,1.89-.15,4.06-.13,6.08,0,2.4.21,4.77.24,7.16,0,.63,0,1.27,0,1.9l.84,0a70.41,70.41,0,0,1,32.75,9.2,25.69,25.69,0,0,0-2.46-1.49,70.5,70.5,0,0,1,11.17,6.56,66.64,66.64,0,0,1,12.6,11.68c9.63,11.78,16.06,27.19,16.5,43.14l.13,3V109l0,4.85-.05,9.71L459.24,143c-.1,18.27-.25,48.05-.4,76.09l-.78-7.66c-.13,79.19-1,47.19-1.67,43.93.06,28,.12,53.64.18,78.74A16,16,0,0,1,459.69,335.31ZM324.8,16.87l.16.36a2.79,2.79,0,0,0,.36-1c0-1.07,0-2.18,0-3.28,0-.65-.07-1.3-.08-1.95,0-.39.06-.78.09-1.17l-.2-.15Zm-178,0,.16.36a2.79,2.79,0,0,0,.36-1c0-1.07,0-2.18,0-3.28,0-.65-.07-1.3-.08-1.95,0-.39.06-.78.09-1.17l-.2-.15ZM56.2,437.47l.08-32.3c-.05-2.14-.1-4.29-.16-6.44-.13,5.74-.35,10.7-.36,17.39q0,7.26,0,14.64v7.39c.06,2.61.19,5.71.46,8.54a70,70,0,0,0,68.57,61.77c1.05,0,1.83-.12,2.77-.18-2.48.06-6-.21-9-.36a75.67,75.67,0,0,1-9.28-1.62,69,69,0,0,1-17.53-6.81,69.4,69.4,0,0,1-35.49-62Zm15.25,19.08ZM128.33,46.48s0-.08,0-.11a77.53,77.53,0,0,0-11.57.57A58.26,58.26,0,0,0,95.66,54C81.37,61.88,68.49,78.1,66,96.79A59.63,59.63,0,0,1,83.29,63.6L84,63a32.82,32.82,0,0,0-3.13,3.24,37.71,37.71,0,0,0-3.52,4.28,57.19,57.19,0,0,0-8.58,16.09A59.69,59.69,0,0,1,80.44,67.08a61.74,61.74,0,0,1,30.85-18.72A71.84,71.84,0,0,1,128.33,46.48Zm4.89,0-2,0v.05ZM282.65,391.25c-.41,2.22-1.14,4.12-1.22,6.77l-.27,5.72v5c0,3.35,0,6.72,0,10.06,0,4,.05,7.93.08,11.91,0,2.37-.06,4.77-.09,7.15l.2.91.15-21.85.08-10.93,0-2.75.17-3.17a45.1,45.1,0,0,1,.62-6.32ZM401,343c-5.81-.31-18.43-.27-30.85.11l12.69,0,.29,0-9.46.15,12.23.14Zm45.87.37h0c0,.41,0,.82,0,1.23ZM371,46.64l0-.49h-2.53c0,.16,0,.33,0,.48Zm-2.2,3.81a14.79,14.79,0,0,1,0,2.54h2.68c-.09-.85-.18-1.69-.25-2.56Zm6.49-3.81h.31c0-.17,0-.33,0-.5h-.29C375.32,46.31,375.32,46.48,375.32,46.64Zm8.8-29.77.16.36a2.79,2.79,0,0,0,.36-1c0-1.07,0-2.18,0-3.28,0-.65-.07-1.3-.08-1.95,0-.39.06-.78.09-1.17l-.2-.15Zm-8.78,17.47h.05c0-.14,0-.27-.06-.41ZM328.91,46.2c0,.14,0,.28,0,.41l36.69,0c0-.15,0-.32,0-.48Zm-22.62.39c0-.12,0-.25,0-.37l-36.71,0c0,.1,0,.2,0,.3Zm-59.32,0c0-.08,0-.18,0-.27l-36.71,0c0,.07,0,.13,0,.2Zm-53.91,0v-.15l-2.53,0v.14Zm4.31,0h.3v-.18h-.3C197.36,46.39,197.36,46.45,197.36,46.51Zm52.48,0h2.53l0-.27h-2.53Zm.37,4.39a13.43,13.43,0,0,1,0,2.13c0,.13,0,.27,0,.4H253c-.09-.83-.18-1.67-.25-2.53Zm6.41,2.51h.49q0-1.27,0-2.53h-.44c0,.49,0,1,0,1.47S256.61,53.09,256.62,53.45Zm.36-6.9c0-.09,0-.19,0-.28h-.29q0,.14,0,.28Zm52.18,0h2.53l0-.38h-2.53Zm.36,4.12a14.11,14.11,0,0,1,0,2.36c0,.05,0,.12,0,.17h2.71c-.09-.83-.18-1.67-.25-2.52Zm6.41,2.5h.49q0-1.26,0-2.52h-.43c0,.56,0,1.13,0,1.69C315.92,52.66,315.93,52.94,315.94,53.21Zm.37-6.61v-.39H316v.39ZM265.48,16.87l.16.36a2.79,2.79,0,0,0,.36-1c0-1.07,0-2.18,0-3.28,0-.65-.07-1.3-.08-1.95,0-.39.06-.78.09-1.17l-.2-.15Zm-59.32,0,.16.36a2.79,2.79,0,0,0,.36-1c0-1.07,0-2.18,0-3.28,0-.65-.07-1.3-.08-1.95,0-.39.06-.78.09-1.17l-.2-.15ZM186.62,46.5h1s0-.08,0-.12h-2A6.39,6.39,0,0,0,186.62,46.5Zm4.29,6.57c0,.2,0,.42,0,.63h2.76q-.14-1.28-.25-2.59h-2.52A13.05,13.05,0,0,1,190.91,53.07Zm6.88.6q0-1.29,0-2.58h-.45c0,.43,0,.86,0,1.29s0,.86,0,1.29Zm50.51-.19c0-.17,0-.33,0-.5a7,7,0,0,0-.1-1.94l0-.09-12.74,0-25.72.06a21.41,21.41,0,0,0-.25,2.57Zm59.34-.23c0-.09,0-.18,0-.27a7,7,0,0,0-.1-1.94c0-.11-.08-.21-.12-.32l-38.35.15a17,17,0,0,0-.26,2.53l36.25-.14ZM367,53h0a7,7,0,0,0-.1-1.94c-.07-.21-.14-.38-.21-.58l-36.76.17h-1.46s0,.11,0,.15a14.5,14.5,0,0,0-.25,2.34C340.54,53,352.95,53,367,53Zm8.76,0q0-1.3,0-2.59h-.43c0,.65,0,1.31,0,2,0,.21,0,.42,0,.62ZM445.83,99.4c.47,7,.14,8.49-.3,6,.16,21.33.28,37.83.41,54.82,0,11.42.1,23.36.15,35.33.23,48.48.44,92.3.64,135.11l2.81,1c0-21.93,0-43.9,0-65.69,0-6.07-.18-12.52-.29-16.4-.41-14.07-.83-67.88-.73-98.24,0-5.93.1-13.51.13-16.44.23-10.1.35-15.07.36-21.2,0-3.1.09-6.31-.28-11.06a58.75,58.75,0,0,0-4-17.71A65.52,65.52,0,0,1,448,108.73c-.23,7.54-.45,14.77-.65,21.35a23.42,23.42,0,0,1-.56,5.54V107A62,62,0,0,0,440,78.9a63,63,0,0,0-11.42-15.6,60.46,60.46,0,0,0-26-14.89,59,59,0,0,0-14.35-2.15c0,.18,0,.36,0,.54a59,59,0,0,1,16.32,2.67,61.19,61.19,0,0,1,24.87,15.37A60.5,60.5,0,0,1,442.35,85,55.46,55.46,0,0,1,445.83,99.4Zm-2,243.78h-.06v.23h.05C443.83,343.33,443.83,343.25,443.83,343.18Zm-.1.22v-.23l-.64,0c-6.63-.34-14.2-.23-21.14-.22l-3.25.06c.12,0,.18.1.32.1l16.71.05C438.11,343.51,441.36,343,443.73,343.4Zm-93.15,11.53a51.6,51.6,0,0,0-11.67,1.47,47.5,47.5,0,0,0-20.61,10.79c-4.93,4.36-6.72,7.51-7.35,8.77a35.26,35.26,0,0,0-2.37,8.52c0,.41,1.07-1.59,2.06-3.28,5-8.36,13.6-16.55,23.6-20.35,7.71-2.6,8.86-2.69,4.91-2.17-1.18.18-.29-.24-.33-.38a27.89,27.89,0,0,1,4.56-1,19.1,19.1,0,0,1,3.72-.41c3.25-.06,6.58.22,9.44.4l31.59-.64c1.63,0,3.44-.1,4.11-.16,6.82-.7-9.86-1.59-27.27-1.59Zm77.15,7.86c-1.43,1.59-6.82,7.09-8.31,8.48-9.92,9.25-19.28,19.18-27.09,27l5.69-4.29,5.13-3.64L420.37,373l5.59-5.54,4.32-4.42,5.26-5.59c1-.57.5-1.77.61-2.72v-4.46c-.06-.43-.92-.1-1.34-.19l-3.13.06-16.21.24c-1.21.14-3.82.37-5.27.61-.68.11.12.27,1.57.38l8.22.47,3.62.23a2.17,2.17,0,0,1,.8.24,7.32,7.32,0,0,0,3.26.51l2.51,0h1.26c.48-.07.09.7.17,1a17.28,17.28,0,0,0-.05,3.11c-.11.73-.66,1.06-.75,1.49A22.27,22.27,0,0,1,427.73,362.78Zm-125,103.31c0,2.75.07,6.63.17,8.75.58,13.16,1.58,7.33,2-9.1.47-17.49.24-36.22.35-54.3,0-2.39,0-4.82,0-7.26.06-2.25.15-3.86.28-5.81l0-1.25c-1,5.06-1,13.5-1.39,21l-.9,22.91.09,2.81-.43-2.81C302.89,449.94,302.82,457.94,302.75,466.09ZM125.22,9.36l-.09-.46.43.46c.08-1.45.18-2.76.23-4.09a5.77,5.77,0,0,0-.17-1.43c-.58-2.15-1.58-1.2-2,1.49-.47,2.86-.24,5.92-.35,8.88,0,.78,0,1.59,0,2.39l.17.27Zm59.32,0-.09-.46.43.46c.08-1.45.18-2.76.23-4.09a5.75,5.75,0,0,0-.17-1.43c-.58-2.15-1.58-1.2-2,1.49-.47,2.86-.24,5.92-.35,8.88,0,.78,0,1.59,0,2.39l.17.27Zm59.32,0-.09-.46.43.46c.08-1.45.18-2.76.23-4.09a5.75,5.75,0,0,0-.17-1.43c-.58-2.15-1.58-1.2-2,1.49-.47,2.86-.24,5.92-.35,8.88,0,.78,0,1.59,0,2.39l.17.27Zm59.32,0-.09-.46.43.46c.08-1.45.18-2.76.23-4.09a5.75,5.75,0,0,0-.17-1.43c-.58-2.15-1.58-1.2-2,1.49-.47,2.86-.24,5.92-.35,8.88,0,.78,0,1.59,0,2.39l.17.27Zm59.32,0-.09-.46.43.46c.08-1.45.18-2.76.23-4.09a5.75,5.75,0,0,0-.17-1.43c-.58-2.15-1.58-1.2-2,1.49-.47,2.86-.24,5.92-.35,8.88,0,.78,0,1.59,0,2.39l.17.27Zm-189.75,164,4.45-1.52-1.85-.1c5.51-.15,2.78-.81,7.29-1l-4.38-.24c1.44-.21,3.14-.36,2.31-.69-.65-.26,2.07-.6,3-.91.36-.13-.38-.28-.18-.41a2.43,2.43,0,0,1,1.53-.46c2.33-.07,3.43-.59,7.1-.22.32,0,1.21,0,1.73,0,6-.19,11.72-.11,17.68.07,3.78.12,8.12.11,12.17.09,4.79,0,9.53-.16,14.33-.18,5.53,0,11.1,0,16.65,0,1.07,0,2.31,0,3.18-.05a126.17,126.17,0,0,1,16.61.21c1.79.17,5.09.18,7.71.26l-.26-.14a12.22,12.22,0,0,1,2.72-.5,67.8,67.8,0,0,1,8.51.14c2,.17,5.32.2,8.42.3l-.85.59c8.76.1,5.22.72,4.86,1.25,3.35-.06,6.42-.16,9.42-.14,4.68,0,9.66,0,13.74.32.91.08,3.21,0,4.68,0s2.69.17,4,.26l-2.36.33c2.8.24,4.24.54,1.63,1-.6.09.08.26,0,.39-.34.35-1.51.72-7,.8-2.87,0-6.22.82-5.21,1.19,1.46.54-2.77,1-8.36,1-3.1,0-6.23,0-9.33,0a10.28,10.28,0,0,0-1.81.22,83.11,83.11,0,0,1-10.87.55c-.66,0-1.49,0-1.82-.1-2.24-.35-2.2-.35-5.46,0,1.73.34,3.48.65,4.93,1,.55.12.43.28.61.42-2.11,0-4.23,0-6.33,0-.73,0-1.43-.12-2.1-.11l-26.2.18c-.37,0-.72,0-1.06,0,0,0,.06.08.11.08l20.91.11c2.14,0,4.28,0,6.43,0,4.24,0,5.46.12,4.91.67l6.07-.26c1.26,0,2.58-.1,3.91-.11,6.12,0,11.57-.27,17-.54,1.81-.09,4.26-.07,6.42-.09,3.36,0,6.76-.07,10.08-.13,5.27-.11,7.32.08,6.31.6a13.76,13.76,0,0,0-1.75,1.18c-2.54,0-4.2.23-3.56.6l-18.31.15.39-.07c-.91,0-1.8-.13-2.72-.13H294.11c-.82,0-1.67,0-2.44,0-3.18-.07-4.09-.05-3.74.19.65.46-2.9.5-5.37.62-6.52.31-13.55.46-20.55.64-5.58.14-11.52.12-16.87.36-1,0-2.38,0-3.58,0-4.93,0-9.63-.26-14.73-.11a18.26,18.26,0,0,1-2.63-.18,4.65,4.65,0,0,1-1.31-.56l-3.5-.09,1.11-.18c-2.85,0-5.27.13-7.65.12s-4.68-.12-7.29-.19l-.44.27-5.73,0,1.27-.09c-.08-.24-.71-.45,0-.59a39.14,39.14,0,0,1,4.26-.22,9.11,9.11,0,0,0,2.83-.21c.35-.15,2.53-.25,3.9-.38,3.37-.3,2.26-.71,2.48-1.08.07-.13-.11-.27-.2-.45l-2.8-.17,4.64-.25-.27.24c.71,0,1.79,0,2.08,0,2.24-.27,4.68-.53,6.36-.83,2.25-.4-2.65-.9-6.44-.95-4.8-.06-9.7,0-14.56,0-2,0-4,0-6.11-.08l9.75-.17s0-.07,0-.11c-1.08,0-2.16-.05-3.24,0a33.35,33.35,0,0,1-5-.24,41.62,41.62,0,0,0-6-.18c-3.3,0-7.85.24-10.2-.19-.88-.16-.14-.41-.14-.61Zm67.86,3.87,4.15,0,.1,0-3.1.11c2.08.06,3.28.14,4,.1,1.76-.08,3.31-.2,4.94-.31A66.55,66.55,0,0,0,240.6,177.28Zm-48.4-6.81,14.3.22.71-.12a12.49,12.49,0,0,0-1.92-.27c-2.14,0-4.37,0-6.55,0-1.31,0-2.59.05-3.9.06-.77,0-1.56,0-2.34-.07Zm40.56,17c1.47.13,2.46.31,3.41.44l10.33-.48a11,11,0,0,0,1.35-.12c2.23-.52-3.23-1.19-8.92-1.19-6.28,0-12.6-.06-18.83-.14a17,17,0,0,0-4.59.25A35.37,35.37,0,0,0,212,187.8c-.17.09.8.23,1.63.3,4.15.35,9,.12,13.49.12,3.48,0,3.93-.15,2.26-.44-.5-.09-.09-.22-.1-.34C230.46,187.45,232.08,187.4,232.76,187.46Zm54.11-5.37c-2.4,0-5.44.1-8,0-3.71-.11-6.17.09-9.17.19-4.5.15-9.19.24-14.27.37a17.82,17.82,0,0,0-1.72.46c-.22.09,0,.2.51.28a37.11,37.11,0,0,1,4.53.71c.7.51,4.68.35,7.4.44a16.66,16.66,0,0,0,4.53-.27,34.27,34.27,0,0,1,4.14-.68,36.74,36.74,0,0,1,3.88-.08c4.44.37,8.89.08,12.51.09-.84-.27-1.63-.51-2.31-.75S287.56,182.37,286.87,182.09Zm-103.6,4.39c-.9,0-2.17.06-2.86.13-4.3.44-2.4,1.18,3,1.51,5.72.35,11.85.18,17.76.26,1.56,0,3.18,0,4.77,0l.53-.13-15-1.34-.92.07.92-.32C188.55,186.59,185.94,186.52,183.27,186.48Zm-10.53,34.37,4.45-1.52-1.85-.1c5.51-.15,2.78-.81,7.29-1l-4.38-.24c1.44-.21,3.14-.36,2.31-.69-.65-.26,2.07-.6,3-.91.36-.13-.38-.28-.18-.41a2.43,2.43,0,0,1,1.53-.46c2.33-.07,3.43-.59,7.1-.22.32,0,1.21,0,1.73,0,6-.19,11.72-.11,17.68.07,3.78.12,8.12.11,12.17.09,4.79,0,9.53-.16,14.33-.18,5.53,0,11.1,0,16.65,0,1.07,0,2.31,0,3.18-.05a126.17,126.17,0,0,1,16.61.21c1.79.17,5.09.18,7.71.26l-.26-.14a12.22,12.22,0,0,1,2.72-.5,67.8,67.8,0,0,1,8.51.14c2,.17,5.32.2,8.42.3l-.85.59c8.76.1,5.22.72,4.86,1.25,3.35-.06,6.42-.16,9.42-.14,4.68,0,9.66,0,13.74.32.91.08,3.21,0,4.68,0s2.69.17,4,.26l-2.36.33c2.8.24,4.24.54,1.63,1-.6.09.08.26,0,.39-.34.35-1.51.72-7,.8-2.87,0-6.22.82-5.21,1.19,1.46.54-2.77,1-8.36,1-3.1,0-6.23,0-9.33,0a10.28,10.28,0,0,0-1.81.22,83.11,83.11,0,0,1-10.87.55c-.66,0-1.49,0-1.82-.1-2.24-.35-2.2-.35-5.46,0,1.73.34,3.48.65,4.93,1,.55.12.43.28.61.42-2.11,0-4.23,0-6.33,0-.73,0-1.43-.12-2.1-.11l-26.2.18c-.37,0-.72,0-1.06,0,0,0,.06.08.11.08l20.91.11c2.14,0,4.28,0,6.43,0,4.24,0,5.46.12,4.91.67l6.07-.26c1.26,0,2.58-.1,3.91-.11,6.12,0,11.57-.27,17-.54,1.81-.09,4.26-.07,6.42-.09,3.36,0,6.76-.07,10.08-.13,5.27-.11,7.32.08,6.31.6a13.76,13.76,0,0,0-1.75,1.18c-2.54,0-4.2.23-3.56.6l-18.31.15.39-.07c-.91,0-1.8-.13-2.72-.13H294.11c-.82,0-1.67,0-2.44,0-3.18-.07-4.09-.05-3.74.19.65.46-2.9.5-5.37.62-6.52.31-13.55.46-20.55.64-5.58.14-11.52.12-16.87.36-1,0-2.38,0-3.58,0-4.93,0-9.63-.26-14.73-.11a18.26,18.26,0,0,1-2.63-.18,4.65,4.65,0,0,1-1.31-.56l-3.5-.09,1.11-.18c-2.85,0-5.27.13-7.65.12s-4.68-.12-7.29-.19l-.44.27-5.73,0,1.27-.09c-.08-.24-.71-.45,0-.59a39.14,39.14,0,0,1,4.26-.22,9.11,9.11,0,0,0,2.83-.21c.35-.15,2.53-.25,3.9-.38,3.37-.3,2.26-.71,2.48-1.08.07-.13-.11-.27-.2-.45l-2.8-.17,4.64-.25-.27.24c.71,0,1.79,0,2.08,0,2.24-.27,4.68-.53,6.36-.83,2.25-.4-2.65-.9-6.44-.95-4.8-.06-9.7,0-14.56,0-2,0-4,0-6.11-.08l9.75-.17s0-.07,0-.11c-1.08,0-2.16-.05-3.24,0a33.35,33.35,0,0,1-5-.24,41.62,41.62,0,0,0-6-.18c-3.3,0-7.85.24-10.2-.19-.88-.16-.14-.41-.14-.61Zm67.86,3.87,4.15,0,.1,0-3.1.11c2.08.06,3.28.14,4,.1,1.76-.08,3.31-.2,4.94-.31A66.55,66.55,0,0,0,240.6,224.73Zm-48.4-6.81,14.3.22.71-.12a12.49,12.49,0,0,0-1.92-.27c-2.14,0-4.37,0-6.55,0-1.31,0-2.59.05-3.9.06-.77,0-1.56,0-2.34-.07Zm55.65,16.84c2.23-.52-3.23-1.19-8.92-1.19-6.28,0-12.6-.06-18.83-.14a17,17,0,0,0-4.59.25,35.37,35.37,0,0,0-3.53,1.58c-.17.09.8.23,1.63.3,4.15.35,9,.12,13.49.12,3.48,0,3.93-.15,2.26-.44-.5-.09-.09-.22-.1-.34,1.2,0,2.82,0,3.5,0,1.47.13,2.46.31,3.41.44l10.33-.48A11,11,0,0,0,247.84,234.76Zm22.84-3a34.27,34.27,0,0,1,4.14-.68,36.74,36.74,0,0,1,3.88-.08c4.44.37,8.89.08,12.51.09-.84-.27-1.63-.51-2.31-.75s-1.34-.52-2-.8c-2.4,0-5.44.1-8,0-3.71-.11-6.17.09-9.17.19-4.5.15-9.19.24-14.27.37a17.82,17.82,0,0,0-1.72.46c-.22.09,0,.2.51.28a37.11,37.11,0,0,1,4.53.71c.7.51,4.68.35,7.4.44A16.66,16.66,0,0,0,270.68,231.76Zm-87.41,2.18c-.9,0-2.17.06-2.86.13-4.3.44-2.4,1.18,3,1.51,5.72.35,11.85.18,17.76.26,1.56,0,3.18,0,4.77,0l.53-.13-15-1.34-.92.07.92-.32C188.55,234,185.94,234,183.27,233.94Zm84.38,43.48-2.54,1.52,1.06.1c-3.15.15-1.59.81-4.16,1l2.5.24c-.82.21-1.8.36-1.32.69s-1.18.6-1.7.91c-.21.13.21.28.1.41a1.08,1.08,0,0,1-.87.46c-1.33.07-2,.59-4.06.22a6.73,6.73,0,0,0-1,0,90.05,90.05,0,0,1-10.1-.07c-2.16-.12-4.64-.11-7-.09-2.74,0-5.45.16-8.19.18-3.16,0-6.34,0-9.52,0-.61,0-1.32,0-1.82.05a41.39,41.39,0,0,1-9.49-.21c-1-.17-2.91-.18-4.41-.26l.15.14a4.46,4.46,0,0,1-1.56.5,22.21,22.21,0,0,1-4.86-.14c-1.15-.17-3-.2-4.81-.3l.48-.59c-5-.1-3-.72-2.78-1.25-1.92.06-3.67.16-5.38.14a58.8,58.8,0,0,1-7.85-.32c-.52-.08-1.84,0-2.67,0s-1.54-.17-2.3-.26l1.35-.33c-1.6-.24-2.42-.54-.93-.95.34-.09,0-.26,0-.39.19-.35.86-.72,4-.8,1.64,0,3.55-.82,3-1.19-.84-.54,1.58-1,4.78-1,1.77,0,3.56,0,5.33,0a3.53,3.53,0,0,0,1-.22,27.44,27.44,0,0,1,6.21-.55,6.59,6.59,0,0,1,1,.1c1.28.35,1.26.35,3.12,0-1-.34-2-.65-2.82-1-.32-.12-.24-.28-.35-.42,1.21,0,2.42,0,3.62,0,.42,0,.82.12,1.2.11l15-.18c.21,0,.41,0,.61,0,0,0,0-.08-.06-.08l-11.95-.11c-1.22,0-2.45,0-3.68,0-2.43,0-3.12-.12-2.81-.67l-3.47.26c-.72,0-1.48.1-2.23.11-3.5,0-6.61.27-9.69.54-1,.09-2.43.07-3.67.09-1.92,0-3.87.07-5.76.13-3,.11-4.18-.08-3.61-.6a9.49,9.49,0,0,0,1-1.18c1.45,0,2.4-.23,2-.6l10.46-.15-.22.07c.52,0,1,.13,1.55.13H198.3c.47,0,1,0,1.4,0,1.82.07,2.34.05,2.14-.19-.37-.46,1.66-.5,3.07-.62,3.73-.31,7.74-.46,11.74-.64,3.19-.14,6.58-.12,9.64-.36.59,0,1.36,0,2,0,2.82,0,5.5.26,8.42.11a6,6,0,0,1,1.5.18,2.32,2.32,0,0,1,.75.56l2,.09-.64.18c1.63,0,3-.13,4.37-.12s2.68.12,4.16.19l.25-.27,3.27,0-.72.09c0,.24.41.45,0,.6a12.92,12.92,0,0,1-2.43.22c-.94,0-1.35,0-1.62.21a13.52,13.52,0,0,1-2.23.38c-1.93.3-1.29.71-1.41,1.08,0,.13.06.27.11.45l1.6.17-2.65.25.15-.24c-.41,0-1,0-1.19,0-1.28.27-2.68.53-3.64.83-1.28.4,1.51.9,3.68.95,2.74.06,5.54,0,8.32,0,1.14,0,2.28,0,3.49.08l-5.57.17s0,.07,0,.11c.62,0,1.24.05,1.85.05a11,11,0,0,1,2.87.24,13.6,13.6,0,0,0,3.4.18c1.89,0,4.49-.24,5.83.19.51.16.08.41.08.61Zm-38.78-3.88-2.37,0-.05,0,1.77-.11c-1.19-.06-1.87-.14-2.29-.11-1,.08-1.89.2-2.82.31A21.8,21.8,0,0,0,228.87,273.55Zm27.66,6.82-8.17-.23-.41.12a4.33,4.33,0,0,0,1.1.27c1.22,0,2.5,0,3.74,0,.75,0,1.48-.05,2.23-.06.44,0,.89,0,1.34.07Zm-23.18-17a19.81,19.81,0,0,1-1.95-.44l-5.9.48a3.64,3.64,0,0,0-.77.12c-1.28.52,1.84,1.19,5.1,1.19,3.59,0,7.2.06,10.76.14a5.68,5.68,0,0,0,2.62-.25,18.1,18.1,0,0,0,2-1.58c.09-.09-.46-.23-.93-.3a54.31,54.31,0,0,0-7.71-.12c-2,0-2.25.15-1.29.44.29.09.05.22.05.34C234.67,263.38,233.74,263.42,233.35,263.36Zm-30.92,5.37c1.37,0,3.11-.1,4.57,0a41.38,41.38,0,0,0,5.24-.19c2.57-.15,5.25-.24,8.15-.37a7.08,7.08,0,0,0,1-.46c.13-.09,0-.21-.29-.28a13.06,13.06,0,0,1-2.59-.71c-.4-.51-2.67-.35-4.23-.44a5.58,5.58,0,0,0-2.59.27,9.58,9.58,0,0,1-4.58.76,49.21,49.21,0,0,0-7.15-.09c.48.27.93.51,1.32.75S202,268.46,202.43,268.73Zm59.2-4.39a9.88,9.88,0,0,0,1.64-.12c2.46-.44,1.37-1.18-1.7-1.51-3.27-.35-6.77-.18-10.15-.26-.89,0-1.82,0-2.73,0l-.3.13,8.57,1.34.53-.07-.53.32C258.62,264.23,260.11,264.31,261.64,264.34Z"/></svg>