<svg id="Layer_1" data-name="Layer 1" xmlns="http://www.w3.org/2000/svg" viewBox="0 0 512 512"><defs><style>.cls-1{fill:#707070;}</style></defs><title>document-and-pen-2-handdrawn</title><path class="cls-1" d="M59.59,508.65c3,.65,2.11,1-3.77-.39a39.07,39.07,0,0,1-5.75-1.68,54,54,0,0,1-7.9-3.27A73.71,73.71,0,0,1,5.76,463.54,76.65,76.65,0,0,1,.81,436.2L.65,412.59l.6-30.39c0-6.08,0-20.57,0-31.26-.16,0-.34-3.6-.46.86-.39,14.88-.58,10.84-.59-20.2,0-40.37-.32-83.38.16-120.45.1-7.42.29-16,.4-14.54.72,8.85,1.44,19.74,2.15,31.53.31,5.07.38,17.61.34,40.95-.06,55.62-.13,112.09-.19,168.13a79.39,79.39,0,0,0,3.27,21.9,77.66,77.66,0,0,0,9.15,19,74,74,0,0,0,25.86,23.41C49.77,506.17,56.67,507.69,59.59,508.65Zm299.85-109-1.08,18.08c0,5.36,0,11.07,0,17,.08,2.83-.16,6.29-.32,9.56a73,73,0,0,1-1.81,9.87,65.21,65.21,0,0,1-20.44,33.15,67.06,67.06,0,0,1-43.27,16.46l-38.61.24-127.27.51-15.38.63c-2,.12.34.28,4.57.39,13.11.33,37.35.62,40.38,1,6.25.7,41.75.48,66,.6,20.56.1,32.31-.05,40.41-.37l15.91-.49c6.39-.28,12.94,0,21.9-1a74.39,74.39,0,0,0,18.87-5.19C326.74,497,333.07,492,335.72,490a68.71,68.71,0,0,0,19.72-26.52,66.66,66.66,0,0,0,4.33-15.89,96.2,96.2,0,0,0,.79-15.46c0-18.93-.08-36.94-.12-53.06ZM1.09,80.39c.09-5.05.05-12.38,1.45-18.95A71.13,71.13,0,0,1,9.07,42.33,69,69,0,0,1,20.52,25.81,70.2,70.2,0,0,1,36,13.07a63.88,63.88,0,0,1,8.63-4.77,66.4,66.4,0,0,0-8.43,5.06A68.4,68.4,0,0,1,57,4.51,73.66,73.66,0,0,1,67.81,2.63c3.63-.2,7.41-.38,10.18-.31l35.73.1,25.52-.17C177.62,1.66,160.64.65,112.67.2l-39-.2A74.37,74.37,0,0,0,2.2,56.93,44.23,44.23,0,0,0,1,63,48.09,48.09,0,0,0,.29,69.1c-.1,2-.24,4.23-.26,6v5q0,10,0,19.87c0,13.95,0,28.38,0,42.6l.18,4.73Zm228.16,99.87a60.6,60.6,0,0,0,11.28,3.24c1.28.21.17-.2-2.86-1.18-1.81-.59-.25-.38-.24-.54a48.8,48.8,0,0,0,7.2,1.48,56.92,56.92,0,0,0,5.84.73c5.86.55,8.6.67,11.57.87l32.21-.65c1.66,0,3.51-.1,4.19-.17,7-.71-10.05-1.62-27.81-1.62H255.93a74.09,74.09,0,0,1-17.21-2.22A69.82,69.82,0,0,1,208.51,164c-7.12-6.48-9.9-10.93-11.44-12.4a99.26,99.26,0,0,1-8.36-10.48c-.36-.53,1,2.91,2.41,5.75C198.28,161.21,212.94,174.19,229.25,180.26ZM361.7,160.93c.07,3.21.08,7.21,0,12.24,0,.74,0,1.5,0,2.28s.34,1.91-.65,1.79l-4.18,1-2.45.59c0,3,0,5.89-.07,8.89q0,82.67,0,165.41c0,7.29,0,14.89,0,21.83-.09,28.42-.07,36.5.26,33.37.31-2.9.48,3.57.59,13.54,0,5,.16,10.79.08,16.87a66.1,66.1,0,0,1-2.85,18.12,63.3,63.3,0,0,1-50.65,43.56c-8.08,1.22-15.73.74-23.37.89l-93.21.37-76,.2c-12.81,0-25.16.23-38-.06a63.88,63.88,0,0,1-36.09-13.26c-8-5.77-16.16-16.18-20.36-26.87a66.91,66.91,0,0,1-4.27-17c-.52-5.94-.39-11.35-.38-16.73,0-10.83.07-21.62.1-32.46,0-21.68,0-43.56,0-66.35,0-5.89.13-20.08.25-23.44.22-6.41.48-7.78.76-11.71,0-8.69.07-19,.12-31.25l.24,9.93c-.06-25.44-.11-47.08-.16-68.31s.16-41.83.25-65.06l-.37-4c0-14.47,0-29.1.06-51.11.06,6,.11,9.88.12,11.4v-.08c.32-.67.61-6.36.81-.07.16,5,.27,24.25.3,38,0,14.76,0,21.06.29,25.31.2,3.11.34,22.57.51,34.84.41,30.12,1,20.21,1.47,22.1.18.66.36-1,.61-1.78,0-1.88.09-10.14.23-25,.13,16.14.22,27.33.34,41.43L15.68,228c0,6.37,0,16,0,18.58l1.13,56.81c.55,20.07,1.22-23.65,1.29-57.53,0-42.83,0-86.6.05-130,0-8.91,0-17.84,0-26.88q0-6.79,0-13.69l.32-6.53c.39-2.14.59-4.32,1.11-6.46-1.49,6.59-1.34,13.32-1.31,20.76l.06,21.75.11,43.5.14-.06c0-9.64,0-19.3.07-28.9,0-19,0-33.06.33-44.87a62.07,62.07,0,0,1,3.76-19.25A55.64,55.64,0,0,1,58.26,21.52l5.54-1.4c1.9-.26,3.78-.64,5.69-.83l5.8-.27H81.5c16.45,0,31.84.08,42.33.37,7.88.22,1.28.56,1.28.83h76.62V15.54h-.52c-1.74,0-3.07-.09-4-.16-1.87-.14-2.15-.35-.89-.63,2.29-.51,3.52-1,5.47-1.61L208,13c3.37,3.2,5.33,4.82,4.45,3.42L253,56.76l-.92-.79,3.08,3.22,57.48,57.38a.41.41,0,0,0,0-.13c-1-1.87,6.88,5.92,12.44,11.26l23.7,23c2.55,2.33,3.9,4.62,5.91,7a18.86,18.86,0,0,1,1.26,1.69,8.26,8.26,0,0,1,.15,2.26l0,4.72,0,4.74,0,2.38a5.34,5.34,0,0,1-1.75.32c0,.76,0,1.52,0,2.28l1.94-.36,1.51-.28.75-.14c.32,0,.08-.5.15-.72l0-3.46q0-3.44-.07-6.84c-.15-2.23.39-4.73-.95-6.08l-4.55-6.65-6.75-6.6-5.58-5.5-5.65-5.71-17.64-17.6-3.7-5.23-4.37-5.81c7.94,8,18.05,17.54,27.48,27.68,1.42,1.52,7,7,8.63,8.49l8.24,7.62,1.9,1.73a9.3,9.3,0,0,1,1.17,1.57l1.84,2.73,1.71,2.65a13,13,0,0,1,.89,1.56A4.23,4.23,0,0,1,361.7,160.93Zm-72.58,9.49-9.65.15,12.47.14,15.4-.42c-5.92-.31-18.8-.27-31.46.11l12.94,0Zm30.22-12.87,9.92-.07,1.35,0,0,0,0-.06,0-.08s0,0,.07,0,.3-.09.3-.49c-.05-.07.12.08-.13-.19l-.82-.88-1.84-1.93L324,149.39l-9.08-9.28.44.71a84,84,0,0,1-6.48-5.52c-6.16-5.94-12.58-12.38-18.62-18.89C286,111.78,278.75,104.48,272,97.54l2.43,1.3c-19.22-19.42-10.81-12.21-9.51-11.92L244,66.29C233.73,55.93,222.7,45,214,35.66l-9.95-10-.1-.12c.27,12.62,1.06,6.32,1.36,19.34.13-5.49.21-9.15.32-13.65.28,4.49.49,9.8.94,7.2.36-2,.81,6.46,1.24,9.27.17,1.13.38-1.17.56-.55A15,15,0,0,1,209,51.9c.1,7.28.8,10.69.3,22.16,0,1,0,3.77,0,5.4,0,9.37.09,18.51.14,27.63v3.42l.12,2.71a31.33,31.33,0,0,0,.5,5.26,49.43,49.43,0,0,0,2.72,10.29,46.07,46.07,0,0,0,34.8,28.08,57.58,57.58,0,0,0,8.65.73l11.18,0ZM205.83,83c0-2.42.06-4.87.1-7.3l-.2-.93L205.57,97l-.08,11.15v2.77l.11,2.33a28.74,28.74,0,0,0,.39,4.65l.44,1.81c0-1.67-.25-3.07-.26-5l-.19-4.25v-5.12c0-3.42,0-6.86,0-10.27C205.88,91,205.85,87,205.83,83ZM203.22,24l.3-.06h0l-.32-.05Zm.11.72.48,3.18.06-2.54Zm122.1,145.53c.13,0,.18.11.33.11l15.54,0h.26c0-.08,0-.17,0-.25l-12.81,0Zm23.3.17h2.58V169l0-3.81V159.6l-33.42-33.3,1.58,1.66,28.18,28c1,1.14,2.43,2.1,3.08,3.39l0,4.67,0,4.68v1.17c.07.46-.65.13-.93.23h-1.17Zm0,6.71a14,14,0,0,0,1.55-.29l1.3-.24v-2.48l-2.84.34Q348.73,175.79,348.73,177.13ZM202.65,20.21h5l-4.94.26.19,1.29a9.94,9.94,0,0,1,1.67-.32,31.64,31.64,0,0,1,2.58,2.21L214.68,31c6.36,6.28,14.5,12.93,12.63,10.35-2.71-3.75,7.1,5.09,19.41,17.47l20.57,20.56c1.49,1.48,3.18,2.93,4.21,3.79,3.73,3.14,17.15,16,24.49,23.45,1.43,1.46,3.25,3.34,3.92,4.1,4.6,5.27,4.51,5.19,12,12.1L302,111c-.82-1-.79-1.18-.84-1.43l-53.19-53c-14-14-24.38-24.33-31.19-31.27L212.46,21,207,15.59l-5-.05ZM24,147.69c.05,2.11.11,4.24.16,6.36.13-5.67.36-10.57.37-17.18,0-19.12,0-39,0-58.47l0-4.28.18-3.61a51.61,51.61,0,0,1,1-7.11A50.46,50.46,0,0,1,30.88,50a47.8,47.8,0,0,1,11-13.29,13.36,13.36,0,0,1,1.56-1.57A50.38,50.38,0,0,0,27.77,56.19,51.88,51.88,0,0,0,24.55,69c-.14,2.31-.31,4.2-.33,6.88l0,8ZM84.31,497c-4.23-.11-9.77,0-16-.51a59.81,59.81,0,0,1-51.46-44.71,58.91,58.91,0,0,0,18.71,30.61l.59.6a64,64,0,0,1-6.85-6.76c-1.28-1.57-2.81-3.41-4.42-5.78A57.22,57.22,0,0,0,42.41,488a59.52,59.52,0,0,0,20.53,8.12C70,497.52,77,497,84.31,497ZM24.76,470.24c-.64-1-1.3-2-2-3.17C23.44,468.21,24.1,469.21,24.76,470.24Zm93.87,14,28.38-.07,77.74-.22,69.75.38a45.47,45.47,0,0,0,23.19-7.16,50.94,50.94,0,0,0,11-9.64A52.16,52.16,0,0,0,336,455.33a11,11,0,0,1-.9,1.58c2-5.71,3-8.86,3.45-18.31,0-23.88-.11-50.35.25-75.62.1-18,.26-47.46.41-75.16l.8,7.57c.13-78.22,1-46.61,1.7-43.39-.06-25.42-.12-48.92-.17-71.83a66.58,66.58,0,0,1-8-.43c-.4-.09-1.68-.17-3.12-.25l-3.73-.24-8.38-.48c-1.48-.11-2.29-.27-1.6-.39,1.48-.25,4.14-.49,5.38-.63l13.07-.12c2.05-.07,4.23,0,6.36,0,0-.9,0-1.81,0-2.72l-51.55.56-11.16,0-22.76-.15a68.91,68.91,0,0,1-24.1-4.67,46.1,46.1,0,0,1-7.72-4,28.16,28.16,0,0,1-3.29-2.89,70,70,0,0,1-8.82-7.26l2.84,2.26a62.45,62.45,0,0,1-15.4-19.39,61.09,61.09,0,0,1-6.3-22.74l-.44-1.42c-.38-5.41-.11-10.3-.16-18.06l.12,4c.32-.24.61-2.22.81,0,.24,1.78.09,8.39.48,13.37a35,35,0,0,0,1.39,8.94c.24.52.82,2.45,1.5,4.76s1.86,4.89,2.71,6.88c2.42,4.77,3.57,6.14,4.1,6.45s.36-.4.75-.25.14-.47.21-.83a53.66,53.66,0,0,1-3.52-7.78,57.07,57.07,0,0,0,7,12.16l-.75-.47a47,47,0,0,0,19.25,16.34c6.1,2.83-6.8-4.29-13.69-13.11a57.92,57.92,0,0,1-13.54-39.36c0-6.23.07-12.46.1-19.06l.11,15.2c.05,5.19,0,10,.76,14.55l.14,0c-.58-3.12-.43-6.13-.57-9.43,0-6.63,0-11.55.32-15.68.26-3.8.3-10,.25-18.57-.06-10.3-.33-24.49.25-31.83.22-2.76.56-.45.83-.45V24.44l-1.39-.05c.38,0,1.1-.06,1.39-.09v-.63c-1.11-.09-2.42-.19-2.91-.29s-.66-.22-.07-.34c.29-.06.75-.12,1.39-.19.37,0,1.13-.09,1.59-.14V20.52l-33.79,1.77,16.5.14c-49.17.2-24.77,1.1-65,1.42l39,.32c-12.83.28-28,.49-20.58.94,5.81.36-18.48.81-26.5,1.24-3.24.17,3.35.38,1.56.56a117.89,117.89,0,0,1-13.62.63l-14.06.16-6.48.11c-2.15,0-4.53,0-6.07.22A48.25,48.25,0,0,0,46.83,37.1c-2,1.06-6.35,5.42-8.6,8.22a47,47,0,0,0-10.1,28.35c0,13.07,0,26,0,39-.08,26.11-.16,52.17-.24,78.79,0,33.77-.09,72.45-.13,108.6.08,42.8.16,85.1.25,127.89v9.27a54.45,54.45,0,0,0,.58,7.21A42.44,42.44,0,0,0,32.76,458,47.18,47.18,0,0,0,52.2,478.5a51.15,51.15,0,0,0,13.4,4.87,48.58,48.58,0,0,0,7.13.79l1.8.11h44.11Zm233-304.75-2.87.69c0,20.46,0,41,0,61.29,0,6,.18,12.37.3,16.2.42,13.9.84,67,.75,97,0,5.85-.11,13.34-.13,16.24-.47,20-.47,19.64-.06,48.76l1.33-44a22.44,22.44,0,0,1,.57-5.47v56.53c0,6.5,0,12.8-.72,18.57a59.2,59.2,0,0,1-31.65,44.89c-17.1,9.46-37.45,5.79-56.75,6.56l-116.81.13-9.49.06a6.12,6.12,0,0,0,.94.11l93.22.08,46.62,0c7.75-.1,15.61.34,23.18-.55a59,59,0,0,0,21.67-7.24,60.23,60.23,0,0,0,20.39-19.16,61.25,61.25,0,0,0,9.41-26.44c.64-37.69.35-48.68,1.24-43.75-.14-21.07-.24-37.37-.35-54.15,0-11.28-.1-23.07-.15-34.9C352,263.87,351.8,221.2,351.6,179.53ZM182.32,121.06a53.7,53.7,0,0,1-.4-7.16l0-3.48.11-2.92.46-11.69.91-23.38-.1-2.87.44,2.87c.08-9.06.16-17.23.23-25.55,0-2.81-.07-6.77-.17-8.93-.59-13.43-1.61-7.49-2.05,9.29-.47,17.85-.24,37-.35,55.41,0,2.44,0,4.92,0,7.41.07,2.7.21,6.05.48,9ZM385.64,444.81a32.07,32.07,0,0,0,1,4.61A44.74,44.74,0,0,1,385.64,444.81Zm81.27,8.82c.34-.83.67-1.68,1-2.55C467.56,452,467.23,452.79,466.91,453.63Zm-33.71,7.31a20.84,20.84,0,0,0,7.18-4.09c4.57-4.32,4.67-6.33,3.49-5.07-1.3,1-4.79,5.07-11.67,7.16a24.5,24.5,0,0,1-11.38.41,22.75,22.75,0,0,1-10.24-5.26,22.28,22.28,0,0,1-6.36-9.7,21.73,21.73,0,0,1-1-5.74c-.08-.72-.07-2.51-.06-4.09l0-4.76c0-6.7,0-13.63,0-20.46l-.18-2.27-.84,31.55a23.4,23.4,0,0,0,8.76,18.27,15.63,15.63,0,0,0,2.23,1.37,16.74,16.74,0,0,1-2.43-1.09A24.37,24.37,0,0,0,433.21,460.94ZM123,251.4l2.27-1.56-.94-.1c2.81-.15,1.41-.82,3.71-1.06l-2.23-.24c.73-.21,1.6-.37,1.18-.71s1.06-.61,1.51-.93c.18-.13-.19-.29-.09-.42a1,1,0,0,1,.78-.47c1.19-.07,1.75-.6,3.62-.23a5.09,5.09,0,0,0,.88,0,70.24,70.24,0,0,1,9,.08c1.93.12,4.14.12,6.2.1,2.44,0,4.86-.16,7.3-.18,2.82,0,5.66,0,8.49,0a15.92,15.92,0,0,0,1.62-.05,32.25,32.25,0,0,1,8.46.21c.91.17,2.6.18,3.93.27l-.13-.14a3.63,3.63,0,0,1,1.39-.51,17.33,17.33,0,0,1,4.33.14c1,.18,2.71.2,4.29.3l-.43.6c4.47.1,2.66.74,2.48,1.27,1.71-.06,3.27-.16,4.8-.15a45.9,45.9,0,0,1,7,.32c.46.08,1.64,0,2.38,0s1.37.17,2,.27l-1.2.33c1.43.24,2.16.55.83,1-.3.09,0,.26,0,.4-.17.35-.77.73-3.57.82-1.46,0-3.17.84-2.65,1.22.75.55-1.41,1.07-4.26,1-1.58,0-3.18,0-4.75,0a2.81,2.81,0,0,0-.92.22,21.5,21.5,0,0,1-5.54.56,5.24,5.24,0,0,1-.93-.1c-1.14-.35-1.12-.36-2.78,0,.88.35,1.77.66,2.51,1,.28.13.22.28.31.43-1.08,0-2.16,0-3.23,0-.37,0-.73-.12-1.07-.11l-13.35.18c-.19,0-.37,0-.54,0,0,0,0,.08.05.08l10.65.11c1.09,0,2.18,0,3.28-.05,2.16,0,2.78.12,2.5.68l3.09-.26c.64,0,1.32-.1,2-.11,3.12,0,5.9-.27,8.64-.56.92-.09,2.17-.07,3.27-.09,1.71,0,3.45-.07,5.13-.14,2.69-.11,3.73.09,3.22.61a9.42,9.42,0,0,0-.89,1.21c-1.29,0-2.14.23-1.81.62l-9.33.16.2-.07c-.46,0-.92-.13-1.39-.14-3.15,0-6.29,0-9.44,0-.42,0-.85,0-1.25,0-1.62-.07-2.08-.05-1.9.19.33.47-1.48.51-2.74.63-3.32.32-6.9.47-10.47.65-2.85.15-5.87.13-8.6.37-.53,0-1.21,0-1.82,0-2.51,0-4.91-.27-7.51-.11a4.77,4.77,0,0,1-1.34-.19c-.37-.17-.44-.36-.67-.57l-1.78-.09.57-.18c-1.45.05-2.69.13-3.9.12s-2.39-.12-3.71-.19l-.23.28-2.92,0,.65-.09c0-.24-.36-.46,0-.61a10.12,10.12,0,0,1,2.17-.22c.84,0,1.2,0,1.44-.22a10.68,10.68,0,0,1,2-.38c1.72-.31,1.15-.72,1.26-1.1,0-.13-.06-.27-.1-.46l-1.43-.18,2.36-.25-.14.24a10.07,10.07,0,0,0,1.06,0c1.14-.27,2.39-.54,3.24-.85,1.15-.41-1.35-.92-3.28-1-2.44-.06-4.94,0-7.42,0-1,0-2,0-3.11-.08l5-.17s0-.07,0-.11c-.55,0-1.1-.05-1.65-.05a8.62,8.62,0,0,1-2.56-.24,10.69,10.69,0,0,0-3-.19c-1.68,0-4,.25-5.2-.19-.45-.16-.07-.42-.07-.63Zm34.58,4,2.11,0,0,0-1.58.12c1.06.06,1.67.14,2,.11.9-.08,1.69-.21,2.52-.31A17,17,0,0,0,157.57,255.35Zm-24.67-7,7.28.23.36-.12a3.49,3.49,0,0,0-1-.28c-1.09,0-2.22,0-3.34,0-.67,0-1.32.06-2,.06-.39,0-.8,0-1.19-.07Zm20.67,17.34a16.19,16.19,0,0,1,1.74.45l5.27-.49a2.91,2.91,0,0,0,.69-.13c1.14-.53-1.64-1.22-4.55-1.21-3.2,0-6.42-.06-9.6-.14a4.48,4.48,0,0,0-2.34.25,16.6,16.6,0,0,0-1.8,1.61c-.08.09.41.23.83.3a42.37,42.37,0,0,0,6.88.12c1.77,0,2-.15,1.15-.44-.25-.09,0-.23,0-.34A17.14,17.14,0,0,1,153.57,265.74Zm27.58-5.47c-1.22,0-2.77.11-4.07,0a32.3,32.3,0,0,0-4.68.19c-2.29.15-4.68.25-7.27.38a6,6,0,0,0-.88.47c-.11.09,0,.21.26.29a10.56,10.56,0,0,1,2.31.72c.36.53,2.39.36,3.77.45a4.39,4.39,0,0,0,2.31-.28,9.86,9.86,0,0,1,2.11-.7,9.39,9.39,0,0,1,2-.08,38.39,38.39,0,0,0,6.37.1c-.43-.28-.83-.52-1.18-.76S181.5,260.54,181.15,260.26Zm-52.8,4.48a7.65,7.65,0,0,0-1.46.13c-2.19.45-1.22,1.2,1.52,1.54,2.92.36,6,.18,9.05.26.8,0,1.62,0,2.43,0l.27-.13-7.64-1.37-.47.07.47-.33C131,264.85,129.71,264.78,128.35,264.74Zm2,35.06H123l3.56-1.56-1.48-.1c4.41-.15,2.22-.82,5.84-1.06l-3.5-.24c1.15-.21,2.52-.37,1.85-.71s1.66-.61,2.38-.93c.29-.13-.3-.29-.14-.42a1.7,1.7,0,0,1,1.22-.47c1.87-.07,2.74-.6,5.69-.23a12.55,12.55,0,0,0,1.39,0c4.81-.19,9.38-.12,14.16.08,3,.12,6.5.12,9.74.1,3.84,0,7.63-.16,11.47-.18,4.43,0,8.89,0,13.33,0,.86,0,1.85,0,2.55-.05a79.38,79.38,0,0,1,13.3.21c1.44.17,4.08.18,6.17.27l-.21-.14a8,8,0,0,1,2.18-.51,42.66,42.66,0,0,1,6.81.14c1.62.18,4.26.2,6.74.3l-.68.6c7,.1,4.18.74,3.89,1.27,2.69-.06,5.14-.16,7.54-.15,3.75,0,7.74,0,11,.32.73.08,2.57,0,3.75,0s2.15.17,3.22.27l-1.89.33c2.24.24,3.4.55,1.31,1-.48.09.06.26,0,.4-.27.35-1.21.73-5.61.82-2.29,0-5,.84-4.17,1.22,1.17.55-2.21,1.07-6.7,1-2.48,0-5,0-7.47,0a6.56,6.56,0,0,0-1.45.22,52.41,52.41,0,0,1-8.7.56,12.79,12.79,0,0,1-1.46-.1c-1.79-.35-1.76-.36-4.37,0,1.39.35,2.79.66,3.95,1,.44.13.34.28.49.43-1.69,0-3.39,0-5.07,0-.58,0-1.15-.12-1.68-.11l-21,.18c-.29,0-.57,0-.85,0,0,0,0,.08.08.08l16.74.11c1.71,0,3.43,0,5.15-.05,3.4,0,4.37.12,3.93.68l4.86-.26c1,0,2.07-.1,3.13-.11,4.9,0,9.27-.27,13.57-.56,1.45-.09,3.41-.07,5.14-.09,2.69,0,5.42-.07,8.07-.14,4.22-.11,5.86.09,5.06.61a11.29,11.29,0,0,0-1.41,1.21c-2,0-3.36.23-2.85.62l-14.66.16.31-.07c-.73,0-1.44-.13-2.18-.14q-7.42,0-14.84,0c-.65,0-1.34,0-2,0-2.55-.07-3.27-.05-3,.19.52.47-2.32.51-4.3.63-5.22.32-10.85.47-16.45.65-4.47.15-9.23.13-13.51.37-.83,0-1.9,0-2.87,0-3.95,0-7.71-.27-11.8-.11a11.53,11.53,0,0,1-2.1-.19,3.37,3.37,0,0,1-1.05-.57l-2.8-.09.89-.18c-2.28.05-4.22.13-6.13.12s-3.75-.12-5.84-.19l-.36.28-4.59,0,1-.09c-.06-.24-.57-.46,0-.61a24.69,24.69,0,0,1,3.41-.22,5.79,5.79,0,0,0,2.27-.22,25.44,25.44,0,0,1,3.13-.38c2.7-.31,1.81-.72,2-1.1.06-.13-.09-.27-.16-.46l-2.25-.18,3.72-.25-.22.24c.57,0,1.44,0,1.67,0,1.79-.27,3.75-.54,5.1-.85,1.8-.41-2.12-.92-5.16-1-3.84-.06-7.77,0-11.66,0-1.6,0-3.2,0-4.89-.08l7.8-.17s0-.07,0-.11c-.86,0-1.73-.05-2.59-.05a21,21,0,0,1-4-.24,26.21,26.21,0,0,0-4.77-.19c-2.64,0-6.29.25-8.17-.19C129.8,300.27,130.4,300,130.4,299.8Zm46.93,4,3.32,0,.08,0-2.48.12c1.67.06,2.63.14,3.2.11,1.41-.08,2.65-.21,4-.31A41.88,41.88,0,0,0,177.33,303.76Zm-38.76-7L150,297l.57-.12a8,8,0,0,0-1.54-.28c-1.72,0-3.5,0-5.25,0-1,0-2.08.06-3.12.06-.62,0-1.25,0-1.87-.07Zm32.48,17.34c1.18.13,2,.32,2.73.45l8.27-.49a7,7,0,0,0,1.08-.13c1.79-.53-2.58-1.22-7.14-1.21-5,0-10.09-.06-15.08-.14a10.76,10.76,0,0,0-3.67.25,25.86,25.86,0,0,0-2.83,1.61c-.13.09.64.23,1.3.3a104.5,104.5,0,0,0,10.8.12c2.78,0,3.15-.15,1.81-.44-.4-.09-.07-.23-.08-.34C169.21,314.13,170.51,314.08,171.05,314.14Zm26.74-2.94a10.55,10.55,0,0,0,3.63-.28,22.13,22.13,0,0,1,3.31-.7,23.11,23.11,0,0,1,3.11-.08,94.66,94.66,0,0,0,10,.1c-.67-.28-1.31-.52-1.85-.76s-1.07-.53-1.62-.81c-1.92,0-4.36.11-6.4,0-3-.11-4.94.09-7.35.19-3.61.15-7.36.25-11.43.38a11.91,11.91,0,0,0-1.38.47c-.18.09,0,.21.41.29a23.91,23.91,0,0,1,3.63.72C192.43,311.28,195.62,311.11,197.79,311.2Zm-66.37,1.94a18.75,18.75,0,0,0-2.29.13c-3.45.45-1.92,1.2,2.38,1.54,4.58.36,9.49.18,14.22.26,1.25,0,2.55,0,3.82,0L150,315l-12-1.37-.74.07.74-.33C135.65,313.26,133.56,313.18,131.42,313.15Zm18.31,48c-2.69.06-5.14.16-7.54.15-3.75,0-7.74,0-11-.32-.73-.08-2.57,0-3.75,0s-2.15-.17-3.22-.27l1.89-.33c-2.24-.24-3.4-.55-1.31-1,.48-.09-.06-.26,0-.4.27-.35,1.21-.73,5.61-.82,2.3,0,5-.84,4.17-1.22-1.17-.55,2.21-1.07,6.7-1,2.48,0,5,0,7.47,0a6.58,6.58,0,0,0,1.45-.22,52.41,52.41,0,0,1,8.7-.56,12.64,12.64,0,0,1,1.46.1c1.79.35,1.76.36,4.37,0-1.39-.34-2.79-.66-3.95-1-.44-.13-.34-.28-.49-.43,1.69,0,3.39,0,5.07,0,.58,0,1.15.12,1.68.11l21-.18c.29,0,.57,0,.85,0,0,0,0-.08-.08-.08q-8.37-.06-16.74-.11c-1.71,0-3.43,0-5.15.05-3.4,0-4.37-.12-3.93-.68l-4.86.26c-1,0-2.07.1-3.13.11-4.9,0-9.27.27-13.57.56-1.45.09-3.41.07-5.14.09-2.69,0-5.42.07-8.07.14-4.22.11-5.86-.09-5.06-.61a11.35,11.35,0,0,0,1.4-1.21c2,0,3.36-.23,2.85-.62l14.66-.16-.31.07c.73,0,1.44.13,2.18.14h14.84c.65,0,1.34,0,2,0,2.55.07,3.27.05,3-.19-.52-.47,2.32-.51,4.3-.63,5.22-.32,10.85-.47,16.45-.65,4.47-.15,9.23-.13,13.51-.37.83,0,1.9,0,2.87,0,3.95,0,7.71.27,11.8.11a11.47,11.47,0,0,1,2.1.19,3.37,3.37,0,0,1,1.05.57l2.8.09-.89.18c2.28-.05,4.22-.13,6.13-.12s3.75.12,5.84.19l.36-.28,4.58,0-1,.09c.06.24.57.46,0,.61a24.69,24.69,0,0,1-3.41.22,5.78,5.78,0,0,0-2.27.22,25.44,25.44,0,0,1-3.13.38c-2.7.31-1.81.72-2,1.1-.06.14.09.27.16.46l2.25.18-3.72.25.22-.24c-.57,0-1.44,0-1.67,0-1.79.27-3.75.54-5.1.85-1.8.41,2.12.92,5.16,1,3.84.06,7.77,0,11.66,0,1.6,0,3.2,0,4.89.08l-7.8.17v.11c.86,0,1.73.05,2.59.05a21.05,21.05,0,0,1,4,.24,26.07,26.07,0,0,0,4.77.19c2.64,0,6.29-.25,8.17.19.71.16.12.42.12.63H256l-3.56,1.56,1.48.1c-4.41.15-2.22.82-5.84,1.06l3.5.24c-1.15.21-2.52.37-1.85.71s-1.66.61-2.38.93c-.29.13.3.29.14.42a1.7,1.7,0,0,1-1.22.47c-1.87.07-2.74.6-5.69.23a12.93,12.93,0,0,0-1.39,0c-4.81.19-9.38.12-14.16-.08-3-.12-6.5-.12-9.74-.1-3.84,0-7.63.16-11.47.18-4.43,0-8.89,0-13.33,0-.86,0-1.85,0-2.55.05a79.53,79.53,0,0,1-13.3-.21c-1.44-.17-4.08-.18-6.17-.27l.21.14a8,8,0,0,1-2.18.51,42.66,42.66,0,0,1-6.81-.14c-1.62-.18-4.26-.2-6.74-.3l.68-.6C146.61,362.28,149.44,361.64,149.73,361.1Zm78.66-.71a8,8,0,0,0,1.54.28c1.72,0,3.5,0,5.25,0,1,0,2.08-.06,3.12-.06.62,0,1.25,0,1.87.07l.24-.15L229,360.27Zm-34.83-6.76a41.89,41.89,0,0,0,8.08-.09l-3.32,0-.08,0,2.48-.12c-1.67-.06-2.63-.14-3.2-.11C196.12,353.4,194.88,353.53,193.57,353.63Zm9.43-9.1c5,0,10.09.06,15.08.15a10.76,10.76,0,0,0,3.67-.25,26,26,0,0,0,2.83-1.61c.13-.09-.64-.23-1.3-.3a104.5,104.5,0,0,0-10.81-.12c-2.78,0-3.15.15-1.81.44.4.09.07.23.08.34-1,0-2.26,0-2.8,0-1.18-.13-2-.32-2.73-.45l-8.27.49a6.87,6.87,0,0,0-1.08.13C194.07,343.86,198.44,344.54,203,344.53Zm-38.4,4.1c1.92,0,4.36-.11,6.4,0,3,.11,4.94-.09,7.35-.19,3.61-.15,7.36-.25,11.43-.38a11.89,11.89,0,0,0,1.38-.47c.18-.09,0-.21-.41-.29a23.86,23.86,0,0,1-3.63-.72c-.56-.53-3.75-.36-5.92-.45a10.55,10.55,0,0,0-3.63.28,22.12,22.12,0,0,1-3.31.7,23.23,23.23,0,0,1-3.11.08,94.67,94.67,0,0,0-10-.1c.67.28,1.31.52,1.85.76S164.05,348.36,164.6,348.64Zm83-4.48a18.91,18.91,0,0,0,2.29-.13c3.45-.45,1.92-1.2-2.38-1.54-4.58-.36-9.49-.18-14.22-.26-1.25,0-2.55,0-3.82,0l-.43.13,12,1.37.74-.07L241,344C243.33,344,245.43,344.12,247.56,344.16Zm264.15-97.61c-.12,1.8-.18,4.1-.24,6.63l-.17,6.47-.8-.74c-.13,7.66-1,4.56-1.7,4.25.08,2.93.22,5.61.2,8.23a101.19,101.19,0,0,1-.43,12c-.11.8,0,2.81,0,4.09s-.23,2.35-.35,3.52l-.45-2.06c-.32,2.45-.74,3.71-1.29,1.42-.13-.52-.35.07-.53,0-.47-.3-1-1.32-1.09-6.13-.06-2.51-1.12-5.44-1.62-4.56-.73,1.28-1.42-2.42-1.38-7.31,0-2.71,0-5.45,0-8.16a5.93,5.93,0,0,0-.3-1.59,25.81,25.81,0,0,1-.57-4.16c-.15-2.12-.23-4.63-.18-6.39a18.38,18.38,0,0,1,.13-2c.47-2.61.47-2.69.06-5.86-.46,2.22-.88,4.27-1.33,5.93-.17.63-.38.6-.57.87v-6c0-.69.16-1.51.15-2.15v-.27l-23.79.24c0,.06,0,.12,0,.18l17.72.14,5.58-.06v.43c0,3.95-.16,5.18-.91,5.17l.35,5.2c0,1.14.1,2.32.15,3.49.06,5.4.36,10.13.74,14.85.13,1.59.09,3.72.13,5.61.06,2.94.12,5.91.18,8.81.15,4.61-.12,6.4-.81,5.52a13.42,13.42,0,0,0-1.61-1.53c0-2.22-.31-3.67-.82-3.11-.07-5.43-.14-10.72-.21-16l.09.34c.06-.79.18-1.58.18-2.38V253.81c0-.63,0-1.29,0-1.89.09-2.52.07-3.22-.26-2.7-.55.81-.66-1.07-.79-2.58l-.7.05-7.28.5-8.09.37c-1.21,0-2.47.07-3.71.1l0,2.64,4.42-.17c2-.08,4.35-.16,5.15-.26a26.35,26.35,0,0,1,4.85-.25,22.64,22.64,0,0,0,2.39,0l.06,1.74-1.08,1.79-1,1.6c0-.94-.14-1.87-.13-3a5.31,5.31,0,0,1-1.68-.25,4.94,4.94,0,0,0-1.62.11,5.83,5.83,0,0,0-1.85.93,1.62,1.62,0,0,1-.63.34,4.37,4.37,0,0,1-1.5,0c-2.37-.12-5.85.1-6.46-.6a2.42,2.42,0,0,0-.92-.33c-.09,7.6-.19,16.54-.28,25.16l-.8-3.63c-.13,37.56-1,22.38-1.7,20.84.07,14.38.14,27.51.2,40.36,0,20.08.06,41.42-.43,58.92,0,3.92,0,13.78,0,20.05s-.24,11.53-.35,17.23l-.45-10.1c-.32,12-.74,18.18-1.29,7-.13-2.56-.35.34-.53-.21-.47-1.45-1-6.48-1.09-30-.06-12.29-1.12-26.66-1.62-22.34-.73,6.28-1.42-11.85-1.39-35.85,0-13.31,0-26.73,0-40,0-2.88-.18-5.94-.3-7.78-.32-5.08-.64-21-.73-34.74l-2.55.18c0,3,.05,6,.08,9,.06,26.25.37,49.62.74,72.68,0,7.78.08,18.26.13,27.52.06,14.41.12,29,.18,43.2.15,22.61-.11,31.39-.81,27.08-.51-3.15-1-4.85-1.61-7.52,0-10.88-.31-18-.82-15.24-.07-26.65-.14-52.57-.21-78.49l.09,1.67c.06-3.89.12-7.74.18-11.66q0-34,0-68l-3.42.25c-.82-.18-1.69-.43-3-.6-.59-.08-2,0-3.06,0,0,.16-.35.34.08.46,1.46.39,1.06.58-2,.59-3.95,0-8.16.32-11.79-.16-.73-.1-1.57-.29-1.42-.41a27.48,27.48,0,0,1,3.09-2.15c.5-.31,1.72-.38,4-.34l16.45.19,1,0q0-3.5,0-7c-3.84,0-7.57-.31-11.58-.12a10.37,10.37,0,0,1-2.29-.25,3.52,3.52,0,0,1-1.15-.76l-3.06-.12,1-.24c-2.49.06-4.61.17-6.69.16s-4.09-.16-6.37-.25l-.39.37-5-.06,1.11-.12c-.07-.32-.62-.61,0-.81a22.24,22.24,0,0,1,3.72-.3c1.44,0,2.06,0,2.48-.29a23.05,23.05,0,0,1,3.41-.51c2.95-.41,2-1,2.16-1.47.07-.18-.09-.36-.17-.62l-2.45-.23,4.05-.34-.24.32c.62,0,1.57,0,1.82,0,2-.36,4.09-.72,5.56-1.13,2-.55-2.31-1.23-5.63-1.29L427.46,240c-1.74,0-3.49,0-5.34-.11l8.51-.22v-.14l-2.83-.07a18.85,18.85,0,0,1-4.39-.32,23.48,23.48,0,0,0-5.2-.25c-2.88.06-6.86.33-8.91-.25-.77-.22-.13-.56-.13-.83H401.9c.2,13.67.4,27.47.62,41.91l-.6,14.6c0,2.93,0,9.88,0,15,.16,0,.34,1.73.46-.41.39-7.15.58-5.21.59,9.7,0,19.39.32,40-.16,57.85-.1,3.56-.29,7.69-.41,7-.72-4.25-1.44-9.48-2.15-15.14-.31-2.44-.38-8.46-.34-19.66.06-26.71.13-53.83.19-80.75,0-24.42.9-47.82,1.61-38.25.07.94.13,3.48.17,5.77l0,2,3.08-1.64-1.62-.14c4.82-.2,2.43-1.1,6.37-1.41l-3.82-.32c1.26-.28,2.74-.49,2-.94-.57-.36,1.81-.81,2.6-1.24.32-.17-.33-.38-.15-.56a1.71,1.71,0,0,1,1.33-.63c2-.1,3-.81,6.2-.3a11.22,11.22,0,0,0,1.51,0c5.24-.26,10.24-.16,15.45.1,3.3.16,7.09.16,10.63.13l8.32-.16c0-6.94-.07-14.41-.1-22.33,0-4.4.05-9.54-.06-13.58a30.13,30.13,0,0,0-2.4-10.85,24,24,0,0,0-3.39-5.57,26.64,26.64,0,0,0-4.71-4.63,25.28,25.28,0,0,0-12.71-4.89A34.2,34.2,0,0,0,416,169.89a27.46,27.46,0,0,0-11.69,8.05,48.75,48.75,0,0,0-5.2,8,17.28,17.28,0,0,0-1.92,5.8,33.41,33.41,0,0,0-.52,5l-.24,5.49c-.11,2-.27,3.15-.38,2.2-.25-2-.49-5.69-.63-7.39a30.21,30.21,0,0,1,57.87-13.79,31.65,31.65,0,0,1,2,6.86,41.31,41.31,0,0,1,.53,7.81c0,5.91,0,11.74.07,16.89l-1.08,8.68-.69,6.74,3.85-.08h1.94c0-9.4,0-12.13-.29-10.84-.62,2.79-.68-12.44-.85-23a33.22,33.22,0,0,0-40.6-32.81,32.64,32.64,0,0,0-17.15,10.2A32.27,32.27,0,0,0,393.64,188a34.56,34.56,0,0,0-.87,8.24l0,9.18c.1,12.22.2,24.31.29,35.78,0,4.42,0,10.19,0,15.35,0,21.13-.36,41.27-.15,63.16,0,2.83-.13,9.64-.25,11.26a49.88,49.88,0,0,1-.76,5.62c0,4.17-.07,9.12-.12,15l-.24-4.77c.06,12.22.11,22.61.16,32.81s-.16,20.09-.25,31.25l.37,1.9c0,6.95,0,14-.06,24.55-.11-4.78-.15-6.78-.12-5.44-.32.32-.61,3.05-.81,0-.16-2.39-.27-11.65-.3-18.25,0-7.09,0-10.11-.29-12.16-.2-1.49-.34-10.84-.51-16.73-.41-14.46-1-9.71-1.47-10.62-.18-.32-.36.47-.61.86l-.23,12-.34-19.9.32,1.16c0-3.06,0-7.68,0-8.92l-1.13-27.28c-.55-9.64-1.22,11.36-1.29,27.63,0,20.57,0,41.59-.05,62.42,0,4.28,0,8.56,0,12.91a55.77,55.77,0,0,0,.64,9.73,42.6,42.6,0,0,1-.76-6.84l-.07-10.49-.11-20.89-.14,0c0,4.63,0,9.27-.07,13.88s0,8.52-.05,12.06c0,1.77-.07,3.43-.1,5,.07,1.77,0,3.46.17,5.06A38.78,38.78,0,0,0,397.28,468c5.82,5.62,15,9.78,23.91,10.66a45.33,45.33,0,0,0,22.6-3.81c4-1.82.92.2,1,.43a42.46,42.46,0,0,0,22.94-37.71,43.52,43.52,0,0,1-4,22.36,45.55,45.55,0,0,0,3.14-6.29,48,48,0,0,1-5.66,10.82c-1.72,2.63-2.93,3.82-3.8,5.08a39.08,39.08,0,0,1-3.74,3.89,41.92,41.92,0,0,1-6.52,4.63,45,45,0,0,0,15-12.36c-4.36,6.68-12.45,12-8.35,9.64,1.51-1-.49,1.12-3.88,3.34a53.77,53.77,0,0,1-10.48,5.4c-2,.76,2.18-.27,1.13.22a24.41,24.41,0,0,1-8.56,2.59,62.88,62.88,0,0,1-6.88.51,2,2,0,0,1-.81.42l-.13-.38,0,.11c-.08,0-.1-.09-.17-.12a50.93,50.93,0,0,1-8.66-.75,7.79,7.79,0,0,0,.18,1.72,6.17,6.17,0,0,1-.31-.61,10.38,10.38,0,0,0,2,4.13,10.5,10.5,0,0,0,3.3,2.95l.32-.17a9.52,9.52,0,0,0,3.28.91,4.85,4.85,0,0,1-.75,0c0,.28.46.58,0,.68a6.05,6.05,0,0,1-2.69-.55c-1-.43-1.37-.75-1.74-.71a6.85,6.85,0,0,1-2.23-1.46c-1.71-1.64-1.5-.85-2-.58-.17.06-.23.31-.39.53a15.5,15.5,0,0,0,1.36,2,13.56,13.56,0,0,1-2.63-3l.38,0-.76-1.62a17.31,17.31,0,0,1-2.07-5.36v0l-.52-.15a4.07,4.07,0,0,0-.3,1.06,11.34,11.34,0,0,0,.73,5.57,15.94,15.94,0,0,0,10.76,9.47,18.39,18.39,0,0,0,6,.5,16.27,16.27,0,0,1-9.55-1.51l0,.14a14.83,14.83,0,0,0,3.1,1.3,47.55,47.55,0,0,0,5.16.94,11.53,11.53,0,0,0,6.08-1.11c3.27-1.29,6.41-4.76,8.08-6.6.66-.69.57.13.81.27a18.27,18.27,0,0,0,2.67-9.48,19.38,19.38,0,0,1,1.38,5.22,18.57,18.57,0,0,0,.58-2.13c-.48,3.25-.71,4.09-.64,4.85s.16,1.41-1.21,3.94a21.58,21.58,0,0,0,2.7-4.92c-.28,1.85-1.16,3.94-.25,3.13.75-.65-.52,2.85-1,4.1-.15.52.63-.23.62.1a3.05,3.05,0,0,1-.84,2.13c-2.21,2.56-2.9,4.51-8.14,6.8-.46.17-1.69.77-2.45,1a24.75,24.75,0,0,1-26.6-5.43,26.71,26.71,0,0,1-8-18.92l.7-4.74a52.41,52.41,0,0,1-7.42-5.33,58.75,58.75,0,0,1-7-7.38,49.13,49.13,0,0,1-10.28-24,52.35,52.35,0,0,1-.51-6.5l0-4.81v-9.41c.08-12.54.16-25.05.24-37.84,0-16.22.08-34.79.13-52.15-.08-20.55-.16-40.87-.25-61.42,0-23.72,0-47.59,0-71.39,0-1.14,0-2.34,0-3.54v-1.81l.1-2.47a49.75,49.75,0,0,1,34.47-45.46,50.49,50.49,0,0,1,24.89-1.37A48.4,48.4,0,0,1,454.2,155,51.57,51.57,0,0,1,468,170.34a49,49,0,0,1,6.68,23.2l.11-1.53.56,6c.13,1.71.24,3.68.28,6.64.11,8.25.09,16.85,0,25.45a70.75,70.75,0,0,1,7.34-.2l6.66.17,6.16.33c3,.23,8.54.24,12.86.35l-.27-.19c1.18-.16,2.1-.39,3.42-.54a13.71,13.71,0,0,1,.14,1.66C512.06,236.28,512,241.48,511.72,246.55ZM414.87,505.48a9.73,9.73,0,0,0,2.36,1.48,21.4,21.4,0,0,0,9,1.43,23.71,23.71,0,0,0,5.2-.9c1-.32,2-.58,3-1l.26-.34a22.13,22.13,0,0,1-18.84-.38Zm-35.89-68,.15-30.65-.16-3.05c-.13,2.72-.36,5.07-.37,8.25,0,4.59,0,9.27,0,14l0,7.06c0,2.37,0,4.5.18,7.78a45.52,45.52,0,0,0,6.38,20.29,47.36,47.36,0,0,0,7.89,10.12l1.35,1A46.53,46.53,0,0,1,379,437.53ZM431.2,233.9a7.39,7.39,0,0,0-1.68-.37l-5.72,0-3.4.08-2-.1-.26.2,12.49.31Zm33.32,9.42c0-.2,0-.38,0-.58-.87,0-1.78.08-2.72.16v.1l2.2,0,.08,0-2.28.13v0C463.08,243.27,463.94,243.32,464.52,243.31Zm.16-29.49-1,16.32h1.27C465,226.26,465,223.23,464.68,213.82Zm-76.3,24.74c-.15-7.55-.28-14.19-.42-21.19-.31,8.15-.27,25.85.11,43.27,0-6.61,0-12.2,0-17.79l0-.41c0,2.7.06,5.4.15,13.27C388.31,246.79,388.36,241.66,388.38,238.56Zm73.25-8.42h1.15c0-6.58,0-13.16,0-19.7.05-3.11.1-6.14.15-9,0-4.6.16-9.51-1-14.27a37.5,37.5,0,0,0-73.26.61,43.89,43.89,0,0,0-.6,4.66,1.57,1.57,0,0,0,.13-.45c1.26-15.43,13.24-29.08,28.23-32.52,14.9-3.82,31.78,2.78,39.93,15.89a37.55,37.55,0,0,1,5.31,13c1,4.66.68,9.38.76,13.93,0,18.2-.16,23.41-.91,21.06ZM464.48,248h-.14c-.72,0-1.6,0-2.46,0l0,1.18c0,1.92,0,3.9.05,5.88.94.07,1.8.16,2.55.27C464.48,252.83,464.47,250.34,464.48,248Zm-54.18,7.5a16.79,16.79,0,0,0-2.5.17c-3.76.59-2.1,1.61,2.6,2.05,5,.48,10.35.24,15.51.35h4.17l.46-.18-13.09-1.83-.8.1.8-.44Z"/></svg>