<svg id="Layer_1" data-name="Layer 1" xmlns="http://www.w3.org/2000/svg" viewBox="0 0 512 512"><defs><style>.cls-1{fill:#b7c9ce;}.cls-2{fill:#cad8dd;}.cls-3{fill:#dde5e8;}.cls-4{fill:#9bbdc6;}</style></defs><title>note-2-flat</title><path class="cls-1" d="M51.2,243.2H460.8a0,0,0,0,1,0,0V448a64,64,0,0,1-64,64H115.2a64,64,0,0,1-64-64V243.2A0,0,0,0,1,51.2,243.2Z"/><path class="cls-2" d="M51.2,204.8H460.8a0,0,0,0,1,0,0V409.6a64,64,0,0,1-64,64H115.2a64,64,0,0,1-64-64V204.8A0,0,0,0,1,51.2,204.8Z"/><path class="cls-3" d="M396.8,38.4H278a25.31,25.31,0,0,1,3.56,12.8,25.6,25.6,0,0,1-51.2,0A25.31,25.31,0,0,1,234,38.4H115.2a64,64,0,0,0-64,64V371.2a64,64,0,0,0,64,64H307.34L460.8,281.6V102.4A64,64,0,0,0,396.8,38.4Z"/><path class="cls-4" d="M294.4,435.2V332.8a64,64,0,0,1,64-64H460.8l-.38,12.8L307.2,435.2Z"/><path class="cls-1" d="M256,25.6a25.6,25.6,0,1,1-25.6,25.6A25.63,25.63,0,0,1,256,25.6M256,0a51.2,51.2,0,1,0,51.2,51.2A51.2,51.2,0,0,0,256,0Z"/></svg>