<svg id="Layer_1" data-name="Layer 1" xmlns="http://www.w3.org/2000/svg" viewBox="0 0 512 512"><defs><style>.cls-1{fill:#d9e4e8;}.cls-2{fill:#9bbdc6;}.cls-3{fill:#141f38;}</style></defs><title>note-2-filled</title><path class="cls-1" d="M396.8,51.2H294.4a38.4,38.4,0,1,1-76.8,0H115.2A51.26,51.26,0,0,0,64,102.4V448a51.26,51.26,0,0,0,51.2,51.2H396.8A51.26,51.26,0,0,0,448,448V102.4A51.26,51.26,0,0,0,396.8,51.2Z"/><path class="cls-2" d="M307.2,332.8a51.26,51.26,0,0,1,51.2-51.2h83.94L307.2,417.08Z"/><path class="cls-3" d="M396.8,38.4H305.52a51.13,51.13,0,0,0-99,0H115.2a64,64,0,0,0-64,64V448a64,64,0,0,0,64,64H396.8a64,64,0,0,0,64-64V102.4A64,64,0,0,0,396.8,38.4Zm38.4,371.2A38.44,38.44,0,0,1,396.8,448H115.2a38.46,38.46,0,0,1-35.39-23.49A63.67,63.67,0,0,0,115.2,435.2H307.34l127.86-128ZM320,386.12V332.8a38.44,38.44,0,0,1,38.4-38.4h53.09ZM256,25.6a25.6,25.6,0,1,1-25.6,25.6A25.63,25.63,0,0,1,256,25.6ZM76.8,102.4A38.44,38.44,0,0,1,115.2,64h91.28a51.13,51.13,0,0,0,99,0H396.8a38.44,38.44,0,0,1,38.4,38.4V268.8H358.4a64,64,0,0,0-64,64v76.8H115.2a38.44,38.44,0,0,1-38.4-38.4Zm320,384H115.2a38.46,38.46,0,0,1-35.39-23.49A63.67,63.67,0,0,0,115.2,473.6H396.8a63.67,63.67,0,0,0,35.39-10.69A38.46,38.46,0,0,1,396.8,486.4Z"/></svg>