<svg id="Layer_1" data-name="Layer 1" xmlns="http://www.w3.org/2000/svg" viewBox="0 0 512 512"><defs><style>.cls-1{fill:#707070;}</style></defs><title>note-2-handdrawn</title><path class="cls-1" d="M250.29,485.54l7-.45-7,.1-113.83-1.87,4-.18h36.24c44.9.11,91.43-.13,134.87.36,40.84.46,55.3,1.5,22.62,2.11l-21.73.17Zm62.18-37,21.73-.17c32.68-.61,18.22-1.65-22.62-2.11-43.44-.49-90-.25-134.87-.36H140.48l-4,.18L250.28,448l7-.1-7,.45ZM468.63,99.47c-.09,17-.23,44.83-.36,71l-.82-7.12c-.14,73.62-1,43.87-1.74,40.84.06,21.79.11,42.17.17,61.92l1.4.15q0,6.16-.06,10.48c-.11,6.79-.26,9.58-.42,10.21-.33,1.25-.73-6.15-1.09-7.52.07,25.48.14,48.72.2,71.5,0,17.79,0,36.12,0,53.9,0,8.88-.08,17.63-.12,26.09A111,111,0,0,1,465,444.7a74.21,74.21,0,0,1-3.2,13.68,78.11,78.11,0,0,1-8.27,17.13,76,76,0,0,1-15.16,16.83A72.14,72.14,0,0,1,406,507a72.15,72.15,0,0,0,19.54-7.25,66.19,66.19,0,0,1-24,6.88c-1.68.14-1.89.05-.28-.31a97,97,0,0,0,10.49-2.54c5-1.51-.76-.13.26-.63.68-.27,1.77-.74,3.68-1.59a75.34,75.34,0,0,0,8.54-4,71.17,71.17,0,0,0,14.3-10.21,70.43,70.43,0,0,0,16.7-22.89,62.05,62.05,0,0,0,5.11-17.54c1-5.81.65-11.63.54-15.45-.12-2.86-.25-5.22-.37-7a78.39,78.39,0,0,1-4.71,10,71,71,0,0,1-.77,10.8,63.46,63.46,0,0,1-38.3,49.16,61.58,61.58,0,0,1-16.24,4.16c-8.11.61-10.1.22-6.24-.26a37.45,37.45,0,0,0,6.91-1.4,44.56,44.56,0,0,0,6-2,58.22,58.22,0,0,0,20-9.33c3.85-3,5.12-4.38,3.11-3.07a60.75,60.75,0,0,0,19.15-27.74A53.8,53.8,0,0,0,452.32,440a76.71,76.71,0,0,1-13.93,15.1A72.14,72.14,0,0,1,406,469.76a72.15,72.15,0,0,0,19.54-7.25,66.19,66.19,0,0,1-24,6.88c-1.68.14-1.89.05-.28-.31a97,97,0,0,0,10.49-2.54c5-1.51-.76-.13.26-.63.68-.27,1.77-.74,3.68-1.59a75.34,75.34,0,0,0,8.54-4,70.89,70.89,0,0,0,28.28-28c0-3.81,0-7.65,0-11.51v-2.16a64.61,64.61,0,0,1-14.39,23.86,62.62,62.62,0,0,1-21.38,14.67,61.58,61.58,0,0,1-16.24,4.16c-8.11.61-10.1.22-6.24-.26a37.45,37.45,0,0,0,6.91-1.4,44.56,44.56,0,0,0,6-2,58.22,58.22,0,0,0,20-9.33c3.85-3,5.12-4.38,3.11-3.07a60.75,60.75,0,0,0,19.15-27.74c2.25-6.23,2.88-12.73,3-19.36q0-23.2-.07-46.36l.1,3c.06-6.89.12-13.7.19-20.66q0-19.32,0-38.66l-18.12,17.66.72-.45a86.29,86.29,0,0,1-5.65,6.65c-6.08,6.33-12.67,12.91-19.33,19.11-4.73,4.4-12.19,11.84-19.3,18.76l1.33-2.5c-19.6,19.46-12.71,11.35-12.23,9.84l-1.1,1.07-20,20.3c-10.59,10.58-21.76,21.9-31.33,30.79l-10.94,10.91-6.71,6.55-12-.24,11.7-.45.06-.07-.07.06-9.75-.27a31.12,31.12,0,0,1-3.51-.31c-.61-.11-.68-.22-.07-.35.3-.06.77-.13,1.43-.19s1.14-.13,3.07-.21c3-.13-.44-.36.21-.54.83-.24,2.69-.49,7.57-.69l6.72-7.11L323,416c6.43-6.53,13.22-14.88,10.58-13-3.84,2.78,5.21-7.29,17.87-19.92l21-21.12c1.51-1.53,3-3.27,3.88-4.32,3.21-3.83,16.34-17.6,24-25.13,1.49-1.47,3.42-3.34,4.2-4,5.39-4.72,5.31-4.63,12.38-12.31l-12.1,10.2a4.59,4.59,0,0,1-1.11.76l-57.87,58.18c-16,16.12-27,27.09-33.23,33.12l-6.33,6.4L299,424.8c-1.78,0-3.15-.09-4.11-.16-1.92-.15-2.2-.36-.91-.65,2.35-.52,3.62-1.05,5.6-1.65l5.59-.09c2.93-3.12,4.21-4.75,3-4.09l41.11-41.52-.81.95,6.27-6,41.83-41.92,5.52-5.54.17-.16,7.79-7.82c.63-.69.69-.88.29-.67-1.92,1,6.05-7.06,11.52-12.77l21.28-22.06,4.37-4.52,1.09-1.12a11.21,11.21,0,0,0,.06-1.56l0-3.15,0-3.13a14.73,14.73,0,0,0,0-1.52l-1.61,0-6.38.09-50.73.5-11.44,0-23.33-.15a55.19,55.19,0,0,0-21.64,4.22c-1.81.76-6.18,2.63-7.16,3.2a25.31,25.31,0,0,1-3.79,1.39,66.76,66.76,0,0,0-8.35,6.58l2.35-2.46a61.26,61.26,0,0,0-14.18,18.37,60.17,60.17,0,0,0-6.36,21.19l.31,1.38c-.4,4.8-.17,10.28-.27,18.09C296,334.51,296,333,296,334c-.33.24-.62,2.28-.83,0a133.21,133.21,0,0,1-.13-13.5c.21-5.14.94-7.27.77-8.81,0-.55.44-2.48,1-4.82s1.54-4.95,2.22-7c2-4.92,2.77-6.58,2.87-7.15s-.55-.12-.59-.54-.5.11-.88.24a58,58,0,0,0-4.21,8.13,61.71,61.71,0,0,1,7-13.51l-.26.9c1.42-1.86,3.49-4.73,4.18-5.38a65.88,65.88,0,0,1,15.33-14.3c3.07-2.18,1-1.33-3.19,1A59.17,59.17,0,0,0,305,281.19c-10.82,12.24-16.43,29.41-15.88,45.59,0,6.38-.07,12.77-.11,19.53l-.12-15.57c0-5-.2-10.6.63-16.16h-.15a71.41,71.41,0,0,0-.81,11c0,6.79,0,11.83-.33,16.06-.27,3.89-.3,10.28-.26,19,.06,10.55.34,25.09-.26,32.61-.23,2.82-.57.46-.86.46v29.57L284.74,409c0,.13-.07,3-.14,5.91-.2-17.62-1.13-8.88-1.45-23.29-.13,5.62-.22,9.38-.33,14-.29-4.6-.5-10-1-7.37-.36,2.08-.83-6.62-1.27-9.5-.18-1.16-.39,1.2-.58.56a15.32,15.32,0,0,1-.65-4.88c-.1-7.45-.83-10.95-.31-22.7,0-1,0-3.86,0-5.53,0-9.6-.1-19-.14-28.3v-3.5l.19-4.21a56.12,56.12,0,0,1,1-8.57A75.91,75.91,0,0,1,285,294.94a82.83,82.83,0,0,1,12.27-19.85,77.28,77.28,0,0,1,44.25-25.81,85.69,85.69,0,0,1,13.89-1.37l11.46,0,53.22,0,10.17-.07,12.06-.13,6.89,0,3.5,0h.09q0-69.3,0-138.64c0-6.93.07-13.9-1.2-20.14a59.34,59.34,0,0,0-10.49-23.68c-2.8-3.84-3.85-4.43-3-3.31,1.39,2.31-2.17-2.51-9.3-8a62.92,62.92,0,0,0-13.07-7.6,59.93,59.93,0,0,0-15.27-4c-6.37-.81-13.33-.45-20.33-.46l-21.09.13-43,.23-12.8.05c.12.89.25,1.79.32,2.62,20.78-.14,39.83-.32,66.48-.19l16.69,0c6,0,11,0,16.19,1a55.91,55.91,0,0,1,26.61,13,56.1,56.1,0,0,1,9.13,12.24,54.44,54.44,0,0,1,5.93,16A53.94,53.94,0,0,0,395.9,47c-3.73-.33-8.88-.18-13.39-.27l-14-.15c-5.6-.08-26.75,0-32.62.11-12.95.25-24.28.54-32.23.85,0,.29,0,.58,0,.88,0-.28-.14-.59-.19-.87l-.61,0c-.06,2.41-.49,2.92-1,0l-.79,0-2.36.09q0-1.45,0-2.9h1.59l-.05-.17c-.17-.63-.38-1.49-.64-2.46h-1.11a37.31,37.31,0,0,0-.73-4.3h.53l-.14-.4h-.47a35,35,0,0,0-1.52-4.6c-1.84-3.17-4.16-5.33-3.82-4,.46,2.47-3-3.44-9.65-9.14a40.21,40.21,0,0,0-12.53-7.28,10.32,10.32,0,0,0-2.77-.61c-1.22-.14-4.08-.63-7.29-.86a62.22,62.22,0,0,0-9.28.33c-1,.13-2.26.28-2.76.29-3.41.35-3.48.21-8,2.4a37.67,37.67,0,0,1,7.47-1c.83,0,.69.24,1,.38a39.92,39.92,0,0,0-8.74,2.85,30.66,30.66,0,0,0-2.81,1.25,38.49,38.49,0,0,0-19.31,31.08q0,.79,0,1.54c0-.06.11-.08.12-.15a38.07,38.07,0,0,1,12.26-26.66,39.36,39.36,0,0,1,7.42-5.51C243,15,244.87,15,244.31,15.88a37.19,37.19,0,0,1,8.3-2.09,31.91,31.91,0,0,1,5.55-.21,40.45,40.45,0,0,1,22.57,8.15,34.63,34.63,0,0,1,6.44,6.74,39.21,39.21,0,0,1,6.39,13.18,25.43,25.43,0,0,1,1.06,8c-.06,1.53-.29,1.9-.68,1.18a15.36,15.36,0,0,0-1.77-2.39c-.34-3.48-1.18-5.62-1.49-4.66a35.6,35.6,0,0,0-12.86-20.24l.48.24a33.62,33.62,0,0,0-2.84-2.3,35.52,35.52,0,0,0-23.74-5.54l-3.24.54c-4.19.89-5.26,1.59-4.71,1.68,1,.28-3.39,1.9-6,3.89a35,35,0,0,0-14.35,21.34,32.79,32.79,0,0,0,2.19,20.74c.65,1.11,1.24,2.7,2.09,3.94A31.2,31.2,0,0,0,240.87,80.6c.76.32,2.46,1.38,2.9,1.59a6,6,0,0,1,1.3,1.31,37.56,37.56,0,0,0,4.33,1.29,12.33,12.33,0,0,1-1.46-.09,41.3,41.3,0,0,0,19.24-.8l.42-.55a30.5,30.5,0,0,0,6.67-3.19l-1.34,1c.24.24,1.11,0,.42.72a19.77,19.77,0,0,1-5,2.66c-2.06.84-3,1-3.56,1.41-.39.4-3.28,1.07-5.15,1.46-4.61.65-3.12,1.14-3.39,1.68-.11.19.16.36.29.62.3,0,1.66.08,4.1,0a38.07,38.07,0,0,1-6.8.53l.41-.31c-1,0-2.62-.17-3-.24a47,47,0,0,1-9.44-1.18c-3.43-.77,3.26,3,9.26,3.66a40.64,40.64,0,0,0,22.17-3.38,44.08,44.08,0,0,0,4.13-2.15A41.36,41.36,0,0,1,268,91l.05.14a45.94,45.94,0,0,0,4.83-1.71c3.07-1.39,5.2-2.68,7.13-3.6a27.19,27.19,0,0,0,7.31-6.07c3.68-3.89,7-10.39,8.73-13.79.7-1.27.62,0,.88.08a42.72,42.72,0,0,0,2.67-14.92A47,47,0,0,1,301,58.81l.6-3.15a64.16,64.16,0,0,0-.58,7c0,1,.26,1.92-1,5.76A50.53,50.53,0,0,0,302.57,61c-.33,2.58-1,5.64-.11,4.31.76-1-.42,3.89-.72,5.63-.13.69.66-.49.67-.07a5.61,5.61,0,0,1-.67,2.92c-2,4-2.4,6.4-7.42,11.52L292,87.76a48.44,48.44,0,0,1-30.47,14.35,54.24,54.24,0,0,1-23.13-3A51.25,51.25,0,0,1,216,83.35a50.79,50.79,0,0,1-11.22-29.76,58.48,58.48,0,0,1,0-6c-1.69-.07-3-.14-3.82-.24-2.86-.35-25.69-.65-38-1-4-.11-6.17-.28-4.31-.4l14.49-.64,31.86-.14c.07-.89.16-1.77.29-2.68l-48.6.14L121,42.79a57.89,57.89,0,0,0-30.8,8.27c-6.95,4.08-15,11.29-19.77,19.47a56.33,56.33,0,0,0-8.51,27c-.36,9.72-.16,20.22-.27,30.32,0,20.41,0,41,0,62.45,0,5.54-.14,18.9-.26,22.07-.23,6-.49,7.33-.78,11,0,8.18-.07,17.88-.12,29.41-.07-2.6-.12-4.73-.25-9.34.06,23.95.11,44.31.16,64.3,0,9.94-.07,19.78-.1,29.87,0,5-.05,10.15-.08,15.37a125.15,125.15,0,0,0,.44,15.65l.91,3.46a59.34,59.34,0,0,0,24.22,37.54,65.14,65.14,0,0,1-8-6.52l.12.13c.21.63,3.85,4.33-.53.63a57.45,57.45,0,0,1-9-11.1,58.52,58.52,0,0,1-7.73-18.76,75.52,75.52,0,0,1-1.45-15.17c0-3.72-.1-6.2-.24-8.2-.21-2.92-.35-21.25-.52-32.79-.42-28.35-1-19-1.5-20.81-.18-.62-.37.92-.63,1.68,0,1.77-.1,9.55-.24,23.56-.13-15.19-.23-25.73-.34-39l.33,2.27c0-6,0-15.06,0-17.48l-1.16-53.47c-.56-18.89-1.26,22.26-1.32,54.15,0,20.16,0,40.53-.05,61v30.69A67.54,67.54,0,0,0,61,391.9a66.33,66.33,0,0,0,41.52,33.26,65.61,65.61,0,0,1-35.73-23.81c-9-11.49-13.68-26.25-13.71-40.74l-.15.06A65.77,65.77,0,0,0,59,389a68.66,68.66,0,0,0,30.84,32.23,60.77,60.77,0,0,0,20.76,6.6c9.36,1.16,18.86.52,30.45.67,27.75-.06,66-.34,85.73.26,7.43.23,1.2.57,1.2.86h77.74l-37.39,2.13,15.54.14c-46.32.2-23.33,1.13-61.23,1.45l36.77.33c-12.09.29-26.4.5-19.39,1,5.48.36-17.4.83-25,1.27-3,.18,3.15.39,1.47.58a102.17,102.17,0,0,1-12.83.64c-19.59.1-28.79.83-59.68.31l-14.55,0-9.43,0c-3.61-.18-7.62-.11-11.36-.81a72.15,72.15,0,0,1-21.88-6.55c-1.67-.78-3.31-1.62-4.91-2.52a47.92,47.92,0,0,0,10.49,10.29c4,2.86,9.11,5.26,8.17,5A45.91,45.91,0,0,1,82.13,432.2a34,34,0,0,1-5.9-7.39c-.28-.45-.58-1-.87-1.49A71.85,71.85,0,0,1,68,417.39a79.88,79.88,0,0,1-6-6.16c.16.76.24,1.49.45,2.26-.28-.85-.5-1.68-.72-2.57h0A59.55,59.55,0,0,0,90.64,450a58.24,58.24,0,0,0,24.44,7.46c8.69.51,18.35.24,28.14.39l3.37-.38,43.48.06-9.63.13c.58.33,5.41.62.06.83-4.23.16-20.63.28-32.32.3-12.55,0-17.91,0-21.53.3a115.33,115.33,0,0,1-11.81,0,59.88,59.88,0,0,1-17-3.57,75.1,75.1,0,0,1-7.36-3.13l-4.69-2.63c-2.39-1.48-3.53-2.29-4.15-2.55-1.2-.57,0,.66-.81.38-.57-.2.44.79.85,1.42,1.28.91,6.87,5.8,19.17,10.12-13.39-4.36-21.74-10.31-30-19.45l1.66,1.34a67.72,67.72,0,0,1-5.78-7.33c-1.56-2.65-3.06-4.86-3.49-5.89-.89-1.6-1.66-3.29-2.41-5-.07.67-.14,1.37-.21,2.21s0,2,0,3c.25.49.46,1,.72,1.51A66.45,66.45,0,0,0,107,463.32a80.45,80.45,0,0,0,14.57,1.22h41.59l46.4.11-74,.23.05.15,24.58.07c16.14,0,28.12,0,38.17.33,9.24.27,24.43.3,45.2.26,25.08-.06,59.62-.34,77.48.26,6.71.23,1.09.57,1.09.86h70.26l-33.8,2.13,14,.14c-41.86.2-21.09,1.13-55.34,1.45l33.23.33c-10.92.29-23.86.5-17.52,1,4.95.36-15.73.83-22.57,1.27-2.76.18,2.85.39,1.33.58a83.57,83.57,0,0,1-11.6.64c-17.71.1-26,.83-53.93.31l-13.15,0-67.25.15-33.35-.08-8.37,0-4.2,0-5.06-.24a75.66,75.66,0,0,1-33.27-10.14A48,48,0,0,0,92.41,475c4,2.86,9.11,5.26,8.17,5a45.91,45.91,0,0,1-18.45-10.63,34,34,0,0,1-5.9-7.39c-.43-.68-.87-1.45-1.31-2.25a77.08,77.08,0,0,1-13-12c.2,1,.3,1.91.57,2.9-.32-1-.58-1.89-.83-3A59.55,59.55,0,0,0,90.64,487.2a58.24,58.24,0,0,0,24.44,7.46c8.69.51,18.35.24,28.14.39l3.37-.38,43.48.06-9.63.13c.58.33,5.41.62.06.83-4.23.16-20.63.28-32.32.3-12.55,0-17.91,0-21.53.3a115.33,115.33,0,0,1-11.81,0,59.88,59.88,0,0,1-17-3.57,75.1,75.1,0,0,1-7.36-3.13L85.76,487c-2.39-1.48-3.53-2.29-4.15-2.55-1.2-.57,0,.66-.81.38-.57-.2.44.79.85,1.42,1.28.91,6.87,5.8,19.17,10.12-13.39-4.36-21.74-10.31-30-19.45l1.66,1.34a67.72,67.72,0,0,1-5.78-7.33c-1.56-2.65-3.06-4.86-3.49-5.89a64,64,0,0,1-7.59-25.19c0-.23,0-.44,0-.66-.6-.95-1.2-1.9-1.75-2.87,0,2.54.14,5.18.45,8a63.35,63.35,0,0,0,7,22.43A66.45,66.45,0,0,0,107,500.52a80.45,80.45,0,0,0,14.57,1.22h41.59l46.4.11-74,.23.05.15,24.58.07c16.14,0,28.12,0,38.17.33,9.24.27,24.43.3,45.2.26,25.08-.06,59.62-.34,77.48.26,6.71.23,1.09.57,1.09.86h70.26l-33.8,2.13,14,.14c-41.86.2-21.09,1.13-55.34,1.45l33.23.33c-10.92.29-23.86.5-17.52,1,4.95.36-15.73.83-22.57,1.27-2.76.18,2.85.39,1.33.58a83.57,83.57,0,0,1-11.6.64c-17.71.1-26,.83-53.93.31l-13.15,0-67.25.15-33.35-.08-8.37,0-4.2,0-5.06-.24a72.38,72.38,0,0,1-20.25-4.13A75.95,75.95,0,0,1,44.3,445c-1-10.34-.48-17.13-.63-25,0-17.33-.08-34.55-.12-51.78l.17,0c0-.18,0-.36-.07-.54L43.38,362l0-4.76c.05-12.34.11-24.73.16-37.26,0-31.79.09-68.19.13-102.22,0-20.14-.08-40.17-.13-60.19l-.08-30.05,0-15.05V101.14l.19-4.54a75.28,75.28,0,0,1,13.94-40A76.65,76.65,0,0,1,90.74,30.3,80.77,80.77,0,0,1,111.54,25l5.36-.31,2.68-.12h46l26.74-.07c6.36-.06,13-.11,19.81-.14A46,46,0,0,1,217,18.19a61.27,61.27,0,0,1,11.31-9.52l-.53.11a23,23,0,0,1,4.18-3.29A40.22,40.22,0,0,1,247.68.44a55.14,55.14,0,0,1,16.21.35l-1.72.57c8.25,1.27,10.39,2.89,10.58,3.19s-1.66.17-2.08.41a45.64,45.64,0,0,1,25.78,19.52c13,.09,25.15.21,35.36.37l29.8.22,17.71.07,8.8,0,4.29,0,5.08.26-2.65-.32a79.75,79.75,0,0,1,12,.88,73.52,73.52,0,0,1,15.41,4.36,81.71,81.71,0,0,1,18.5,11.08,81,81,0,0,1,14.88,16.18,80.26,80.26,0,0,1,9.65,20A78.3,78.3,0,0,1,468.63,99.47ZM130.7,508c4.83.13,9,.37,14.61.38l49.74,0,29.59-.08,17.77.1,2.26-.21-108.57-.31Zm0-37.21c4.83.13,9,.37,14.61.38l49.74,0,29.59-.08,17.77.1,2.26-.21-108.57-.31ZM47.45,369.21c.16,0,.33,0,.49.07a72.34,72.34,0,0,1-.5-8.09l-.16-6c0,2.8-.25,4.87-.14,8C47.15,365.13,47.25,367.13,47.45,369.21Zm24.43,46.65c-.07-.19-.13-.4-.2-.59a74.11,74.11,0,0,1-10.07-11.14c0,.24,0,.48,0,.72A73.93,73.93,0,0,0,71.88,415.86Zm6.72,4.92c-.5-.35-.94-.77-1.43-1.14.11.22.19.46.3.68,2,1.4,4,2.74,6.06,3.94a73.61,73.61,0,0,0,36.58,9.55l19.66.1,2.51-.21-15,0-7.51,0c-2.85-.16-5.82-.18-8.7-.56A73.13,73.13,0,0,1,78.6,420.77ZM133.2,37.71c-4,0-9.12-.22-15.21-.09a60.07,60.07,0,0,0-20.34,3.87A62.86,62.86,0,0,0,62.19,75a61.3,61.3,0,0,1,10.1-15.46A70.46,70.46,0,0,0,67,66.45,61.78,61.78,0,0,1,81.59,51a47.54,47.54,0,0,1,6-4,39,39,0,0,1,4.75-2.56,63.77,63.77,0,0,1,20.42-6.11C119.7,37.66,126.34,37.84,133.2,37.71ZM268.52,97a13.1,13.1,0,0,0,3.43-.68A45.23,45.23,0,0,0,282.53,91,51.59,51.59,0,0,0,288,86.57a39.75,39.75,0,0,0,3.07-2.9l.21-.54a47.6,47.6,0,0,1-21.57,13.34ZM218.45,58.5A28.74,28.74,0,0,0,224,71.89a38,38,0,0,1-2.89-5.24l0-.14a41,41,0,0,0,2.18,3.88,47.06,47.06,0,0,1-2.4-5.2A46.55,46.55,0,0,1,218.45,58.5ZM206.2,37.79l.06-.21-15.36,0-8.93.06a5.31,5.31,0,0,0,.88.11Zm96.74,7c-.05-.19-.06-.35-.12-.55,0,.2,0,.36,0,.55ZM284.08,311.36c-.42,2.32-1.19,4.3-1.28,7.08l-.28,6v5.24c0,3.51,0,7,0,10.52,0,4.17.05,8.29.08,12.45,0,2.47-.07,5-.1,7.48l.21,1,.16-22.84L283,326.8l0-2.87.17-3.31a47.14,47.14,0,0,1,.64-6.6Zm123.68-50.41c-6.07-.32-19.27-.28-32.26.12l13.27,0,.31,0-9.89.16,12.78.15ZM453.9,91.81c1.18,8.25.71,16.08.88,24,0,10.61.1,21.72.15,32.85.17,35.26.34,67.87.49,99.36l.11,0,3,1c0-11.68,0-23.39,0-35,0-5.65-.19-11.65-.31-15.25-.43-13.08-.86-63.11-.77-91.33.05-5.38,0-12.85-.56-15.68-1.32-9.77-3.09-14.49-5.71-19.88C448.42,66.66,445,60,434,50.56a65.22,65.22,0,0,1,20.84,36.88,17.87,17.87,0,0,1,.27,5.3A63.65,63.65,0,0,0,427.35,48a68.25,68.25,0,0,0-16.19-7.87c-9-2.9-18.63-2.92-27.68-2.79l-27.52,0-53.78.06.12.4,56.21,0,27,0c4.49-.07,9,0,13.61.34a66.91,66.91,0,0,1,13.39,2.94c17.26,6.07,25.19,15.75,29.11,20.68,3.89,5.24,4.09,6.76,2.65,4.95A62.41,62.41,0,0,1,453.9,91.81Zm2,334.06a64,64,0,0,0,3.23-9.52c-.35-11.2-.58-32.39-.55-57.18,0-23.07,0-46.33,0-69.33L455.3,293c.14,22.25.27,43.71.4,65,0,7.31,0,16,.07,25l.09,0c0,1.93,0,3.85,0,5.78,0,3.69.06,7.44-.06,11.21,0,2.3,0,4.57,0,6.8q0,9.57,0,19.19Zm-.34-157.73.08-2.89c0,.13-.07.31-.09.45Q455.52,266.92,455.53,268.14Zm.18-6.81c0-.05-.15,0-.22-.06v2.53a2.79,2.79,0,0,1,.13.4l0-1.49Zm-3,.11v-.34l-1,0c-6.93-.36-14.84-.25-22.1-.23l-3.4.06c.13,0,.19.11.34.11l17.47.05C446.71,261.47,450.28,260.93,452.76,261.44ZM72.29,59.52c.74-.83,1.46-1.68,2.23-2.47C73.81,57.79,73.06,58.63,72.29,59.52Zm5.53,16.73A48.1,48.1,0,0,1,102.91,55a33.66,33.66,0,0,1,5-1.59,24.19,24.19,0,0,1,3.57-.84c3.63-.75,4.15-1,2.22-.92a40.09,40.09,0,0,0-12.1,2.47A47.81,47.81,0,0,0,82.76,66.33,49.78,49.78,0,0,0,69.91,90.95,53.83,53.83,0,0,0,69,99c-.1,1.24-.12,2.84-.1,4.55V128.3l0,39.66c0,26.43-.1,52.8-.15,79,0,22,0,33.77.34,38.54.73,11.09,1.47,21.34,2.21,29.67.12,1.38.32-6.7.42-13.69.49-34.89.17-75.38.16-113.37,0-29.22-.2-33-.61-19-.12,4.2-.31.76-.47.81,0-10.06,0-23.7,0-29.42l.62-28.61q0-5.6-.08-11.14a57.51,57.51,0,0,1,.74-8.58A48.76,48.76,0,0,1,77.83,76.24ZM217.29,411.36l24-.17c36.16-.61,20.16-1.65-25-2.11l-74-.32H123.44c-1.48,0-3.34,0-4.52,0l-3.62-.18a45.41,45.41,0,0,1-7.1-1.22A43.58,43.58,0,0,1,95,401.81,44.26,44.26,0,0,1,84,392.63,46.36,46.36,0,0,1,72.29,364.9l-.36-3.42a48.21,48.21,0,0,0,22.3,41.14,47.36,47.36,0,0,0,23.29,7.55c1.84.21,4.78.18,7.33.24l7.87.12,15.74.24,7.73-.1-7.72.45Zm137.81-138a53.94,53.94,0,0,0-12.2,1.54,49.66,49.66,0,0,0-21.54,11.28c-5.15,4.56-7,7.85-7.68,9.17a36.88,36.88,0,0,0-2.48,8.9c0,.43,1.12-1.67,2.15-3.43,5.27-8.74,14.22-17.3,24.67-21.27,8.06-2.72,9.26-2.81,5.13-2.27-1.23.19-.3-.25-.35-.4a29.16,29.16,0,0,1,4.77-1,20,20,0,0,1,3.89-.43c3.4-.06,6.88.23,9.87.41l33-.67c1.7,0,3.6-.1,4.3-.17,7.13-.73-10.31-1.66-28.51-1.66Zm80.66,8.21c-1.5,1.66-7.13,7.41-8.69,8.86-10.38,9.68-20.16,20.05-28.32,28.21l6-4.49,5.36-3.8,18-18.11,5.84-5.79,4.52-4.62,5.49-5.85c1-.6.53-1.85.64-2.84v-4.67c-.07-.45-1-.11-1.4-.2l-3.27.06-16.94.25c-1.27.14-4,.39-5.51.64-.71.12.12.29,1.64.4l8.59.49,3.78.24a2.26,2.26,0,0,1,.84.25c.42.36,1.77.48,3.41.53l2.62,0h1.31c.5-.07.09.73.17,1a18,18,0,0,0-.05,3.25c-.11.76-.69,1.11-.78,1.56A23.26,23.26,0,0,1,435.75,281.59Zm-130.66,108c0,2.88.08,6.93.17,9.14.61,13.75,1.65,7.67,2.11-9.52.49-18.28.25-37.87.36-56.76,0-2.5,0-5,0-7.59.07-2.35.16-4,.3-6.07l0-1.31c-1.08,5.29-1.06,14.11-1.45,22l-.94,24,.1,2.94-.45-2.94C305.25,372.71,305.17,381.07,305.09,389.6ZM281.37,83.85a48.36,48.36,0,0,1-4.07,2.7A41.56,41.56,0,0,0,281.37,83.85Zm-31.06-7.29c2.51.57,3.92.55,4.49.23a12.81,12.81,0,0,0,3.25-2.24c.13-.13-.74-.3-1.46-.35a30.75,30.75,0,0,1-11.25-2.77c-2.59-1.51-3-1.63-2-.49.32.33-.1.3-.18.44a16.56,16.56,0,0,1-2.55-1.89,13.46,13.46,0,0,1-1.76-2.58,23.71,23.71,0,0,1-5.34-7.49,6.51,6.51,0,0,0-.59-1.09c-1.17-1.9-1.13,3.64,2.37,8.19A26.49,26.49,0,0,0,250.31,76.56ZM237,28.76c4-2.82,8.4-5.17,12.32-6.07-1-.1-2-.29-2.78-.31l-2.61-.23a40.89,40.89,0,0,0-8.05,5,24.4,24.4,0,0,0-6.75,8.44,31.18,31.18,0,0,0-3.7,16,17.88,17.88,0,0,0,.74,1.95c.13.24.28-.07.37-.6.14-1.67.71-4.65,1.08-5,.81-.67,1.2-4.88,2.55-7.47a27.49,27.49,0,0,0,1.9-4.44A13.58,13.58,0,0,1,234,31.88,16,16,0,0,1,237,28.76ZM279.35,61a16.29,16.29,0,0,0,.74-2.62c.34-4.14-.88-2.32-2.88,1.83-2.39,4.33-5.87,8.55-10.41,10.93A34.19,34.19,0,0,1,263,72.72a2.79,2.79,0,0,1-.38.32,23.91,23.91,0,0,0,12.1-5.8,4.14,4.14,0,0,0,.48-.72,5.27,5.27,0,0,1-.21,1A26.42,26.42,0,0,0,279.35,61Z"/></svg>