<svg id="Layer_1" data-name="Layer 1" xmlns="http://www.w3.org/2000/svg" viewBox="0 0 512 512"><defs><style>.cls-1{fill:#d9e4e8;}.cls-2{fill:#9bbdc6;}.cls-3{fill:#3fc451;}.cls-4{fill:#ef4848;}.cls-5{fill:#141f38;}</style></defs><title>document-pie-chart-filled</title><path class="cls-1" d="M115.2,499.2A51.26,51.26,0,0,1,64,448V64a51.26,51.26,0,0,1,51.2-51.2H302L448,158.9V448a51.26,51.26,0,0,1-51.2,51.2Z"/><path class="cls-2" d="M358.4,153.6a51.26,51.26,0,0,1-51.2-51.2V18.12L442.34,153.6Z"/><path class="cls-3" d="M243.2,396.8a76.8,76.8,0,0,1-12.8-152.53V332.8h88.53A76.93,76.93,0,0,1,243.2,396.8Z"/><path class="cls-4" d="M281.6,281.6V218.67a77,77,0,0,1,62.93,62.93Z"/><path class="cls-5" d="M307.34,0H115.2a64,64,0,0,0-64,64V448a64,64,0,0,0,64,64H396.8a64,64,0,0,0,64-64V153.6ZM411.49,140.8H358.4A38.44,38.44,0,0,1,320,102.4V49.08ZM435.2,448a38.44,38.44,0,0,1-38.4,38.4H115.2A38.44,38.44,0,0,1,76.8,448V64a38.44,38.44,0,0,1,38.4-38.4H294.4v76.8a64,64,0,0,0,64,64h76.8Zm-192-217.6A89.6,89.6,0,1,0,332.8,320H243.2Zm58.66,115.2a64,64,0,1,1-84.26-84.26V345.6h84.26ZM268.8,204.8v89.6h89.6A89.6,89.6,0,0,0,268.8,204.8Zm25.6,64V235.74a64.37,64.37,0,0,1,33.06,33.06Z"/></svg>