<svg id="Layer_1" data-name="Layer 1" xmlns="http://www.w3.org/2000/svg" viewBox="0 0 512 512"><defs><style>.cls-1{fill:#707070;}</style></defs><title>document-pie-chart-handdrawn</title><path class="cls-1" d="M78.83,41.38c.42-.57.83-1.15,1.28-1.71C79.66,40.23,79.26,40.8,78.83,41.38Zm-4.6,7.28c.22-.41.42-.82.65-1.22C74.66,47.84,74.45,48.25,74.24,48.66Zm2.46-4.2c.68-1,1.39-2.08,2.14-3.08C78.09,42.38,77.37,43.4,76.69,44.46Zm3.42-4.79a58.05,58.05,0,0,1,4.24-4.78A54.85,54.85,0,0,0,80.11,39.67Zm-3.42,4.79c-.63,1-1.24,2-1.81,3Q75.75,45.92,76.69,44.46ZM85,502.08a73.89,73.89,0,0,1-24.86-27.95,70.69,70.69,0,0,1-7-21.54,81.5,81.5,0,0,1-1-11.77c0-3.38,0-6.78,0-10.19.06-60.16.13-120.78.19-180.48,0-25,0-38.51-.34-44-.72-12.65-1.44-24.34-2.17-33.84-.12-1.58-.31,7.64-.41,15.61-.49,39.79-.17,86-.16,129.3,0,33.32.2,37.66.6,21.69.12-4.78.31-.87.46-.92,0,11.47,0,27,0,33.56-.26,14.11-.44,23.6-.61,32.63q.08,12.81.17,25.34l.13,12.71a77.86,77.86,0,0,0,1.84,14.94A74.22,74.22,0,0,0,85.76,504a66.05,66.05,0,0,0,14.15,6.56c6.18,1.94,7.18,1.63,4,.73A80,80,0,0,1,85,502.08Zm376.39-91.95-1,22.13c-.2,3.53-.3,6.59-.6,10a65.68,65.68,0,0,1-1.56,10.37,67,67,0,0,1-18.82,36C429.12,498.72,415.25,505.4,402,507c-10,1.16-17.67.49-25.42.68l-21.8.06-41.46.23-136.74.51-16.53.63c-2.12.12.36.28,4.91.39,14.08.33,40.13.63,43.38,1,6.71.7,44.86.49,70.86.61,22.09.1,34.71-.05,43.41-.37,9.09-.34,23.26-.66,39.66-.93l18.72-.12h10.92c3.47-.1,6.65-.24,8.39-.41,24-2.23,45.82-18.51,55-39.63a80.8,80.8,0,0,0,3.1-8c.68-2.75,1.54-5.44,2-8.2a60.77,60.77,0,0,0,.94-8.23l.19-4.08v-3.6C461.45,427.95,461.44,418.79,461.42,410.14ZM49.78,83.52l.15-9.12A75.77,75.77,0,0,1,51,63.51a70,70,0,0,1,6.77-20.73A73.57,73.57,0,0,1,87.24,11.63,71.14,71.14,0,0,1,107.37,3.8,72.89,72.89,0,0,1,118,2.17L123.43,2c1.82-.06,3.08,0,4.65,0l8.82-.1-8.81.45,78.47.23L234,2.39c41.24-.6,23-1.62-28.54-2.07L163.68.07,142.43,0H131.74C128,0,125-.11,120.25.19A74.47,74.47,0,0,0,72.57,20.78a75.8,75.8,0,0,0-23,46.34c-.21,2.29-.29,4.61-.41,6.93s0,3.9-.05,5.9V91.38c0,7.65,0,15.34,0,23l.18,5.08ZM329,181.72A60.85,60.85,0,0,0,340.38,185c1.29.22.18-.2-2.88-1.18-1.83-.59-.26-.38-.24-.54a77.12,77.12,0,0,0,13.14,2.25c5.9.55,8.71.69,11.68.88l32.47-.66c1.68,0,3.54-.1,4.23-.17,7-.72-10.13-1.64-28-1.63l-14.84,0a74.29,74.29,0,0,1-17.34-2.26,70.35,70.35,0,0,1-30.44-16.32c-7.17-6.54-10-11-11.52-12.5a100.58,100.58,0,0,1-8.42-10.57c-.36-.54,1,2.93,2.42,5.8C297.83,162.49,312.59,175.59,329,181.72Zm133.83-3.39c.11.49-.56.28-.8.45l-4.22,1-2.26.53v2.12l-.05-2.11h-.05c-.06,8.14-.11,16.21-.17,24.44q0,88.74,0,177.56c0,7.82,0,16,0,23.43-.06,30.49-.12,39.21.23,35.84.22-1.59.32-.63.27,2.17a53.57,53.57,0,0,1-1.63,12.8C451.89,467.51,444,481,434.49,489a63.55,63.55,0,0,1-21.23,12.41c-7.79,2.83-16.56,3.68-24.62,3.59l-49,.22-100.14.37-81.68.2-20.42,0c-6.79,0-13.38.28-20.65-.43a64.68,64.68,0,0,1-55.48-48.74,68.94,68.94,0,0,1-1.65-9.28c-.14-3.1-.39-6.35-.31-9.19q0-8.77,0-17.48c0-11.63.07-23.21.1-34.85,0-23.28,0-46.76,0-71.22,0-6.32.13-21.56.25-25.16.23-6.88.49-8.35.76-12.57,0-9.32.07-20.39.12-33.54.07,3,.12,5.39.24,10.66-.06-27.31-.11-50.54-.16-73.33s.16-44.9.26-69.84l-.37-4.25c0-7.76,0-15.58,0-24.4,0-2.21,0-4.47,0-6.82s.16-5,.47-7.6a65.87,65.87,0,0,1,4.24-16.54c-3.89,10.53-3.73,15.37-3.44,12.22.34-.72,2.19-6.76.81.07-1.53,5.62-.68,26.37-.82,41.07,0,15.84,0,22.6.29,27.17.2,3.34.35,24.23.52,37.4.41,32.33,1,21.7,1.48,23.73.18.71.37-1,.62-1.91,0-2,.1-10.89.23-26.87.13,17.33.22,29.34.34,44.47L65,206c0,6.84,0,17.18,0,19.94.4,21.42.84,44.83,1.14,61,.55,21.54,1.24-25.38,1.3-61.76,0-46,0-93,.05-139.52,0-9.8-.24-18.68,2.57-27.39a58.39,58.39,0,0,1,4.21-9.63,56,56,0,0,0-6.5,25.26l0,46.6.14-.06c0-10.35,0-20.72.07-31,0-5.09,0-9.85,0-14.33l.36-6c.32-1.92.56-3.79.92-5.58A51.75,51.75,0,0,1,76.85,45.6,59,59,0,0,1,91.31,30.33,55.67,55.67,0,0,1,120,19.61c3.48-.26,7.68-.26,12-.25l13.09,0,26.84,0c17.67,0,34.2.08,45.47.37,8.47.22,1.37.56,1.37.84h82.57V15.77h-.53q-2.63-.06-4-.16c-1.89-.14-2.17-.35-.89-.64,2.31-.51,3.55-1,5.51-1.62l6.31-.09c3.39,3.22,5.36,4.86,4.48,3.45L353,57.34l-.55-.47L413,117.34c.35-.35,7.37,6.59,12.52,11.53l23.88,23.23c2.51,2.35,3.94,4.67,6,7,.52.61.81,1.12,1.22,1.68.12.73.09,1.56.14,2.34l.19,4.75.19,4.78c0,.78.11,1.64,0,2.35l-1.62.18v2.29l1.73-.32,1.53-.28c.39-.2,1.33.11,1.06-.71l-.14-3.49-.27-6.9c-.21-2.16.19-4.9-.93-6.14l-4.65-6.74-6.77-6.65-5.65-5.58L435.79,135,418,117.21l-3.72-5.28-4.4-5.86c8,8,18.18,17.69,27.66,27.91,1.43,1.54,7.06,7.09,8.69,8.56l8.35,7.74,1.91,1.75c.47.56.76,1.08,1.13,1.59l1.9,2.77,1.76,2.69a4.58,4.58,0,0,1,.74,1.5,4.42,4.42,0,0,1,.34,1.91c.16,3.24.3,7.27.4,12.34l0,2.3Zm-73.48-6.49-9.73.15,12.57.14,15.53-.42c-6-.32-18.95-.28-31.71.11l13,0Zm30.46-13,10-.07c1.5,0,1.15-.05,1.19-.07l0-.06,0-.08s0,0,.07,0,.31-.09.3-.49c0,0,0,0,0-.1l-.83-.88-1.85-1.94-4.27-4.41-9.14-9.36.45.71a84.83,84.83,0,0,1-6.53-5.57c-6.2-6-12.66-12.49-18.74-19.05-4.32-4.66-11.61-12-18.39-19l2.45,1.32c-19.35-19.59-10.88-12.32-9.58-12l-21-20.8C333.56,56.49,322.45,45.48,313.74,36L303.74,26l-.09-.11c.28,12.69,1.07,6.35,1.37,19.46.13-5.52.22-9.22.32-13.75.28,4.52.49,9.87.95,7.25.36-2,.82,6.51,1.25,9.34.17,1.14.38-1.18.57-.55a15.07,15.07,0,0,1,.63,4.8c.1,7.33.81,10.77.3,22.32,0,1,0,3.8,0,5.44,0,9.44.1,18.64.14,27.83v3.45l.12,2.74a31.28,31.28,0,0,0,.5,5.3,49.49,49.49,0,0,0,2.73,10.36,46.45,46.45,0,0,0,35,28.32,58.43,58.43,0,0,0,8.69.74l11.27,0ZM305.49,83.67c0-2.43.06-4.9.1-7.35l-.2-.94-.15,22.46-.08,11.23v2.79l.11,2.35a29.4,29.4,0,0,0,.39,4.68l.44,1.82c0-1.68-.26-3.09-.26-5l-.19-4.28v-5.15c0-3.45,0-6.91,0-10.34C305.55,91.81,305.52,87.76,305.49,83.67ZM302.86,24.3l.3-.06h0l-.32,0ZM303,25l.48,3.19.06-2.54Zm147.76,146.5H449.6c0,.1,0,.19,0,.29A5.26,5.26,0,0,0,450.73,171.54Zm-24.76.13c.13,0,.19.11.33.11l15.65,0,.41,0v-.24l-13,0Zm23.63,6.92a14.62,14.62,0,0,0,1.52-.27l1.3-.24c0-.83,0-1.67,0-2.5l-2.8.32C449.6,176.8,449.6,177.7,449.6,178.6ZM302.29,20.48h5.16l-5.12.25.2,1.31a10.06,10.06,0,0,1,1.68-.32,31.64,31.64,0,0,1,2.59,2.22l7.59,7.39c6.4,6.33,14.6,13,12.72,10.44-2.72-3.78,7.15,5.14,19.54,17.62l20.71,20.74c1.5,1.49,3.21,3,4.24,3.82,3.75,3.17,17.27,16.11,24.65,23.65,1.44,1.47,3.27,3.37,3.94,4.14,4.63,5.31,4.54,5.23,12.08,12.2l-10-11.92c-1.11-1.35-.68-1.22-1-1.77l14.05,14.09,4.56,4.79,28.36,28.26c1,1.17,2.54,2.08,3,3.45l.16,4.7.17,4.71,0,.72a2.26,2.26,0,0,0,.7-1.35c0-.46,0-.86,0-1.33a7.6,7.6,0,0,0-.32-1.59l-.1-3.84a8,8,0,0,0-.23-2.36L419.18,128,350.81,59.83q-16.43-16.35-26.66-26.66l-12-11.87-5.52-5.48-5.07-.05ZM73.39,119.86c.05,2.26.11,4.55.16,6.83.13-6.09.36-11.34.37-18.44,0-10.26,0-20.72,0-31.23a52,52,0,0,1,5.86-25.46,50.86,50.86,0,0,1,21.71-21.4A49.89,49.89,0,0,1,119.21,25l2.36-.31c-19,.74-37,13.42-44.17,31.15a55.29,55.29,0,0,0-3.56,13.77c-.15,2.51-.36,4.47-.35,7.45l0,8.56ZM64.65,446.63c.24,2.14.59,4.2,1,6.21A55.29,55.29,0,0,1,64.65,446.63ZM131.07,501c-4.57-.17-10.43.16-17-1.13a60.81,60.81,0,0,1-21.12-8.13c-12.32-7.26-22.87-21-26.81-37a58.43,58.43,0,0,0,14.3,27l.57.7a63.14,63.14,0,0,1-6.54-8,62.42,62.42,0,0,1-7.93-17.07,57.86,57.86,0,0,0,10.62,21.07,58.6,58.6,0,0,0,10,10,59.75,59.75,0,0,0,21.21,10.55C115.73,501,123.2,501.17,131.07,501Zm36.87-12.85,30.49-.07c51.53-.43,118.14-.26,159.14.29l34,.22a53,53,0,0,0,15.77-2.26,47,47,0,0,0,13.61-7l-1.66,1,3.47-2.84,3-3a55.43,55.43,0,0,0,6.82-9.15,45.19,45.19,0,0,0,5.65-14.13c1.09-5.18,1.19-9.66,1.15-17.18.09-13.68.19-27.47.28-41.12.1-19.37.26-51,.41-80.68l.81,8.12c.14-84,1-50,1.71-46.58-.07-32.15-.14-61.48-.2-90.22,0-.62,0-1.26,0-1.88a67.49,67.49,0,0,1-8-.44c-.44-.09-1.61-.17-3.22-.25l-3.79-.24-8.44-.48c-1.49-.11-2.31-.27-1.61-.39,1.49-.25,4.17-.49,5.42-.63l13.27-.13c2.08-.07,4.29,0,6.44,0v-2.74l-52.08.56-11.25,0-22.94-.15a69.42,69.42,0,0,1-24.29-4.74A46.24,46.24,0,0,1,324,168a28.51,28.51,0,0,1-3.32-2.91,71.56,71.56,0,0,1-8.89-7.32l2.87,2.28a62.9,62.9,0,0,1-15.5-19.55,61.55,61.55,0,0,1-6.33-22.91l-.44-1.43c-.38-5.45-.11-10.37-.16-18.18l.12,4c.32-.24.61-2.24.81,0,.24,1.79.1,8.45.48,13.46a35.51,35.51,0,0,0,1.39,9c.24.52.83,2.47,1.51,4.8s1.88,4.93,2.72,6.94c2.44,4.8,3.59,6.19,4.13,6.5s.36-.41.75-.25.14-.48.21-.84a54.15,54.15,0,0,1-3.54-7.84A57.37,57.37,0,0,0,307.91,146l-.76-.47a54.94,54.94,0,0,0,3.91,5A53.12,53.12,0,0,0,326.53,162c6.15,2.85-6.84-4.33-13.78-13.22a58.36,58.36,0,0,1-13.61-39.66c0-6.27.07-12.55.11-19.2l.11,15.31c0,5.23,0,10,.76,14.66l.14,0a68.07,68.07,0,0,1-.57-9.5c0-6.68,0-11.64.33-15.8.26-3.82.3-10.11.25-18.7-.06-10.38-.33-24.67.25-32.06.22-2.78.56-.45.84-.45V24.74l-1.4-.05c.39,0,1.12-.06,1.4-.09V24c-1.11-.09-2.45-.19-2.94-.29s-.67-.22-.07-.34c.3-.06.76-.12,1.4-.19.37,0,1.15-.1,1.61-.14V20.78L264.8,22.57l17.73.14c-52.82.2-26.61,1.11-69.83,1.43l41.94.32c-13.78.28-30.1.49-22.11.95,6.25.36-19.85.82-28.47,1.25-3.48.17,3.59.38,1.68.57a135,135,0,0,1-14.64.63c-22.21.13-33.14.75-67.75.37a49.3,49.3,0,0,0-12.62,1.95A48,48,0,0,0,85,49.69a44.5,44.5,0,0,0-6.29,14.86c-1.23,5.42-1.33,10-1.28,17.73-.08,28-.16,56-.25,84.58,0,36.25-.09,77.77-.13,116.58.08,45.94.17,91.35.25,137.29v19.9a51.47,51.47,0,0,0,2.42,15.2A47.85,47.85,0,0,0,98,480a48.77,48.77,0,0,0,13.92,6.37,54,54,0,0,0,7.54,1.48c2.6.11,4.89.33,8.54.27ZM452.43,181l-2.83.67c0,26.93,0,54,0,80.79,0,6.44.18,13.28.3,17.39.42,14.92.85,72,.75,104.16,0,6.28-.11,14.32-.13,17.43-.24,10.71-.36,16-.37,22.48,0,3.25,0,6.81.07,11.51s.32,10.3-1,17.61c.43-1.92.72-3.87,1.1-5.81l.5-5.89c.12-4.11.24-8.19.35-12.19.23-8,.46-15.66.66-22.63a25.58,25.58,0,0,1,.57-5.87v30.38c0,5.05.1,10.17-.26,15.06a58.36,58.36,0,0,1-3.1,14.45,57.1,57.1,0,0,1-9.53,17.15,58.86,58.86,0,0,1-38.91,22.31,111.54,111.54,0,0,1-15.48.61l-62.76.06-125.5.13-10.19.06a7,7,0,0,0,1,.11l200.34.15c10.17.19,20.42-1,29.6-5.5a59.63,59.63,0,0,0,23.32-19,58.78,58.78,0,0,0,10.32-22.43A75,75,0,0,0,452.9,439c.14-7.34.37-8.94.75-6.31-.14-22.62-.24-40.11-.35-58.13,0-12.1-.1-24.76-.15-37.46C452.89,280.87,452.66,230.54,452.43,181ZM281.77,122a54.78,54.78,0,0,1-.4-7.22c-.08-2.58,0-4.53.09-6.44l.46-11.78.92-23.55-.1-2.89.44,2.89c.08-9.13.16-17.35.23-25.73,0-2.83-.08-6.82-.17-9-.6-13.52-1.62-7.54-2.07,9.36-.48,18-.25,37.23-.36,55.81,0,2.46,0,5,0,7.46.06,2.7.21,6.09.48,9.07ZM222.88,253.9A66,66,0,0,1,237.34,250l.07-2.49.16,2.45.52-.08c.29-5,.64-6.37,1.08-.18v0q3.31-.41,7.16-.53c.1-5.67.37-7.51.81-5.58.51,2.22,1,3.41,1.62,5.29,0,7.66.32,12.68.83,10.73.07,18.22.14,35.95.21,53.67l-.09-.95-.11,3.45,3.79.08h63.17l6.51.13c.4,0,.92-.06,1.15.09l-.05,1.08c0,.67,0,1.24-.07,1.72-.06,1.91,0,2.32.21,1.62.33-1.33.55,1.05.23,4.91l-.75,6.55c-.34,2.39-1,4.71-1.42,6.5-4.9,19.84-19.44,39-39.32,49-15.66,8.51-35.39,10.37-52,7.06a71.68,71.68,0,0,1-10.93-3.24C205.35,385.78,193.21,376,183.62,363c-1.38-1.6-3.68-6.13-4.25-7.17a17.36,17.36,0,0,1-1.2-4,73.47,73.47,0,0,1-4.06-10.19l1.42,3.19a70.69,70.69,0,0,1-5-23.3A71.48,71.48,0,0,1,173,298.89c0-.53,0-.91,0-1.44a78.26,78.26,0,0,1,6.6-16.65L178,284.44c.4-.08,1.51-1.73.75.33a96.74,96.74,0,0,0-4.31,12.4c-1.35,4.92-1.61,7.09-1.54,8.58.05.55-.26,2.47-.38,4.79s-.07,5-.1,7.14c.93,10.26,1.31,6.79,1.85,7.4.19.2.35-.36.59-.65.05-.63-.22-3.38,0-8.3a72,72,0,0,0,1.36,13.6l-.44-.73a33.81,33.81,0,0,0,1.21,6c1.7,6.42,5.16,12.8,7.7,17,3.84,5.33-3.24-7.09-5.39-17.77a68.92,68.92,0,0,1-1.8-20.56c0-3.49.78-6.9,1.24-10.35a78.92,78.92,0,0,1,2.93-10,67.06,67.06,0,0,1,8-15.44A69.78,69.78,0,0,0,179,303.32h.15c.9-2.93,1.38-6,2.58-8.8a44.52,44.52,0,0,1,3.1-7.33,28.3,28.3,0,0,1,3.2-5.37,97.8,97.8,0,0,1,10.38-13.1c6.26-6.93,17.41-13.77,23.82-15.49C224.6,252.61,222.77,253.64,222.88,253.9Zm-37.05,47.45a63.73,63.73,0,0,1,6.34-15.68l2.62-4.33,3-4.07c1.24-1.59,2.76-3,4.11-4.48l.37-.72A73.66,73.66,0,0,0,191,286.86a72.44,72.44,0,0,0-6.53,17.41c-.09.61-.09,1.25-.14,1.87C184.67,304.5,185.36,303.2,185.83,301.34Zm62.69,89.83c-5.63-.25-18-1.18-29.31-5.63l6.06,2.2c1.93.63,3.84,1,5.72,1.52l.27.12c-1.79-.57-3.74-.57-8.88-2.51a48.93,48.93,0,0,0,7.12,2.33,31.89,31.89,0,0,0,4.33,1A78.34,78.34,0,0,0,248.52,391.17Zm-6.79-140.68c-.59.15-1.16.34-1.73.53,0,.22.08.5.12.8l.78-.1-.78.13c.32,2.45.59,7.61.67,19.17.06,8.65,1.13,18.77,1.63,15.72.37-2.21.73-.12,1,4.63.13,2.37.24,5.42.31,8.92,0,4.25.06,9,.1,14.14v7.19l26.6,0c2,0,4.18-.18,5.48-.3,2.35-.21,8-.42,14.36-.57l9.7-.16,8.28,0c1.57,0,3.55.06,4.28.13,2.51.24,3.62.36,5.17.37h.6c.23,0,.47-.05.38.25s0,.91,0,1.46c0,1.1,0,2.47,0,4.3.43-2.13.73-4.4,1.1-6.69.16-.39-.14-.36-.37-.38l-.69-.08-1.38-.17-2.71-.33c-1.35-.17-.92-.38-1.32-.57h7.65c.45-.08.09.6.18.87a66.19,66.19,0,0,1-.71,8.68,50,50,0,0,1-1.18,5.68c-5.36,25.29-25.68,46.76-50.59,54l-3,.85a.77.77,0,0,0,.33,0,73.59,73.59,0,0,0,47.48-37.42,74.36,74.36,0,0,0,6.45-17.92,93.61,93.61,0,0,0,1.71-12c.26-2.29.55-3,.93-2.55l0-1.29c-.13-.29-.79-.07-1.15-.12l-2.5,0-4.65.09-8.51.16-11.8.15c-16.79.05-30.85.31-47.17.63l-.11-5.43c0-5.71-.08-13.38-.13-20.16-.06-10.14-.12-20.41-.18-30.41-.05-5.64-.05-10,0-13.22Zm-4.05,1.27,0,.36.27,0c0-.14,0-.3,0-.43Zm0,.5.15,2.38c0-.87.07-1.66.1-2.43Zm-1.72.07,1.29-.16v-.28C236.86,252,236.43,252.2,236,252.33Zm-13.34,5.53,5.72-1.91,5.25-1.22c-1.78.62-3.72,1.22-4.93,1.69s-1.64.94-.56.79c1.71-.12-4.79,2.37-6.54,4-.74.55,1-.06.63.32a9.34,9.34,0,0,1-3.13,2.2c-4.85,3.11-7,4.75-13.85,10.59-.62.48-2,2.17-2.9,3.11A63.84,63.84,0,0,0,187,317.05a59.75,59.75,0,0,0,6.84,28.84,61.81,61.81,0,0,0,24.45,24.74c11.87,6.45,26,9.25,39.52,6.83a51.56,51.56,0,0,0,7.59-1.77,69.74,69.74,0,0,0,18.79-9.85A71.48,71.48,0,0,0,298,352.31a61.29,61.29,0,0,0,8.6-16.9,4.33,4.33,0,0,1-.36.56c.19-1.07.21-1.92.34-2.9.21-1.37.07-1.14,0-1.21-.22,0,0,.08,0-.29-.11-.06.18-.1-.33-.14l-6.25-.1-13.93-.17,2.56-.81c-26.44-.14-15.76-1-14.67-1.71l-37.38.2c0-1.42,0-2.78,0-4.14,0-10.19,0-20.69,0-30.87,0-7.06.14-13.9.39-20.06l0-14.11.22-7.31a24.33,24.33,0,0,0-6.73,2.07C229.15,255,228.12,255.66,222.65,257.86ZM233.87,404c1.87.25,4,.5,4.73.54,4-.12,1.12-.48-5-1.85-3.1-.49-6.91-1.79-11.19-3a112.17,112.17,0,0,1-13.15-5.55,85.4,85.4,0,0,1-42-47.85A155.78,155.78,0,0,1,163,331c-1.57-4.41-2.35-8.66-3.25-12.17-.15-.58-.19,2.84-.12,5.82.5,14.88,6.7,31.87,16.38,44.84a56.86,56.86,0,0,0,7.07,8.35c.89.83.26-.07-1.58-2.4-1.1-1.4,0-.44.12-.56,1.43,1.56,3.08,3.44,4.69,5l4,3.74a109.23,109.23,0,0,0,9.26,7.79A87.84,87.84,0,0,0,233.87,404Zm95.63-93-.13,0a4.71,4.71,0,0,1,.38.69C329.82,311.33,329.93,310.93,329.51,311Zm-7.1-1.08,4.9.74,2.07.32C328.23,309.43,326.11,308.86,322.41,309.94Zm7.31,2-.19,1.23L328,322.45l-.9,7.78a43.38,43.38,0,0,1-1.54,7.89,41.23,41.23,0,0,1-2,6.41,49.93,49.93,0,0,1-2.42,6c-5.25,10.82-10,17.42-16.72,24.51a87.13,87.13,0,0,1-17.91,13.64A88.86,88.86,0,0,1,264,397.11c-1.26.34-4,1-5.51,1.49-.71.22.16.26,1.73.13l4.25-.42,4.61-.93c3-.52,5.45-1.28,6-1.33,2.54.16,14.94-5.43,22.25-11a50.93,50.93,0,0,0,7.25-6,26,26,0,0,0,3.93-4.37l3.61-4.79,4.31-6.59,3.27-5.62c1.29-2.32,2.34-4.76,2.88-5.73a74.07,74.07,0,0,0,4.19-10.23l1.48-5.63a44.41,44.41,0,0,0,1.12-7.26c.28-5.66,2.2-13.3.31-17.06A1.76,1.76,0,0,0,329.72,311.94ZM188.23,254.38l2.33-2.25-2.09,2.5a84.17,84.17,0,0,1,23.76-15.69c2.8-1.45,7-2.81,9.25-3.79,7.15-2.32,9.19-3.12,7-3a57.42,57.42,0,0,0-6.27,1.05,78.68,78.68,0,0,0-11.28,3.88c-19,7.94-35.54,24.52-44.15,44a86.06,86.06,0,0,0-5.49,16.24L161,299.2A88.16,88.16,0,0,1,188.23,254.38Zm78.42,19.84-.37-.71c0-2.6,0-5.23.06-9.19l.12,2c.32-.12.61-1.14.81,0,.16.89.28,4.36.3,6.83,0,2.65,0,3.79.29,4.55.2.59.35,4,.52,6.38.41,5.61,1,3.4,1.48,3.58.18,0,.37-.32.62-.55l.23-4.12c.13,2.52.22,4.26.34,6.46l-.33-.19c0,1,0,2.6,0,3l.29,2.14c2.78-.27,5.19-.54,6.94-.85,2.62-.47-1.26-1-4.87-1.23l.07-2.13c0-6.66,0-13.46.05-20.2,0-3.2.07-6.4.11-9.81l.23,15.65h.15l.07-5.2a62.33,62.33,0,0,1,.33-8.07,78.34,78.34,0,0,0,.25-9.56c-.06-5.3-.33-12.6.25-16.38.22-1.42.56-.23.84-.23v-3.75c-1.4-.2-2.74-.33-4.11-.54l3.29-.29c-3.86-.51-5.93-1.05-2.21-1.41.86-.08-.1-.36.09-.53s1-.54,2.93-.58v-5.8c-5.18-.48-7.15-.61-5.85-1.22a25.14,25.14,0,0,0,2.85-1.48c4.12.06,6.84.24,5.85-.4a75.86,75.86,0,0,1,28.5,9.1l-.59-.25c1.24.83,2.44,1.69,3.73,2.48a77.09,77.09,0,0,1,21.84,20.85,29.33,29.33,0,0,1,2.18,3.36c2.71,4.47,3.21,5.88,3.28,5.19,0-1.21,3,3.9,4.37,7.79a51,51,0,0,1,2.77,7.83c.36,1.29.92,3,1.22,4.62l.76,5a89.14,89.14,0,0,1,1,10.24l.18,2.61v.32h-.31l-.63,0-1.26.05-5.05.22c-2.66.15-5.58.13-8.45.18l-7.72.08-13.4.29-5.75,0-11.72-.15-5.89-.07-6.65.06a52.26,52.26,0,0,1-5.29-.25,6.65,6.65,0,0,1-2.21-.76l-6.69-.12,2.36-.24-2.39,0c0-4.49-.09-8.38-.13-12.2C266.48,282.67,266.56,278.69,266.65,274.23Zm13.05-.44c0-3.44,0-7,0-10.52,0-2.1-.05-4.17-.08-6.25l.1-3.76-.2-.48-.31,23,.16,1.14A23.22,23.22,0,0,0,279.7,273.78Zm40,21.4a125.19,125.19,0,0,0-16.2.11l6.66,0,.15,0-5,.15c3.34.08,5.26.19,6.42.14Zm8.91-13.35,0-.2-.25-1.14a33.19,33.19,0,0,0-1.51-5.26l-.06.39a16.24,16.24,0,0,1-1.86-3.08c-.87-1.57-1.69-3.2-2.46-4.89-.91-1.61-1.84-3.23-2.64-4.92a56.36,56.36,0,0,0-6.6-8.82l1.34.28c-8.22-8.25-4.43-5.55-3.51-5.8a71.24,71.24,0,0,0-10.56-7.28A89.14,89.14,0,0,0,283.15,234a14.76,14.76,0,0,0-3.36-.66c.16,1,.33,1.53.59.79.36-1,.82,3.33,1.25,4.77.17.58.38-.6.57-.28a4.38,4.38,0,0,1,.63,2.45c.1,3.74.81,5.5.3,11.4,0,.51,0,1.94,0,2.78.13,4.82.17,9.52.14,14.22l-.08,7.05-.07,3.55,0,1.78c0,.25,0,.1,0,.18a1.11,1.11,0,0,0-.14.58h.32l.26,0,.06,0,1.25,0,2.87,0,11.5-.13,26.73,0h2a.13.13,0,0,0,.05-.06c0-.49,0,0,.57-.3A.21.21,0,0,0,328.58,281.83ZM276,223.56l1.5,5.13.14-3c0,1.67.11,2.77.19,3.66,1.28.1,2.86.28,4.82.58,4,.89,9.08,1.25,7.81.38-.91-.73.16-.72,2.48-.14a41.4,41.4,0,0,1,9.62,3.77l6.07,3.66,5.67,4.23a16.9,16.9,0,0,0,2.24,1.63c2.2,1.09,8.78,7.56,11.59,12a14,14,0,0,1,1.41,2.42c1.31,3.24,1.54,3,4,7.37a59.71,59.71,0,0,0-2.51-7.35c-.31-.83,0-.78,0-1.13l2.61,4.27,2.18,4.49a28.4,28.4,0,0,1,1.21,3.09,71.15,71.15,0,0,1,3.21,9.8,74.68,74.68,0,0,1,1.8,9.43l.29,4.8a22.25,22.25,0,0,1,.08,2.36l-2.39,0-9.61.07-1.56.06c.06,0,.1.11.17.11l7.84,0,3.94,0h2a14.32,14.32,0,0,0,0-1.9,65.64,65.64,0,0,0-2.13-15.6,70.76,70.76,0,0,0-3.22-9.67c-2.81-6.1-3.59-7.89-2.51-7.48-2.14-3.13-3.54-5.72-5.54-8-1.31-1.54-2.46-3.32-4-4.81a67.9,67.9,0,0,0-21.26-16.26c-2.67-1.06-6-3-9.29-4a70.87,70.87,0,0,0-15.38-3.72Zm3.07,13.85.19-4.17-.66-.09A21,21,0,0,1,279.1,237.41ZM255.3,292.2c-.21,5.73-.27,11.91-.27,18.2l25.05-.11,5,0a13.34,13.34,0,0,0,1.61-.11c.54-.1.06-.24-1.28-.44-.8-.12-.15-.31-.15-.46,1.92,0,4.53-.06,5.62,0,2.37.18,4,.43,5.47.61l16.59-.66a20.29,20.29,0,0,0,2.16-.17c3.58-.72-5.18-1.64-14.32-1.63l-40.2-.19h-2.34c0-6-.08-9.18-.35-10.46L255.71,287C255.59,286.47,255.4,289.52,255.3,292.2Zm97.05-.17c-.61-2.51-1.34-6.21-2.09-10.3a38,38,0,0,0-1.06-4.6c-.44-1.66-.74-2.81-.87-3.46a65.13,65.13,0,0,0-8.76-20.27l1.22,4,.57,3.67a67.44,67.44,0,0,1,5,12.84c.6,2.8,1.8,6.41,2,9.57s1,6.19,1.26,9.59l.53,7.73.07,1c.06.36-.52.13-.75.22l-1.89.1-3.84.21c-5,.38-11.14.28-16.52.42-.64.14-2,.38-2.77.63-.36.12.06.28.82.39,1.43.33,9.36.63,10.1,1a30.87,30.87,0,0,0,7.74.41l5.61-.24,2.83-.13c.88-.08,2.15.22,1.72-1A77.43,77.43,0,0,0,352.36,292Zm-95.42-40.43-.1-1.48.44,1.48c.08-4.66.16-8.87.23-13.15,0-1.44-.08-3.48-.17-4.59-.6-6.91-1.62-3.85-2.07,4.78-.48,9.18-.25,19-.36,28.51,0,2.51,0,5.1,0,7.66l.18.85Z"/></svg>