<svg id="Layer_1" data-name="Layer 1" xmlns="http://www.w3.org/2000/svg" viewBox="0 0 512 512"><defs><style>.cls-1{fill:#141f38;}</style></defs><title>document-pie-chart-glyph</title><path class="cls-1" d="M294.4,235.74V268.8h33.06A64.38,64.38,0,0,0,294.4,235.74Z"/><path class="cls-1" d="M217.6,345.6V261.34a64,64,0,1,0,84.26,84.26H217.6Z"/><path class="cls-1" d="M307.34,0H115.2a64,64,0,0,0-64,64V448a64,64,0,0,0,64,64H396.8a64,64,0,0,0,64-64V153.6ZM243.2,409.6a89.6,89.6,0,0,1,0-179.2V320h89.6A89.6,89.6,0,0,1,243.2,409.6Zm25.6-115.2V204.8a89.6,89.6,0,0,1,89.6,89.6Zm89.6-128a64,64,0,0,1-64-64V25.6L435.2,166.4Z"/></svg>