<svg id="Layer_1" data-name="Layer 1" xmlns="http://www.w3.org/2000/svg" viewBox="0 0 512 512"><defs><style>.cls-1{fill:#dde5e8;}.cls-2{fill:#9bbdc6;}.cls-3{fill:#afc3c9;}.cls-4{fill:#e8a52d;}.cls-5{fill:#9e2d2d;}.cls-6{fill:#ef4848;}</style></defs><title>document-and-pen-1-flat</title><path class="cls-1" d="M409.6,153.6V448a64,64,0,0,1-64,64H64A64,64,0,0,1,0,448V64A64,64,0,0,1,64,0H256.13Z"/><path class="cls-2" d="M409.6,153.6H320a64,64,0,0,1-64-64V0h.13Z"/><path class="cls-3" d="M192.38,192a12.8,12.8,0,0,1-12.8,12.8H102.4A12.8,12.8,0,0,1,89.6,192h0a12.8,12.8,0,0,1,12.8-12.8h77.18a12.8,12.8,0,0,1,12.8,12.8Z"/><path class="cls-3" d="M269.18,243.2a12.8,12.8,0,0,1-12.8,12.8h-154a12.8,12.8,0,0,1-12.8-12.8h0a12.8,12.8,0,0,1,12.8-12.8h154a12.8,12.8,0,0,1,12.8,12.8Z"/><path class="cls-3" d="M283.53,395.24a12.81,12.81,0,0,0-18.1,0l-8.5,8.5c-13.83-14.77-27.31-21.32-40.88-19.65-13,1.59-20.83,10-27.08,16.84-4.74,5.15-7.83,8.33-11.32,8.76-1.54-.14-5.46-4.59-7.86-7.43-5.91-7-14-16.54-27.46-18.18-16.66-2-33,8-50.14,30.57a12.8,12.8,0,1,0,20.4,15.46c10.53-13.87,20.21-21.47,26.66-20.62,3.24.39,6.46,3.94,11,9.31,6,7.05,14,16.51,27,16.51a28.59,28.59,0,0,0,3.44-.21c13-1.58,20.81-10,27.07-16.83,4.75-5.16,7.84-8.34,11.33-8.77,6.42-.86,16.14,6.75,26.66,20.63a12.73,12.73,0,0,0,10.08,5c.23,0,.46,0,.69,0l.46,0a12.71,12.71,0,0,0,8.4-3.69l18.1-18.1A12.8,12.8,0,0,0,283.53,395.24Z"/><path class="cls-4" d="M410.25,214.23,265.43,359a38.4,38.4,0,0,0,54.31,54.31L464.55,268.53Z"/><path class="cls-5" d="M482.65,250.43l18.1-18.1A38.4,38.4,0,0,0,446.45,178l-36.2,36.2,54.3,54.31h0l9.05,9.05-18.1,18.11a12.8,12.8,0,0,0,18.1,18.1l27.16-27.16a12.81,12.81,0,0,0,0-18.1Z"/><path class="cls-6" d="M482.65,250.43l18.1-18.1A38.4,38.4,0,0,0,446.45,178l-36.2,36.2,54.3,54.31h0l9.05,9.05-18.1,18.11a12.8,12.8,0,0,0,18.1,18.1l27.16-27.16a12.81,12.81,0,0,0,0-18.1Z"/></svg>