<svg id="Layer_1" data-name="Layer 1" xmlns="http://www.w3.org/2000/svg" viewBox="0 0 512 512"><defs><style>.cls-1{fill:#141f38;}</style></defs><title>document-and-pen-1-glyph</title><path class="cls-1" d="M482.65,250.43l18.1-18.1A38.4,38.4,0,1,0,446.45,178L409.6,214.87V153.6L256.14,0H64A64,64,0,0,0,0,64V448a64,64,0,0,0,64,64H345.6a64,64,0,0,0,64-64V323.48l55-55,9,9.05-18.1,18.11a12.8,12.8,0,1,0,18.1,18.1l27.16-27.16a12.81,12.81,0,0,0,0-18.1Zm-181,144.82a12.8,12.8,0,1,1-18.11-18.1L428.35,232.33l18.1,18.1Zm181-199.12a12.79,12.79,0,0,1,0,18.1l-7.18,7.18-10.92,10.92-1-1-17.09-17.09,18.1-18.1a12.74,12.74,0,0,1,9-3.75,12.92,12.92,0,0,1,5.9,1.43A12.74,12.74,0,0,1,482.65,196.13ZM243.2,25.6,384,166.4H307.2a64,64,0,0,1-64-64ZM102.4,179.2h77.18a12.8,12.8,0,0,1,0,25.6H102.4a12.8,12.8,0,0,1,0-25.6Zm0,51.2h154a12.8,12.8,0,1,1,0,25.6h-154a12.8,12.8,0,0,1,0-25.6ZM263.73,432.6a12.8,12.8,0,0,1-17.93-2.47c-10.53-13.89-20.16-21.39-26.66-20.63-3.5.42-6.59,3.61-11.34,8.77-6.25,6.8-14,15.25-27.06,16.83a28.6,28.6,0,0,1-3.44.21c-13.06,0-21.06-9.45-27-16.51-4.54-5.37-7.77-8.91-11-9.31-6.35-.82-16.12,6.73-26.66,20.63a12.8,12.8,0,0,1-20.4-15.47c17.13-22.6,33.53-32.58,50.14-30.57,13.44,1.63,21.54,11.19,27.46,18.17,2.4,2.84,6.36,7.49,7.86,7.43,3.49-.42,6.57-3.61,11.32-8.76,6.26-6.8,14-15.26,27.08-16.84,15.13-1.86,30.06,6.27,45.52,24.76a38.58,38.58,0,0,0,2.45,3c.73.91,1.45,1.84,2.18,2.8A12.8,12.8,0,0,1,263.73,432.6Z"/></svg>