<svg id="Layer_1" data-name="Layer 1" xmlns="http://www.w3.org/2000/svg" viewBox="0 0 512 512"><defs><style>.cls-1{fill:#707070;}</style></defs><title>document-and-pen-1-handdrawn</title><path class="cls-1" d="M54.39,509.52c3.16.9,2.17,1.21-4-.72a65.63,65.63,0,0,1-14-6.52A73.71,73.71,0,0,1,2.79,455.81,77.29,77.29,0,0,1,1,441q-.07-6.28-.13-12.62Q.74,415.9.66,403.19c.17-9,.34-18.39.6-32.4,0-6.48,0-21.93,0-33.32-.16.05-.34-3.84-.46.91C.44,354.24.25,349.94.24,316.84c0-43-.32-88.89.16-128.4.1-7.91.29-17.07.41-15.5.72,9.44,1.44,21,2.15,33.61.31,5.41.39,18.77.34,43.65-.06,59.29-.13,119.49-.19,179.23,0,3.39,0,6.77,0,10.12a80.88,80.88,0,0,0,1,11.69A70.22,70.22,0,0,0,11,472.62a73.39,73.39,0,0,0,24.69,27.75A79.45,79.45,0,0,0,54.39,509.52Zm355-100.45c-.37,8-.72,15.53-1,22-.2,3.51-.3,6.54-.59,9.89a65.31,65.31,0,0,1-1.55,10.3A66.56,66.56,0,0,1,387.57,487c-10.23,10.07-24,16.7-37.2,18.29-9.91,1.15-17.55.49-25.24.67l-21.65.06-41.17.23-135.79.51-16.41.63c-2.11.12.36.28,4.88.39,14,.33,39.85.62,43.08,1,6.66.7,44.55.48,70.37.6,21.93.1,34.47-.05,43.11-.37,9-.33,23.1-.65,39.39-.93l18.59-.12h10.84c3.45-.1,6.61-.24,8.34-.41,23.84-2.21,45.5-18.38,54.63-39.36a80.42,80.42,0,0,0,3.07-7.92c.67-2.73,1.53-5.41,1.94-8.15a60.53,60.53,0,0,0,.94-8.18l.19-4.06v-3.58C409.45,426.76,409.44,417.66,409.43,409.07ZM.64,84.72l.15-9.06A75.3,75.3,0,0,1,1.86,64.85,69.55,69.55,0,0,1,8.58,44.26,73.06,73.06,0,0,1,37.84,13.33a70.65,70.65,0,0,1,20-7.78,72.4,72.4,0,0,1,10.6-1.61l5.35-.21c1.81-.06,3.06,0,4.62,0l8.76-.1-8.75.44,77.92.23,27.22-.17c41-.59,22.83-1.61-28.34-2.06l-41.46-.24L92.65,1.8H82c-3.67,0-6.67-.12-11.41.18A74,74,0,0,0,23.27,22.41a75.28,75.28,0,0,0-22.81,46C.25,70.7.17,73,.06,75.31S0,79.18,0,81.16V92.52c0,7.6,0,15.23,0,22.81l.18,5Zm277.3,97.52a60.4,60.4,0,0,0,11.29,3.25c1.29.22.17-.2-2.86-1.18-1.81-.59-.25-.38-.24-.54a76.57,76.57,0,0,0,13,2.23c5.86.55,8.64.68,11.6.88l32.24-.65c1.66,0,3.52-.1,4.2-.17,7-.71-10.06-1.62-27.84-1.62l-14.74,0a73.78,73.78,0,0,1-17.22-2.24A69.86,69.86,0,0,1,257.2,166c-7.12-6.49-9.9-10.95-11.44-12.41a100,100,0,0,1-8.36-10.49c-.36-.53,1,2.91,2.4,5.76C247,163.14,261.62,176.14,277.94,182.23ZM231,123a54.34,54.34,0,0,1-.4-7.17c-.08-2.56,0-4.5.09-6.4l.46-11.69.91-23.39-.1-2.87.44,2.87.23-25.55c0-2.81-.07-6.77-.17-8.93-.59-13.43-1.61-7.49-2.06,9.29-.48,17.85-.25,37-.35,55.42,0,2.44,0,4.92,0,7.41.06,2.69.21,6,.47,9Zm78.1,299.15c.82-.34,1.66-.71,2.47-1.12C310.7,421.45,309.94,421.75,309.12,422.12ZM257.8,358.33a32.1,32.1,0,0,0-2.52,4A44.78,44.78,0,0,1,257.8,358.33ZM510.32,222.44a49,49,0,0,1-11.68,21.14l1.16-1L496,247.2c-1.12,1.3-2.44,2.78-4.5,4.9-2.47,2.53-5.07,5.13-7.64,7.71l2.13,2.33,4,4.49c2,2.36,6.09,6.43,9.18,9.68l-.1-.36a36.16,36.16,0,0,1,4.26,3.29l3.21,3.08c-2.5,2.55-5.23,5.17-8,7.65s-7,6.57-10.92,10.34l.41-1.54a43.75,43.75,0,0,1-4.24,3.92c-.65.49-1,.63-1.15.57-.33-.12,0-1-.12-1.39-2.08,2.19-3.93,4.24-5.85,6.13a107.38,107.38,0,0,1-9.05,8.44c-.66.5-2,2.06-3,2.95s-1.88,1.55-2.81,2.31l1.18-1.82c-2,1.55-3.22,2.18-1.95.12.29-.47-.3-.2-.34-.41-.12-.55.27-1.65,3.69-5.23,1.78-1.87,3.17-4.75,2.17-4.46-1.45.41.75-2.77,4.34-6.3l5.92-5.95a6.27,6.27,0,0,0,.94-1.37,12.11,12.11,0,0,1,1-1.42l2-2.39c1.51-1.72,3.2-3.52,4.54-4.8a20.49,20.49,0,0,1,1.55-1.37,13.43,13.43,0,0,0,4.15-4l-.27-.22.11.22c-1.88,1.27-3.62,2.44-5.1,3.33a2.16,2.16,0,0,1-1.11.31l3.63-3.64-.73-.74c-.49-.5-.78-1-1.26-1.48l-11.48-11.25-.23.23,6.79,6.9,4.42,4.32c.86.86,1.52,1.53,2,2-1.37,1.23-2,1.52-2.44,1.22l-3.49,4-2.42,2.62c-4,4.11-7.15,7.67-10.35,11.39-1.06,1.24-2.65,2.77-4,4.17l-6.28,6.54c-3.25,3.46-4.74,4.58-4.59,3.44a13.63,13.63,0,0,0,0-2.26c1.58-1.65,2.45-2.9,1.68-2.84l11.5-11.8-.18.31c.62-.53,1.28-1,1.86-1.6l11.17-11.15,1.37-1.38c1.91-1.78,2.41-2.3,1.75-2.12-.48.13-.47-.1-.19-.55-.78-.54-1.83-1.5-2.71-2.25l-5.57-4.86-3.38-3.12-1.86,1.8,1.79,1.65c1.17,1.07,1.52,1.28,2.18,1.85a16.4,16.4,0,0,1,1.87,1.84c.86,1,2.15,2.12,3.11,3.05l0,0-2.15.66-2,.58c.39-.38.75-.81,1.13-1.24a9,9,0,0,1-2.14-2.43A5,5,0,0,0,472,278.8a21.06,21.06,0,0,0-2-.71,9.42,9.42,0,0,1-2.63-2.11c-.62.59-1.23,1.2-1.85,1.79L439.72,303l2-3.14C415,326.37,425.19,315,425.77,313.43l-22.44,22.66q0,22.68,0,45.37c0,7.77,0,15.87,0,23.27-.06,30.28-.12,38.93.23,35.59.22-1.58.32-.62.26,2.15a53.17,53.17,0,0,1-1.62,12.71C400,466,392.14,479.48,382.68,487.43a63.1,63.1,0,0,1-21.08,12.33c-7.73,2.81-16.44,3.66-24.45,3.56l-48.7.22-99.44.37-81.12.2-20.28,0c-6.74,0-13.29.27-20.51-.43A64.23,64.23,0,0,1,12,455.32a68.47,68.47,0,0,1-1.64-9.22c-.14-3.08-.38-6.31-.31-9.12q0-8.71,0-17.36c0-11.55.07-23.05.1-34.61,0-23.11,0-46.43,0-70.73,0-6.28.13-21.41.25-25,.22-6.83.48-8.3.76-12.48,0-9.26.07-20.25.12-33.31.07,2.94.12,5.36.24,10.58-.06-27.12-.11-50.19-.16-72.83s.16-44.59.25-69.36l-.37-4.23c0-7.71,0-15.47,0-24.23,0-2.19,0-4.44,0-6.77s.16-5,.46-7.55A65.42,65.42,0,0,1,16,52.7C12.13,63.15,12.3,68,12.59,64.83c.34-.72,2.18-6.71.81.07-1.52,5.58-.67,26.19-.81,40.79,0,15.73,0,22.45.29,27,.2,3.31.34,24.06.51,37.14.41,32.1,1,21.55,1.47,23.57.18.71.36-1,.62-1.9,0-2,.09-10.81.23-26.68.13,17.21.22,29.14.34,44.16l-.32-2.57c0,6.79,0,17.06,0,19.8.4,21.27.83,44.52,1.13,60.56.55,21.39,1.23-25.21,1.29-61.33,0-45.65,0-92.32.05-138.55,0-9.73-.24-18.55,2.55-27.2a58,58,0,0,1,4.18-9.56,55.62,55.62,0,0,0-6.45,25.09l0,46.27.14-.06c0-10.27,0-20.57.07-30.81,0-5.05,0-9.78,0-14.23q.18-3.08.36-6c.32-1.9.56-3.76.91-5.54a51.39,51.39,0,0,1,7.51-17.78A58.62,58.62,0,0,1,41.88,31.89,55.28,55.28,0,0,1,70.42,21.25C73.87,21,78,21,82.3,21l13,0,26.66,0c17.55,0,34,.08,45.16.37,8.41.22,1.36.56,1.36.84h82V17.44h-.53q-2.61-.06-4-.16c-1.87-.14-2.15-.35-.89-.63,2.3-.51,3.53-1,5.48-1.61l6.27-.09c3.37,3.2,5.33,4.82,4.45,3.42l40.55,40.35-.55-.47,60.15,60.06c.34-.35,7.32,6.54,12.43,11.45l23.72,23.06c2.49,2.33,3.91,4.64,5.93,7,.51.61.8,1.11,1.21,1.67.12.72.09,1.55.14,2.32l.19,4.72.19,4.74c0,.77.11,1.63,0,2.34l-1.61.18v2.27l1.72-.32,1.52-.28c.39-.2,1.32.11,1-.7l-.14-3.47-.27-6.85c-.21-2.15.19-4.86-.92-6.1l-4.62-6.69-6.72-6.6-5.61-5.54L384,135.79l-17.64-17.62-3.7-5.24-4.37-5.82c7.94,8,18.05,17.57,27.47,27.72,1.42,1.53,7,7,8.63,8.5l8.29,7.68,1.9,1.73c.47.55.76,1.08,1.12,1.58l1.88,2.75,1.75,2.67a4.56,4.56,0,0,1,.73,1.49,4.39,4.39,0,0,1,.33,1.89c.16,3.22.29,7.22.39,12.26q0,1.11,0,2.28l0,1.18c.11.49-.55.27-.8.44l-4.19,1-2.24.53v2.11l-.05-2.1h-.05q-.06,8.55-.12,17.12L423,178.36l2.51-2.51,1.28-1.28,1.82-1.67a49.8,49.8,0,0,1,56.58-7.76,50.59,50.59,0,0,1,18.6,16.66,48.45,48.45,0,0,1,7.64,20A51.62,51.62,0,0,1,510.32,222.44ZM420.47,206l2,.64-1.08-1.28c3.65,3.37,2.54,1,5.64,3.64l-2.56-3c1.11.72,2.34,1.65,2.13.8-.16-.67,1.89.74,2.77,1,.35.11,0-.51.29-.51a1.78,1.78,0,0,1,1.42.53c1.55,1.41,2.75,1.61,4.73,4.31a11.88,11.88,0,0,0,1.09,1.12c4,3.64,7.57,7.35,11.18,11.32,2.29,2.52,5.05,5.27,7.65,7.83l9.29,8.94,3.1,3.11,5.51-5.56c3.08-3.15,6.79-6.71,9.57-9.65a30.14,30.14,0,0,0,6-9.37,23.94,23.94,0,0,0,1.55-6.34,26.61,26.61,0,0,0-.06-6.61,25.31,25.31,0,0,0-5.54-12.46,34.27,34.27,0,0,0-11.3-9.15,27.51,27.51,0,0,0-14-2.58,48.71,48.71,0,0,0-9.36,2,17.29,17.29,0,0,0-5.46,2.74,33.51,33.51,0,0,0-3.89,3.15l-4.05,3.71c-1.52,1.36-2.42,2-1.83,1.28,1.26-1.62,3.68-4.37,4.79-5.67a30.26,30.26,0,0,1,50.74,31.22,31.66,31.66,0,0,1-3.41,6.29,41.21,41.21,0,0,1-5.15,5.9l-11.9,12-.74.57,2.36,2.37c3.24-3.49,9-9.34,13.53-14a33.27,33.27,0,0,0-5.54-52,32.7,32.7,0,0,0-19.36-4.92,32.28,32.28,0,0,0-15.4,4.89,34.58,34.58,0,0,0-6.45,5.21L432.26,194Zm43,51.94.13-.13a37.94,37.94,0,0,0-4-4l-.14.12.86.84,0,.09-1-.87-.12.1c.63.7,1.13,1.27,1.46,1.56Zm-4.52-4.18.07-.07-.73-.65Zm.16-.17.1-.1c-.51-.44-1-.88-1.54-1.31ZM441.88,223l-4.2-4.14-2.53-2.42-1.42-1.56-.33,0,8.88,9.31.57.34A7.71,7.71,0,0,0,441.88,223Zm-52,6.75,12.56-12.62.32-.26-9.28,9.5,12.23-12,14.7-15.29C414.38,204.6,401.89,217.15,389.83,229.75Zm-52-57.33-9.66.15,12.48.14,15.42-.42c-5.93-.31-18.81-.27-31.49.11l13,0Zm30.25-12.88,9.93-.07c1.49,0,1.14-.05,1.18-.07l0-.06,0-.08s0,0,.07,0,.31-.09.3-.48c0,0,0,0,0-.1l-.82-.88L377,155.83l-4.24-4.37-9.08-9.29.44.71a84.18,84.18,0,0,1-6.48-5.53c-6.16-6-12.57-12.4-18.61-18.92-4.29-4.63-11.53-11.93-18.27-18.89l2.43,1.31c-19.21-19.45-10.81-12.23-9.51-11.94L292.75,68.24c-10.3-10.37-21.33-21.3-30-30.67l-9.93-10-.09-.11c.28,12.6,1.07,6.31,1.36,19.33l.32-13.66c.28,4.49.49,9.8.94,7.2.36-2,.81,6.46,1.24,9.27.17,1.13.38-1.17.57-.55a15,15,0,0,1,.63,4.77c.1,7.28.81,10.69.3,22.16,0,1,0,3.77,0,5.4,0,9.37.1,18.51.14,27.63v3.42l.12,2.73a31.1,31.1,0,0,0,.5,5.26,49.13,49.13,0,0,0,2.71,10.29,46.13,46.13,0,0,0,34.8,28.13,58,58,0,0,0,8.63.74l11.19,0ZM254.58,84.86c0-2.41.06-4.87.1-7.3l-.2-.93-.15,22.3-.08,11.15v2.78l.11,2.33a29.12,29.12,0,0,0,.39,4.65l.44,1.81c0-1.67-.26-3.07-.26-5l-.19-4.25v-5.12c0-3.42,0-6.86,0-10.27C254.63,92.95,254.61,88.93,254.58,84.86Zm-2.62-59,.3-.06h0l-.32,0Zm.11.73.47,3.17.06-2.52ZM398.81,172.13h-1.13c0,.1,0,.19,0,.29A5.22,5.22,0,0,0,398.81,172.13Zm-24.59.13c.13,0,.18.11.33.11l15.54,0,.41,0c0-.08,0-.16,0-.24l-13,0Zm26.27,9.31-2.81.66q0,10.71,0,21.44l2.89-2.89C400.56,194.36,400.53,187.95,400.5,181.57Zm0-2.94c0-.82,0-1.66,0-2.48l-2.78.32c0,.89,0,1.78,0,2.67a14.51,14.51,0,0,0,1.51-.27ZM251.4,22.12h5.12l-5.08.25.19,1.3a10,10,0,0,1,1.67-.32,31.24,31.24,0,0,1,2.57,2.21l7.54,7.34c6.36,6.29,14.49,12.95,12.63,10.37-2.71-3.75,7.1,5.1,19.41,17.49L316,81.35c1.49,1.48,3.18,2.93,4.21,3.8,3.73,3.14,17.15,16,24.48,23.49,1.43,1.46,3.25,3.35,3.92,4.11,4.59,5.27,4.51,5.2,12,12.11L350.7,113c-1.1-1.34-.68-1.21-.95-1.76l14,14,4.53,4.76,28.16,28.07c1,1.16,2.52,2.06,3,3.43l.16,4.66.16,4.67,0,.71a2.24,2.24,0,0,0,.7-1.34c0-.45,0-.86,0-1.32a7.57,7.57,0,0,0-.31-1.57l-.1-3.82a8,8,0,0,0-.23-2.35L367.48,128.9l-67.9-67.71Q283.25,44.94,273.09,34.7L261.21,22.93l-5.48-5.44-5-.05ZM24.09,120.8c.05,2.25.11,4.52.16,6.78.13-6,.36-11.26.37-18.31,0-10.19,0-20.58,0-31A51.58,51.58,0,0,1,30.44,53,50.51,50.51,0,0,1,52,31.72a49.55,49.55,0,0,1,17.6-5.14l2.34-.31C53,27,35.22,39.61,28.07,57.21a54.9,54.9,0,0,0-3.54,13.68c-.15,2.49-.35,4.43-.35,7.4l0,8.5ZM81.36,499.25c-4.54-.17-10.36.16-16.93-1.12a60.4,60.4,0,0,1-21-8.08c-10.69-6.31-20-17.56-24.84-30.84A57.33,57.33,0,0,0,31,480.14l.57.7a62.74,62.74,0,0,1-6.49-7.95,62,62,0,0,1-7.87-16.95,57.46,57.46,0,0,0,10.55,20.93,58.18,58.18,0,0,0,9.89,9.91,59.33,59.33,0,0,0,21.07,10.47C66.13,499.31,73.56,499.47,81.36,499.25Zm319.85-161-2.55,2.57c.08,15.25.12,30.5.08,42.36,0,6.24-.11,14.22-.13,17.31-.24,10.64-.36,15.87-.36,22.33,0,3.23,0,6.76.07,11.43s.32,10.23-1,17.49c.43-1.9.72-3.84,1.09-5.77l.5-5.85c.12-4.09.24-8.14.35-12.1.23-7.94.46-15.55.66-22.48a25.38,25.38,0,0,1,.57-5.83v30.17c0,5,.1,10.09-.26,15a58,58,0,0,1-3.07,14.35,56.7,56.7,0,0,1-9.46,17A58.45,58.45,0,0,1,349,498.36a110.76,110.76,0,0,1-15.38.6l-62.32.06-124.63.13-10.12.06a6.94,6.94,0,0,0,1,.11l199,.14c10.1.19,20.28-1,29.4-5.46a59.21,59.21,0,0,0,23.15-18.87,58.36,58.36,0,0,0,10.25-22.28A74.5,74.5,0,0,0,401,437.76c.14-7.29.37-8.87.74-6.27-.14-22.46-.24-39.84-.35-57.72C401.31,362.28,401.26,350.28,401.22,338.23Zm59.38-70.84.12-.11c-.11-.17-.24-.35-.33-.5-.23-.38-.28-.66-.05-.6a6.88,6.88,0,0,1,1.1.45l2.09-1.9-1-.93-1.24,1.09a5.65,5.65,0,0,1-2.26,1.46l3-3-.82-.76L450.15,274l-11.75,12c-18.53,18.62-34.85,35.37-50.9,51.95l-19.38,19.56-30.44,30.7c-15.89,16.1-22.29,22.13-19.73,18.58,1.87-2.59,2.7-4.16,4.18-6.46,7.67-7.73,12.52-13,10.2-11.37l55.39-55.69-1.11,1.25,8.38-8.12,56.21-56.2,7.42-7.42,1.33-1.31c-1-.93-2-1.9-3-2.76-.7-.61-1.54-1.49-2.31-2.25-3.15-3.12-5.87-6.38-9.27-9.48a10.92,10.92,0,0,1-1.49-1.85,3.65,3.65,0,0,1-.3-1.37l-2.14-2.31.88.54c-1.86-1.77-3.48-3.23-5-4.76s-2.87-3.09-4.46-4.82l-.54,0-3.6-3.69.89.72c.18-.27,0-.88.57-.58a23.44,23.44,0,0,1,2.92,2.5c1.07,1,1.51,1.49,2,1.6A24.33,24.33,0,0,1,438,235c2.44,1.86,2.12.76,2.61.54.18-.08.19-.33.31-.56L439.28,233l3.19,2.72-.4.06c.45.45,1.11,1.17,1.33,1.32,1.68,1.16,3.49,2.47,4.85,3.25,1.82,1-.82-2.55-3.19-5l-9.23-9.3c-1.27-1.27-2.54-2.54-3.81-4l6.36,6,.1-.11-2-2.11a20,20,0,0,1-3-3.43,24.87,24.87,0,0,0-3.61-4c-2.14-2.06-5.23-4.76-6.31-6.67-.41-.72.3-.49.5-.68l-4.38-4.38-12.55,12.76-10.83,10.89c-14.94,15-29.46,29-44.79,44.58-2,2-6.92,6.73-8.14,7.79a50,50,0,0,1-4.52,3.44l-10.7,10.54,3.2-3.54-23.1,23.33L286,338.51l-1.09,1.61-17.41,17.33,3.76-3.93c-.46,0-2.59,1.73-.6-.55,1.58-1.8,8-8.43,12.7-13.12,5-5,7.15-7.17,8.4-8.81.91-1.2,7.43-7.91,11.48-12.2,9.94-10.52,6.19-7.55,6.47-8.55.1-.35-.59.07-1,.17L300,318.79l13.84-14.32-.59,1,6.31-6.32L338,279.11c6.43-7.21-8.9,7.17-20.46,18.64l-44.2,44.13L264.23,351a55.61,55.61,0,0,0-6.43,7.33,42.56,42.56,0,0,1,4.3-5.38l7.37-7.47,14.7-14.86-.12-.08-9.87,9.77-8.57,8.5L262,352.27c-1.2,1.3-2.46,2.44-3.46,3.7a38.8,38.8,0,0,0-8.9,27,33.82,33.82,0,0,0,.63,5.43,64,64,0,0,1,8.88,8.83c4.13,5.26,4.6,7.67.89,4.09a33.51,33.51,0,0,1-2.43-2.48c-2-2.14-4-4.29-6.34-6.51A42.88,42.88,0,0,0,259,407.45a45.43,45.43,0,0,0,18.7,13.31c4.09,1.52.51.79.41,1a42.48,42.48,0,0,0,42.93-10.44,43.53,43.53,0,0,1-18.63,13,45.67,45.67,0,0,0,6.69-2.24,48,48,0,0,1-11.68,3.65c-3.07.64-4.77.63-6.29.9a39.28,39.28,0,0,1-5.4.11,42,42,0,0,1-7.89-1.34,45.07,45.07,0,0,0,19.35,1.86c-7.82,1.64-17.28-.35-12.73.91,1.8.34-1.14.44-5.11-.38a53.89,53.89,0,0,1-11.24-3.6c-1.92-.85,1.74,1.35.65,1a24.45,24.45,0,0,1-7.9-4.22A52.79,52.79,0,0,1,248.51,408,45.7,45.7,0,0,1,241,385.42c0-.53-.08-1.38-.1-2.34a43.74,43.74,0,0,0-8.12-4.34l.89.11a39,39,0,0,1,7,3l.2.13a48.49,48.49,0,0,1,.34-6.8A49.14,49.14,0,0,1,251,351a52.49,52.49,0,0,1,4.24-5l3.39-3.42,6.67-6.66,26.95-26.6,37-36.81,43.29-43.64,18.06-18.05c0-9,0-18-.06-26.76,0-.61,0-1.25,0-1.86a67,67,0,0,1-8-.43c-.44-.09-1.6-.17-3.2-.25l-3.77-.24-8.39-.48c-1.48-.11-2.29-.27-1.6-.39,1.48-.25,4.14-.49,5.38-.63l13.17-.12c2.07-.07,4.26,0,6.39,0v-2.72l-51.72.56-11.17,0-22.78-.15a68.94,68.94,0,0,1-24.12-4.7,45.91,45.91,0,0,1-7.72-4,28.25,28.25,0,0,1-3.29-2.89,71,71,0,0,1-8.82-7.27l2.85,2.26a62.47,62.47,0,0,1-15.4-19.41A61.12,61.12,0,0,1,242,118.55l-.44-1.42c-.38-5.41-.11-10.3-.16-18.06l.12,4c.32-.24.61-2.22.81,0,.24,1.78.1,8.39.48,13.37a35.24,35.24,0,0,0,1.38,8.95c.24.52.82,2.45,1.5,4.76s1.86,4.89,2.7,6.89c2.43,4.77,3.57,6.15,4.1,6.46s.36-.4.75-.25.14-.47.21-.84a53.91,53.91,0,0,1-3.51-7.78,57,57,0,0,0,7,12.17l-.76-.47a54.42,54.42,0,0,0,3.89,5,52.74,52.74,0,0,0,15.36,11.38c6.11,2.83-6.79-4.3-13.69-13.13a58,58,0,0,1-13.52-39.39c0-6.23.07-12.46.1-19.07l.11,15.21c0,5.19,0,10,.75,14.56l.14,0a67.71,67.71,0,0,1-.57-9.44c0-6.63,0-11.55.32-15.69.26-3.8.3-10,.25-18.57-.06-10.3-.33-24.5.25-31.84.22-2.76.56-.45.84-.45V26.35l-1.39-.05c.38,0,1.11-.06,1.39-.09v-.63c-1.1-.09-2.43-.19-2.92-.29s-.66-.22-.07-.34c.29-.06.75-.12,1.39-.19.37,0,1.14-.09,1.6-.14v-2.2l-36.31,1.78,17.61.14c-52.46.2-26.43,1.1-69.34,1.42l41.65.32c-13.69.28-29.9.49-22,.94,6.2.36-19.71.81-28.28,1.24-3.45.17,3.57.38,1.67.56a134,134,0,0,1-14.54.63c-22.05.13-32.91.74-67.28.37a49,49,0,0,0-12.53,1.93,47.67,47.67,0,0,0-25.5,19.38,44.21,44.21,0,0,0-6.25,14.76c-1.22,5.38-1.32,10-1.27,17.61-.08,27.83-.16,55.62-.24,84,0,36-.09,77.23-.13,115.77.08,45.63.16,90.71.25,136.34v19.76a51.14,51.14,0,0,0,2.41,15.1,47.52,47.52,0,0,0,18.1,24,48.42,48.42,0,0,0,13.82,6.33,53.54,53.54,0,0,0,7.49,1.47c2.58.1,4.85.33,8.48.26H118l30.28-.07c51.17-.42,117.32-.26,158,.29l33.75.22a52.6,52.6,0,0,0,15.66-2.25,46.66,46.66,0,0,0,13.52-6.93l-1.65,1L371,476l3-3a55.06,55.06,0,0,0,6.77-9.08,44.89,44.89,0,0,0,5.61-14c1.08-5.14,1.18-9.59,1.14-17.07.09-13.58.18-27.28.28-40.83.05-10.58.13-24.86.21-40.47-11.3,11.28-22.67,22.61-32.63,32l-14.22,14.16-12.44,11.94,6.83-7.46c-8.72,8.26-13.39,12.34-5.86,4,1.72-1.9-.49,0-.23-.52.69-1.36,3.9-5.27,20.49-22,8.65-8.74,18.07-19.65,14.66-17-5,3.92,7.38-9.4,24.38-26.34L417.25,312c2-2,4.07-4.33,5.29-5.72,4.43-5,22.19-23.38,32.44-33.5ZM258.23,348.46,280,326.88l2-2.27c-2,1.84-3.84,3.34-6.1,5.58l-9.89,9.88-5,5c-1.66,1.68-3.21,3.15-5.38,5.63a45.54,45.54,0,0,0-9.84,18.88,47.35,47.35,0,0,0-1.58,12.75l.28,1.63A46.54,46.54,0,0,1,258.23,348.46Zm-7.13,43.32.5.19-.57-.43ZM477.21,250.86l-1.43,1.26.12.12Zm16.05-62.05a37.5,37.5,0,0,0-51.43-10.2,43.58,43.58,0,0,0-3.72,2.87,1.54,1.54,0,0,0,.41-.23c11.81-10,29.95-11.2,43-3,13.26,7.85,20.53,24.47,17,39.52a37.56,37.56,0,0,1-5.41,12.92c-2.57,4-6.15,7.12-9.32,10.4-4.11,4.12-7.21,7.19-9.6,9.52l.28.28,3.74-3.74,6.49-6.27c3.24-3.28,6.84-6.62,9.39-10.81a37.62,37.62,0,0,0-.88-41.24ZM359.38,281.26c10.54-10.56,11.78-12.06,6.45-7.28-1.6,1.43-.49.06-.62,0l10.64-10.61,10.75-9.9,25.28-26c3.1,3.53,6.65,6.92,10,10.37l3,3,.46.21-8.24-10.83-.65-.52.9.27-3.9-4.15,4-4.17c1.59-1.64,3.35-3.49,4-4.2,3.76-4.36-1-.35-9,7.27l-.11-.12a18,18,0,0,0-1.94-1.7c-3.16-2.32-2.66-.39.44,3.35-5.11,4.85-11.32,10.89-17.55,17.13l-57.27,57c-8,7.9-12.17,12.21-13.68,14.15-3.5,4.51-6.69,8.72-9.19,12.24-.42.58,2.64-2.2,5.23-4.65C331.27,309.82,345.67,295,359.38,281.26ZM267.14,384.77a15.7,15.7,0,0,0,.61,2.55,16.63,16.63,0,0,1-.95-2.49,24.42,24.42,0,0,0,13.27,18.6,20.86,20.86,0,0,0,8,2.19c6.29.18,7.79-1.17,6.06-1.12-1.65-.2-7,.2-13.33-3.19a24.58,24.58,0,0,1-8.35-7.77,22.78,22.78,0,0,1-3.53-11,22.3,22.3,0,0,1,2.36-11.37,21.72,21.72,0,0,1,3.35-4.78c.45-.57,1.72-1.82,2.85-2.94l3.38-3.36,14.48-14.47,1.49-1.73-22.92,21.72A23.4,23.4,0,0,0,267.14,384.77Zm-15.7,34.5c-1.6-.84-3-1.59-4.48-2.32l1.07,1.56c-3.7-4.21-2.61-1.54-5.8-4.69,1.06,1.38,1.77,2.3,2.6,3.49-1.13-.95-2.39-2-2.19-1.14.15.71-1.95-1-2.83-1.32-.36-.13,0,.51-.3.5a1.9,1.9,0,0,1-1.44-.59c-1.57-1.5-2.75-1.7-4.78-4.15a7.23,7.23,0,0,0-1.1-.92c-4-2.93-7.47-4.53-9.45-4.79-1.42-.23-2.29,0-4.08,1.2-2.12,1.36-5,4.91-8.86,9.1a56.67,56.67,0,0,1-8.82,7.87,33.31,33.31,0,0,1-13.87,5.85l-1.71.3c-1.8.1-3.69.16-5.1.17a25.26,25.26,0,0,1-8.92-2,22.31,22.31,0,0,1-4.26-2.25,24.14,24.14,0,0,1-3.24-2.39,40.85,40.85,0,0,1-7.39-8.2c-1.24-1.79-3.41-4.43-4.81-6v.28a11.55,11.55,0,0,1-2-1c-1.56-1.29-2.56-1.87-3.1-2.4a2.92,2.92,0,0,0-2.39-.67l.27-.84c-1.86.11-2.86.38-3,.06s.23-.82.23-1.21a28.36,28.36,0,0,0-6,3.37c-3.22,2.19-6.54,5.46-9.56,8.08-.67.6-2.08,2.34-3,3.45l-2.8,2.92,1.12-2.15c-2,2-3.24,2.95-2,.5.28-.56-.33-.16-.39-.37-.15-.55.14-1.9,3.75-6.19,1.87-2.22,3.54-5.3,2.47-5-1.57.59.92-3.21,5.48-6.56a34.65,34.65,0,0,1,7.86-4.43,7.1,7.1,0,0,0,1.51-.83c1.18-1,6.86-2.07,9.74-.73a14.33,14.33,0,0,1,1.49.73c1.62,1.4,1.55,1.2,4.31,2.79a31,31,0,0,0-3.3-3.75c-.43-.35-.24-.5-.33-.74a21.43,21.43,0,0,1,5.46,3.55c.56.52,1,1.13,1.53,1.6,3.33,3.2,6.21,7,9.55,10.52,3.19,3.45,7.65,7,12.91,7.15l1.25-.08s-.07-.1-.12-.1c-4.08.2-8-1.83-10.88-4.42a80.57,80.57,0,0,1-7.77-8.5,67.28,67.28,0,0,0-4.74-5c-3.31-3.05-4.43-3.71-3.49-4.06a20.48,20.48,0,0,0-6.08-2.38,23.09,23.09,0,0,0-4.13-.45c-6.59,0-11.93,3.23-16.27,6.84-1.49,1.22-3.51,2.87-5.19,4.45a88.42,88.42,0,0,0-7.29,8c-3.52,4.45-5,6.12-4.9,4.81a16.36,16.36,0,0,0-.1-2.49c1.65-2.24,2.68-3.77,1.82-3.56a77.71,77.71,0,0,1,14.56-14.26l-.3.33c.86-.56,1.77-1,2.66-1.56,5.82-3.66,13.39-6.05,20.58-3.77l2.7,1.06c3.26,1.86,4,2.62,3.87,2.08-.23-1,3.22,1.5,5.23,3.49,5.44,4.9,10.08,11.88,15.43,14a10.17,10.17,0,0,0,5.26.63,15.7,15.7,0,0,0,8-3.9c.72-.7,1.75-1.44,2.61-2.32,3.6-3.37,7-7.27,11.47-11.45a13,13,0,0,1,2.66-1.8A5.07,5.07,0,0,1,210,392a26,26,0,0,1,3.86-1.93,8,8,0,0,0-1.14.8,21.15,21.15,0,0,1,9.11-2.46,23.19,23.19,0,0,1,8.69,1.68l.63-.17a34.33,34.33,0,0,1,6.07,3,10.09,10.09,0,0,0-1.35-.64c-.07.32.43.92-.38.71-.63-.19-2.88-1.22-4.56-1.8s-2.61-.83-3.21-.67c-.43.08-2.91-.3-4.48-.12-3.81.43-2.46,1.06-2.66,1.53-.06.18.15.35.26.6a17.56,17.56,0,0,1,2.84.2,15.23,15.23,0,0,0-4.57.65l.2-.37a9.65,9.65,0,0,0-2,.47,16.55,16.55,0,0,0-5.07,3.82c-1.44,1.73,2.74-.77,5.84-1.54a17.94,17.94,0,0,1,12.63,1.4,25.89,25.89,0,0,1,5.08,3.08,29.94,29.94,0,0,0-8.35-4l0,.14c.92.34,1.83.68,2.74,1.11a12.83,12.83,0,0,1,4,2.56c.85.84,2.41,2,4.55,3.67,2.57,2,6,5.24,7.22,7.46.44.83-.32.48-.52.67C247.23,413.92,249,416.09,251.44,419.27Zm-53.11-10.8a41.27,41.27,0,0,1-3.43,3.1l-.11,0c.5-.5,1.1-.9,2.51-2.37-1.74,1.51-2.87,2.24-3.49,2.74a28.23,28.23,0,0,1-4.62,3.13C191.36,414.63,195.48,412,198.34,408.47Zm37.15-.75a30.43,30.43,0,0,0-9.64-6.11,2.7,2.7,0,0,0-.49,0c.35.18.63.59,1.09.73a25.55,25.55,0,0,1,4.38,2.15,32,32,0,0,1,2.75,1.8l1.57,1.37ZM191,398.78c4.26-4.11,9-11,18.62-15.65,4-1.77,6.47-2.19,7.38-2.67a43.51,43.51,0,0,1,6.09-2.65c.3-.11-1.44-.39-3-.33a28.72,28.72,0,0,0-12,2.89,42,42,0,0,0-9.39,6.44c-3.61,3.35-3.7,3.85-1.9,2.59.58-.39.3.13.42.24-1.17,1.11-2.49,2.61-3.1,3.14-1.28,1.12-2.24,1.79-3,2.35a52,52,0,0,1-5.63,6.19,2.59,2.59,0,0,0-.52.58C184.35,402.92,187.08,402.95,191,398.78Zm-7.92,9.09c-.75-.19-1.53-.44-1.58-.8s-.56-.49-1.06-.81a3.27,3.27,0,0,1-.75-.46,4.21,4.21,0,0,1-1.06-.81,14.32,14.32,0,0,0-2.91-2.24,17.38,17.38,0,0,1-3.42-2.47,35.25,35.25,0,0,1-2.88-3.2A35.68,35.68,0,0,0,157,386.33c.92.94,1.76,1.8,2.39,2.57s1,1.66,1.53,2.5a44.79,44.79,0,0,1,6.93,6.8,64.57,64.57,0,0,0,6.57,7.09c3.28,3.05,5.62,4.26,8.77,3.81l.05,0,.86-.8c.12-.14-.1-.27-.41-.31A3.38,3.38,0,0,0,183.09,407.87Zm-72-215,2.6-1.56-1.08-.1c3.22-.15,1.62-.82,4.25-1.06l-2.55-.24c.84-.21,1.83-.37,1.35-.71s1.21-.61,1.73-.93c.21-.13-.22-.29-.1-.42a1.11,1.11,0,0,1,.89-.47c1.36-.07,2-.6,4.14-.23a6.67,6.67,0,0,0,1,0,91.92,91.92,0,0,1,10.31.08c2.21.12,4.73.12,7.1.1,2.8,0,5.56-.16,8.36-.18,3.23,0,6.47,0,9.71,0,.62,0,1.35,0,1.86-.05a42.17,42.17,0,0,1,9.69.22c1,.17,3,.18,4.5.27l-.15-.14a4.55,4.55,0,0,1,1.59-.51,22.67,22.67,0,0,1,5,.14c1.18.18,3.1.2,4.91.3l-.49.6c5.11.1,3,.74,2.83,1.27,2-.06,3.74-.16,5.49-.15a60,60,0,0,1,8,.32c.53.08,1.88,0,2.73,0s1.57.17,2.34.27l-1.37.33c1.63.24,2.47.55,1,1-.35.09,0,.26,0,.4-.2.35-.88.73-4.09.82-1.67,0-3.63.84-3,1.22.85.55-1.61,1.07-4.88,1-1.81,0-3.64,0-5.44,0a3.6,3.6,0,0,0-1.06.22,28,28,0,0,1-6.34.56,6.82,6.82,0,0,1-1.06-.1c-1.3-.35-1.28-.36-3.19,0,1,.35,2,.67,2.88,1,.32.13.25.28.36.43-1.23,0-2.47,0-3.69,0-.42,0-.84-.12-1.23-.11l-15.28.18c-.21,0-.42,0-.62,0,0,0,0,.08.06.08l12.19.11c1.25,0,2.5,0,3.75-.05,2.48,0,3.18.12,2.86.68l3.54-.26c.74,0,1.51-.1,2.28-.11,3.57,0,6.75-.27,9.89-.56,1.06-.09,2.48-.07,3.74-.09,2,0,3.95-.07,5.88-.14,3.08-.11,4.27.09,3.68.61a9.63,9.63,0,0,0-1,1.21c-1.48,0-2.45.24-2.07.62L194,199l.23-.07c-.53,0-1.05-.13-1.59-.14-3.6,0-7.21,0-10.81,0-.48,0-1,0-1.43,0-1.86-.07-2.38-.05-2.18.2.38.47-1.69.51-3.13.63-3.8.32-7.9.47-12,.65-3.26.15-6.72.13-9.84.37-.6,0-1.39,0-2.09,0-2.88,0-5.61-.27-8.59-.11a6.19,6.19,0,0,1-1.53-.19,2.37,2.37,0,0,1-.76-.57l-2-.09.65-.18c-1.66.05-3.08.13-4.46.12s-2.73-.12-4.25-.19l-.26.28-3.34,0,.74-.09c0-.24-.42-.46,0-.61a13.17,13.17,0,0,1,2.48-.22c1,0,1.38,0,1.65-.22a13.8,13.8,0,0,1,2.28-.38c2-.31,1.32-.72,1.44-1.1,0-.13-.06-.27-.12-.46l-1.64-.18,2.71-.25-.16.24c.42,0,1,0,1.21,0,1.3-.27,2.73-.54,3.71-.85,1.31-.41-1.54-.92-3.76-1-2.8-.06-5.66,0-8.49,0-1.16,0-2.33,0-3.56-.08l5.68-.17s0-.07,0-.11c-.63,0-1.26-.05-1.89-.05a11.24,11.24,0,0,1-2.93-.24,14,14,0,0,0-3.47-.19c-1.93,0-4.58.25-6-.19-.52-.16-.08-.42-.08-.63Zm39.58,4,2.42,0,.06,0-1.81.12c1.21.06,1.91.14,2.33.11,1-.08,1.93-.21,2.88-.31A22.25,22.25,0,0,0,150.65,196.86Zm-28.23-7,8.34.23.42-.12a4.44,4.44,0,0,0-1.12-.28c-1.25,0-2.55,0-3.82,0-.76,0-1.51.06-2.27.06-.45,0-.91,0-1.36-.07Zm23.66,17.35c.86.13,1.44.32,2,.45l6-.49a3.75,3.75,0,0,0,.78-.13c1.3-.53-1.88-1.22-5.2-1.21-3.66,0-7.35-.06-11-.14A5.8,5.8,0,0,0,136,206a18.35,18.35,0,0,0-2.06,1.61c-.1.09.46.23.95.3a55.44,55.44,0,0,0,7.87.12c2,0,2.29-.15,1.32-.44-.29-.09-.05-.23-.06-.35C144.74,207.24,145.68,207.2,146.08,207.26Zm31.56-5.48c-1.4,0-3.17.11-4.66,0a42.23,42.23,0,0,0-5.35.19c-2.63.15-5.36.25-8.32.38a7.12,7.12,0,0,0-1,.47c-.13.09,0,.21.3.29a13.35,13.35,0,0,1,2.64.72c.41.53,2.73.36,4.31.45a5.69,5.69,0,0,0,2.64-.28,12.42,12.42,0,0,1,2.41-.7,12.27,12.27,0,0,1,2.26-.08,50.22,50.22,0,0,0,7.29.1c-.49-.28-1-.52-1.35-.76S178,202.06,177.64,201.78Zm-60.43,4.48a10,10,0,0,0-1.67.13c-2.51.45-1.4,1.21,1.74,1.54,3.34.36,6.91.18,10.36.26.91,0,1.85,0,2.78,0l.31-.13L122,206.69l-.54.07.54-.33C120.3,206.37,118.77,206.3,117.21,206.26Zm3.3,35.09h-9.44l4.54-1.56-1.89-.1c5.63-.15,2.83-.82,7.44-1.06l-4.47-.24c1.47-.21,3.21-.37,2.36-.71-.67-.27,2.11-.61,3-.93.37-.13-.38-.29-.18-.42a2.48,2.48,0,0,1,1.56-.47c2.38-.07,3.5-.6,7.25-.23.32,0,1.23,0,1.77,0,6.13-.19,12-.12,18,.08,3.86.12,8.28.12,12.42.1,4.89,0,9.73-.16,14.62-.18,5.65,0,11.33,0,17,0,1.09,0,2.36,0,3.25-.05a128.78,128.78,0,0,1,17,.22c1.83.17,5.2.18,7.87.27l-.27-.14a12.49,12.49,0,0,1,2.78-.51,69.2,69.2,0,0,1,8.68.14c2.06.18,5.43.2,8.59.3l-.87.6c8.94.1,5.33.74,5,1.27,3.42-.06,6.55-.16,9.61-.15,4.78,0,9.86,0,14,.32.93.08,3.28,0,4.77,0s2.74.17,4.1.27l-2.4.33c2.86.24,4.33.55,1.66,1-.61.09.08.26,0,.4-.34.35-1.54.73-7.15.82-2.93,0-6.35.84-5.32,1.22,1.49.55-2.82,1.07-8.53,1-3.17,0-6.36,0-9.52,0a10.49,10.49,0,0,0-1.85.22,84.83,84.83,0,0,1-11.09.56c-.67,0-1.53,0-1.86-.1-2.28-.35-2.24-.36-5.58,0,1.77.35,3.55.67,5,1,.56.13.44.28.62.43-2.16,0-4.32,0-6.46,0-.74,0-1.46-.12-2.15-.11l-26.74.18c-.38,0-.73,0-1.09,0,0,0,.06.08.11.08l21.34.11c2.18,0,4.37,0,6.56-.05,4.33,0,5.57.12,5,.68l6.19-.26c1.29,0,2.64-.1,4-.11,6.25,0,11.81-.27,17.3-.56,1.85-.09,4.35-.07,6.55-.09,3.43,0,6.9-.07,10.28-.14,5.38-.11,7.47.09,6.45.61a14,14,0,0,0-1.79,1.21c-2.59,0-4.29.24-3.63.62l-18.69.16.4-.07c-.92,0-1.84-.13-2.78-.14q-9.45,0-18.91,0c-.83,0-1.7,0-2.5,0-3.25-.07-4.17-.05-3.82.2.66.47-3,.51-5.49.63-6.66.32-13.83.47-21,.65-5.7.15-11.76.13-17.22.37-1.05,0-2.43,0-3.65,0-5,0-9.83-.27-15-.11a18.63,18.63,0,0,1-2.68-.19,4.75,4.75,0,0,1-1.34-.57l-3.57-.09,1.13-.18c-2.91.05-5.38.13-7.81.12s-4.78-.12-7.44-.19l-.45.28-5.84,0,1.29-.09c-.08-.24-.73-.46,0-.61a39.94,39.94,0,0,1,4.34-.22,9.29,9.29,0,0,0,2.89-.22c.36-.15,2.58-.26,4-.38,3.44-.31,2.31-.72,2.53-1.1.08-.13-.11-.27-.2-.46l-2.86-.18,4.74-.25-.28.24c.73,0,1.83,0,2.12,0,2.28-.27,4.78-.54,6.5-.85,2.3-.41-2.7-.92-6.58-1-4.9-.06-9.9,0-14.86,0-2,0-4.08,0-6.24-.08l9.95-.17s0-.07,0-.11c-1.1,0-2.21-.05-3.3-.05a34,34,0,0,1-5.13-.24,42.48,42.48,0,0,0-6.08-.19c-3.37,0-8,.25-10.41-.19C119.76,241.81,120.52,241.56,120.52,241.35Zm59.82,4,4.24,0,.1,0-3.16.12c2.12.06,3.35.14,4.08.11,1.8-.08,3.38-.21,5-.31A67.92,67.92,0,0,0,180.34,245.3Zm-49.41-7,14.59.23.73-.12a12.75,12.75,0,0,0-2-.28c-2.19,0-4.46,0-6.69,0-1.33,0-2.65.06-4,.06-.79,0-1.59,0-2.39-.07Zm56.8,17.19c2.28-.53-3.29-1.22-9.11-1.21-6.41,0-12.86-.06-19.22-.14a17.35,17.35,0,0,0-4.68.25,36.14,36.14,0,0,0-3.6,1.61c-.17.09.81.23,1.66.3,4.24.36,9.16.13,13.77.12,3.55,0,4-.15,2.31-.44-.51-.09-.09-.23-.1-.35,1.22,0,2.88,0,3.57,0,1.5.13,2.51.32,3.47.45l10.55-.49A11.17,11.17,0,0,0,187.73,255.53ZM232,251.8c-.86-.28-1.67-.52-2.36-.76s-1.37-.54-2.07-.81c-2.45,0-5.55.11-8.16,0-3.78-.11-6.29.09-9.36.19-4.6.15-9.38.25-14.56.38-.4.1-1.27.28-1.76.47-.23.09,0,.21.52.29a37.9,37.9,0,0,1,4.62.72c.72.53,4.78.36,7.55.45a17,17,0,0,0,4.62-.28,35,35,0,0,1,4.22-.7,37.5,37.5,0,0,1,4-.08C223.75,252.07,228.3,251.78,232,251.8Zm-110.17,2.9c-.92,0-2.21.06-2.92.13-4.39.45-2.45,1.21,3,1.54,5.84.36,12.09.18,18.13.26,1.59,0,3.24,0,4.87,0l.54-.13-15.3-1.37-.94.07.94-.33C127.21,254.81,124.54,254.73,121.82,254.7Zm316.7-.58c2.22,2.21,2.64,2.36,1.86,1-.23-.4.16-.27.26-.39.76.76,1.84,1.75,2.21,2.25.81,1.06,1.26,1.87,1.74,2.59l7,6.11a6.68,6.68,0,0,0,1,.74c1.92.92-.9-3.2-4.53-6.82l-11.85-12.12c-1.63-1.7-2.58-2.54-3.16-2.68a28.48,28.48,0,0,0-3.77-.73c-.19,0,.29.73.75,1.32C432.34,248.41,435.63,251.25,438.52,254.12Z"/></svg>