<svg id="Layer_1" data-name="Layer 1" xmlns="http://www.w3.org/2000/svg" viewBox="0 0 512 512"><defs><style>.cls-1,.cls-2{fill:#141f38;}.cls-2{fill-rule:evenodd;}</style></defs><title>document-star-glyph</title><path class="cls-1" d="M275.34,0H83.2a64,64,0,0,0-64,64V448a64,64,0,0,0,64,64H362.55a31,31,0,0,1,.06-9.5l4.15-25.18a4.91,4.91,0,0,0-1.25-4.2l-17.6-17.84a30.34,30.34,0,0,1-7.13-31,29.45,29.45,0,0,1,23.53-20l24.32-3.68a3.9,3.9,0,0,0,2.85-2.27l10.88-22.91A29.13,29.13,0,0,1,428.8,358.4V153.6ZM134.4,243.2H236.8a12.8,12.8,0,1,1,0,25.6H134.4a12.8,12.8,0,1,1,0-25.6Zm178.82,128H134.4a12.8,12.8,0,1,1,0-25.6H313.22a12.8,12.8,0,1,1,0,25.6Zm.38-51.2H134.4a12.8,12.8,0,1,1,0-25.6H313.6a12.8,12.8,0,1,1,0,25.6Zm12.8-153.6a64,64,0,0,1-64-64V25.6L403.2,166.4Z"/><path class="cls-2" d="M491.45,437.3a4.79,4.79,0,0,0,1.06-5,3.82,3.82,0,0,0-3.06-2.81l-24.31-3.67A29.45,29.45,0,0,1,443,409.22l-10.87-22.91a3.54,3.54,0,0,0-6.64,0L414.6,409.22a29.45,29.45,0,0,1-22.14,16.61l-24.32,3.67a3.89,3.89,0,0,0-3.06,2.81,4.8,4.8,0,0,0,1.07,5l17.59,17.84A30.49,30.49,0,0,1,392,481.49l-4.15,25.17a4.56,4.56,0,0,0,1.79,4.67,3.08,3.08,0,0,0,3.52.22l21.74-11.89a28.81,28.81,0,0,1,27.73,0l21.76,11.89a3.06,3.06,0,0,0,3.51-.22,4.56,4.56,0,0,0,1.79-4.67l-4.16-25.17a30.52,30.52,0,0,1,8.3-26.36Z"/></svg>