<svg id="Layer_1" data-name="Layer 1" xmlns="http://www.w3.org/2000/svg" viewBox="0 0 512 512"><defs><style>.cls-1{fill:#dde5e8;}.cls-2{fill:#9bbdc6;}.cls-3{fill:#afc3c9;}.cls-4{fill:#e8a52d;fill-rule:evenodd;}</style></defs><title>document-star-flat</title><path class="cls-1" d="M422.4,153.6V448a64,64,0,0,1-64,64H76.8a64,64,0,0,1-64-64V64a64,64,0,0,1,64-64H268.93Z"/><path class="cls-2" d="M422.4,153.6H332.8a64,64,0,0,1-64-64V0h.13Z"/><path class="cls-3" d="M217.6,256a12.8,12.8,0,0,1-12.8,12.8H128A12.8,12.8,0,0,1,115.2,256h0A12.8,12.8,0,0,1,128,243.2h76.8A12.8,12.8,0,0,1,217.6,256Z"/><path class="cls-3" d="M294.4,307.2A12.8,12.8,0,0,1,281.6,320H128a12.8,12.8,0,0,1-12.8-12.8h0A12.8,12.8,0,0,1,128,294.4H281.6a12.8,12.8,0,0,1,12.8,12.8Z"/><path class="cls-3" d="M294,358.4a12.8,12.8,0,0,1-12.8,12.8H128a12.8,12.8,0,0,1-12.8-12.8h0A12.8,12.8,0,0,1,128,345.6H281.22A12.8,12.8,0,0,1,294,358.4Z"/><path class="cls-4" d="M442.44,380l10,21a15.27,15.27,0,0,0,11.46,8.65L486.16,413c12.48,1.89,17.46,17.83,8.43,27l-16.13,16.35a16.22,16.22,0,0,0-4.38,14l3.81,23.09c2.13,12.92-10.91,22.78-22.08,16.68l-19.94-10.9a14.7,14.7,0,0,0-14.16,0l-19.94,10.9c-11.16,6.1-24.21-3.75-22.07-16.68l3.81-23.09a16.22,16.22,0,0,0-4.38-14L363,440c-9-9.15-4-25.1,8.43-27l22.29-3.37A15.27,15.27,0,0,0,405.19,401l10-21A15,15,0,0,1,442.44,380Z"/></svg>