<svg id="Layer_1" data-name="Layer 1" xmlns="http://www.w3.org/2000/svg" viewBox="0 0 512 512"><defs><style>.cls-1{fill:#707070;}</style></defs><title>document-star-handdrawn</title><path class="cls-1" d="M77.12,511.29c3.18.91,2.18,1.22-4-.72A66.16,66.16,0,0,1,59,504a74.23,74.23,0,0,1-33.81-46.79,77.86,77.86,0,0,1-1.84-14.94l-.13-12.71Q23.1,417,23,404.22c.17-9,.34-18.52.61-32.63,0-6.52,0-22.09,0-33.56-.16.05-.35-3.87-.46.92-.4,16-.59,11.64-.6-21.69,0-43.33-.33-89.51.16-129.3.1-8,.29-17.19.41-15.61.73,9.5,1.45,21.19,2.17,33.84.31,5.44.39,18.91.34,44-.06,59.71-.13,120.33-.19,180.48q0,5.12,0,10.19a81.5,81.5,0,0,0,1,11.77,70.7,70.7,0,0,0,7,21.54,73.9,73.9,0,0,0,24.86,27.95A80,80,0,0,0,77.12,511.29ZM23,83.52l.15-9.12a75.75,75.75,0,0,1,1.07-10.89A70,70,0,0,1,31,42.78,73.57,73.57,0,0,1,60.46,11.63,71.14,71.14,0,0,1,80.59,3.8,72.89,72.89,0,0,1,91.26,2.17L96.64,2c1.82-.06,3.08,0,4.65,0l8.82-.1-8.81.45,78.47.23,27.41-.17c41.24-.6,23-1.62-28.54-2.07L136.9.07,115.65,0H105c-3.7,0-6.72-.12-11.49.18A74.47,74.47,0,0,0,45.79,20.78a75.8,75.8,0,0,0-23,46.34c-.21,2.29-.29,4.61-.41,6.93s0,3.9-.05,5.9V91.38c0,7.65,0,15.34,0,23l.18,5.08Zm279.24,98.2A60.85,60.85,0,0,0,313.6,185c1.29.22.18-.2-2.88-1.18-1.83-.59-.26-.38-.24-.54a77.12,77.12,0,0,0,13.14,2.25c5.9.55,8.71.69,11.68.88l32.47-.66c1.67,0,3.54-.1,4.23-.17,7-.72-10.13-1.64-28-1.63l-14.84,0a74.29,74.29,0,0,1-17.34-2.26,70.35,70.35,0,0,1-30.44-16.32c-7.17-6.54-10-11-11.52-12.5a100.52,100.52,0,0,1-8.42-10.57c-.36-.54,1,2.93,2.42,5.8C271,162.49,285.8,175.59,302.24,181.72ZM255,122a54.78,54.78,0,0,1-.4-7.22c-.08-2.58,0-4.53.09-6.44l.46-11.78.92-23.55-.1-2.89.44,2.89c.08-9.13.16-17.35.23-25.73,0-2.83-.08-6.82-.17-9-.6-13.52-1.62-7.54-2.07,9.36-.48,18-.25,37.23-.35,55.81,0,2.46,0,5,0,7.46.06,2.7.21,6.09.48,9.07ZM476.84,407.89a17.67,17.67,0,0,0-3.13-3.77A17.67,17.67,0,0,1,476.84,407.89Zm12.46,14.21a26.85,26.85,0,0,1-3.67,10,28.08,28.08,0,0,1-3.21,4.31c-.48.59-1.44,1.54-1.64,1.74l-1,1-7.87,7.75-4.38,4.31a.46.46,0,0,0-.17.27.48.48,0,0,0,0,.17l.5,3,1.26,7.56,1.65,9.8a28,28,0,0,1-2.62,16.65c-4.94,10.2-16.56,16.58-27.95,14.72a30.18,30.18,0,0,1-9.42-3.27l-5.29-2.89-9.09-5a13,13,0,0,0-1.64-.9.35.35,0,0,0-.14,0,.29.29,0,0,0-.14,0l-4,2.17-1.37.76a67,67,0,0,1-35.63,14.93c-1.74.18-4.92.31-8.39.41H354.19l-18.72.12c-16.4.28-30.57.6-39.66.93-8.7.32-21.32.48-43.41.37-26-.12-64.15.1-70.86-.61-3.26-.34-29.3-.64-43.38-1-4.55-.11-7-.27-4.91-.39l16.53-.63L286.5,508l41.46-.23,21.8-.06c7.75-.19,15.43.49,25.42-.67a60.52,60.52,0,0,0,13.73-3.42c-.28,0-.55.16-.84.19a26.08,26.08,0,0,1-8.11-.45,79.34,79.34,0,0,1-18.1,1.73l-49,.22-100.14.37-81.68.2-20.42,0c-6.79,0-13.38.28-20.65-.43A65.29,65.29,0,0,1,52.59,488a64.64,64.64,0,0,1-18.14-31.27,69.07,69.07,0,0,1-1.65-9.28c-.14-3.1-.39-6.35-.31-9.19q0-8.77,0-17.48c0-11.63.07-23.21.1-34.85,0-23.28,0-46.76,0-71.22,0-6.32.13-21.56.25-25.16.23-6.88.49-8.35.76-12.57,0-9.32.07-20.39.12-33.54.07,3,.12,5.39.24,10.66-.06-27.31-.11-50.54-.16-73.33s.16-44.9.26-69.84l-.37-4.25c0-7.76,0-15.58,0-24.4,0-2.21,0-4.47,0-6.82s.16-5,.47-7.6a65.87,65.87,0,0,1,4.24-16.54C34.57,61.81,34.73,66.65,35,63.5c.34-.73,2.19-6.76.81.07-1.53,5.62-.68,26.37-.82,41.07,0,15.84,0,22.6.29,27.17.2,3.34.35,24.23.52,37.4.41,32.33,1,21.7,1.48,23.73.18.71.37-1,.62-1.91,0-2,.1-10.89.24-26.87.13,17.33.22,29.34.34,44.47L38.18,206c0,6.84,0,17.18,0,19.94.4,21.42.84,44.83,1.14,61,.55,21.54,1.24-25.38,1.3-61.76,0-46,0-93,.05-139.52-.05-9.8-.24-18.68,2.57-27.39a58.35,58.35,0,0,1,4.21-9.63A56,56,0,0,0,41,73.92l0,46.6.15-.06c0-10.35,0-20.72.07-31,0-5.09,0-9.85,0-14.33l.36-6c.32-1.92.56-3.79.92-5.58A51.75,51.75,0,0,1,50.06,45.6,59,59,0,0,1,64.52,30.33,55.67,55.67,0,0,1,93.26,19.61c3.48-.26,7.68-.26,12-.25l13.09,0,26.84,0c17.67,0,34.2.08,45.47.37,8.47.22,1.37.56,1.37.84h82.57V15.77H274q-2.63-.06-4-.16c-1.89-.14-2.17-.35-.89-.64,2.31-.51,3.55-1,5.51-1.62l6.31-.09c3.39,3.22,5.36,4.86,4.48,3.45l40.83,40.64-.55-.47,60.57,60.48c.34-.36,7.37,6.59,12.52,11.53l23.88,23.23c2.51,2.35,3.94,4.67,6,7,.52.61.81,1.12,1.22,1.68.12.73.09,1.56.14,2.34l.19,4.75.19,4.78c0,.78.11,1.64,0,2.35l-1.62.18v2.29l1.73-.32,1.53-.28c.39-.2,1.33.11,1.06-.71l-.14-3.49-.27-6.9c-.21-2.16.19-4.9-.93-6.14l-4.65-6.74-6.77-6.65-5.65-5.58L409,135l-17.76-17.74-3.72-5.28-4.4-5.86c8,8,18.18,17.69,27.66,27.91,1.43,1.54,7.06,7.09,8.69,8.56l8.34,7.74,1.91,1.75c.47.56.76,1.08,1.13,1.59l1.9,2.77,1.76,2.69a4.58,4.58,0,0,1,.74,1.5,4.43,4.43,0,0,1,.34,1.91c.16,3.24.3,7.27.4,12.34q0,1.12,0,2.3l0,1.19c.11.49-.56.28-.8.45l-4.22,1-2.26.53v2.12l-.05-2.11h-.05c-.06,8.14-.11,16.21-.17,24.44q0,78.54,0,157.15a25.47,25.47,0,0,1,3.75,3.51,25.48,25.48,0,0,0-3.91-3.28c-.49-.19-1-.38-1.49-.56a19.36,19.36,0,0,1,5.91,6.13c.66,1.53.15.29-4-3.26-2-1.47,0,.46-.49.27-.72-.18-1.93-1.22-5.69-2.73a23,23,0,0,0-7.93-1.36,20.43,20.43,0,0,0-12.08,4.24,18.12,18.12,0,0,0-5.17,6.27,18.64,18.64,0,0,0-1.2,2.78l-.73,2.09c-.84,2.55-1.11,4-.34,3,1.12-1.49.7.22-.74,3.87-.72,1.82-1.7,4.14-2.88,6.78l-.89,2a9.9,9.9,0,0,1-.8,1.49,9.12,9.12,0,0,1-2.52,2.56,9.41,9.41,0,0,1-3.85,1.5l-5.57.84-11.47,1.76a19.63,19.63,0,0,0-5.3,1.49,17.64,17.64,0,0,0-9.5,10.44,17.85,17.85,0,0,0-.54,9.52A16.87,16.87,0,0,0,355,428.9l.78.9c1.09,1.14,2,2.13,2.46,2.66,3.57,4.3,3.51,4.23,9.51,9.73l-7.67-9.68c-.85-1.1-.48-1-.66-1.49l11.07,11.23a13.68,13.68,0,0,1,3.57,11.33l-2.26,14c-.67,4.4-2.19,10.08.22,14.78a14.57,14.57,0,0,0,3.91,5l.42-.08a13.84,13.84,0,0,1-1.17-1,14.88,14.88,0,0,1-3.92-12.69l2.16-12.94,1.15-7.11a13.43,13.43,0,0,0-1.21-8,18.07,18.07,0,0,0-3.85-4.9c-1.21-1.26-2.11-2.24-2.73-3-1.24-1.45-1.37-1.91-.62-1.69l-8.39-8.1a16.14,16.14,0,0,1-2.25-2.7,13.75,13.75,0,0,1-2.17-9.55A14.53,14.53,0,0,1,359,406c3-2.39,7-2.66,10.33-3.27l10.16-1.76c3.4-.66,6.63-.82,9.14-2.68a13,13,0,0,0,4.46-5.25l3.52-7.49c1.81-3.82,3.46-7.56,5.42-11.46a14.49,14.49,0,0,1,11-7.63,14.3,14.3,0,0,1,9,1.87,13.48,13.48,0,0,1,4.3,4.12c1.46,2.49,1.44,3.22.51,2.21a9.37,9.37,0,0,0-3.87-2.49,10.24,10.24,0,0,0-6.06-2.89c-1.49-.14-2,.15-1.36.41a11.07,11.07,0,0,0-9,3.51c-2.14,2.31-3.39,6.18-5.11,9.53L396.64,393a16.2,16.2,0,0,1-8.34,9.06l.94-.56c-2.2,1.21-5,1.45-7.14,1.74l-11.4,1.71c-3.93.67-7.37.69-10.21,2.76-5.72,3.93-6.83,12.89-2.16,18,.28.32.54.66.85.95l3.23,3.28c5.5,5.71,7.1,7.3,6.72,6.44s1,.37,3.08,2.27a20.3,20.3,0,0,1,3.51,3.92A16.75,16.75,0,0,1,378,447.9a17,17,0,0,1,.27,6.36l-1.59,11c-.46,3.65-1.31,7.85-1.37,10.41a10.39,10.39,0,0,0,7.18,9.77,47.71,47.71,0,0,0,10.28-5.26c.77.56,1.65,1,2.47,1.51l9-5a29,29,0,0,1,5.6-2.69,16.74,16.74,0,0,1,6.59-.66,17.16,17.16,0,0,1,6.27,1.91l4.64,2.41,7.84,4.24c3.06,1.59,4.42,2.66,6.6,3.25a9,9,0,0,0,6.29-.78A9.86,9.86,0,0,0,453,473c-.27-1.48-.77-5.51-.8-6.42a17.62,17.62,0,0,1,.22-3.35l-1.3-8.62.69,2.69a43.67,43.67,0,0,1-.78-5.46,16.85,16.85,0,0,1,.78-5.67,16.47,16.47,0,0,1,2.5-4.88,38.75,38.75,0,0,1,3.3-3.57l12.66-12.55.27-.9a11.17,11.17,0,0,0,1.3-10.8,10.66,10.66,0,0,1,.83,2.4c.32-.19.28-1.59.83-.17.57,1.08.57,6.1-1.61,8.9s-3.78,4-4.3,5.11c-.47.76-4.18,4.73-6.46,7.28-5.61,6.27-3.26,4.71-3.25,5.42,0,.25.45.05.77.08l5.06-4.79-4.08,4.39a13,13,0,0,0-2.84,4l0-.68a12.06,12.06,0,0,0-1.41,4.38,13.16,13.16,0,0,0,.35,3.72l1,4.1,1.78,7.21c.73,2.72.76,1,.43-2.48l-.73-6.35c-.35-2.63-.69-4.37-.35-6a10.16,10.16,0,0,1,2.88-5.69l6.37-6.43,6.39-6.48a19.54,19.54,0,0,0,5.78-9.63A18.59,18.59,0,0,0,476.91,408a18.18,18.18,0,0,1,2.92,9.88c.17,5.19-2.61,10.45-6.18,13.73l.12.09a19.74,19.74,0,0,0,5.59-8.59,20.33,20.33,0,0,0-2-15.88,17.17,17.17,0,0,0-12.72-8.31l-3.34-.49-13.45-1.92c-1.28-.2-2-.29-2.66-.46a7.58,7.58,0,0,1-1.87-.79,6.63,6.63,0,0,1-2.37-2.35c-.63-1.23.32-.51.53-.71a8.46,8.46,0,0,1-.91-1.5l-8.49-17.9,6.64,9.12-1.85-4.22c4.84,9.83,4.54,7.76,6.76,11.49a10.47,10.47,0,0,0,1,1.08A4.21,4.21,0,0,1,444,389l-2.42-5.52c1.3,2.24,2.85,5.12,3.15,5.16h0c.06-.07.23.08.14-.36s.16-.15.41.09,1,.46,1.4.29c.19-.08.14-.38.31-.49s.44-.42.55-.42a.18.18,0,0,0,.11,0l0,0s0,0,.43,0l3.65.33a91,91,0,0,1,10,1.58l4.61.72.58.11a27,27,0,0,1,17.75,11.31A28.15,28.15,0,0,1,489.29,422.1ZM362.59,171.84l-9.73.15,12.57.14,15.53-.42c-6-.32-18.95-.28-31.71.11l13,0Zm30.46-13,10-.07c1.5,0,1.15-.05,1.19-.07l0-.06,0-.08s0,0,.07,0,.31-.09.3-.49c0,0,0,0,0-.1l-.83-.88-1.85-1.94-4.27-4.41-9.14-9.36.45.71a84.83,84.83,0,0,1-6.53-5.57c-6.2-6-12.66-12.49-18.74-19.05-4.32-4.66-11.61-12-18.39-19l2.45,1.32c-19.35-19.59-10.88-12.32-9.58-12l-21-20.8C306.78,56.49,295.67,45.48,287,36L277,26l-.09-.11c.28,12.69,1.07,6.35,1.37,19.46l.32-13.75c.28,4.52.49,9.87.95,7.25.36-2,.82,6.51,1.25,9.34.17,1.14.38-1.18.57-.55a15.07,15.07,0,0,1,.63,4.8c.1,7.33.81,10.77.3,22.32,0,1,0,3.8,0,5.44,0,9.44.1,18.64.14,27.83v3.45l.12,2.74a31.28,31.28,0,0,0,.5,5.3,49.49,49.49,0,0,0,2.73,10.36,46.45,46.45,0,0,0,35,28.32,58.42,58.42,0,0,0,8.69.74l11.27,0ZM278.71,83.67c0-2.43.06-4.9.1-7.35l-.2-.94-.16,22.46-.08,11.23,0,2.79.11,2.35a29.4,29.4,0,0,0,.39,4.68l.44,1.82c0-1.68-.26-3.09-.26-5l-.19-4.28v-5.15c0-3.45,0-6.91,0-10.34C278.76,91.81,278.74,87.76,278.71,83.67ZM276.08,24.3l.3-.06h0l-.32,0Zm.11.74.48,3.19.06-2.54ZM424,171.54h-1.13c0,.1,0,.19,0,.29A5.26,5.26,0,0,0,424,171.54Zm-24.76.13c.13,0,.19.11.33.11l15.65,0,.41,0c0-.08,0-.16,0-.24l-13,0Zm27.27,189.51a22,22,0,0,0-2.58-1.34v0a22.36,22.36,0,0,1,2.58,1.5C426.46,361.31,426.46,361.24,426.46,361.18ZM425.65,181l-2.83.66c0,26.93,0,54,0,80.79,0,6.44.18,13.28.3,17.39.33,11.56.65,48.33.74,79.29a22.47,22.47,0,0,1,2.58,1.35q0-11.59-.09-23.41C426.11,280.87,425.87,230.54,425.65,181Zm0-3c0-.83,0-1.67,0-2.5l-2.8.32c0,.89,0,1.79,0,2.69a14.62,14.62,0,0,0,1.52-.27ZM275.51,20.48h5.16l-5.12.25.2,1.31a10.07,10.07,0,0,1,1.68-.32A31.64,31.64,0,0,1,280,23.95l7.59,7.39c6.4,6.33,14.6,13,12.72,10.44-2.72-3.78,7.15,5.14,19.54,17.62l20.71,20.74c1.5,1.49,3.21,3,4.24,3.82,3.76,3.17,17.27,16.11,24.65,23.65,1.44,1.47,3.27,3.37,3.94,4.14,4.62,5.31,4.54,5.23,12.08,12.2L375.5,112c-1.11-1.35-.68-1.22-1-1.77l14.05,14.09,4.56,4.79,28.36,28.26c1,1.17,2.53,2.08,3,3.45l.16,4.7.17,4.71,0,.72a2.26,2.26,0,0,0,.7-1.35c0-.46,0-.86,0-1.33a7.62,7.62,0,0,0-.32-1.58l-.1-3.84a8,8,0,0,0-.23-2.36L392.4,128,324,59.83q-16.43-16.35-26.66-26.66l-12-11.87-5.52-5.48-5.07-.05ZM46.61,119.86c.05,2.26.11,4.55.16,6.83.13-6.09.36-11.34.37-18.44,0-10.26,0-20.72,0-31.23A52,52,0,0,1,53,51.55a50.86,50.86,0,0,1,21.71-21.4A49.89,49.89,0,0,1,92.43,25l2.36-.31c-19,.74-37,13.42-44.17,31.15a55.3,55.3,0,0,0-3.56,13.77c-.15,2.51-.35,4.47-.35,7.45l0,8.56ZM104.28,501c-4.57-.17-10.43.16-17-1.13a60.8,60.8,0,0,1-21.12-8.13c-10.76-6.35-20.18-17.68-25-31.05A57.71,57.71,0,0,0,53.61,481.7l.57.7a63.21,63.21,0,0,1-6.54-8,62.39,62.39,0,0,1-7.93-17.07,57.84,57.84,0,0,0,10.62,21.08,58.6,58.6,0,0,0,10,10,59.75,59.75,0,0,0,21.21,10.55C88.94,501,96.42,501.17,104.28,501Zm36.87-12.85,30.49-.07c51.53-.43,118.14-.26,159.14.29l30.09.2a27.68,27.68,0,0,1-2.54-7.77,31.81,31.81,0,0,1,.13-9.31l1-4.95c.76-3.48,1.79-9.43,2.75-14.83l.06-.27-.18.06a1.19,1.19,0,0,0-.7,0l0,0h0l-.46-.45-.93-.92-3.73-3.77c-2.48-2.55-4.93-5.16-7.31-7.8l-1.17-1.26a28.55,28.55,0,0,1-7.5-15.59,28,28,0,0,1,4.55-19.48,28.9,28.9,0,0,0-1.28,3.85c4.64-9.23,11.52-12.12,15.29-13.32,3.92-1.09,6-1,5.94-.91,1,.15-3.29,1.21-3.92,1.88a36.85,36.85,0,0,1,4.7-.94l3-.49,5.84-1c3.49-.6,8.89-1.34,8.32-1.4a2.79,2.79,0,0,0,1.38-1.21l3.32-6.9,3.78-7.68,2-3.84a25.32,25.32,0,0,1,4.07-5.65,26.27,26.27,0,0,1,7.92-5.62,23.36,23.36,0,0,1,7.89-1.89c.07-14.25.15-29.79.23-44.93l.81,8.12c.14-84,1-50,1.71-46.58-.07-32.15-.14-61.48-.2-90.22,0-.62,0-1.26,0-1.88a67.49,67.49,0,0,1-8-.44c-.44-.09-1.61-.17-3.22-.25l-3.79-.24-8.44-.48c-1.49-.11-2.31-.27-1.61-.39,1.49-.25,4.17-.49,5.42-.63l13.27-.13c2.08-.07,4.29,0,6.44,0,0-.91,0-1.83,0-2.74l-52.08.56-11.25,0-22.94-.15A69.42,69.42,0,0,1,305,172.05a46.24,46.24,0,0,1-7.78-4.06,28.51,28.51,0,0,1-3.32-2.91,71.56,71.56,0,0,1-8.89-7.32L287.9,160a62.9,62.9,0,0,1-15.5-19.55,61.55,61.55,0,0,1-6.33-22.91l-.44-1.43c-.38-5.45-.11-10.37-.16-18.18l.12,4c.32-.24.61-2.24.81,0,.24,1.79.1,8.45.48,13.46a35.51,35.51,0,0,0,1.39,9c.24.52.83,2.47,1.51,4.8s1.88,4.93,2.72,6.94c2.44,4.8,3.59,6.19,4.13,6.5s.36-.41.75-.25.14-.48.21-.84a54.15,54.15,0,0,1-3.54-7.84A57.37,57.37,0,0,0,281.12,146l-.76-.47a55.05,55.05,0,0,0,3.91,5A53.12,53.12,0,0,0,299.75,162c6.15,2.85-6.84-4.33-13.78-13.22a58.36,58.36,0,0,1-13.61-39.66c0-6.27.07-12.55.11-19.2l.11,15.31c0,5.23,0,10,.76,14.66l.14,0a68.07,68.07,0,0,1-.57-9.5c0-6.68,0-11.64.33-15.8.26-3.82.3-10.11.25-18.7-.06-10.38-.33-24.67.25-32.06.22-2.78.56-.45.84-.45V24.74l-1.4-.05c.39,0,1.12-.06,1.4-.09V24c-1.11-.09-2.45-.19-2.94-.29s-.67-.22-.07-.34c.3-.06.76-.12,1.4-.19.37,0,1.15-.1,1.61-.14V20.78L238,22.57l17.73.14c-52.82.2-26.61,1.11-69.83,1.43l41.94.32c-13.79.28-30.1.49-22.11.95,6.25.36-19.85.82-28.47,1.25-3.48.17,3.59.38,1.68.57a135,135,0,0,1-14.64.63c-22.21.13-33.14.75-67.75.37a49.31,49.31,0,0,0-12.62,1.95A48,48,0,0,0,58.26,49.69,44.5,44.5,0,0,0,52,64.56c-1.23,5.42-1.33,10-1.28,17.73-.08,28-.16,56-.25,84.58,0,36.25-.09,77.77-.13,116.58.08,45.94.17,91.35.25,137.29v19.9A51.5,51.5,0,0,0,53,455.83,47.86,47.86,0,0,0,71.22,480a48.81,48.81,0,0,0,13.92,6.38,54.26,54.26,0,0,0,7.54,1.48c2.6.1,4.89.33,8.54.26Zm231.11,12.53c-.22-.12-.41-.29-.63-.42-4.35.42-8.78.44-13.29.44l-62.76.06-125.5.13-10.19.06a7.32,7.32,0,0,0,1,.11l200.34.15A88.9,88.9,0,0,0,372.26,500.64Zm62.62-13.11-9.09-4.92-.19-.16,6.84,3.56c-4.51-2.56-7.07-4.08-8.67-4.9a32.56,32.56,0,0,0-5.53-2.53,11.79,11.79,0,0,0-5.58-.15,14,14,0,0,1,9.27,2.39C425.82,482.92,430.35,485.27,434.88,487.52ZM483,405.81a23.39,23.39,0,0,0-12.2-10.62,47.86,47.86,0,0,0-5.09-1.41l-3.19-.54-.76.09,3.92.62a23.51,23.51,0,0,1,19.1,17.1,24.34,24.34,0,0,1-.09,13.32,22.81,22.81,0,0,1-2.81,6.13,29.67,29.67,0,0,1-4.11,4.94l-1.13,1.38,1.78-1.48a24,24,0,0,0,2.92-3.16C487,424.83,487.62,413.89,483,405.81Zm-6.17,2.08.08.13Zm-31.46,31.55a26,26,0,0,1,1.93-3.95c.38-.62.76-1.22,1.18-1.8l.61-.85.3-.49,2.1-3.68c.2-.38-1.62,1.2-3.14,2.6a29,29,0,0,0-2.27,2.35,26.48,26.48,0,0,0-2.34,3.17,27.34,27.34,0,0,0-3.24,7.38,27.93,27.93,0,0,0-1,8.22,30.68,30.68,0,0,0,.4,4l.35,2.1,2.75,16c0,.09.14.34.6.27.13,0,.31.06.47.11,0,.26-.2.63-.38.67a.88.88,0,0,1-.79-.32.59.59,0,0,1-.34.12h-.2L440,474.08l-11.28-5.8-2.5-1.25a19.09,19.09,0,0,0-2.43-1c-2.53-.71-2.93-.52-1.7,0,.6.29,1.6.71,2.85,1.38l2.07,1.19,1.41.91c1.89,1.21,4.33,2.7,7.07,4.31,2.44,1.43,6.92,4,6.54,3.73a2.92,2.92,0,0,0,4-2.09,3.39,3.39,0,0,0,0-1.29l-.79-5-1.82-11.53-.39-2.46a25.58,25.58,0,0,1-.28-3.57,26.54,26.54,0,0,1,.58-5.77A37.5,37.5,0,0,1,445.37,439.44Zm-64.92,19c-.82,4.54-1.42,8.33-1.94,11.92l-.38,2.66a15.94,15.94,0,0,0-.16,1.6,8.15,8.15,0,0,0,.4,3.13,7.71,7.71,0,0,0,7.47,5.36c1.77,0,3.08-.8,4.82-1.83l8.11-4.58c.8-.6,2.55-1.82,3.46-2.61.43-.37-.22-.2-1.31.27-3.37,1.46-9.45,4.45-10.36,4.56-1.53.39-2.2.79-3.5,1.12a4.68,4.68,0,0,1-3.84-.9,10,10,0,0,1-2.38-3.38,4.44,4.44,0,0,1-.42-1.77,5.58,5.58,0,0,1,0-.71l.12-1.43.29-3.07c.17-1.74,1.12-7.93,1.47-9.56l.84-4.18a21.52,21.52,0,0,0-3.29-15.8,22.84,22.84,0,0,0-1.63-2.13c-.61-.68-1.27-1.35-1.58-1.65l-9.05-9,3.31,4.81,2.76,4.36c1.39,1.38,4.54,4.25,6,7.83a19.81,19.81,0,0,1,1.44,11.29Zm65.89-45.16-2.53-.41a26.74,26.74,0,0,1-4.41-1,24.62,24.62,0,0,1-7.86-4.29,27.75,27.75,0,0,1-7.14-8.84l-.46-.89c-4.11-7.52-4.31-6.19-1.14,1.68a26.52,26.52,0,0,0,18.81,15.36l7.22,1.23,12,1.88s0,0,0,0h0c0,.09.25-.08-.16.41.34-.32.33-.26.33-.26l.05,0,.11,0a.52.52,0,0,0,.24,0,.67.67,0,0,0,.38-.43,1.17,1.17,0,0,0-.61-1.45l-.08,0-.64-.13-1.31-.26-2.61-.53-2.28-.25,2.33-.1ZM146.39,253.44l2-1.57-.81-.11c2.43-.15,1.22-.83,3.21-1.07l-1.93-.24c.63-.21,1.38-.37,1-.71s.91-.61,1.31-.93c.16-.13-.17-.29-.08-.43a.82.82,0,0,1,.67-.48c1-.07,1.51-.61,3.13-.23a3.78,3.78,0,0,0,.76,0,52.11,52.11,0,0,1,7.79.08c1.67.12,3.57.12,5.36.1,2.11,0,4.2-.16,6.31-.19,2.44,0,4.89,0,7.34,0a11.82,11.82,0,0,0,1.4-.05,24,24,0,0,1,7.32.22,33.12,33.12,0,0,0,3.4.27l-.11-.14a2.89,2.89,0,0,1,1.2-.52,12.88,12.88,0,0,1,3.75.14c.89.18,2.34.2,3.71.31l-.37.61c3.86.1,2.3.74,2.14,1.28,1.48-.06,2.83-.17,4.15-.15A34.09,34.09,0,0,1,215,250c.4.08,1.42,0,2.06,0s1.18.18,1.77.27l-1,.34c1.23.24,1.87.56.72,1-.26.09,0,.27,0,.4-.15.36-.67.74-3.09.82-1.26,0-2.74.84-2.29,1.23.64.56-1.22,1.08-3.68,1-1.37,0-2.75,0-4.11,0a2.16,2.16,0,0,0-.8.23,16.06,16.06,0,0,1-4.79.56,3.91,3.91,0,0,1-.8-.1c-1-.36-1-.36-2.41,0,.76.35,1.53.67,2.17,1,.24.13.19.29.27.43-.93,0-1.86,0-2.79,0-.32,0-.63-.12-.93-.11l-11.54.18c-.16,0-.32,0-.47,0,0,0,0,.08,0,.08l9.21.11c.94,0,1.89,0,2.83-.05,1.87,0,2.4.12,2.16.69l2.67-.26c.56,0,1.14-.1,1.72-.11a70.5,70.5,0,0,0,7.47-.56c.8-.09,1.88-.07,2.83-.09,1.48,0,3-.07,4.44-.14,2.32-.11,3.23.09,2.78.61a9.58,9.58,0,0,0-.77,1.22c-1.12,0-1.85.24-1.57.62l-8.06.16.17-.07a10.46,10.46,0,0,0-1.2-.14c-2.72,0-5.44,0-8.16,0-.36,0-.73,0-1.08,0-1.4-.07-1.8-.06-1.65.2.29.47-1.28.52-2.37.64-2.87.32-6,.47-9.05.66-2.46.15-5.08.13-7.43.37-.45,0-1,0-1.58,0-2.17,0-4.24-.27-6.49-.11a3.58,3.58,0,0,1-1.16-.19c-.32-.17-.38-.36-.58-.57l-1.54-.09.49-.18c-1.26.05-2.32.13-3.37.12s-2.06-.12-3.21-.19l-.2.28-2.52,0,.56-.09c0-.24-.31-.46,0-.61a7.57,7.57,0,0,1,1.87-.22c.73,0,1,0,1.25-.22a8.09,8.09,0,0,1,1.72-.39c1.49-.31,1-.73,1.09-1.11,0-.14,0-.27-.09-.46L163.3,257l2-.25-.12.24a7.46,7.46,0,0,0,.92,0,27.5,27.5,0,0,0,2.8-.85c1-.41-1.17-.93-2.84-1-2.11-.06-4.27,0-6.41,0-.88,0-1.76,0-2.69-.08l4.29-.17s0-.07,0-.11c-.48,0-1-.05-1.43-.05a6.45,6.45,0,0,1-2.21-.24,8,8,0,0,0-2.62-.19c-1.45,0-3.46.25-4.49-.19-.39-.17-.06-.42-.06-.63Zm29.89,4,1.83,0,0,0-1.36.12c.92.06,1.44.14,1.76.11.78-.08,1.46-.21,2.18-.31A12.65,12.65,0,0,0,176.29,257.42Zm-21.32-7,6.3.23.31-.12a2.69,2.69,0,0,0-.85-.28c-.94,0-1.92,0-2.89,0-.58,0-1.14.06-1.72.06-.34,0-.69,0-1-.07Zm17.87,17.47a12.46,12.46,0,0,1,1.5.46l4.55-.49a2.21,2.21,0,0,0,.59-.13c1-.54-1.42-1.23-3.93-1.22-2.76,0-5.55-.06-8.3-.15-1.15,0-1.77,0-2,.25a15.46,15.46,0,0,0-1.56,1.63c-.07.09.35.23.72.31a31.44,31.44,0,0,0,5.94.12c1.53,0,1.73-.15,1-.45-.22-.09,0-.23,0-.35A12.72,12.72,0,0,1,172.83,267.89Zm23.84-5.52c-1.06,0-2.4.11-3.52,0a24,24,0,0,0-4,.19c-2,.15-4,.25-6.28.38a4.92,4.92,0,0,0-.76.47c-.1.09,0,.21.23.29.65.25,1.84.47,2,.73.31.53,2.06.36,3.26.45a3.31,3.31,0,0,0,2-.28,7.72,7.72,0,0,1,1.82-.7,7,7,0,0,1,1.71-.08,28.49,28.49,0,0,0,5.51.1c-.37-.28-.72-.52-1-.77S197,262.65,196.67,262.37ZM151,266.88a5.7,5.7,0,0,0-1.26.13c-1.9.45-1.06,1.21,1.31,1.55a72.71,72.71,0,0,0,7.82.27c.69,0,1.4,0,2.1,0l.23-.13-6.6-1.38-.41.07.4-.33C153.36,267,152.21,266.92,151,266.88Zm3.51,35.33h-8.15l3.92-1.57-1.63-.11c4.86-.15,2.45-.83,6.42-1.07l-3.86-.24c1.27-.21,2.77-.37,2-.71-.57-.27,1.82-.61,2.62-.93.32-.13-.33-.29-.15-.43a2,2,0,0,1,1.35-.48c2.05-.07,3-.61,6.26-.23a15.08,15.08,0,0,0,1.53,0c5.29-.19,10.32-.12,15.58.08,3.33.12,7.15.12,10.72.1,4.22,0,8.4-.16,12.62-.19,4.87,0,9.78,0,14.67,0,.94,0,2,0,2.8-.05a95.32,95.32,0,0,1,14.63.22c1.58.17,4.49.18,6.79.27l-.23-.14a9.42,9.42,0,0,1,2.4-.52,51.23,51.23,0,0,1,7.49.14c1.78.18,4.68.2,7.42.31l-.75.61c7.72.1,4.6.74,4.28,1.28,3-.06,5.65-.17,8.29-.15,4.13,0,8.51,0,12.11.33.8.08,2.83,0,4.12,0s2.37.18,3.54.27l-2.08.34c2.47.24,3.74.56,1.44,1-.53.09.07.27,0,.4-.3.36-1.33.74-6.17.82-2.52,0-5.48.84-4.59,1.23,1.29.56-2.44,1.08-7.37,1-2.73,0-5.49,0-8.22,0a7.83,7.83,0,0,0-1.6.23,62.88,62.88,0,0,1-9.58.56,15.33,15.33,0,0,1-1.6-.1c-2-.36-1.94-.36-4.81,0,1.53.35,3.06.67,4.35,1,.49.13.38.29.54.43-1.86,0-3.73,0-5.58,0-.64,0-1.26-.12-1.85-.11l-23.08.18c-.32,0-.63,0-.94,0,0,0,.05.08.09.08l18.42.11c1.88,0,3.77,0,5.67-.05,3.74,0,4.81.12,4.33.69l5.34-.26c1.11,0,2.28-.1,3.44-.11,5.39,0,10.2-.27,14.93-.56,1.6-.09,3.75-.07,5.65-.09,3,0,6-.07,8.88-.14,4.65-.11,6.45.09,5.56.61a12.19,12.19,0,0,0-1.55,1.22c-2.24,0-3.7.24-3.13.62l-16.13.16.34-.07c-.8,0-1.59-.14-2.4-.14q-8.16,0-16.32,0c-.72,0-1.47,0-2.15,0-2.8-.07-3.6-.06-3.29.2.57.47-2.56.52-4.73.64-5.75.32-11.94.47-18.1.66-4.92.15-10.15.13-14.86.37-.91,0-2.1,0-3.15,0-4.34,0-8.48-.27-13-.11a13.75,13.75,0,0,1-2.31-.19,3.81,3.81,0,0,1-1.16-.57l-3.08-.09,1-.18c-2.51,0-4.65.13-6.74.12s-4.13-.12-6.42-.19l-.39.28-5,0L171,309c-.07-.24-.63-.46,0-.61a29.62,29.62,0,0,1,3.75-.22,6.89,6.89,0,0,0,2.5-.22,30.43,30.43,0,0,1,3.44-.39c3-.31,2-.73,2.18-1.11.07-.14-.1-.27-.18-.46l-2.47-.18,4.09-.25-.24.24c.63,0,1.58,0,1.83,0,2-.28,4.12-.54,5.61-.85,2-.41-2.33-.93-5.68-1-4.23-.06-8.55,0-12.83,0-1.76,0-3.52,0-5.38-.08l8.59-.17s0-.07,0-.11c-1,0-1.9-.05-2.85-.05a25.24,25.24,0,0,1-4.43-.24,31.46,31.46,0,0,0-5.24-.19c-2.91,0-6.92.25-9-.19C153.89,302.68,154.54,302.42,154.54,302.21Zm51.63,4,3.66,0,.08,0-2.73.12c1.83.06,2.89.14,3.52.11,1.55-.08,2.92-.21,4.35-.31A50.28,50.28,0,0,0,206.18,306.2Zm-42.64-7,12.59.23.63-.12a9.54,9.54,0,0,0-1.7-.28c-1.89,0-3.85,0-5.77,0-1.15,0-2.28.06-3.43.06-.68,0-1.37,0-2.06-.07Zm35.74,17.47c1.3.13,2.17.32,3,.46l9.1-.49a8.44,8.44,0,0,0,1.19-.13c2-.54-2.84-1.23-7.86-1.22-5.53,0-11.1-.06-16.59-.15a12.83,12.83,0,0,0-4,.25A29.57,29.57,0,0,0,181,317c-.15.09.7.23,1.44.31,3.66.36,7.9.13,11.89.12,3.06,0,3.46-.15,2-.45-.44-.09-.08-.23-.08-.35C197.24,316.65,198.67,316.6,199.27,316.66Zm29.41-3a12.66,12.66,0,0,0,4-.28,26.47,26.47,0,0,1,3.65-.7,28.05,28.05,0,0,1,3.42-.08c3.91.38,7.84.08,11,.1-.74-.28-1.44-.52-2-.77s-1.18-.54-1.78-.82c-2.12,0-4.79.11-7,0-3.26-.11-5.43.09-8.08.19-4,.15-8.1.25-12.57.38a13.93,13.93,0,0,0-1.52.47c-.19.09,0,.21.45.29a28.17,28.17,0,0,1,4,.73C222.79,313.77,226.29,313.61,228.69,313.7Zm-73,2a22.85,22.85,0,0,0-2.52.13c-3.79.45-2.11,1.21,2.62,1.55,5,.36,10.44.18,15.65.27,1.38,0,2.8,0,4.2,0l.47-.13-13.2-1.38-.81.07.81-.33C160.32,315.77,158,315.69,155.67,315.66ZM175.82,364c-3,.06-5.65.16-8.29.15-4.13,0-8.51,0-12.11-.33-.8-.08-2.83,0-4.12,0s-2.37-.18-3.54-.27l2.08-.34c-2.47-.24-3.74-.56-1.44-1,.53-.1-.07-.27,0-.4.3-.36,1.33-.74,6.17-.82,2.52,0,5.48-.84,4.59-1.23-1.29-.56,2.44-1.08,7.37-1,2.73,0,5.49,0,8.22,0a7.78,7.78,0,0,0,1.6-.23,62.89,62.89,0,0,1,9.58-.56,15.34,15.34,0,0,1,1.6.1c2,.36,1.94.36,4.81,0-1.53-.35-3.06-.67-4.35-1-.49-.13-.38-.29-.54-.43,1.86,0,3.73,0,5.58,0,.64,0,1.26.12,1.85.11l23.08-.18c.32,0,.63,0,.94,0,0,0-.05-.08-.09-.08q-9.21-.06-18.42-.11c-1.88,0-3.77,0-5.67.05-3.74,0-4.81-.12-4.33-.69l-5.34.26c-1.11,0-2.28.1-3.44.11-5.39,0-10.2.28-14.93.56-1.6.1-3.75.07-5.65.1-3,0-6,.07-8.88.14-4.65.11-6.45-.09-5.56-.61a12.09,12.09,0,0,0,1.55-1.22c2.24,0,3.7-.24,3.13-.62l16.13-.16-.34.07c.8,0,1.59.14,2.4.14q8.16,0,16.32,0c.72,0,1.47,0,2.15,0,2.8.07,3.6.06,3.29-.2-.57-.47,2.56-.52,4.73-.64,5.75-.32,11.94-.47,18.1-.66,4.92-.15,10.15-.13,14.86-.37.91,0,2.1,0,3.15,0,4.34,0,8.48.27,13,.11a13.74,13.74,0,0,1,2.31.19,3.81,3.81,0,0,1,1.16.57l3.08.09-1,.18c2.51,0,4.65-.13,6.74-.12s4.13.12,6.42.19l.39-.28,5,0-1.12.09c.07.24.63.46,0,.61a29.6,29.6,0,0,1-3.75.22,6.89,6.89,0,0,0-2.5.22,30.43,30.43,0,0,1-3.44.39c-3,.31-2,.73-2.18,1.11-.07.14.1.28.18.47l2.47.18-4.09.25.24-.24c-.63,0-1.58,0-1.83,0-2,.28-4.12.54-5.61.85-2,.41,2.33.93,5.68,1,4.23.06,8.55,0,12.83,0,1.76,0,3.52,0,5.38.08l-8.59.17s0,.07,0,.11c1,0,1.9.06,2.85.05a25,25,0,0,1,4.43.25,31.51,31.51,0,0,0,5.24.19c2.91,0,6.92-.25,9,.19.78.17.13.42.13.63h8.15l-3.92,1.57,1.63.11c-4.86.15-2.45.83-6.42,1.07l3.85.24c-1.27.21-2.77.37-2,.71.57.27-1.82.61-2.62.93-.32.13.33.29.15.43a2,2,0,0,1-1.35.48c-2.05.08-3,.61-6.26.23a15.08,15.08,0,0,0-1.53,0c-5.29.19-10.32.12-15.58-.08-3.33-.12-7.15-.12-10.72-.1-4.22,0-8.4.16-12.62.19-4.87,0-9.78,0-14.67,0-.94,0-2,0-2.8.05a95.51,95.51,0,0,1-14.63-.22c-1.58-.17-4.49-.18-6.79-.27l.23.14a9.52,9.52,0,0,1-2.4.52,51.23,51.23,0,0,1-7.49-.14c-1.78-.18-4.68-.2-7.42-.31l.75-.61C172.38,365.16,175.5,364.52,175.82,364Zm86.54-.72a9.54,9.54,0,0,0,1.7.28c1.89,0,3.85,0,5.77,0,1.15,0,2.29-.05,3.43-.06.68,0,1.37,0,2.06.07l.26-.15L263,363.14ZM224,356.46a50.3,50.3,0,0,0,8.89-.09l-3.66,0-.08,0,2.73-.12c-1.83-.06-2.89-.14-3.52-.11C226.84,356.22,225.48,356.35,224,356.46Zm10.37-9.17c5.53,0,11.1.06,16.59.15a12.83,12.83,0,0,0,4-.25,29.57,29.57,0,0,0,3.11-1.63c.14-.09-.7-.23-1.44-.31-3.66-.36-7.9-.13-11.89-.12-3.06,0-3.46.15-2,.45.44.09.08.23.08.35-1.05,0-2.49,0-3.08,0-1.3-.13-2.17-.32-3-.46l-9.1.49a8.44,8.44,0,0,0-1.19.13C224.59,346.6,229.4,347.29,234.41,347.29Zm-42.24,4.13c2.11,0,4.79-.11,7,0,3.26.11,5.43-.09,8.08-.19,4-.15,8.1-.25,12.57-.38a13.93,13.93,0,0,0,1.52-.47c.19-.09,0-.21-.45-.29a28.18,28.18,0,0,1-4-.73c-.62-.53-4.12-.36-6.51-.46a12.66,12.66,0,0,0-4,.28,26.47,26.47,0,0,1-3.65.7,28.05,28.05,0,0,1-3.42.08c-3.91-.38-7.84-.08-11-.1.74.28,1.44.52,2,.77S191.57,351.14,192.17,351.42Zm91.27-4.51a22.85,22.85,0,0,0,2.52-.13c3.79-.45,2.11-1.21-2.62-1.55-5-.36-10.44-.18-15.65-.27-1.38,0-2.8,0-4.2,0l-.47.13,13.2,1.38.81-.07-.81.33C278.79,346.8,281.09,346.87,283.44,346.91Z"/></svg>