<svg id="Layer_1" data-name="Layer 1" xmlns="http://www.w3.org/2000/svg" viewBox="0 0 512 512"><defs><style>.cls-1{fill:#dde5e8;}.cls-2{fill:#9bbdc6;}.cls-3{fill:#afc3c9;}.cls-4{fill:#48b753;}.cls-5{fill:#2e8234;}</style></defs><title>document-unlocked-flat</title><path class="cls-1" d="M422.4,153.6V448a64,64,0,0,1-64,64H89.6a64,64,0,0,1-64-64V64a64,64,0,0,1,64-64H268.93Z"/><path class="cls-2" d="M422.4,153.6H332.8a64,64,0,0,1-64-64V0h.13Z"/><path class="cls-3" d="M243.2,256a12.8,12.8,0,0,1-12.8,12.8H140.8A12.8,12.8,0,0,1,128,256h0a12.8,12.8,0,0,1,12.8-12.8h89.6A12.8,12.8,0,0,1,243.2,256Z"/><path class="cls-3" d="M320,307.2A12.8,12.8,0,0,1,307.2,320H140.8A12.8,12.8,0,0,1,128,307.2h0a12.8,12.8,0,0,1,12.8-12.8H307.2A12.8,12.8,0,0,1,320,307.2Z"/><path class="cls-3" d="M319.62,358.4a12.8,12.8,0,0,1-12.8,12.8h-166A12.8,12.8,0,0,1,128,358.4h0a12.8,12.8,0,0,1,12.8-12.8h166a12.8,12.8,0,0,1,12.8,12.8Z"/><path class="cls-4" d="M454.4,384H396.8V371.2a12.81,12.81,0,0,1,23.89-6.4A12.8,12.8,0,0,0,442.84,352,38.4,38.4,0,0,0,371.2,371.2V384h-6.4a32,32,0,0,0-32,32v64a32,32,0,0,0,32,32h89.6a32,32,0,0,0,32-32V416A32,32,0,0,0,454.4,384Z"/><path class="cls-5" d="M409.6,460.8a12.57,12.57,0,0,1-9.09-3.78,12.78,12.78,0,0,1-3.71-9,11,11,0,0,1,.26-2.5,11.49,11.49,0,0,1,.7-2.43,10.71,10.71,0,0,1,1.22-2.18,11.5,11.5,0,0,1,1.54-1.92,11.71,11.71,0,0,1,2-1.6,14.87,14.87,0,0,1,2.17-1.22,11.49,11.49,0,0,1,2.43-.7,13.16,13.16,0,0,1,5,0,10,10,0,0,1,2.37.7,12.57,12.57,0,0,1,2.24,1.22,13.74,13.74,0,0,1,3.53,3.52,14.83,14.83,0,0,1,1.21,2.18,11.9,11.9,0,0,1,.71,2.43,11,11,0,0,1,.26,2.5,12.59,12.59,0,0,1-3.78,9,12.07,12.07,0,0,1-4.1,2.81A12.92,12.92,0,0,1,409.6,460.8Z"/></svg>