<svg id="Layer_1" data-name="Layer 1" xmlns="http://www.w3.org/2000/svg" viewBox="0 0 512 512"><defs><style>.cls-1{fill:#707070;}</style></defs><title>document-unlocked-handdrawn</title><path class="cls-1" d="M84.83,511.31c3.12.93,2.19,1.09-4-.58-1.18-.4-3.39-1.12-6-2.13a75.93,75.93,0,0,1-8.08-4.05,74.15,74.15,0,0,1-34.57-45.12,74.09,74.09,0,0,1-2.34-14.63l-.19-3.72,0-3.12,0-6.16q-.08-12.34-.17-24.94c.17-8.88.34-18.22.61-32.11,0-6.42,0-21.73,0-33-.16.05-.35-3.8-.46.9-.4,15.72-.59,11.45-.6-21.34,0-42.64-.33-88.09.16-127.24.1-7.84.29-16.91.41-15.36.73,9.35,1.45,20.86,2.17,33.3.31,5.36.39,18.6.34,43.25C32,314,32,373.64,31.91,432.84v5c0,1.63,0,3.31.11,5.38a71.12,71.12,0,0,0,8.84,32.55,79.31,79.31,0,0,0,12,16.18,76.86,76.86,0,0,0,13.26,10.65A78.39,78.39,0,0,0,84.83,511.31ZM29.44,91.25c.11-6,.07-11.44.31-18A73.64,73.64,0,0,1,58,17.68,73.86,73.86,0,0,1,97.11,2.31c3.39-.22,7.18-.48,9.82-.44-2.1.07-4.87.29-9.77.79l6.08-.29,5.17,0,9.93,0,19.36.06,37.77.1,27-.17C243,1.78,225.08.76,174.37.31L133.29.06,112.38,0h-5.25c-1.72,0-3.44,0-5.76.11a79.59,79.59,0,0,0-12.9,1.5A75.7,75.7,0,0,0,45,28.64C34,42,28.6,60.14,28.81,76.59c0,14.74,0,30,0,45l.18,5ZM323.2,183.8a74.24,74.24,0,0,1-17.33-2.25,70.3,70.3,0,0,1-30.42-16.31c-7.16-6.53-10-11-11.51-12.49a100.61,100.61,0,0,1-8.41-10.56c-.36-.54,1,2.93,2.42,5.8,7.21,14.4,22,27.49,38.38,33.62a60.83,60.83,0,0,0,11.36,3.27c1.29.22.18-.2-2.88-1.18-1.82-.59-.26-.38-.24-.54a77.07,77.07,0,0,0,13.13,2.25c5.9.55,8.7.69,11.68.88l32.45-.66c1.67,0,3.54-.1,4.22-.17,7-.72-10.13-1.63-28-1.63ZM249.11,122a54.75,54.75,0,0,1-.4-7.21c-.08-2.57,0-4.53.09-6.44l.46-11.77L250.18,73l-.1-2.89.44,2.89c.08-9.12.16-17.34.23-25.71,0-2.83-.08-6.81-.17-9-.6-13.51-1.62-7.53-2.07,9.35-.48,18-.25,37.21-.35,55.77,0,2.45,0,4.95,0,7.46.06,2.7.21,6.09.48,9.06ZM482.24,412l.13,2.85q0,1,0,1.9c0,1.1,0,2.1,0,3-.06,1.79-.1,3.2-.14,4.29-.11,2.17-.25,3.06-.41,3.26-.32.4-.71-2-1.07-2.4.07,8.14.14,15.58.2,22.85,0,5.68,0,11.55,0,17.23v1.06l-.07,1.49a28.37,28.37,0,0,1-.26,3,34.62,34.62,0,0,1-1.26,5.79,35.68,35.68,0,0,1-5,10,48.62,48.62,0,0,1-4.74,5.63,34.53,34.53,0,0,1-7,5.32,34.16,34.16,0,0,1-13.1,4.25,33.43,33.43,0,0,0,7.63-2.48,27.07,27.07,0,0,1-9.39,1.71c-1.3-.17-.3-.29,3.83-1.37,1.86-.6-.33-.28,0-.56s1.64-.75,4.57-2.11a35.92,35.92,0,0,0,13.31-10.23,26.84,26.84,0,0,0,5.22-11.26c.58-3.24.28-5-.16-3.59-.83,2-.5,0-.52-4.52-.17-4.12-.4-9.87-.36-16.72,0-7.53,0-15.13,0-22.64a43.14,43.14,0,0,0-.3-4.41c-.11-.94-.21-2.56-.31-4.57l-.14-3.29a34.49,34.49,0,0,0-.42-4.11,29.87,29.87,0,0,0-7-14.8,39.38,39.38,0,0,0-3.48-3.5,20.3,20.3,0,0,0-5.24-3.71,23.61,23.61,0,0,0-8.23-2.22,26.37,26.37,0,0,1,11.57,6.11c1.05,1,.66,1,.92,1.4a26.85,26.85,0,0,0-14.76-5.85c-1.88-.14-3.56-.26-5.2-.25l-63.59.25-2.58.06c.1,0,.14.11.26.11l50.75.15,15.61-.07a27.37,27.37,0,0,1,10.43,1.32c1.76.77,2,1.14,1.28,1.26A25.16,25.16,0,0,1,465,400.24a24.64,24.64,0,0,1,4.23,8.6c1,3.68.9,7.42,1,10.91s.11,7,.17,10.39l.49,19.9c0,4.42.08,10.34.13,15.58A27.08,27.08,0,0,1,460,487.92a24.39,24.39,0,0,1-13.11,4.93c-2.7,0-3.32-.21-2.07-.62a15.36,15.36,0,0,0,4-2c5.88-1.28,8.83-4.11,7.32-3.66a23.48,23.48,0,0,0,11.26-16.69c.49-3.29.22-7.09.27-10.75l-.05-11,.09.94.18-6.6V419.93c0-3.83.13-7.37-.84-10.74a23.21,23.21,0,0,0-4.85-9.22,24.57,24.57,0,0,0-4.07-3.75c-6-4.1-8.45-3.76-7.65-3.43.6.55-1,.09-3.41-.08s-6,0-9,0l-49.87.88-10.29.11-5.14.06a23,23,0,0,0-4.38.56,21,21,0,0,0-13.36,9.89,22.41,22.41,0,0,0-2.67,6.71,40.19,40.19,0,0,0-.51,8l-.1,8.83c-.07,5.9-.11,11.85,0,18,0,1.6-.13,5.46-.25,6.37a16.83,16.83,0,0,1-.76,3.18c0,2.36-.07,5.17-.12,8.5l-.24-2.7c0,1.73,0,3.39.06,5a26.73,26.73,0,0,0,.46,4.17,23.81,23.81,0,0,0,2.83,7.31,22.87,22.87,0,0,0,11.83,10c.38,0,.65,0,1,0,3.31,1.09,6.77,1,12.94,1l-3.08.12c.18.32,1.73.61,0,.81-1.44.15-6.47.45-9.8-.61-3.6-1.08-5-2-6-2.32-.87-.09-5.05-3.06-7-5.66-2.52-3.07-3.09-4.36-3.55-4.59s-.42.33-.76.2-.22.39-.35.71a25.32,25.32,0,0,0,3.64,6.17,26.66,26.66,0,0,1-5.78-10.42l.49.59a34.06,34.06,0,0,1-1-5.25c-.59-5.68-.79-11.43-1.25-15.57-.28-2.73-.58-1.12-.83,2.32l-.31,6.22a74.29,74.29,0,0,0,0,7.46,29.24,29.24,0,0,0,26.69,26.59c5.53.25,9.89.07,15.17.23l-11.83.11a29.84,29.84,0,0,1-13.31-2.66l0,.14a28.47,28.47,0,0,0,8.85,2.6c3.18.34,5.43.24,7.38.3s3.77.13,5.37.27c3,.26,7.81.3,14.45.25,8-.06,19.06-.33,24.77.26,2.15.22.35.56.35.84h22.46l-10.8,2.09,4.49.14c-13.38.2-6.74,1.11-17.69,1.42l10.62.32c-3.49.28-7.63.49-5.6.95,1.58.36-5,.82-7.21,1.24-.88.17.91.38.43.57a9.23,9.23,0,0,1-3.71.64c-5.66.1-8.32.81-17.24.3-.77,0-2.94,0-4.2,0l-10.82.13h-.08c-1.68.57-3.38,1.08-5.11,1.49-3.23,1.14-12.11,2.34-19.95,2.28l-18.42.12c-16.14.27-30.08.6-39,.93-8.56.32-21,.48-42.72.37-25.59-.12-63.13.1-69.73-.61-3.21-.34-28.84-.64-42.69-1-4.48-.11-6.92-.27-4.84-.39l16.26-.63,134.56-.51,40.8-.23,21.45-.06a94.41,94.41,0,0,0,21.84-1.78h-1.69l-2.06-.09a37.69,37.69,0,0,1-6.7-1c-16.1.57-31.64.29-47.74.47l-98.54.37-80.38.2-20.1,0c-6.73,0-13.1.23-20.28-.28a65.39,65.39,0,0,1-37.1-16.49c-7.88-6.76-15.64-18.46-18.8-30.21a67.93,67.93,0,0,1-2.52-18.26q0-8.63,0-17.21c0-11.44.07-22.84.1-34.29,0-22.91,0-46,0-70.09,0-6.22.13-21.21.25-24.76.23-6.77.49-8.22.76-12.37,0-9.17.07-20.07.12-33,.07,2.91.12,5.31.24,10.49-.06-26.88-.11-49.73-.16-72.17s.16-44.18.26-68.73L40.16,114c0-7.64,0-15.33,0-24,0-4.34,0-8.93,0-13.89a66.28,66.28,0,0,1,2-16.63c-2.38,10.78-1.62,15.47-1.73,12.36.36-.74,1-6.9.82,0-.17,5.45.18,25.67.13,40.23,0,15.59,0,22.24.29,26.74.2,3.28.35,23.85.52,36.8.41,31.81,1,21.35,1.48,23.35.18.7.37-1,.62-1.88,0-2,.1-10.72.23-26.44.13,17.05.22,28.87.34,43.76l-.33-2.54c0,6.73,0,16.91,0,19.62.4,21.08.84,44.12,1.14,60,.55,21.2,1.23-25,1.3-60.78,0-45.24,0-91.48.05-137.29.18-9.37-.52-19.11.87-27.68a54.19,54.19,0,0,1,7.67-20.16A56.54,56.54,0,0,0,49.36,60c-2,7-2.2,13.77-2,21.66l.11,46,.15-.06c0-10.18,0-20.39.07-30.53,0-5,0-9.7,0-14.11s0-8.61.27-12.08A54.33,54.33,0,0,1,52.83,52.4a58.15,58.15,0,0,1,12-16.91A56.81,56.81,0,0,1,91.26,20.89a54.41,54.41,0,0,1,11-1.46c3.88-.2,8.42-.08,12.73-.13l26.42,0c17.39,0,33.66.08,44.75.37,8.34.22,1.35.56,1.35.84h81.16V15.76h-.53c-1.75,0-3.09-.09-4-.16-1.88-.14-2.17-.35-.89-.64,2.31-.51,3.55-1,5.51-1.62l6.31-.09c3.39,3.22,5.36,4.85,4.47,3.44l40.81,40.61-.54-.46,60.52,60.42c.37-.32,7.38,6.6,12.51,11.53L416.67,152c2.51,2.35,3.94,4.67,6,7,.52.61.81,1.12,1.22,1.68.12.73.09,1.56.14,2.33l.19,4.75.19,4.78c0,.78.11,1.64,0,2.35l-1.62.18v2.29l1.73-.32,1.53-.28c.39-.2,1.33.11,1.06-.71L427,172.6q-.14-3.47-.27-6.89c-.21-2.16.19-4.89-.93-6.14l-4.65-6.74-6.76-6.65-5.65-5.57L403,134.86l-17.75-17.73-3.72-5.27L377.16,106c8,8,18.17,17.68,27.65,27.9,1.42,1.54,7.06,7.08,8.69,8.56l8.34,7.73,1.91,1.74c.47.56.76,1.08,1.13,1.59l1.9,2.77,1.76,2.69a4.58,4.58,0,0,1,.74,1.5,4.42,4.42,0,0,1,.34,1.9c.16,3.24.3,7.26.4,12.33q0,1.12,0,2.3l0,1.19c.11.49-.56.28-.8.45l-4.22,1-2.38.56c0,6.84-.1,13.65-.15,20.58q0,66.21,0,132.48c3.11,1.52,1,1.56.62,2a29.16,29.16,0,0,1,5.58,2.88,22.37,22.37,0,0,1,6.52,6.36c.29.54,1.39,1.6,1.88,2.45a15,15,0,0,1,1.17,2.39l-1.2-1c.73,1.7.8,2.67-.52,1.58-.3-.24-.27.23-.47.26-.53.1-1.24-.3-3.37-2.73-1.14-1.29-3.29-1.86-3.23-1.08,0,1.1-2-.11-4.39-1.85a22.76,22.76,0,0,0-4.29-2.49,2.31,2.31,0,0,0-1-.13,37.73,37.73,0,0,1-5.61-1,4.08,4.08,0,0,1-.9-.29c-1.06-.67-1.08-.65-2.79-.4a17.49,17.49,0,0,1,2.32,1.62c.24.21.14.41.2.62a28.78,28.78,0,0,0-3-.34c-.35,0-.68-.18-1-.19A25.69,25.69,0,0,0,396.93,345a3.18,3.18,0,0,0-.43.28l.09.07a25.48,25.48,0,0,1,9.46-2.78c1,0,2-.2,3-.19,2,0,2.56.37,2.23,1.06a19.66,19.66,0,0,1,2.81.11,10,10,0,0,1,1.79.32,40.55,40.55,0,0,1,7.5,2.85,14.8,14.8,0,0,1,2.49,1.83,30.84,30.84,0,0,1,3.43,3.47c1.64,2,1.83,3.05,1,3a9.88,9.88,0,0,0-1.81.16c-.62-.94-1.31-1.33-1.55-.81a22.77,22.77,0,0,0-5.67-5.23l.19,0a5.29,5.29,0,0,0-.87-.78,22.27,22.27,0,0,0-7.29-2.94l-1-.18c-1.33-.31-1.73-.27-1.6.06.21.63-1.25.57-2.26.76a25.23,25.23,0,0,0-7.77,2.46,18.06,18.06,0,0,0-5.23,3.83,9.25,9.25,0,0,1-1,.94c-1.26,1.35-2.74,2.52-3.51,4.35a3,3,0,0,1-.69.77,2.57,2.57,0,0,1-.91.13,9.79,9.79,0,0,0-.67,1.24l-.07-.51c-.33,1.12-.6,2.06-.81,3s-.54,1.82-.81,2.86l.34.22-.19,2.3-.1-.51c-.32,0-.63.28-.81,0a5.32,5.32,0,0,1-.21-1.82c.08-.7.14-1-.1-1.24a4.38,4.38,0,0,1-.19-1.77c0-1.55-.68-1.24-1.15-1.46a1.93,1.93,0,0,0-.62-.08l-.57,1.26.25-2.28.27.22a7.1,7.1,0,0,0,.34-1c0-1.16.16-2.41.19-3.35.06-1.28-1.82.64-2.5,2.58a24.51,24.51,0,0,0-1.6,7.56l-.2,3.06a33.84,33.84,0,0,1,.06-5l-.14,0a9,9,0,0,0-.25,1.74,7.51,7.51,0,0,1-.43,2.63,6.53,6.53,0,0,0-.25,2.72c.06,1.51.33,3.59-.25,4.67-.22.4-.56.06-.84.06V376c5.58-.18,11.83-.25,18-.23A4.26,4.26,0,0,1,396,375l.23-3.75.44.42-.1-.42.92-3.43a6.66,6.66,0,0,1,1-1.57l.16.12c-.08.29,0,.62-.07.91a8.54,8.54,0,0,0-.07,1.57v2.05a24,24,0,0,1-.32,4,7.11,7.11,0,0,1-.24.84c7.51,0,14.73.23,20.16.51,4.35.23,12.37.24,18.71.36l-.63-.19a51,51,0,0,1,6.61-.69l1.25,0,1.89,0a28.68,28.68,0,0,1,4,.34,35,35,0,0,1,7.83,2,37.3,37.3,0,0,1,13.55,8.7,41.81,41.81,0,0,1,8.17,11.6,39.13,39.13,0,0,1,3.71,16.7Zm-108.3-42.32a10.49,10.49,0,0,1-.1,1.07l.2.14.15-3.27a39.56,39.56,0,0,1,.48-4.57l-.09-.48a4.15,4.15,0,0,0-.55,1.19,36.13,36.13,0,0,0-.18,4.14Zm.36,6.37h.34a3.16,3.16,0,0,1-.21-.78Zm19.89-29.31a8,8,0,0,0-3.59,3.18c.49-.54,1-.94,1.41-1.38h.06l-1,1.1a15.47,15.47,0,0,0,1.49-1.16Zm-37.53-175-9.72.15,12.56.14L375,171.6c-6-.32-18.93-.28-31.69.11l13,0Zm30.44-13,10-.07c1.5,0,1.15-.05,1.19-.07l0-.06,0-.08s0,0,.07,0,.31-.09.3-.49c0,0,0,0,0-.1l-.83-.88L396,155l-4.27-4.4-9.14-9.35.45.71a84.64,84.64,0,0,1-6.52-5.57c-6.2-6-12.65-12.48-18.73-19-4.31-4.66-11.6-12-18.38-19l2.45,1.32c-19.34-19.58-10.88-12.31-9.57-12l-21-20.79C300.86,56.44,289.76,45.44,281.05,36l-10-10.08-.09-.11c.28,12.68,1.07,6.35,1.37,19.45.13-5.52.22-9.21.32-13.74.28,4.52.49,9.87.95,7.25.36-2,.82,6.5,1.24,9.33.17,1.14.38-1.18.57-.55a15.05,15.05,0,0,1,.63,4.8c.1,7.32.81,10.76.3,22.3,0,1,0,3.79,0,5.44,0,9.43.1,18.63.14,27.81v3.44l.12,2.74a31.27,31.27,0,0,0,.51,5.29,49.42,49.42,0,0,0,2.73,10.35,46.43,46.43,0,0,0,35,28.31,58.38,58.38,0,0,0,8.69.74l11.26,0ZM272.81,83.61c0-2.43.06-4.9.1-7.35l-.2-.94-.15,22.44L272.47,109l0,2.79.11,2.35a29.38,29.38,0,0,0,.39,4.68l.44,1.82c0-1.68-.26-3.09-.26-5l-.19-4.28v-5.15c0-3.44,0-6.91,0-10.33C272.86,91.74,272.84,87.7,272.81,83.61Zm-2.63-59.33.3-.06h0l-.32,0Zm.11.74.48,3.19c0-.08,0-1.14.06-2.54ZM416.83,171.72a5.24,5.24,0,0,0,1.13-.3h-1.13Zm-23.61-.16c.13,0,.19.11.33.11l15.64,0,.41,0c0-.08,0-.16,0-.24l-13,0Zm23.61,6.92a14.58,14.58,0,0,0,1.52-.27l1.31-.24c0-.83,0-1.67,0-2.5l-2.82.32C416.83,176.68,416.83,177.58,416.83,178.48Zm2.84,2.45-2.84.67c0,25.35,0,50.8,0,76,0,6.34.18,13.07.3,17.12.25,8.68.5,31.83.64,55.85.83.26,1.67.57,2.58.92,0-.15,0-.3,0-.44C420.12,277,419.9,228.51,419.68,180.92Zm3.09-3.53-.06-2.25q0,1.13,0,2.27ZM269.61,20.46h5.15l-5.11.25.2,1.31a10.06,10.06,0,0,1,1.68-.32,31.62,31.62,0,0,1,2.59,2.22l7.59,7.39c6.4,6.33,14.59,13,12.71,10.43-2.72-3.78,7.15,5.14,19.53,17.61l20.7,20.72c1.5,1.49,3.2,3,4.24,3.82,3.75,3.16,17.26,16.1,24.64,23.64,1.44,1.47,3.27,3.37,3.94,4.14,4.62,5.31,4.54,5.23,12.07,12.19l-10-11.91c-1.11-1.35-.68-1.22-1-1.77l14,14.08,4.56,4.79,28.34,28.25c1,1.16,2.53,2.07,3,3.45l.16,4.69.17,4.7,0,.72a2.27,2.27,0,0,0,.72-1.42v-1.19a7.62,7.62,0,0,0-.33-1.66l-.1-3.84a7.83,7.83,0,0,0-.24-2.39L384.7,126.19,317.42,59.1C306.72,48.46,298.06,39.8,291.34,33L279.48,21.28,274,15.81l-5.06-.05ZM53,127c.05,2.23.11,4.48.16,6.72.13-6,.36-11.16.37-18.15,0-10.1,0-20.39,0-30.74,0-5.18-.05-10.61.23-14.54a51.16,51.16,0,0,1,2.85-12.46A49.6,49.6,0,0,1,91.29,26.39l2.21-.79c-18.38,3.63-34,18.53-38.59,36.73a53.33,53.33,0,0,0-1.75,14.12l0,16.85Zm58.38,373.63c-4.5-.13-10.29.14-16.8-1a60.05,60.05,0,0,1-20.95-7.58,61.8,61.8,0,0,1-19-17.67,61.12,61.12,0,0,1-10-25.88c1.82,14.26,8.27,25.34,16.53,34.06l.57.68a69.45,69.45,0,0,1-6.58-7.75,73.39,73.39,0,0,1-4-6.3,57.75,57.75,0,0,0,16.77,19.74A59.3,59.3,0,0,0,89,498.88C96.31,500.79,103.69,500.8,111.42,500.64Zm243,0-.62-.36-54.1.12-123.5.13-10,.06a6.77,6.77,0,0,0,1,.11C229.53,500.66,292,501,354.39,500.65Zm24.63,1-1.16.36,3.27,0,4.9,0,.52-.24-6.91-.06Zm-13.82-1.11c-.55-.13-1.09-.25-1.63-.41l-1.56.11.14.06c.47.15,1,.21,1.46.34h.62C364.55,500.61,364.87,500.56,365.19,500.53Zm-6.46-2.15-.09,0Zm32.59,3.37-.3.16,5.24.09.72-.2ZM360.76,392a23.65,23.65,0,0,0-8.36,6.64A25.22,25.22,0,0,0,347,412.26a25.88,25.88,0,0,1,2-7.1,31.14,31.14,0,0,0-1.31,4.29,27.74,27.74,0,0,1,4.17-9A27.27,27.27,0,0,1,360.76,392Zm10.8-15.86,1.2-.05c-.28-.3-.58-.94-.87-1.22s-.38.17-.57.08-.59-.27-.63-.7c-.1-1.07-.81-1.57-.3-3.25a3,3,0,0,0,0-.79,30.31,30.31,0,0,1,1.08-11.11,51.58,51.58,0,0,1,3-8.16,36.86,36.86,0,0,1,5.47-8.64,35.74,35.74,0,0,1,9.17-7.57l2-1.18a21.24,21.24,0,0,1,11.37-3.45c1.12,0,3-.17,4.66-.16,0-7.78.08-15.64.12-23.43l.81,8c.14-82.63,1-49.24,1.71-45.84-.07-31-.13-59.38-.19-87.14a67.52,67.52,0,0,1-8-.44c-.44-.09-1.61-.17-3.22-.25l-3.79-.24-8.44-.48c-1.49-.11-2.31-.27-1.61-.39,1.49-.25,4.17-.49,5.42-.63l13.26-.12c2.08-.07,4.28,0,6.43,0,0-.9,0-1.83,0-2.74l-52,.56-11.24,0-22.92-.15a69.37,69.37,0,0,1-24.28-4.73,46.2,46.2,0,0,1-7.77-4.06A28.46,28.46,0,0,1,288,165a71.52,71.52,0,0,1-8.88-7.32l2.86,2.28A62.87,62.87,0,0,1,266.5,140.4a61.5,61.5,0,0,1-6.32-22.89l-.44-1.43c-.38-5.44-.11-10.36-.16-18.17.11,3.5.15,5,.12,4,.32-.24.61-2.24.81,0,.24,1.79.1,8.44.48,13.45a35.49,35.49,0,0,0,1.39,9c.24.52.82,2.46,1.51,4.79s1.88,4.92,2.72,6.93c2.44,4.8,3.59,6.19,4.13,6.5s.36-.41.75-.25.14-.48.21-.84a54.12,54.12,0,0,1-3.54-7.83,57.33,57.33,0,0,0,7,12.25l-.76-.47a55,55,0,0,0,3.91,5,53.08,53.08,0,0,0,15.46,11.45c6.14,2.85-6.84-4.33-13.77-13.21A58.32,58.32,0,0,1,266.46,109c0-6.27.07-12.54.11-19.19l.11,15.3c0,5.23,0,10,.76,14.65l.14,0a68.2,68.2,0,0,1-.57-9.5c0-6.67,0-11.63.33-15.79.26-3.82.3-10.1.25-18.69-.06-10.37-.33-24.65.25-32,.22-2.77.56-.45.84-.45V24.72l-1.4-.05c.38,0,1.11-.06,1.4-.09v-.63c-1.11-.09-2.44-.19-2.94-.29s-.66-.22-.07-.34c.3-.06.76-.12,1.4-.19.37,0,1.15-.1,1.61-.14V20.76l-35.88,1.79,17.45.14c-52,.2-26.19,1.11-68.72,1.43l41.27.32c-13.56.28-29.62.49-21.76.95,6.15.36-19.53.82-28,1.25-3.42.17,3.54.38,1.65.57a130.81,130.81,0,0,1-14.4.63l-28.73.38-16.24.1-10.07,0a61.06,61.06,0,0,0-9.45.64,47.62,47.62,0,0,0-5.59,1.26,49.06,49.06,0,0,0-6.35,2.55A46.74,46.74,0,0,0,61.55,55.34a48.51,48.51,0,0,0-4.2,15.32l-.2,4c-.06,1.43,0,3.37,0,5V90c-.08,27.58-.16,55.11-.25,83.23,0,35.67-.09,76.53-.13,114.72.08,45.21.17,89.89.25,135.11v14.68c0,1.65,0,3.35.09,4.46A44.08,44.08,0,0,0,60,457a46.94,46.94,0,0,0,18.6,23.24,44.45,44.45,0,0,0,13.81,6,45.82,45.82,0,0,0,7.45,1.31l3.8.2,4.8,0H147.7l30-.07c50.71-.43,116.26-.26,156.61.29l6.52.06a40,40,0,0,1-6.54-18c-.3-4.41-.16-6.29-.19-8.91s0-5,0-7.47l-.25-34.78c0-1.88-.08-2.81.09-5.83a35.9,35.9,0,0,1,1.21-7.7,39.28,39.28,0,0,1,33.35-29C369.47,376.22,370.51,376.22,371.56,376.15Zm-22.58,29c.27-.64.53-1.29.84-1.9C349.57,403.76,349.28,404.4,349,405.16Zm1.23-2.78c-.15.27-.24.59-.39.87l.55-1.06Zm13.29,5.16,1-1.29c.81-1.12-.31-1-2.07.65a11,11,0,0,0-2.47,3.63,9.88,9.88,0,0,0-.78,2.57,6.76,6.76,0,0,0-.18,1.41,17.35,17.35,0,0,0-.07,1.92c-.07,15.24-.13,30.59-.2,45.72,0,1.55,0,2.92,0,4.12a11.41,11.41,0,0,0,.19,1.82,4.74,4.74,0,0,0,.71,2,9.6,9.6,0,0,0,3.82,3c.19.09-.29-.91-.59-1.77a12.72,12.72,0,0,1-.83-3.37,17.91,17.91,0,0,1-.13-1.88v-4.14c0-5.56-.07-11.23-.11-16.71,0-8.44-.2-9.54-.6-5.49-.12,1.21-.31.22-.46.23,0-2.91-.06-6.85,0-8.5.18-3.58.43-6,.61-8.27l-.17-6.42,0-2.21a13.47,13.47,0,0,1,.1-1.49A12.8,12.8,0,0,1,363.5,407.54ZM454,400.7a20.55,20.55,0,0,0-3.08-2.72,19.62,19.62,0,0,0-3.28-2,22.67,22.67,0,0,0-3.63-.29l-4.94,0-9.83,0c-9-.15-15,.12-22.27.26l-34.42.55a13.48,13.48,0,0,0-3,1c-.36.18.12.26.94.26a76,76,0,0,1,9.87.74c1.7.71,11.36.49,18,.61a70.84,70.84,0,0,0,11-.37c2.3-.33,5.89-.66,10-.93,1.7-.11,7.81-.18,9.42-.11,5.32.26,10.93.26,15.79.27A17.35,17.35,0,0,1,454,400.7Zm-35.3,79.15c2.18,0,5.27-.08,6.94-.17,10.45-.6,5.82-1.62-7.23-2.07-13.89-.48-28.76-.25-43.11-.36h-2.14l-.32,0a7.66,7.66,0,0,1-1.27-.11,9.39,9.39,0,0,1-2.44-.62,2.16,2.16,0,0,1-.59-.05,11.49,11.49,0,0,0,3.85,1.41,28.32,28.32,0,0,0,3.67.28l4.55.23,18.19.92,2.23-.1-2.23.44ZM399.49,361a3.61,3.61,0,0,1,.89-.2,16,16,0,0,1,1.07-2,.53.53,0,0,0,.13-.3c0-.89-1.65-.89-2.62.22a17.61,17.61,0,0,0-2.68,3.83c-.25.6-.32,1-.08,1.18a11.62,11.62,0,0,0,1.9,1.34c.11.06.35-.08.48-.21.65-.64.71-1.56,1.14-2.34.35-.57.22-.78-.27-.69-.15,0-.27-.15-.4-.23C399.16,361.37,399.33,361.06,399.49,361Zm4.41-7.89c.65-.11,1-.31,1.16-.71a2.93,2.93,0,0,1,1-1.15,2.1,2.1,0,0,1,1.19-.26c1.41.38,2.78.06,3.91.26l-.6-1.11L410,349c-.85,0-1.91.11-2.81.07a6.79,6.79,0,0,0-3.1.78,19.25,19.25,0,0,0-4.29,2.27,3.77,3.77,0,0,0-.16.84c0,.14.16.23.34.25.56,0,1.44-.1,1.68.18C402.17,353.87,403.12,353.23,403.9,353.1ZM152.76,253.27l2.29-1.57-.95-.11c2.83-.15,1.43-.83,3.74-1.07l-2.25-.24c.74-.21,1.61-.37,1.19-.71s1.06-.61,1.53-.93c.19-.13-.19-.29-.09-.43a1,1,0,0,1,.78-.48c1.2-.07,1.76-.61,3.65-.23a5.14,5.14,0,0,0,.89,0,70.85,70.85,0,0,1,9.08.08c1.94.12,4.17.12,6.25.1,2.46,0,4.9-.16,7.36-.19,2.84,0,5.7,0,8.55,0a16.06,16.06,0,0,0,1.63-.05,32.53,32.53,0,0,1,8.53.22c.92.17,2.62.18,4,.27l-.13-.14a3.66,3.66,0,0,1,1.4-.52,17.48,17.48,0,0,1,4.37.14c1,.18,2.73.2,4.32.31l-.44.61c4.5.1,2.68.74,2.5,1.28,1.72-.06,3.29-.17,4.84-.15a46.29,46.29,0,0,1,7.06.33c.47.08,1.65,0,2.4,0s1.38.18,2.06.27l-1.21.34c1.44.24,2.18.56.84,1-.31.09,0,.27,0,.4-.17.36-.78.74-3.6.82-1.47,0-3.19.84-2.68,1.23.75.55-1.42,1.07-4.29,1-1.59,0-3.2,0-4.79,0a2.83,2.83,0,0,0-.93.23,21.68,21.68,0,0,1-5.58.56,5.28,5.28,0,0,1-.93-.1c-1.15-.36-1.13-.36-2.81,0,.89.35,1.79.67,2.53,1,.28.13.22.29.31.43-1.08,0-2.17,0-3.25,0-.37,0-.73-.12-1.08-.11l-13.45.18c-.19,0-.37,0-.55,0,0,0,0,.08.05.08l10.74.11c1.1,0,2.2,0,3.3-.05,2.18,0,2.8.12,2.52.69l3.12-.26c.65,0,1.33-.1,2-.11,3.14,0,5.94-.27,8.71-.56.93-.09,2.19-.07,3.3-.09,1.73,0,3.47-.07,5.18-.14,2.71-.11,3.76.09,3.24.61a9.48,9.48,0,0,0-.9,1.22c-1.3,0-2.16.24-1.83.62l-9.4.16.2-.07c-.47,0-.93-.14-1.4-.14-3.17,0-6.34,0-9.52,0-.42,0-.86,0-1.26,0-1.63-.07-2.1-.06-1.92.2.33.47-1.49.52-2.76.64-3.35.32-7,.47-10.55.66-2.87.15-5.92.13-8.66.37-.53,0-1.22,0-1.84,0-2.53,0-4.94-.27-7.57-.11a4.81,4.81,0,0,1-1.35-.19c-.37-.17-.45-.36-.67-.57l-1.8-.09.57-.18c-1.46.05-2.71.13-3.93.12s-2.41-.12-3.74-.19l-.23.28-2.94,0,.65-.09c0-.24-.37-.46,0-.61a10.21,10.21,0,0,1,2.19-.22c.85,0,1.21,0,1.46-.22a10.77,10.77,0,0,1,2-.39c1.73-.31,1.16-.73,1.27-1.11,0-.14-.06-.27-.1-.46l-1.44-.18,2.38-.25-.14.24a10.16,10.16,0,0,0,1.07,0c1.15-.28,2.4-.54,3.27-.85,1.15-.41-1.36-.93-3.31-1-2.46-.06-5,0-7.48,0-1,0-2.05,0-3.14-.08l5-.17s0-.07,0-.11c-.55,0-1.11-.05-1.66-.05a8.7,8.7,0,0,1-2.58-.24,10.79,10.79,0,0,0-3.06-.19c-1.7,0-4,.25-5.24-.19-.45-.17-.07-.42-.07-.63Zm34.85,4,2.13,0,0,0-1.59.12c1.07.06,1.68.14,2.05.11.91-.08,1.7-.21,2.54-.31A17.16,17.16,0,0,0,187.62,257.26Zm-24.86-7,7.34.23.37-.12a3.52,3.52,0,0,0-1-.28c-1.1,0-2.24,0-3.36,0-.67,0-1.33.06-2,.06-.4,0-.8,0-1.2-.07Zm20.83,17.46a16.33,16.33,0,0,1,1.75.46l5.31-.49a2.93,2.93,0,0,0,.69-.13c1.15-.54-1.66-1.23-4.58-1.22-3.22,0-6.47-.06-9.67-.15a4.52,4.52,0,0,0-2.36.25,16.72,16.72,0,0,0-1.81,1.63c-.08.09.41.23.84.31a42.74,42.74,0,0,0,6.93.12c1.79,0,2-.15,1.16-.45-.26-.09,0-.23,0-.35A17.29,17.29,0,0,1,183.59,267.72Zm27.79-5.51c-1.23,0-2.79.11-4.1,0a32.58,32.58,0,0,0-4.71.19c-2.31.15-4.72.25-7.33.38a6,6,0,0,0-.89.47c-.11.09,0,.21.26.29a10.65,10.65,0,0,1,2.33.73c.36.53,2.4.36,3.8.45a4.43,4.43,0,0,0,2.33-.28,9.94,9.94,0,0,1,2.13-.7,9.47,9.47,0,0,1,2-.08,38.72,38.72,0,0,0,6.42.1c-.43-.28-.84-.52-1.19-.77S211.73,262.48,211.38,262.2Zm-53.21,4.51a7.72,7.72,0,0,0-1.47.13c-2.21.45-1.23,1.21,1.53,1.55,2.94.36,6.08.19,9.12.27.8,0,1.63,0,2.45,0l.27-.13-7.7-1.38-.47.07.47-.33C160.88,266.82,159.54,266.75,158.17,266.71ZM161.59,302h-8.82l4.24-1.57-1.77-.11c5.26-.15,2.65-.83,7-1.07L158,299c1.37-.21,3-.37,2.2-.71-.62-.27,2-.61,2.83-.93.35-.13-.36-.29-.17-.43a2.21,2.21,0,0,1,1.46-.48c2.22-.07,3.27-.61,6.77-.23.3,0,1.15,0,1.65,0,5.73-.19,11.18-.12,16.86.08,3.61.12,7.74.12,11.6.1,4.57,0,9.09-.16,13.67-.19,5.28,0,10.59,0,15.88,0,1,0,2.21,0,3-.05a111.77,111.77,0,0,1,15.84.22c1.71.17,4.86.18,7.35.27l-.25-.14a10.92,10.92,0,0,1,2.6-.52,60.07,60.07,0,0,1,8.11.14c1.93.18,5.07.2,8,.31l-.81.61c8.36.1,5,.74,4.64,1.28,3.2-.06,6.12-.17,9-.15,4.47,0,9.21,0,13.11.33.87.08,3.07,0,4.46,0s2.57.18,3.83.27l-2.25.34c2.67.24,4,.56,1.55,1-.57.09.08.27,0,.4-.32.36-1.44.74-6.68.82-2.73,0-5.93.84-5,1.23,1.4.55-2.64,1.07-8,1-3,0-5.95,0-8.9,0a9.14,9.14,0,0,0-1.73.23,73.67,73.67,0,0,1-10.37.56c-.63,0-1.43,0-1.73-.1-2.13-.36-2.1-.36-5.21,0,1.65.35,3.32.67,4.7,1,.53.13.41.29.58.43-2,0-4,0-6,0-.69,0-1.36-.12-2-.11l-25,.18c-.35,0-.68,0-1,0,0,0,.06.08.1.08l19.94.11c2,0,4.09,0,6.13-.05,4,0,5.21.12,4.68.69l5.79-.26c1.2,0,2.46-.1,3.73-.11,5.84,0,11-.27,16.17-.56,1.73-.09,4.06-.07,6.12-.09,3.21,0,6.45-.07,9.61-.14,5-.11,7,.09,6,.61a13.12,13.12,0,0,0-1.67,1.22c-2.42,0-4,.24-3.39.62l-17.46.16.37-.07c-.87,0-1.72-.14-2.6-.14q-8.83,0-17.67,0c-.78,0-1.59,0-2.33,0-3-.07-3.9-.06-3.57.2.62.47-2.77.52-5.13.64-6.22.32-12.92.47-19.6.66-5.33.15-11,.13-16.09.37-1,0-2.27,0-3.41,0-4.7,0-9.18-.27-14.05-.11a16.19,16.19,0,0,1-2.5-.19,4.27,4.27,0,0,1-1.25-.57l-3.34-.09,1.06-.18c-2.72.05-5,.13-7.3.12s-4.47-.12-7-.19l-.42.28-5.46,0,1.21-.09c-.07-.24-.68-.46,0-.61a34.71,34.71,0,0,1,4.06-.22,8.09,8.09,0,0,0,2.7-.22,35.61,35.61,0,0,1,3.72-.39c3.22-.31,2.16-.73,2.36-1.11.07-.14-.1-.27-.19-.46l-2.67-.18,4.43-.25-.26.24c.68,0,1.71,0,2,0,2.13-.28,4.47-.54,6.07-.85,2.14-.41-2.53-.93-6.15-1-4.58-.06-9.25,0-13.89,0-1.9,0-3.81,0-5.83-.08l9.3-.17v-.11c-1,0-2.06-.05-3.09-.05a29.58,29.58,0,0,1-4.79-.24,36.87,36.87,0,0,0-5.68-.19c-3.15,0-7.49.25-9.73-.19C160.88,302.49,161.59,302.23,161.59,302Zm55.9,4,4,0,.09,0-3,.12c2,.06,3.13.14,3.81.11,1.68-.08,3.16-.21,4.71-.31A59,59,0,0,0,217.49,306Zm-46.17-7,13.64.23.68-.12a11.12,11.12,0,0,0-1.84-.28c-2,0-4.16,0-6.25,0-1.25,0-2.47.06-3.72.06-.74,0-1.49,0-2.23-.07ZM210,316.46c1.41.13,2.35.32,3.25.46l9.85-.49a9.75,9.75,0,0,0,1.28-.13c2.13-.54-3.08-1.23-8.51-1.22-6,0-12-.06-18-.15a15.08,15.08,0,0,0-4.38.25,32.62,32.62,0,0,0-3.37,1.63c-.16.09.76.23,1.55.31,4,.36,8.56.13,12.87.12,3.32,0,3.75-.15,2.16-.45-.48-.09-.09-.23-.09-.35C207.81,316.45,209.36,316.4,210,316.46Zm31.85-3a14.79,14.79,0,0,0,4.32-.28,30.57,30.57,0,0,1,3.95-.7,32.53,32.53,0,0,1,3.7-.08c4.23.38,8.48.08,11.93.1-.8-.28-1.56-.52-2.2-.77s-1.28-.54-1.93-.82c-2.29,0-5.19.11-7.62,0-3.53-.11-5.88.09-8.75.19-4.3.15-8.77.25-13.61.38A16,16,0,0,0,230,312c-.21.09,0,.21.49.29a33.09,33.09,0,0,1,4.32.73C235.47,313.57,239.27,313.41,241.86,313.5Zm-79.05,2a26.37,26.37,0,0,0-2.73.13c-4.1.45-2.29,1.21,2.84,1.55,5.46.36,11.3.19,16.94.27,1.49,0,3,0,4.55,0l.51-.13-14.3-1.38-.88.07.88-.33C167.84,315.57,165.35,315.49,162.8,315.46Zm148.38,44.67-4.25,1.57,1.77.11c-5.26.15-2.65.83-7,1.07l4.17.24c-1.37.21-3,.37-2.2.71.62.27-2,.61-2.83.93-.35.13.36.29.17.43a2.21,2.21,0,0,1-1.46.48c-2.22.08-3.27.61-6.77.23-.3,0-1.15,0-1.65,0-5.73.19-11.18.12-16.86-.08-3.61-.12-7.74-.12-11.6-.1-4.57,0-9.09.16-13.67.19-5.28,0-10.59,0-15.88,0-1,0-2.21,0-3,.05a112,112,0,0,1-15.84-.22c-1.71-.17-4.86-.18-7.35-.27l.25.14a11,11,0,0,1-2.6.52,60.06,60.06,0,0,1-8.11-.14c-1.93-.18-5.07-.2-8-.31l.81-.6c-8.36-.1-5-.74-4.64-1.28-3.2.06-6.12.16-9,.15-4.47,0-9.21,0-13.11-.33-.87-.08-3.07,0-4.46,0s-2.57-.18-3.83-.27l2.25-.34c-2.67-.24-4-.56-1.55-1,.57-.1-.08-.27,0-.4.32-.36,1.44-.74,6.68-.82,2.73,0,5.93-.84,5-1.23-1.4-.56,2.64-1.07,8-1,3,0,5.95,0,8.9,0a9.14,9.14,0,0,0,1.73-.23,73.67,73.67,0,0,1,10.37-.56c.63,0,1.43,0,1.73.1,2.13.36,2.1.36,5.21,0-1.65-.35-3.32-.67-4.7-1-.53-.13-.41-.29-.58-.43,2,0,4,0,6,0,.69,0,1.36.12,2,.11l25-.18c.35,0,.68,0,1,0,0,0-.06-.08-.1-.08q-10-.06-19.94-.11c-2,0-4.09,0-6.13.05-4,0-5.21-.12-4.69-.69l-5.79.26c-1.2,0-2.46.1-3.73.11-5.84,0-11,.27-16.17.56-1.73.1-4.06.07-6.12.1-3.21,0-6.45.07-9.61.14-5,.11-7-.09-6-.61a13.17,13.17,0,0,0,1.67-1.22c2.42,0,4-.24,3.39-.62l17.46-.16-.37.07c.87,0,1.72.14,2.6.14h17.67c.78,0,1.59,0,2.33,0,3,.07,3.9.06,3.57-.2-.62-.47,2.77-.52,5.13-.64,6.22-.32,12.92-.47,19.6-.66,5.33-.15,11-.13,16.09-.37,1,0,2.27,0,3.41,0,4.7,0,9.18.27,14.05.11a16.1,16.1,0,0,1,2.51.19,4.27,4.27,0,0,1,1.25.57l3.34.09-1.06.18c2.72-.05,5-.13,7.3-.12s4.47.12,7,.19l.42-.28,5.46,0-1.21.09c.07.24.68.46,0,.61a34.71,34.71,0,0,1-4.06.22,8.07,8.07,0,0,0-2.7.22,35.61,35.61,0,0,1-3.72.39c-3.22.31-2.16.73-2.36,1.11-.07.14.1.27.19.46l2.67.18-4.43.25.26-.24c-.68,0-1.71,0-2,0-2.13.28-4.47.54-6.07.85-2.14.41,2.53.93,6.15,1,4.58.06,9.25,0,13.89,0,1.9,0,3.81,0,5.83.08l-9.3.17s0,.07,0,.11c1,0,2.06.05,3.09.05a29.59,29.59,0,0,1,4.79.24,36.68,36.68,0,0,0,5.68.19c3.15,0,7.49-.25,9.73.19.84.17.14.42.14.63Zm-64.73-4-4,0-.09,0,3-.12c-2-.06-3.13-.14-3.82-.11-1.68.08-3.16.21-4.71.32A59,59,0,0,0,246.46,356.14Zm46.17,7L279,362.91l-.68.12a11.11,11.11,0,0,0,1.84.28c2,0,4.16,0,6.25,0,1.25,0,2.47-.06,3.72-.06.74,0,1.49,0,2.23.07Zm-44.57-16.08c6,0,12,.06,18,.15a15.08,15.08,0,0,0,4.37-.25,32.82,32.82,0,0,0,3.37-1.63c.16-.09-.76-.23-1.55-.31-4-.36-8.56-.13-12.87-.12-3.32,0-3.75.15-2.16.45.48.09.09.23.09.35-1.14,0-2.69,0-3.34,0-1.41-.13-2.35-.32-3.25-.46l-9.85.49a9.62,9.62,0,0,0-1.28.13C237.42,346.38,242.63,347.07,248.06,347.07Zm-45.74,4.13c2.29,0,5.19-.11,7.62,0,3.53.11,5.88-.09,8.75-.19,4.3-.15,8.77-.25,13.61-.38a16,16,0,0,0,1.64-.47c.21-.09,0-.21-.49-.29a33,33,0,0,1-4.32-.73c-.67-.53-4.47-.36-7.05-.45a14.79,14.79,0,0,0-4.32.28,30.57,30.57,0,0,1-3.95.7,32.7,32.7,0,0,1-3.7.08c-4.23-.38-8.48-.08-11.93-.1.8.28,1.56.52,2.2.77S201.67,350.92,202.32,351.2Zm98.82-4.51a26.59,26.59,0,0,0,2.73-.13c4.11-.45,2.29-1.21-2.84-1.55-5.46-.36-11.3-.19-16.94-.27-1.49,0-3,0-4.55,0l-.51.13,14.3,1.38.88-.07-.88.33C296.1,346.58,298.6,346.65,301.14,346.69ZM417.08,450c2.83-1.87,5.23-4.53,5.09-8.13a17.2,17.2,0,0,0-1.78-5.76c-.65-1.58-1.22-3.94-2.55-5.14s-2.52-1-4-1.19c-2.55-.32-4.88-1.52-7.49-1.11a6,6,0,0,0-3.18,1.59c-6.34,1.26-8.09,10.58-5.61,16C401.05,453.88,410.83,454.1,417.08,450Z"/></svg>