<svg id="Layer_1" data-name="Layer 1" xmlns="http://www.w3.org/2000/svg" viewBox="0 0 512 512"><defs><style>.cls-1{fill:#dde5e8;}.cls-2{fill:#9bbdc6;}.cls-3{fill:#afc3c9;}.cls-4{fill:#48b753;}.cls-5{fill:#2e8234;}</style></defs><title>document-upload-flat</title><path class="cls-1" d="M422.4,153.6V448a64,64,0,0,1-64,64H76.8a64,64,0,0,1-64-64V64a64,64,0,0,1,64-64H268.93Z"/><path class="cls-2" d="M422.4,153.6H332.8a64,64,0,0,1-64-64V0h.13Z"/><path class="cls-3" d="M217.6,256a12.8,12.8,0,0,1-12.8,12.8H128A12.8,12.8,0,0,1,115.2,256h0A12.8,12.8,0,0,1,128,243.2h76.8A12.8,12.8,0,0,1,217.6,256Z"/><path class="cls-3" d="M294.4,307.2A12.8,12.8,0,0,1,281.6,320H128a12.8,12.8,0,0,1-12.8-12.8h0A12.8,12.8,0,0,1,128,294.4H281.6a12.8,12.8,0,0,1,12.8,12.8Z"/><path class="cls-3" d="M294,358.4a12.8,12.8,0,0,1-12.8,12.8H128a12.8,12.8,0,0,1-12.8-12.8h0A12.8,12.8,0,0,1,128,345.6H281.22A12.8,12.8,0,0,1,294,358.4Z"/><circle class="cls-4" cx="409.6" cy="422.4" r="89.6"/><path class="cls-5" d="M444.25,413.35l-25.6-25.6-.07-.06c-.28-.28-.57-.55-.88-.8l-.13-.1q-.38-.3-.79-.58l-.33-.21-.66-.39-.35-.19c-.31-.16-.62-.31-.95-.44h0l-.35-.13-.72-.25-.39-.11-.78-.19-.29-.06a12.74,12.74,0,0,0-2.29-.22h-.13q-.53,0-1,.05h-.16a12.75,12.75,0,0,0-2.29.45l-.18.06q-.46.14-.9.32l-.25.1c-.33.14-.66.29-1,.45l-.06,0c-.34.18-.67.38-1,.59l-.24.16q-.37.25-.73.53l-.25.2c-.3.25-.6.51-.88.79l-25.6,25.6a12.8,12.8,0,0,0,18.1,18.1l3.75-3.75V448a12.8,12.8,0,1,0,25.6,0V427.7l3.75,3.75a12.8,12.8,0,1,0,18.1-18.1Z"/></svg>